<svg width="787" height="405" viewBox="0 0 787 405" fill="none" xmlns="http://www.w3.org/2000/svg">
<g style="mix-blend-mode:multiply" opacity="0.3">
<path style="mix-blend-mode:multiply" opacity="0.06" d="M643.11 347.368C643.11 355.481 579.977 362.246 502.039 362.483C424.102 362.721 360.916 356.32 360.89 348.199C360.864 340.079 424.03 333.321 501.967 333.084C579.905 332.846 643.09 339.254 643.11 347.368Z" fill="url(#paint0_radial)"/>
<path style="mix-blend-mode:multiply" opacity="0.13" d="M637.22 347.445C637.22 355.132 576.723 361.526 502.039 361.75C427.355 361.973 366.8 355.928 366.781 348.248C366.761 340.568 427.283 334.167 501.967 333.943C576.651 333.72 637.2 339.764 637.22 347.445Z" fill="url(#paint1_radial)"/>
<path style="mix-blend-mode:multiply" opacity="0.19" d="M631.329 347.5C631.329 354.74 573.463 360.778 502.039 361.002C430.615 361.225 372.69 355.537 372.671 348.29C372.651 341.043 430.537 335.012 501.967 334.789C573.398 334.565 631.31 340.282 631.329 347.5Z" fill="url(#paint2_radial)"/>
<path style="mix-blend-mode:multiply" opacity="0.25" d="M625.439 347.598C625.439 354.405 570.21 360.086 502.033 360.296C433.856 360.506 378.581 355.139 378.561 348.332C378.541 341.526 433.797 335.844 501.967 335.62C570.138 335.397 625.426 340.792 625.439 347.598Z" fill="url(#paint3_radial)"/>
<path style="mix-blend-mode:multiply" opacity="0.31" d="M619.549 347.675C619.549 354.048 566.957 359.367 502.033 359.555C437.109 359.744 384.464 354.74 384.451 348.374C384.438 342.008 437.05 336.683 501.974 336.494C566.898 336.305 619.536 341.309 619.549 347.675Z" fill="url(#paint4_radial)"/>
<path style="mix-blend-mode:multiply" opacity="0.38" d="M613.659 347.752C613.659 353.685 563.697 358.647 502.033 358.836C440.369 359.024 390.355 354.356 390.341 348.416C390.328 342.476 440.303 337.521 501.974 337.34C563.644 337.158 613.646 341.819 613.659 347.752Z" fill="url(#paint5_radial)"/>
<path style="mix-blend-mode:multiply" opacity="0.44" d="M607.768 347.829C607.768 353.329 560.443 357.927 502.026 358.102C443.609 358.277 396.245 353.958 396.225 348.458C396.205 342.958 443.557 338.36 501.974 338.185C560.391 338.011 607.755 342.329 607.768 347.829Z" fill="url(#paint6_radial)"/>
<path style="mix-blend-mode:multiply" opacity="0.5" d="M601.878 347.906C601.878 352.973 557.19 357.207 502.026 357.375C446.863 357.543 402.128 353.567 402.089 348.5C402.05 343.434 446.784 339.199 501.948 339.038C557.111 338.877 601.865 342.847 601.878 347.906Z" fill="url(#paint7_radial)"/>
<path style="mix-blend-mode:multiply" opacity="0.56" d="M595.988 347.982C595.988 352.609 553.936 356.487 502.02 356.641C450.103 356.795 407.992 353.168 407.992 348.542C407.992 343.915 450.051 340.044 501.967 339.883C553.884 339.722 595.981 343.356 595.988 347.982Z" fill="url(#paint8_radial)"/>
<path style="mix-blend-mode:multiply" opacity="0.63" d="M590.098 348.059C590.098 352.252 550.676 355.746 502.02 355.914C453.363 356.082 413.896 352.776 413.896 348.583C413.896 344.39 453.317 340.896 501.98 340.736C550.644 340.575 590.091 343.873 590.098 348.059Z" fill="url(#paint9_radial)"/>
<path style="mix-blend-mode:multiply" opacity="0.69" d="M584.214 348.136C584.214 351.889 547.423 355.048 502.013 355.181C456.603 355.313 419.799 352.392 419.799 348.626C419.799 344.859 456.584 341.721 501.993 341.581C547.403 341.442 584.201 344.384 584.214 348.136Z" fill="url(#paint10_radial)"/>
<path style="mix-blend-mode:multiply" opacity="0.75" d="M578.324 348.199C578.324 351.519 544.17 354.314 502.013 354.44C459.857 354.566 425.702 351.987 425.702 348.668C425.702 345.348 459.85 342.56 502.007 342.434C544.163 342.308 578.311 344.901 578.324 348.199Z" fill="url(#paint11_radial)"/>
<path style="mix-blend-mode:multiply" opacity="0.81" d="M572.433 348.29C572.433 351.176 540.91 353.608 502.013 353.72C463.117 353.832 431.566 351.623 431.56 348.709C431.553 345.795 463.09 343.398 501.987 343.307C540.883 343.217 572.427 345.404 572.433 348.29Z" fill="url(#paint12_radial)"/>
<path style="mix-blend-mode:multiply" opacity="0.88" d="M566.543 348.367C566.543 350.813 537.683 352.888 502.007 352.993C466.331 353.098 437.457 351.197 437.45 348.751C437.444 346.305 466.311 344.237 501.987 344.132C537.663 344.027 566.537 345.921 566.543 348.367Z" fill="url(#paint13_radial)"/>
<path style="mix-blend-mode:multiply" opacity="0.94" d="M560.653 348.444C560.653 350.457 534.416 352.162 502.007 352.267C469.597 352.371 443.347 350.806 443.34 348.773C443.334 346.739 469.577 345.055 501.987 344.957C534.396 344.859 560.646 346.438 560.653 348.444Z" fill="url(#paint14_radial)"/>
<g style="mix-blend-mode:multiply" opacity="0.3">
<path d="M554.763 348.521C554.763 350.093 531.149 351.442 502.007 351.533C472.864 351.624 449.231 350.415 449.231 348.835C449.231 347.256 472.844 345.914 501.987 345.83C531.13 345.746 554.756 346.948 554.763 348.521Z" fill="#05177C"/>
</g>
</g>
<path fill-rule="evenodd" clip-rule="evenodd" d="M377.905 126.173C385.656 136.925 354.54 134.634 344.11 149.549C333.681 164.465 330.959 167.758 331.158 194.799C331.357 221.839 340.164 257.665 415.978 297.018C470.314 329.047 522.198 322.438 559.773 306.388C598.595 289.806 637.171 243.279 652.034 220.441L692.265 246.622C673.394 275.62 637.012 313.625 587.645 334.711C537.032 356.329 476.383 360.494 407.994 320.181C356.376 289.755 320.914 253.673 316.637 207.775C312.36 161.877 330.434 141.662 343.847 128.833C357.26 116.003 370.154 115.421 377.905 126.173Z" fill="url(#paint15_linear)"/>
<mask id="mask0" mask-type="alpha" maskUnits="userSpaceOnUse" x="315" y="118" width="378" height="233">
<path fill-rule="evenodd" clip-rule="evenodd" d="M377.905 126.173C385.656 136.925 354.54 134.634 344.11 149.549C333.681 164.465 330.959 167.758 331.158 194.799C331.357 221.839 340.164 257.665 415.978 297.018C470.314 329.047 522.198 322.438 559.773 306.388C598.595 289.806 637.171 243.279 652.034 220.441L692.265 246.622C673.394 275.62 637.012 313.625 587.645 334.711C537.032 356.329 476.383 360.494 407.994 320.181C356.376 289.755 320.914 253.673 316.637 207.775C312.36 161.877 330.434 141.662 343.847 128.833C357.26 116.003 370.154 115.421 377.905 126.173Z" fill="url(#paint16_linear)"/>
</mask>
<g mask="url(#mask0)">
<g filter="url(#filter0_f)">
<ellipse cx="412.309" cy="319.94" rx="5.10882" ry="83.7649" transform="rotate(117.239 412.309 319.94)" fill="#13679A"/>
</g>
<g filter="url(#filter1_f)">
<ellipse cx="378.206" cy="299.374" rx="5.5091" ry="70.4754" transform="rotate(133.385 378.206 299.374)" fill="#13679A"/>
</g>
<g filter="url(#filter2_f)">
<ellipse cx="321.53" cy="229.086" rx="5.5091" ry="42.0982" transform="rotate(149.566 321.53 229.086)" fill="#13679A"/>
</g>
<g filter="url(#filter3_f)">
<path d="M644.747 290.025C623.685 309.757 604.274 323.258 601.391 320.181C598.509 317.104 612.677 302.939 628.672 284.484C658.135 239.806 657.121 234.168 677.664 248.726C680.546 251.803 665.809 270.293 644.747 290.025Z" fill="#82CDFB"/>
<path d="M503.105 352.584C483.753 351.898 468.169 348.391 468.298 344.75C468.427 341.109 516.037 339.901 535.389 340.587C554.741 341.272 538.507 343.591 538.378 347.232C538.249 350.873 522.457 353.269 503.105 352.584Z" fill="#82CDFB"/>
<path d="M543.105 346.944C529.169 348.695 517.521 347.323 517.089 343.88C516.656 340.437 541.909 336.695 555.845 334.944C569.78 333.194 567.122 334.097 567.555 337.54C567.987 340.983 557.041 345.193 543.105 346.944Z" fill="#82CDFB"/>
<path d="M570.994 336.098C557.641 340.454 546.136 341.898 545.297 339.325C544.457 336.752 567.759 329.531 581.745 321.13C595.098 316.775 592.812 320.979 593.652 323.553C594.491 326.126 584.347 331.743 570.994 336.098Z" fill="#82CDFB"/>
<path d="M611.262 317.28C593.022 327.887 576.481 333.47 574.318 329.75C572.154 326.03 585.314 318.864 603.554 308.257C621.795 297.649 638.21 287.618 640.373 291.338C642.537 295.058 629.503 306.673 611.262 317.28Z" fill="#82CDFB"/>
</g>
<g filter="url(#filter4_f)">
<path d="M534.856 355.102C528.597 355.451 522.537 355.717 516.792 355.901C489.108 356.791 436.139 336.58 435.999 334.064C435.872 331.792 424.635 337.766 448.158 335.611C496.939 349.058 529.351 344.955 538.53 344.443C550.323 343.784 578.977 333.53 588.154 329.921C613.238 320.056 660.028 274.835 644.596 299.661C644.718 301.849 585.412 350.85 563.284 352.975C554.687 353.8 545.047 354.532 534.856 355.102Z" fill="#13679A"/>
</g>
<g filter="url(#filter5_f)">
<path d="M341.334 235.855C345.517 244.437 353.958 252.296 355.83 258.833C429.898 296.527 495.457 323.179 493.339 324.212C448.402 327.233 368.381 281.67 344.303 254.86C340.857 249.73 339.486 248.58 335.996 241.419C334.211 237.757 332.07 230.307 330.673 226.892C324.837 212.618 325.82 196.613 328.942 195.092C331.327 193.929 326.588 208 332.204 216.313C335.696 221.482 337.79 228.583 341.334 235.855Z" fill="#98D8FF"/>
</g>
</g>
<path d="M672.55 184.982L653.646 217.886C652.357 224.257 656.645 235.838 667.513 242.629C676.208 248.062 688.063 246.958 692.903 245.727L715.325 218.127C711.431 219.719 700.138 221.073 686.113 213.745C672.088 206.417 671.227 191.516 672.55 184.982Z" fill="url(#paint17_linear)"/>
<ellipse cx="695.819" cy="198.718" rx="27.4377" ry="18.7084" transform="rotate(34.1397 695.819 198.718)" fill="url(#paint18_linear)"/>
<path d="M688.09 198.745C685.169 197.481 683.57 194.189 683.136 192.701L714.303 138.949L725.517 144.581L695.116 198.908C693.991 199.38 691.011 200.009 688.09 198.745Z" fill="url(#paint19_linear)"/>
<path d="M702.315 208.105C699.534 206.556 698.272 203.12 697.989 201.596L734.363 151.225L744.959 157.949L709.289 208.969C708.123 209.327 705.095 209.654 702.315 208.105Z" fill="url(#paint20_linear)"/>
<path d="M690.449 209.459C687.619 208.003 686.244 204.611 685.91 203.097L720.599 151.55L731.411 157.919L697.448 210.092C696.294 210.488 693.279 210.916 690.449 209.459Z" fill="url(#paint21_linear)"/>
<path fill-rule="evenodd" clip-rule="evenodd" d="M332.332 176.018C343.164 183.657 313 191.631 308 209.131C303 226.631 301.5 230.631 310.5 256.131C319.5 281.63 339.5 312.631 424 325.131C485.807 337.704 532.705 314.549 563 287.131C594.299 258.803 615.608 202.244 622.217 175.81L668.783 187.451C660.392 221.017 638.381 268.802 598.58 304.825C557.774 341.756 501.793 365.457 424 349.631C365.284 337.686 320 315.13 301 273.131C282 231.131 292.5 206.131 301 189.631C309.5 173.13 321.5 168.378 332.332 176.018Z" fill="url(#paint22_linear)"/>
<mask id="mask1" mask-type="alpha" maskUnits="userSpaceOnUse" x="290" y="172" width="379" height="183">
<path fill-rule="evenodd" clip-rule="evenodd" d="M332.332 176.018C343.164 183.657 313 191.631 308 209.131C303 226.631 301.5 230.631 310.5 256.131C319.5 281.63 339.5 312.631 424 325.131C485.807 337.704 532.705 314.549 563 287.131C594.299 258.803 615.608 202.244 622.217 175.81L668.783 187.451C660.392 221.017 638.381 268.802 598.58 304.825C557.774 341.756 501.793 365.457 424 349.631C365.284 337.686 320 315.13 301 273.131C282 231.131 292.5 206.131 301 189.631C309.5 173.13 321.5 168.378 332.332 176.018Z" fill="url(#paint23_linear)"/>
</mask>
<g mask="url(#mask1)">
<g filter="url(#filter6_f)">
<ellipse cx="428.001" cy="347.996" rx="5.10882" ry="83.7649" transform="rotate(98.2206 428.001 347.996)" fill="#13679A"/>
</g>
<g filter="url(#filter7_f)">
<ellipse cx="389.058" cy="339.667" rx="5.50909" ry="70.4754" transform="rotate(114.367 389.058 339.667)" fill="#13679A"/>
</g>
<g filter="url(#filter8_f)">
<ellipse cx="312.57" cy="291.684" rx="5.50909" ry="42.0982" transform="rotate(130.548 312.57 291.684)" fill="#13679A"/>
</g>
<g filter="url(#filter9_f)">
<path d="M638.003 243.97C624.52 269.488 610.569 288.578 606.841 286.609C603.113 284.639 611.891 266.63 621 243.97C634.296 192.13 631.5 187.13 655.665 194.199C659.393 196.168 651.485 218.452 638.003 243.97Z" fill="#82CDFB"/>
<path d="M524.478 349.271C505.959 354.929 490.083 356.692 489.019 353.207C487.954 349.723 532.572 333.066 551.091 327.408C569.61 321.75 555.018 329.233 556.082 332.717C557.147 336.201 542.997 343.613 524.478 349.271Z" fill="#82CDFB"/>
<path d="M560.457 330.904C547.853 337.101 536.394 339.599 534.863 336.486C533.332 333.372 555.987 321.604 568.591 315.408C581.196 309.212 578.977 310.932 580.508 314.046C582.039 317.16 573.062 324.708 560.457 330.904Z" fill="#82CDFB"/>
<path d="M583.29 311.562C572.085 320.031 561.678 325.146 560.046 322.987C558.414 320.827 578.091 306.408 588.576 293.908C599.781 285.439 598.99 290.159 600.622 292.318C602.255 294.477 594.494 303.093 583.29 311.562Z" fill="#82CDFB"/>
<path d="M615.228 280.649C601.439 296.621 587.62 307.29 584.363 304.478C581.106 301.666 591.211 290.602 605 274.63C618.789 258.658 631.038 243.825 634.296 246.637C637.553 249.449 629.016 264.677 615.228 280.649Z" fill="#82CDFB"/>
</g>
<g filter="url(#filter10_f)">
<path d="M555.317 341.305C549.513 343.675 543.871 345.901 538.5 347.947C512.616 357.81 455.953 355.963 455 353.63C454.14 351.523 445.464 360.833 467 351.13C517.5 347.947 546.806 333.506 555.317 330.03C566.251 325.565 590 306.532 597.5 300.13C618 282.63 647.5 224.63 641 253.13C641.829 255.159 601.728 320.811 581.5 330.03C573.642 333.612 564.766 337.445 555.317 341.305Z" fill="#13679A"/>
</g>
<g filter="url(#filter11_f)">
<path d="M333.5 291.63C340.25 298.38 350.792 303.06 354.692 308.63C437 320.13 507.666 323.964 506 325.63C464.5 343.13 374 326.13 342.5 308.63C337.57 304.902 335.899 304.263 330.266 298.63C327.385 295.749 322.933 289.404 320.5 286.63C310.331 275.037 306.045 259.585 308.5 257.13C310.376 255.254 310.481 270.101 318.5 276.13C323.486 279.879 327.78 285.91 333.5 291.63Z" fill="#98D8FF"/>
</g>
</g>
<g style="mix-blend-mode:multiply" opacity="0.3">
<path style="mix-blend-mode:multiply" opacity="0.06" d="M500.58 315.736C500.58 322.081 447.846 327.371 382.747 327.557C317.648 327.743 264.871 322.737 264.849 316.386C264.827 310.035 317.588 304.75 382.687 304.565C447.786 304.379 500.563 309.39 500.58 315.736Z" fill="url(#paint24_radial)"/>
<path style="mix-blend-mode:multiply" opacity="0.13" d="M495.66 315.796C495.66 321.808 445.129 326.809 382.747 326.983C320.366 327.158 269.785 322.431 269.769 316.424C269.752 310.418 320.305 305.412 382.687 305.237C445.069 305.062 495.644 309.79 495.66 315.796Z" fill="url(#paint25_radial)"/>
<path style="mix-blend-mode:multiply" opacity="0.19" d="M490.74 315.84C490.74 321.502 442.406 326.224 382.747 326.399C323.089 326.574 274.705 322.125 274.689 316.457C274.672 310.79 323.023 306.073 382.687 305.898C442.351 305.723 490.724 310.194 490.74 315.84Z" fill="url(#paint26_radial)"/>
<path style="mix-blend-mode:multiply" opacity="0.25" d="M485.82 315.916C485.82 321.239 439.688 325.683 382.742 325.847C325.795 326.011 279.625 321.813 279.609 316.49C279.592 311.167 325.746 306.723 382.687 306.548C439.628 306.374 485.809 310.593 485.82 315.916Z" fill="url(#paint27_radial)"/>
<path style="mix-blend-mode:multiply" opacity="0.31" d="M480.9 315.976C480.9 320.961 436.971 325.12 382.742 325.267C328.513 325.415 284.54 321.502 284.529 316.523C284.518 311.544 328.463 307.379 382.693 307.232C436.922 307.084 480.889 310.997 480.9 315.976Z" fill="url(#paint28_radial)"/>
<path style="mix-blend-mode:multiply" opacity="0.38" d="M475.98 316.036C475.98 320.676 434.248 324.557 382.742 324.704C331.236 324.852 289.46 321.201 289.449 316.556C289.438 311.91 331.181 308.035 382.693 307.893C434.204 307.751 475.969 311.396 475.98 316.036Z" fill="url(#paint29_radial)"/>
<path style="mix-blend-mode:multiply" opacity="0.44" d="M471.06 316.096C471.06 320.398 431.531 323.994 382.736 324.13C333.942 324.267 294.38 320.89 294.363 316.588C294.347 312.287 333.898 308.691 382.693 308.554C431.487 308.418 471.049 311.795 471.06 316.096Z" fill="url(#paint30_radial)"/>
<path style="mix-blend-mode:multiply" opacity="0.5" d="M466.14 316.156C466.14 320.119 428.813 323.431 382.736 323.562C336.66 323.693 299.294 320.583 299.261 316.621C299.228 312.659 336.594 309.347 382.671 309.221C428.747 309.095 466.129 312.2 466.14 316.156Z" fill="url(#paint31_radial)"/>
<path style="mix-blend-mode:multiply" opacity="0.56" d="M461.22 316.217C461.22 319.835 426.096 322.868 382.731 322.988C339.366 323.109 304.192 320.272 304.192 316.654C304.192 313.036 339.322 310.008 382.687 309.882C426.052 309.757 461.215 312.599 461.22 316.217Z" fill="url(#paint32_radial)"/>
<path style="mix-blend-mode:multiply" opacity="0.63" d="M456.3 316.277C456.3 319.556 423.373 322.289 382.731 322.42C342.089 322.551 309.123 319.966 309.123 316.687C309.123 313.407 342.051 310.675 382.698 310.549C423.345 310.423 456.295 313.003 456.3 316.277Z" fill="url(#paint33_radial)"/>
<path style="mix-blend-mode:multiply" opacity="0.69" d="M451.386 316.337C451.386 319.272 420.655 321.742 382.725 321.846C344.796 321.95 314.054 319.665 314.054 316.72C314.054 313.774 344.779 311.32 382.709 311.211C420.639 311.101 451.375 313.402 451.386 316.337Z" fill="url(#paint34_radial)"/>
<path style="mix-blend-mode:multiply" opacity="0.75" d="M446.466 316.386C446.466 318.982 417.938 321.168 382.725 321.267C347.513 321.365 318.985 319.348 318.985 316.752C318.985 314.156 347.508 311.976 382.72 311.877C417.932 311.779 446.455 313.806 446.466 316.386Z" fill="url(#paint35_radial)"/>
<path style="mix-blend-mode:multiply" opacity="0.81" d="M441.546 316.457C441.546 318.714 415.215 320.616 382.725 320.704C350.236 320.791 323.883 319.064 323.878 316.785C323.872 314.506 350.214 312.632 382.703 312.56C415.193 312.489 441.54 314.2 441.546 316.457Z" fill="url(#paint36_radial)"/>
<path style="mix-blend-mode:multiply" opacity="0.88" d="M436.626 316.517C436.626 318.43 412.519 320.053 382.72 320.135C352.921 320.217 328.803 318.731 328.797 316.818C328.792 314.905 352.904 313.287 382.703 313.205C412.503 313.123 436.62 314.604 436.626 316.517Z" fill="url(#paint37_radial)"/>
<path style="mix-blend-mode:multiply" opacity="0.94" d="M431.706 316.578C431.706 318.152 409.791 319.485 382.72 319.567C355.649 319.649 333.723 318.425 333.717 316.834C333.712 315.244 355.633 313.927 382.703 313.85C409.774 313.774 431.7 315.009 431.706 316.578Z" fill="url(#paint38_radial)"/>
<g style="mix-blend-mode:multiply" opacity="0.3">
<path d="M426.786 316.638C426.786 317.867 407.062 318.922 382.72 318.993C358.378 319.064 338.637 318.119 338.637 316.884C338.637 315.648 358.361 314.599 382.703 314.534C407.046 314.468 426.78 315.408 426.786 316.638Z" fill="#05177C"/>
</g>
</g>
<path d="M497.934 180.398C497.934 244.184 446.093 295.891 382.156 295.891C318.218 295.891 266.388 244.184 266.388 180.398C266.388 116.612 318.212 64.9041 382.156 64.9041C446.099 64.9041 497.934 116.612 497.934 180.398Z" fill="url(#paint39_radial)"/>
<g style="mix-blend-mode:screen">
<path d="M493.014 212.102C491.485 212.135 489.496 212.856 489.469 213.375C489.442 213.895 487.332 214.84 486.636 215.119C485.941 215.398 484.593 217.545 484.291 218.25C483.99 218.956 482.281 218.748 481.64 219.037C480.999 219.327 479.7 220.366 479.689 221.005C479.678 221.644 479.333 221.552 478.906 220.841L478.068 221.721L477.081 222.814C476.533 224.596 474.627 226.837 473.975 227.028C473.323 227.219 473.213 230.334 473.213 231.586C473.213 232.837 473.701 234.401 474.309 235.04L474.441 236.035L474.66 238.03C474.309 239.56 475.482 240.937 475.827 241.21C476.172 241.484 479.032 240.691 480.128 240.429C480.67 240.272 481.196 240.06 481.695 239.795C486.867 231.144 490.881 221.854 493.633 212.162C493.43 212.116 493.222 212.095 493.014 212.102ZM301.486 215.064C301.327 215.376 303.398 217.502 304.225 218.218C305.052 218.934 306.729 222.421 307.08 223.563C307.321 224.697 307.331 225.868 307.107 227.006C306.997 227.443 307.496 228.405 307.584 228.81C307.671 229.214 306.866 232.635 307.167 233.985C307.469 235.335 305.562 239.625 305.6 241.741C305.639 243.856 306.608 246.632 306.997 246.424C307.386 246.217 307.545 248.354 306.871 248.61C306.197 248.867 305.469 250.556 305.83 250.649C306.192 250.742 305.83 252.398 305.907 253.07C305.984 253.742 306.57 258.142 306.691 259.235C306.811 260.328 308.384 263.012 308.718 263.913C309.052 264.815 309.381 266.542 309.512 266.805C309.599 266.994 309.699 267.177 309.813 267.351C310.384 267.55 310.934 267.803 311.457 268.105C311.835 268.379 314.312 268.209 315.122 268.04C315.933 267.87 315.188 267.138 314.827 266.739C314.465 266.34 314.136 264.378 313.731 264.176C313.325 263.973 313.134 261.492 313.501 260.94C313.868 260.388 315.358 259.508 315.522 259.049C315.687 258.59 315.72 256.415 315.325 256.114C314.931 255.814 315.446 253.185 315.139 251.879C314.832 250.572 317.418 249.381 317.571 248.343C317.725 247.304 320.508 246.189 321.144 245.676C321.779 245.162 322.322 242.189 322.02 241.544C321.719 240.899 323.056 240.391 323.664 240.391C324.272 240.391 324.919 239.964 325.149 239.964C325.379 239.964 326.08 238.647 326.458 238.325C326.836 238.002 327.631 234.887 328.321 234.373C329.011 233.859 329.586 231.963 329.586 231.406C329.586 230.848 330.644 229.219 330.995 228.7C331.345 228.181 333.942 227.011 334.413 226.826C334.884 226.64 335.586 222.453 335.767 220.961C335.947 219.469 336.731 217.458 336.786 216.972C336.84 216.485 337.673 216.053 337.821 215.879C337.969 215.704 338.605 213.807 338.999 213.37C339.394 212.933 340.84 211.113 340.873 210.703C340.983 209.92 341.148 209.146 341.366 208.386V207.369V205.729C340.906 204.472 339.509 202.898 339.174 203.248C338.84 203.598 337.208 202.155 336.386 201.822C335.278 201.518 334.141 201.335 332.994 201.275C332.446 201.275 330.682 199.81 329.877 199.554C329.071 199.297 327.028 198.92 326.65 198.679C326.272 198.439 325.773 195.4 324.119 194.405C322.464 193.411 319.582 191.093 319.259 190.235C318.936 189.377 315.774 187.601 314.783 187.06C313.791 186.519 312.328 186.393 312.147 186.59C311.967 186.787 310.728 184.95 310.109 184.404C309.49 183.857 307.573 183.464 307.485 183.923C307.397 184.382 306.143 184.147 305.841 183.748C305.54 183.349 304.57 183.912 304.11 184.065C303.65 184.218 302.072 186.606 301.371 187.191C300.669 187.776 299.776 186.644 299.3 186.442C298.823 186.24 297.004 186.808 296.505 187.158C296.007 187.508 294.862 184.617 295.136 183.283C295.41 181.95 293.936 179.299 292.802 179.228C291.668 179.157 291.323 176.375 291.547 175.353C291.772 174.331 289.509 173.686 288.945 173.615C288.38 173.544 286.961 174.987 286.72 175.681C286.479 176.375 281.346 174.735 281.959 171.664C282.573 168.592 284.984 165.417 285.592 165.04C286.2 164.663 289.493 164.493 290.221 164.898C290.458 165.044 290.738 165.105 291.014 165.07C291.29 165.035 291.546 164.907 291.739 164.707C291.859 164.515 294.55 164.739 295.36 165.067C296.171 165.395 297.311 168.489 298.138 168.866C298.965 169.243 299.278 166.865 299.415 166.286C299.552 165.707 299.004 164.231 298.807 163.821C298.609 163.411 300.143 159.646 301.409 159.006C302.675 158.367 303.984 156.274 303.885 155.902C303.787 155.53 304.888 155.246 305.184 155.082C305.48 154.918 305.14 151.89 305.633 151.229C306.126 150.568 308.493 149.185 309.238 148.868C309.983 148.551 310.548 146.633 310.285 146.299C310.022 145.966 312.213 144.086 313.353 143.725C314.492 143.364 315.49 144.381 315.205 144.539C315.435 144.414 317.013 143.594 317.681 143.157C318.47 142.61 317.681 141.217 317.188 140.79C316.695 140.364 316.991 138.73 317.593 138.604C318.196 138.478 318.738 137.03 318.574 136.724C318.41 136.418 321.094 136.97 322.119 136.21C323.143 135.451 322.409 138.025 321.659 139.058C320.908 140.091 322.207 141.069 322.689 140.878C323.171 140.686 323.675 141.424 323.784 141.714C323.894 142.004 324.913 141.413 325.587 141.714C326.261 142.014 326.683 140.79 326.721 140.233C326.759 139.675 325.077 138.506 324.842 137.833C324.606 137.161 324.469 133.243 324.442 132.434C324.415 131.625 323.346 130.33 322.974 130.559C322.601 130.789 321.916 128.471 321.33 127.974C320.866 127.419 320.628 126.712 320.662 125.99C320.662 125.618 318.76 123.607 318.295 122.678C317.829 121.749 317.199 121.94 317.144 122.361C317.089 122.782 315.758 122.848 315.205 122.798C314.651 122.749 314.202 120.612 314.202 119.82C314.202 119.027 311.72 118.885 311.309 118.235C310.898 117.584 309.288 117.896 309.025 117.448C308.762 117 307.326 116.59 307.052 116.754C306.778 116.918 306.899 122.678 306.625 124.23C306.351 125.782 305.03 127.149 304.548 127.111C304.066 127.072 304.357 128.204 304.685 128.116C305.014 128.029 303.754 129.81 303.59 130.991C303.425 132.171 302.22 130.936 302.028 129.87C301.836 128.805 300.658 127.351 300.434 127.717C300.209 128.083 299.404 127.28 299.053 127.509C298.702 127.739 296.489 126.225 295.596 125.733C294.703 125.241 294.199 122.52 293.689 122.285C293.18 122.05 293.607 121.711 293.585 121.29C293.563 120.869 295.317 119.284 295.848 118.656C296.379 118.027 298.292 115.529 299.053 114.999C299.815 114.469 300.357 113.076 300.237 112.775C300.116 112.474 303.491 111.469 304.411 111.135C305.332 110.802 306.121 108.266 306.241 107.534C306.362 106.801 305.693 105.413 305.244 105.233C304.795 105.052 306.521 104.987 307.085 105.271C307.649 105.555 309.403 104.724 310.093 105.118C310.783 105.511 312.175 106.309 313.183 106.943L312.969 108.818L312.558 111.993C309.89 113.086 309.118 115.005 310.049 114.961C310.98 114.917 315.248 116.803 316.454 117.694C317.659 118.585 318.037 116.448 318.393 115.743C318.749 115.038 318.634 113.01 318.349 112.611C318.065 112.212 319.741 112.349 320.212 112.797C320.683 113.245 321.237 112.332 321.604 112.174C321.971 112.015 322.152 110.261 322.349 109.911C322.546 109.561 321.549 109.201 321.516 108.769C321.483 108.337 319.566 107.495 318.947 107.195C318.328 106.894 318.18 105.555 318.486 105.353C318.793 105.151 318.273 103.446 317.939 102.894C317.604 102.342 315.627 101.888 314.964 101.888C314.301 101.888 313.61 100.341 313.221 100.117C312.055 99.8005 310.842 99.6932 309.638 99.8002C309.003 99.986 307.836 97.9857 306.762 98.5978C305.688 99.21 304.57 97.8764 304.105 97.6141C303.639 97.3517 301.108 100.041 301.124 101.926C301.141 103.812 302.105 105.648 302.499 105.703C302.894 105.757 302.406 107.463 301.951 107.954C301.497 108.446 300.461 107.441 300.856 107.009C301.25 106.577 299.76 104.599 299.25 103.795C298.883 103.216 297.607 102.702 296.692 102.347C296.144 102.894 295.667 103.478 295.169 104.052C295.458 104.764 295.547 105.54 295.426 106.298C295.054 107.452 294.089 107.627 294.029 107.129C294.029 106.905 293.514 106.741 292.933 106.665C278.525 123.863 269.462 144.882 266.854 167.144C267.414 167.707 267.874 168.362 268.213 169.079C268.536 170.095 270.306 170.768 270.64 170.97C270.974 171.172 271.084 169.024 270.843 168.461C270.602 167.898 271.276 167.57 271.259 167.98C271.243 168.39 272.963 170.281 273.511 170.97C274.059 171.658 274.64 176.069 275.155 176.982C275.67 177.894 280.787 179.895 282.436 180.261C284.085 180.627 286.145 182.447 286.474 182.994C286.803 183.54 288.972 183.792 289.443 183.999C289.914 184.207 291.032 185.693 291.498 186C291.925 186.368 292.218 186.868 292.331 187.421C292.331 187.656 295.212 188.743 295.914 189.508C296.615 190.273 297.766 190.055 297.985 189.749C298.204 189.443 298.768 191.279 299.081 191.935C299.393 192.591 299.448 194.121 299.217 194.405C298.987 194.689 298.582 197.542 298.089 198.122C297.596 198.701 296.577 202.909 296.796 203.735C297.015 204.56 298.374 206.281 298.987 206.538C299.099 206.603 299.19 206.699 299.249 206.815C299.308 206.93 299.332 207.06 299.319 207.188C299.305 207.317 299.255 207.439 299.174 207.54C299.093 207.641 298.984 207.716 298.861 207.757C298.401 207.812 298.615 211.829 299.7 212.424C300.784 213.02 301.65 214.758 301.486 215.064ZM315.139 144.561C315.106 144.6 315.101 144.605 315.15 144.589L315.139 144.561ZM307.211 95.7559C308.603 95.5263 310.909 95.1437 311.046 94.7502C311.186 94.2166 311.138 93.6511 310.909 93.1489C311.134 93.1489 311.391 93.1489 311.583 93.1489C312.131 93.1489 312.991 90.2687 313.545 89.5964C314.098 88.9242 317.27 87.9568 318.032 87.4759C318.793 86.9949 320.442 85.4264 321.072 85.2406C321.702 85.0547 322.639 83.6009 322.497 83.273C322.354 82.9451 324.645 81.5897 325.521 81.2235C326.398 80.8574 326.842 79.8408 326.513 79.8025C326.305 79.7697 321.456 82.3002 317.024 84.8088C311.98 88.2589 307.215 92.0982 302.773 96.2915C304.159 96.1876 306.307 95.9362 307.211 95.7832V95.7559ZM391.103 239.8C392.587 238.931 395.113 235.204 395.935 234.428C396.757 233.652 397.37 230.826 397.546 230.209C397.721 229.591 398.976 228.596 399.447 228.465C399.918 228.334 401.425 222.093 402.734 220.732C404.043 219.371 405.605 212.774 405.441 210.391C405.276 208.008 406.29 203.51 406.597 202.423C406.903 201.335 408.569 199.406 409.089 199.007C409.61 198.608 412.782 193.897 413.818 192.214C414.853 190.53 415.817 186.819 415.62 185.95C415.423 185.081 413.204 184.475 412.788 184.901C412.371 185.327 410.284 185.688 409.615 185.688C408.947 185.688 407.424 182.114 406.465 181.376C405.506 180.638 404.663 176.555 404.115 175.779C403.32 174.674 402.466 173.612 401.556 172.599C401.074 172.156 401.008 169.981 400.882 169.385C400.756 168.789 401.808 169.778 401.978 170.636C402.148 171.495 404.613 175.009 405.369 176.162C406.125 177.315 408.136 181.081 408.657 182.245C409.177 183.409 413.631 182.819 415.078 182.141C416.524 181.463 418.327 180.299 418.398 179.9C418.469 179.501 420.77 178.441 421.406 177.927C422.041 177.413 422.617 174.741 423.049 174.315C423.482 173.888 422.715 171.331 422.233 170.571C421.751 169.811 419.439 169.205 418.979 169.478C418.518 169.751 417.51 167.767 417.154 167.029C416.798 166.292 415.028 165.39 414.831 164.881C414.634 164.373 415.319 163.575 415.598 163.4C415.878 163.225 419.138 165.51 420.08 166.641C420.914 167.772 421.647 168.974 422.271 170.232C422.436 170.593 425.011 170.779 425.592 170.358C426.172 169.937 426.824 170.046 427.049 170.593L427.86 170.451L430.687 170.013C432.024 171.456 432.407 172.708 432.38 172.997C432.613 173.68 433.102 174.246 433.744 174.577C434.292 174.703 434.697 176.544 434.84 177.004C434.982 177.463 436.615 180.217 436.938 181.376C437.261 182.534 438.648 184.803 438.976 185.409C439.314 186.324 439.515 187.284 439.573 188.257C439.573 188.738 440.604 189.683 441.25 189.639C441.896 189.596 443.184 185.557 443.491 184.054C443.798 182.551 444.828 181.321 445.134 181.321C445.441 181.321 445.682 180.474 445.682 180.152C445.682 179.829 447.326 179.867 447.468 179.458C447.611 179.048 448.088 176.381 448.674 175.976C449.751 175.218 450.884 174.544 452.065 173.959C452.783 173.713 454.64 175.309 455.062 176.058C455.484 176.807 455.846 178.698 455.687 179.009C455.528 179.321 456.667 180.96 457.664 180.928C458.662 180.895 458.957 182.179 458.985 182.644C459.012 183.108 460.333 184.425 460.59 185.021C460.801 185.863 460.801 186.743 460.59 187.584C460.409 187.951 460.53 190.066 460.716 190.661C460.902 191.257 463.954 194.329 465.099 195.263C466.244 196.198 466.781 193.361 466.195 192.476C465.609 191.591 463.625 189.541 463.16 188.934C462.694 188.328 462.612 185.852 462.787 185.169C462.962 184.486 464.524 185.551 465.176 186.049C465.828 186.546 466.677 187.656 466.699 188.027C466.721 188.399 470.803 186.114 470.94 183.655C471.077 181.195 472.441 178.397 472.583 177.747C472.726 177.096 472.178 176.195 471.838 176.173C471.498 176.151 472.441 174.287 473.586 174.315C474.731 174.342 477.481 171.287 478.133 170.079C478.697 169.177 479.411 168.377 480.243 167.712C480.798 166.358 481.211 164.949 481.475 163.51C481.629 162.324 480.801 160.471 480.703 159.853C480.604 159.236 479.607 157.831 479.361 157.383C479.114 156.935 478.873 155.279 479.032 154.967C479.191 154.656 480.21 154.328 480.314 154.055C480.418 153.781 481.607 152.519 481.525 151.967C481.443 151.415 482.259 152.683 482.796 153.142C483.333 153.601 483.919 156.547 484.593 156.875C485.267 157.203 487.962 153.749 487.628 151.519C487.294 149.289 488.412 146.441 489.064 146.185C489.557 145.993 490.833 144.19 491.699 142.905C485.786 125.926 475.997 110.55 463.105 97.9912C462.958 98.0132 462.808 98.0132 462.661 97.9912L461.669 97.7726C460.026 97.4228 459.034 95.6466 459.319 95.2367C459.416 94.985 459.416 94.7067 459.319 94.4551C458.399 93.6189 457.445 92.8155 456.476 92.0012C455.698 92.0012 454.865 92.0012 454.383 92.0012C453.386 91.9684 451.221 91.2579 450.838 90.8753C450.454 90.4927 449.139 91.2142 449.068 91.9301C448.997 92.6461 446.707 92.9849 446.504 93.5315C446.301 94.078 445.102 94.1163 444.861 93.8047C444.619 93.4932 442.527 94.548 441.48 94.701C440.286 94.9837 439.124 95.3865 438.012 95.9034C437.302 96.3437 436.701 96.9377 436.253 97.6414C436.078 98.0896 434.73 98.8438 434.303 99.0132C433.876 99.1826 433.952 101.139 434.511 101.412C435.07 101.686 433.476 101.177 432.774 100.817C432.073 100.456 431.3 101.598 431.081 102.019C430.862 102.44 430.21 101.773 430.238 101.199C430.265 100.625 428.501 100.139 428.271 100.604C428.041 101.068 426.819 100.451 426.315 100.188C425.811 99.9259 423.625 102.194 422.819 103.008C422.014 103.823 418.135 104.451 417.412 104.145C416.689 103.839 415.976 105.856 416.595 105.998C417.214 106.14 415.017 105.889 413.823 105.998C411.879 106.431 410.012 107.159 408.29 108.157C408.162 108.27 408.006 108.345 407.838 108.373C407.67 108.402 407.498 108.383 407.34 108.319C407.183 108.254 407.046 108.147 406.947 108.009C406.847 107.871 406.789 107.709 406.777 107.539C406.777 107.064 405.446 106.621 405.046 106.49C404.646 106.359 403.874 109.097 403.189 109.627C402.504 110.157 401.66 107.484 400.027 107.047C398.395 106.61 395.842 105.031 395.097 104.861C394.351 104.692 392.905 103.15 392.511 102.713C392.116 102.276 390.012 101.91 389.349 101.91C388.686 101.91 386.511 103.145 385.941 103.631C385.372 104.118 384.479 104.019 384.194 104.178C383.909 104.336 381.454 106.736 380.512 107.457C379.57 108.179 377.904 111.42 377.378 112.19C377.189 112.456 376.944 112.676 376.66 112.837C376.376 112.997 376.06 113.094 375.734 113.119C375.417 113.119 375.159 113.994 375.159 114.305C375.159 114.617 372.349 116.081 372.058 117.355C371.768 118.628 372.332 121.525 372.332 122.558C372.332 123.591 373.379 125.635 374.151 125.673C374.924 125.711 374.524 127.422 374.315 127.903C374.107 128.384 374.809 128.914 374.787 129.324C374.765 129.734 372.82 130.313 372.217 130.543C371.614 130.772 370.639 132.122 370.508 132.625C370.376 133.128 368.53 133.385 367.911 133.975C368.07 133.516 368.253 133.065 368.459 132.625C368.815 131.947 368.322 130.767 368.031 130.521C367.741 130.275 367.598 126.908 367.122 126.192C366.548 125.401 365.896 124.668 365.177 124.006C364.886 123.771 365.38 122.886 365.549 122.509C365.719 122.132 363.977 121.918 363.5 122.197C363.024 122.476 362.766 125.804 362.569 126.717C362.372 127.63 363.429 129.029 363.719 129.089C364.01 129.149 363.922 130.8 363.314 130.849C362.706 130.898 362.142 133.308 362.454 133.855C362.766 134.401 362.021 135.494 361.654 135.724C361.287 135.953 363.999 135.828 365.243 135.789C366.486 135.751 367.434 136.336 367.314 136.413C367.193 136.489 364.947 136.85 364.547 137.374C364.147 137.899 362.635 138.921 362.355 139.331C362.076 139.741 362.854 140.632 363.5 140.593C364.147 140.555 364.87 142.807 365.374 143.222C365.878 143.638 365.686 144.813 365.473 145.135C365.259 145.458 362.224 144.917 361.09 145.201C359.956 145.485 358.487 147.906 358.389 148.813C358.366 150.246 358.479 151.677 358.728 153.087C358.871 153.809 361.276 154.268 361.758 154.623C362.24 154.978 364.552 154.623 365.045 154.853C365.538 155.082 367.062 152.524 367.374 151.344C367.686 150.163 370.113 147.988 370.661 147.179C371.209 146.37 373.817 146.469 374.463 146.042C375.11 145.616 374.754 148.043 375.066 149.371C375.378 150.699 377.904 150.54 377.532 149.283C377.159 148.026 377.784 147.502 377.888 147.955C377.992 148.409 380.419 149.387 380.885 150.092C381.35 150.797 381.213 152.278 380.671 152.278C380.128 152.278 380.123 153.918 380.671 154.087C381.219 154.257 382.002 152.224 382.621 151.901C383.24 151.579 383.717 150.327 383.438 150.223C383.158 150.12 383.958 148.994 384.309 149.365C384.659 149.737 383.005 146.89 381.975 145.851C380.945 144.813 381.668 145.277 383.618 146.879L384.95 148.742C385.213 149.081 385.552 150.098 385.783 150.475L386.095 151.021C386.373 151.973 386.539 152.955 386.588 153.945C386.588 154.421 387.634 155.372 388.27 155.328C388.906 155.284 389.366 155.629 389.251 155.656C389.136 155.683 389.673 156.913 390.303 156.94C390.933 156.968 391.207 155.344 390.571 155.301C389.936 155.257 390.023 152.912 389.952 151.896C389.881 150.879 390.412 150.032 390.631 150.032C390.85 150.032 390.598 152.136 390.631 152.623C390.7 153.352 390.884 154.066 391.179 154.738L391.837 155.235L393.3 156.356C395.398 155.738 398.23 156.213 398.11 156.645C397.989 157.077 399.66 157.192 399.754 156.481C399.847 155.771 399.934 156.481 399.934 156.984C399.934 157.487 398.554 159.323 398.329 160.192C398.104 161.061 393.25 160.46 391.163 160.307C389.075 160.154 386.002 160.853 385.761 161.477C385.52 162.1 382.271 160.05 380.78 159.427C379.29 158.804 378.112 156.525 377.805 156.23C377.499 155.935 378.063 155.197 377.921 154.754C377.778 154.311 374.37 154.208 373.384 154.574C372.398 154.94 367.275 155.476 366.064 156.006C364.854 156.536 363.04 155.973 362.476 155.869C361.911 155.765 360.553 157.438 359.873 157.738C359.194 158.039 358.306 160.394 357.934 162.985L357.002 164.789L356.405 165.942C354.712 167.221 352.849 171.495 352.296 172.353C351.743 173.211 351.315 179.365 351.315 181.436C351.315 183.507 353.123 187.885 353.638 189.087C354.153 190.29 357.276 192.973 358.323 193.618C359.369 194.263 362.766 194.329 363.884 194.323C365.001 194.318 366.267 193.263 366.694 191.979L368.338 192.143L369.089 192.219C369.127 193.132 371.538 193.859 372.129 194.176C372.721 194.493 374.321 194.258 374.776 194.116C375.23 193.973 375.778 198.231 375.433 199.461C375.088 200.69 376.277 204.997 376.622 206.298C376.967 207.599 378.446 211.14 378.6 212.413C378.753 213.687 377.729 217.917 377.559 219.398C377.389 220.879 379.416 225.033 379.953 226.459C380.461 228.154 380.781 229.898 380.906 231.662C380.906 232.373 383.098 236.663 383.646 238.423C384.194 240.183 389.618 240.669 391.103 239.8ZM486.724 187.267C486.877 187.584 488.264 186.48 489.102 186.355C489.94 186.229 490.466 183.983 489.809 183.824C489.151 183.666 488.318 181.928 487.853 181.72C487.387 181.512 486.461 182.458 486.499 183.136C486.538 183.813 484.976 184.092 484.68 184.66C484.385 185.229 484.412 185.633 484.73 185.573C485.048 185.513 486.587 186.961 486.724 187.267ZM484.993 199.428C485.409 199.275 484.943 197.061 484.083 196.876C483.223 196.69 480.796 199.789 481.262 201.57C481.727 203.352 482.226 203.21 482.473 202.86C482.719 202.51 484.155 203.101 484.576 203.248C484.998 203.396 484.993 202.953 484.576 202.303C484.16 201.652 484.604 199.57 484.993 199.428ZM480.27 197.242C480.369 196.455 480.517 193.963 480.659 193.493C480.801 193.022 479.311 191.585 478.577 191.306C477.843 191.028 475.509 196.116 473.838 197.012C472.167 197.908 471.548 200.991 471.986 201.707C472.424 202.423 475.942 202.8 476.55 203.347C477.158 203.893 477.843 203.265 478.194 203.172C478.544 203.079 478.451 202.849 478.309 202.756C478.166 202.663 479.53 201.231 479.733 200.319C479.936 199.406 480.166 198.051 480.27 197.242ZM470.748 205.691C469.427 205.199 467.888 205.97 467.773 206.473C467.658 206.975 472.83 207.801 474.55 208.265C476.271 208.73 477.339 208.883 476.95 208.593C476.561 208.304 472.052 206.188 470.748 205.691ZM481.278 172.025C481.695 171.451 480.697 168.745 480.182 169.352C479.667 169.959 480.051 171.538 480.182 172.085C480.314 172.631 480.856 172.604 481.273 172.025H481.278ZM484.407 177.84C484.708 177.14 484.034 176.37 482.911 176.129C481.788 175.889 481.952 179.266 482.445 179.698C482.938 180.13 484.089 178.545 484.401 177.84H484.407ZM490.241 198.701C491.584 199.641 494.581 199.209 494.674 197.4C493.348 196.531 490.121 196.695 490.236 198.701H490.241ZM489.518 157.416C489.256 157.625 489.055 157.901 488.935 158.214C488.816 158.528 488.783 158.867 488.839 159.197H488.609C488.165 159.197 488.11 160.963 488.609 161.269C489.107 161.575 490.203 159.892 490.8 159.487C491.397 159.083 492.581 158.842 492.756 158.973C492.932 159.105 493.983 158.788 495.074 158.285C495.358 158.082 495.585 157.809 495.731 157.492C495.468 156.202 495.156 154.935 494.849 153.667C494.301 154.076 493.66 154.519 493.37 154.76C492.74 155.301 490.247 156.913 489.513 157.416H489.518ZM458.837 192.94C458.64 192.766 458.607 192.755 458.853 192.935L458.837 192.94ZM467.198 200.701C466.71 199.608 465.099 197.755 463.625 196.586L463.078 195.668L462.469 194.657C461.922 193.564 460.278 192.689 460.108 192.356C459.938 192.022 459.44 193.318 458.875 192.946L460.661 194.214C462.223 195.307 465.225 202.86 465.91 203.39C466.595 203.92 467.696 201.794 467.214 200.696L467.198 200.701ZM443.25 188.53C442.833 189.383 445.469 191.192 445.671 190.776C445.874 190.361 445.337 188.279 444.866 187.809C444.395 187.339 443.688 187.677 443.266 188.524L443.25 188.53ZM408.185 228.788C408.29 229.684 410.114 230.389 410.634 230.241C411.155 230.094 412.645 227.389 412.826 226.612C413.03 225.67 413.157 224.712 413.204 223.749C413.216 223.248 413.37 222.761 413.648 222.344C413.845 222.246 414.196 221.317 414.387 220.305C414.579 219.294 413.292 214.529 413.253 213.698C413.215 212.867 412.278 214.124 412.037 214.971C411.796 215.818 409.418 217.535 408.887 218.25C408.355 218.966 407.791 221.393 407.988 221.819C408.185 222.246 407.78 223.891 407.539 224.35C407.298 224.809 408.125 227.88 408.218 228.782L408.185 228.788ZM322.705 261.673H324.294C324.579 259.951 322.612 260.235 322.705 261.673ZM365.204 82.6391C364.536 82.721 362.81 82.3712 362.509 82.0543C362.207 81.7373 359.616 81.464 358.876 81.7701C358.137 82.0761 358.635 79.9556 359.682 79.726C360.728 79.4965 359.835 78.0208 358.728 78.0208C357.622 78.0208 354.893 77.6109 354.241 77.753C353.589 77.8951 352.34 77.3049 351.885 77.2393C351.43 77.1737 348.143 78.2176 346.593 78.1411C345.042 78.0646 341.213 78.2285 340.391 78.4635C339.569 78.6985 338.955 80.2944 339.076 80.8628C339.196 81.4312 335.383 81.4093 334.189 81.4421C332.994 81.4749 326.59 82.8194 324.919 83.7321C323.248 84.6448 321.944 87.0113 322.497 87.0113C323.05 87.0113 321.571 88.3831 320.672 88.6946C319.774 89.0062 317.637 89.1373 317.128 89.6401C316.618 90.143 317.676 90.4873 317.867 90.8261C318.059 91.165 318.656 90.531 319.232 90.8261C319.807 91.1213 321.653 91.2961 322.146 91.4874C322.639 91.6787 320.568 92.0722 319.588 92.1487C318.607 92.2253 318.832 94.1272 319.632 94.3895C320.431 94.6519 322.475 94.9361 322.683 94.6081C322.891 94.2802 325.121 94.9688 326.129 95.0891C327.137 95.2093 327.899 97.7726 328.195 98.3191C328.491 98.8656 328.573 100.768 328.491 101.32C328.409 101.872 330.266 102.877 330.6 102.527C330.934 102.178 330.83 103.391 330.096 103.331C329.362 103.271 329.839 105.386 330.753 105.692C331.668 105.998 331.038 107.299 330.518 107.698C329.997 108.097 330.277 109.337 329.734 109.785C329.192 110.234 331.647 114.447 331.625 116.623C331.603 118.798 332.972 120.563 333.487 120.563C334.002 120.563 335.794 120.995 336.035 121.465C336.276 121.935 337.131 121.142 337.476 120.782C338.072 120.054 338.61 119.281 339.087 118.47C339.635 117.546 340.862 113.196 341.026 112.731C341.191 112.267 343.218 112.556 343.711 112.316C344.471 111.822 345.203 111.286 345.902 110.709C346.28 110.392 349.19 109.162 350.011 108.583C350.833 108.004 352.132 105.544 352.751 105.02C353.37 104.495 352.433 104.642 351.655 104.134C351.531 104.076 351.424 103.988 351.342 103.878C351.261 103.768 351.208 103.64 351.188 103.505C351.168 103.37 351.181 103.232 351.228 103.103C351.274 102.975 351.351 102.86 351.452 102.768C351.672 102.527 354.027 103.161 354.838 103.473C355.649 103.784 357.2 102.675 356.613 102.243C356.027 101.811 356.329 101.828 356.613 102.008C356.898 102.189 357.2 100.582 356.893 100.281C356.586 99.9806 359.276 98.0076 358.799 96.1548C358.323 94.3021 359.534 92.4001 360.257 92.3728C360.98 92.3455 360.766 90.2796 359.901 90.0883C359.035 89.897 359.851 89.7057 360.175 89.4106C360.498 89.1155 360.909 87.2682 360.723 86.9129C360.536 86.5577 362.048 86.1533 362.311 85.7324C362.574 85.3116 364.317 84.4809 364.936 84.3442C365.555 84.2076 365.867 82.568 365.204 82.6391ZM380.315 84.1529C379.493 83.8688 377.811 84.7869 378.025 85.3007C378.238 85.8144 376.66 84.6394 375.559 85.2078C374.458 85.7762 374.151 87.7054 374.655 87.9404C375.159 88.1754 375.537 89.7221 375.543 90.0173C375.548 90.3124 377.69 90.1047 378.238 89.6565C378.786 89.2084 378.704 91.2142 378.156 91.7607C377.608 92.3072 378.342 93.4003 378.94 93.4823C379.537 93.5643 380.337 94.9579 380.95 94.9415C381.564 94.9251 382.594 92.5914 382.83 91.7115C383.065 90.8316 385.092 91.5312 386.029 91.8099C386.966 92.0886 387.295 88.5853 386.287 88.0607C385.279 87.536 384.046 87.8093 383.635 87.3884C383.189 86.9718 382.641 86.6796 382.046 86.5413C381.569 86.4976 381.131 84.4317 380.315 84.1529ZM388.418 85.8253C390.062 86.0549 391.891 84.7323 392.291 84.3278C392.691 83.9234 387.76 82.9506 385.881 82.8905C384.002 82.8303 382.479 83.0872 382.512 83.437C382.545 83.7868 386.78 85.5849 388.418 85.8253ZM358.558 129.985C358.126 129.805 357.89 131.417 358.011 132.029C358.131 132.641 359.616 132.576 360.262 132.483C360.552 132.446 360.819 132.309 361.019 132.097C361.219 131.884 361.339 131.609 361.358 131.319C361.325 130.772 360.416 128.384 360.054 128.384C359.693 128.384 358.98 130.149 358.558 129.985ZM363.407 111.201C363.067 110.605 360.503 110.682 359.873 110.654C359.243 110.627 357.331 109.982 356.964 109.561C356.597 109.14 356.323 111.141 355.742 111.398C355.162 111.655 356.033 112.032 356.29 111.818C356.548 111.605 356.29 112.841 356.011 113.261C355.731 113.682 357.72 113.983 357.945 114.622C358.098 114.957 358.359 115.231 358.687 115.399C359.015 115.568 359.391 115.621 359.753 115.551C360.525 115.42 362.076 114.622 362.618 114.573C363.161 114.524 363.747 111.791 363.407 111.201ZM417.319 96.5319C418.201 95.652 421.828 94.4606 422.25 93.5424C422.671 92.6242 421.992 91.9028 421.625 91.9028C421.257 91.9795 420.933 92.1948 420.721 92.504C420.628 92.6625 416.469 93.6353 415.193 94.2474C414.006 94.7976 412.9 95.5074 411.906 96.357C411.358 96.9036 410.481 101.014 410.169 101.478C409.856 101.943 411.555 103.62 412.305 104.085C412.953 104.393 413.695 104.44 414.376 104.216C414.667 104.123 413.987 101.249 413.604 100.243C413.22 99.2373 416.442 97.4283 417.319 96.5319ZM412.864 85.8035C414.234 87.1643 414.99 85.2023 416.491 85.3936C416.464 82.639 412.727 83.5627 412.864 85.8035ZM439.519 86.2954C439.475 86.8036 443.305 87.2135 444.45 87.0168C445.595 86.82 444.214 85.0766 442.576 85.1859C440.938 85.2952 439.546 85.8144 439.519 86.2954ZM300.724 114.671C300.319 115.043 300.675 116.918 301.442 116.978C302.209 117.038 303.431 114.169 304.373 114.715C305.315 115.262 305.951 115.519 305.792 115.212C305.633 114.906 302.96 113.742 302.631 113.518C302.302 113.294 301.141 114.311 300.724 114.671ZM310.526 178.162C310.526 178.474 312.169 178.43 312.471 177.916C312.772 177.403 312.597 176.987 312.147 176.987C311.698 176.987 310.526 177.84 310.526 178.162ZM303.086 175.43C303.891 175.282 303.518 176.572 303.705 177.031C303.891 177.49 305.814 177.867 306.197 178.184C306.581 178.501 307.573 177.599 308.34 177.692C309.107 177.785 308.088 175.047 306.795 175.129C305.502 175.211 304.499 173.965 304.198 173.812C303.426 173.399 302.681 172.937 301.968 172.429C301.551 172.085 298.275 171.795 297.163 171.795C296.051 171.795 294.823 172.932 294.654 173.298C294.484 173.664 296.418 173.927 296.966 173.626C297.514 173.325 300.116 173.959 300.647 174.582C300.962 174.902 301.348 175.144 301.773 175.288C302.198 175.432 302.652 175.475 303.096 175.413L303.086 175.43ZM299.59 178.162C299.59 178.474 301.278 178.277 301.683 178.288C302.088 178.299 302.083 178.02 301.65 177.676C301.217 177.331 299.59 177.84 299.59 178.162ZM300.784 169.494C300.346 169.325 299.995 170.008 299.995 170.336C299.989 170.411 299.999 170.487 300.024 170.558C300.049 170.63 300.088 170.695 300.14 170.751C300.191 170.806 300.254 170.851 300.323 170.881C300.393 170.911 300.468 170.926 300.543 170.926C300.828 170.926 301.223 169.675 300.784 169.494ZM304.324 169.767C304.05 169.435 303.657 169.223 303.228 169.177C303.009 169.177 302.844 169.724 302.888 170.412C302.932 171.101 304.466 170.084 304.324 169.767ZM306.866 173.681C307.551 173.347 307.633 172.533 307.233 172.588C306.833 172.642 306.077 171.413 305.633 171.238C305.189 171.063 304.839 171.97 304.839 172.363C304.839 172.757 305.085 173.03 305.387 172.948C305.688 172.866 306.181 173.992 306.866 173.681ZM495.337 200.111C494.986 200.291 493.288 200.494 493.063 200.16C492.838 199.827 492.515 200.849 492.137 201.013C491.759 201.177 491.973 202.068 492.51 201.789C492.893 201.603 494.504 202.494 495.797 203.314C496.06 202.024 496.285 200.718 496.504 199.406C496.016 199.652 495.534 199.974 495.309 200.111H495.337Z" fill="url(#paint40_linear)"/>
</g>
<path opacity="0.6" d="M411.5 68.2599C409.58 67.4914 407.602 66.8791 405.583 66.429C387.613 62.4283 368.464 71.6156 352.028 89.6949C335.838 107.512 322.223 134.03 315.024 165.035C315.021 165.076 315.021 165.118 315.024 165.16C307.841 196.154 308.449 225.826 315.177 248.78C321.357 269.778 332.709 285.179 348.094 290.923C333.131 284.95 322.048 269.723 315.977 249.091C309.227 226.164 308.647 196.493 315.824 165.472C315.824 165.434 315.824 165.39 315.824 165.346C323.023 134.347 336.643 107.823 352.828 90.0119C369.264 71.9326 388.44 62.7453 406.383 66.7405C408.122 67.1283 409.832 67.6359 411.5 68.2599Z" fill="white"/>
<path opacity="0.6" d="M269.676 211.452C269.743 213.507 269.973 215.554 270.366 217.573C273.873 235.537 289.92 249.316 313.03 257.076C335.799 264.728 365.506 266.537 396.762 260.727H396.888C428.117 254.896 455.062 242.528 473.35 227.236C490.105 213.222 499.649 196.723 498.794 180.43C499.298 196.444 489.781 212.616 473.312 226.378C455.024 241.68 428.09 254.043 396.85 259.869H396.724C365.495 265.679 335.761 263.859 312.997 256.213C289.887 248.457 273.834 234.679 270.328 216.715C269.992 214.977 269.774 213.219 269.676 211.452Z" fill="white"/>
<path opacity="0.6" d="M311.863 88.4324C310.009 89.3491 308.231 90.4128 306.548 91.6132C291.591 102.287 285.663 122.645 288.194 146.917C290.692 170.828 301.409 198.635 319.752 224.667L319.823 224.776C338.177 250.786 360.722 270.138 382.336 280.435C402.137 289.846 421.236 291.672 435.76 284.091C421.318 291.196 402.559 289.294 383.103 280.042C361.484 269.761 338.939 250.398 320.59 224.388C320.563 224.355 320.541 224.317 320.514 224.279C302.176 198.247 291.476 170.445 288.961 146.529C286.43 122.257 292.347 101.899 307.321 91.2142C308.768 90.1834 310.286 89.2539 311.863 88.4324Z" fill="white"/>
<g opacity="0.5">
<path opacity="0.5" d="M319.604 162.909C317.045 162.91 314.544 162.154 312.416 160.737C310.288 159.319 308.629 157.305 307.649 154.947C306.669 152.589 306.413 149.994 306.911 147.491C307.41 144.988 308.641 142.688 310.45 140.883C312.259 139.077 314.564 137.848 317.073 137.35C319.582 136.851 322.184 137.107 324.548 138.083C326.912 139.06 328.932 140.713 330.354 142.836C331.775 144.958 332.534 147.453 332.534 150.005C332.531 153.425 331.168 156.705 328.744 159.124C326.32 161.543 323.033 162.904 319.604 162.909ZM319.604 137.222C317.07 137.222 314.594 137.971 312.487 139.375C310.38 140.78 308.739 142.776 307.769 145.111C306.8 147.446 306.546 150.016 307.041 152.494C307.536 154.973 308.756 157.25 310.548 159.037C312.34 160.824 314.623 162.04 317.108 162.533C319.594 163.025 322.169 162.771 324.51 161.803C326.85 160.835 328.851 159.197 330.257 157.095C331.664 154.993 332.415 152.522 332.414 149.994C332.406 146.609 331.054 143.365 328.653 140.972C326.252 138.58 322.998 137.235 319.604 137.232V137.222Z" fill="white"/>
<path opacity="0.5" d="M319.604 170.396C315.561 170.396 311.609 169.2 308.247 166.96C304.886 164.719 302.266 161.534 300.719 157.808C299.172 154.082 298.767 149.982 299.555 146.027C300.344 142.071 302.291 138.438 305.15 135.586C308.009 132.734 311.651 130.792 315.616 130.006C319.581 129.219 323.692 129.623 327.427 131.166C331.162 132.709 334.354 135.323 336.601 138.676C338.847 142.03 340.046 145.972 340.046 150.005C340.04 155.411 337.884 160.594 334.052 164.417C330.22 168.24 325.024 170.39 319.604 170.396ZM319.604 129.811C315.594 129.811 311.673 130.997 308.339 133.22C305.005 135.444 302.406 138.603 300.873 142.3C299.339 145.997 298.94 150.064 299.724 153.987C300.508 157.911 302.442 161.514 305.28 164.341C308.117 167.168 311.732 169.092 315.666 169.869C319.6 170.646 323.677 170.242 327.381 168.707C331.084 167.172 334.248 164.576 336.473 161.247C338.697 157.918 339.881 154.006 339.876 150.005C339.868 144.647 337.729 139.51 333.929 135.724C330.128 131.937 324.976 129.811 319.604 129.811Z" fill="white"/>
<path opacity="0.5" d="M319.604 156.383C318.34 156.383 317.103 156.009 316.052 155.308C315 154.607 314.181 153.611 313.697 152.446C313.213 151.28 313.086 149.998 313.333 148.76C313.58 147.523 314.189 146.387 315.083 145.495C315.977 144.603 317.116 143.995 318.357 143.749C319.597 143.503 320.883 143.629 322.051 144.112C323.219 144.595 324.218 145.412 324.92 146.461C325.623 147.51 325.998 148.743 325.998 150.005C325.998 151.696 325.324 153.319 324.125 154.515C322.926 155.711 321.3 156.383 319.604 156.383ZM319.604 143.731C318.36 143.731 317.144 144.099 316.11 144.788C315.075 145.477 314.269 146.457 313.793 147.604C313.317 148.75 313.193 150.012 313.435 151.229C313.678 152.446 314.277 153.564 315.157 154.441C316.036 155.319 317.157 155.916 318.377 156.158C319.597 156.401 320.862 156.276 322.011 155.801C323.16 155.326 324.143 154.522 324.834 153.491C325.525 152.459 325.894 151.246 325.894 150.005C325.892 148.341 325.229 146.746 324.05 145.57C322.871 144.393 321.272 143.732 319.604 143.731Z" fill="white"/>
</g>
<g opacity="0.5">
<path opacity="0.5" d="M459.752 179.343C457.425 179.343 455.151 178.654 453.216 177.365C451.282 176.075 449.774 174.242 448.884 172.098C447.994 169.953 447.761 167.594 448.215 165.317C448.67 163.041 449.791 160.95 451.436 159.309C453.082 157.669 455.178 156.551 457.46 156.099C459.743 155.647 462.108 155.88 464.257 156.769C466.406 157.658 468.243 159.163 469.535 161.093C470.827 163.024 471.516 165.293 471.515 167.614C471.51 170.724 470.27 173.706 468.064 175.905C465.859 178.103 462.87 179.34 459.752 179.343ZM459.752 155.989C457.447 155.989 455.194 156.671 453.278 157.948C451.361 159.226 449.868 161.041 448.986 163.165C448.104 165.29 447.873 167.627 448.322 169.882C448.772 172.137 449.882 174.208 451.512 175.834C453.141 177.46 455.218 178.567 457.478 179.015C459.739 179.464 462.082 179.234 464.211 178.354C466.341 177.474 468.161 175.984 469.441 174.072C470.722 172.161 471.405 169.913 471.405 167.614C471.402 164.532 470.174 161.577 467.989 159.397C465.804 157.218 462.842 155.992 459.752 155.989Z" fill="white"/>
<path opacity="0.5" d="M459.752 184.978C456.308 184.978 452.941 183.959 450.078 182.05C447.215 180.141 444.983 177.428 443.665 174.254C442.347 171.08 442.003 167.588 442.675 164.218C443.348 160.849 445.006 157.754 447.442 155.325C449.878 152.896 452.981 151.243 456.358 150.573C459.736 149.904 463.237 150.248 466.419 151.564C469.6 152.879 472.319 155.106 474.232 157.963C476.144 160.82 477.165 164.179 477.164 167.614C477.159 172.219 475.323 176.634 472.059 179.889C468.794 183.145 464.368 184.975 459.752 184.978ZM459.752 150.415C456.342 150.415 453.008 151.424 450.173 153.314C447.337 155.203 445.128 157.89 443.823 161.032C442.518 164.175 442.176 167.633 442.841 170.97C443.507 174.306 445.149 177.371 447.56 179.776C449.971 182.181 453.044 183.82 456.388 184.483C459.733 185.147 463.2 184.806 466.35 183.504C469.501 182.203 472.193 179.998 474.088 177.17C475.983 174.341 476.994 171.016 476.994 167.614C476.989 163.054 475.171 158.682 471.939 155.457C468.706 152.233 464.323 150.419 459.752 150.415Z" fill="white"/>
<path opacity="0.5" d="M459.752 174.653C458.356 174.653 456.992 174.241 455.831 173.467C454.671 172.694 453.766 171.594 453.232 170.308C452.698 169.022 452.559 167.606 452.831 166.241C453.103 164.875 453.775 163.621 454.762 162.636C455.749 161.652 457.006 160.982 458.375 160.71C459.744 160.438 461.163 160.578 462.452 161.111C463.742 161.643 464.844 162.546 465.619 163.703C466.395 164.861 466.809 166.222 466.809 167.614C466.806 169.48 466.061 171.269 464.739 172.588C463.416 173.908 461.623 174.651 459.752 174.653ZM459.752 160.684C458.378 160.684 457.035 161.09 455.892 161.852C454.75 162.613 453.859 163.696 453.334 164.962C452.808 166.228 452.67 167.622 452.938 168.966C453.206 170.31 453.868 171.545 454.84 172.514C455.811 173.484 457.049 174.144 458.397 174.411C459.744 174.678 461.141 174.541 462.41 174.017C463.68 173.492 464.765 172.604 465.528 171.464C466.292 170.325 466.699 168.985 466.699 167.614C466.698 165.777 465.965 164.015 464.663 162.715C463.36 161.416 461.594 160.685 459.752 160.684Z" fill="white"/>
</g>
<g opacity="0.5">
<path opacity="0.5" d="M443.211 253.355C441.433 253.356 439.694 252.831 438.215 251.846C436.736 250.861 435.582 249.461 434.901 247.822C434.22 246.183 434.041 244.38 434.387 242.64C434.734 240.899 435.589 239.301 436.847 238.046C438.104 236.791 439.706 235.936 441.45 235.59C443.194 235.243 445.002 235.421 446.645 236.099C448.288 236.778 449.693 237.928 450.681 239.403C451.669 240.878 452.197 242.612 452.197 244.386C452.194 246.763 451.246 249.041 449.562 250.723C447.878 252.404 445.594 253.35 443.211 253.355ZM443.211 235.505C441.451 235.506 439.73 236.028 438.267 237.004C436.803 237.981 435.663 239.368 434.99 240.991C434.317 242.614 434.141 244.399 434.486 246.122C434.83 247.844 435.678 249.426 436.923 250.668C438.169 251.909 439.755 252.755 441.482 253.097C443.209 253.439 444.999 253.263 446.625 252.591C448.252 251.918 449.642 250.78 450.62 249.319C451.598 247.859 452.12 246.142 452.12 244.386C452.118 242.029 451.179 239.77 449.509 238.104C447.839 236.437 445.574 235.501 443.211 235.499V235.505Z" fill="white"/>
<path opacity="0.5" d="M443.211 249.764C442.144 249.765 441.099 249.45 440.211 248.859C439.323 248.268 438.63 247.427 438.221 246.443C437.812 245.459 437.705 244.376 437.913 243.332C438.121 242.287 438.635 241.327 439.39 240.574C440.145 239.821 441.107 239.308 442.154 239.1C443.202 238.893 444.287 239 445.274 239.408C446.26 239.816 447.103 240.507 447.695 241.393C448.288 242.279 448.604 243.321 448.603 244.386C448.601 245.812 448.033 247.179 447.022 248.187C446.011 249.195 444.641 249.762 443.211 249.764ZM443.211 239.09C442.161 239.089 441.134 239.399 440.26 239.98C439.387 240.561 438.705 241.388 438.303 242.355C437.9 243.323 437.794 244.388 437.998 245.416C438.203 246.443 438.708 247.388 439.45 248.129C440.192 248.87 441.138 249.375 442.168 249.58C443.198 249.784 444.266 249.68 445.236 249.279C446.207 248.879 447.036 248.2 447.62 247.329C448.203 246.458 448.515 245.434 448.515 244.386C448.513 242.983 447.954 241.637 446.96 240.645C445.966 239.652 444.618 239.093 443.211 239.09Z" fill="white"/>
</g>
<g opacity="0.5">
<path opacity="0.5" d="M356.871 276.713C354.379 276.713 351.942 275.976 349.87 274.595C347.798 273.214 346.183 271.25 345.229 268.953C344.275 266.657 344.026 264.129 344.512 261.691C344.998 259.252 346.198 257.012 347.96 255.255C349.723 253.497 351.968 252.299 354.413 251.814C356.857 251.329 359.391 251.578 361.693 252.53C363.996 253.481 365.964 255.092 367.348 257.159C368.733 259.227 369.472 261.657 369.472 264.143C369.472 267.477 368.145 270.674 365.781 273.032C363.418 275.389 360.213 276.713 356.871 276.713ZM356.871 251.704C354.404 251.704 351.992 252.434 349.94 253.801C347.888 255.169 346.29 257.112 345.345 259.386C344.401 261.66 344.154 264.162 344.635 266.576C345.117 268.99 346.305 271.208 348.05 272.948C349.794 274.689 352.017 275.874 354.437 276.354C356.857 276.834 359.365 276.588 361.645 275.646C363.925 274.704 365.873 273.109 367.244 271.062C368.615 269.016 369.346 266.61 369.346 264.148C369.342 260.849 368.026 257.687 365.687 255.354C363.349 253.021 360.178 251.708 356.871 251.704Z" fill="white"/>
<path opacity="0.5" d="M356.871 271.685C355.376 271.68 353.917 271.233 352.677 270.4C351.437 269.568 350.473 268.388 349.905 267.009C349.337 265.63 349.191 264.114 349.487 262.653C349.782 261.191 350.505 259.85 351.564 258.798C352.623 257.746 353.97 257.031 355.437 256.743C356.903 256.455 358.422 256.607 359.802 257.179C361.182 257.752 362.36 258.719 363.189 259.96C364.018 261.2 364.46 262.658 364.459 264.148C364.458 265.141 364.26 266.123 363.878 267.038C363.496 267.954 362.936 268.786 362.231 269.486C361.527 270.186 360.69 270.741 359.771 271.118C358.851 271.495 357.865 271.688 356.871 271.685ZM356.871 256.726C355.399 256.726 353.961 257.162 352.737 257.977C351.514 258.793 350.56 259.952 349.997 261.308C349.434 262.664 349.287 264.157 349.574 265.596C349.861 267.036 350.569 268.359 351.61 269.397C352.65 270.434 353.976 271.141 355.419 271.428C356.863 271.714 358.359 271.567 359.718 271.005C361.078 270.444 362.24 269.492 363.057 268.272C363.875 267.051 364.311 265.616 364.311 264.148C364.31 262.18 363.525 260.293 362.13 258.902C360.735 257.51 358.844 256.728 356.871 256.726Z" fill="white"/>
</g>
<path opacity="0.6" d="M450.022 90.9355C441.201 65.7458 427.619 50.9675 411.779 49.317C400.142 48.1091 388.659 52.6836 377.636 64.9806L378.978 64.915C389.607 53.323 400.581 49.1311 411.681 50.2734C427.126 51.8802 440.417 66.4344 449.107 91.2634C458.004 116.661 460.897 149.557 457.254 183.901C453.61 218.245 443.88 249.824 429.86 272.827C416.163 295.306 400.093 306.8 384.648 305.188C377.471 304.439 370.699 300.815 364.634 294.629C364.043 294.547 363.539 294.47 363.084 294.394C369.527 301.291 376.781 305.324 384.544 306.139C385.533 306.242 386.526 306.293 387.519 306.292C402.422 306.292 417.653 294.711 430.681 273.325C444.784 250.201 454.563 218.475 458.218 183.994C461.872 149.513 458.963 116.459 450.022 90.9355Z" fill="white"/>
<path opacity="0.6" d="M474.643 72.0857C462.59 60.0619 441.08 58.8267 414.048 68.5605C413.659 68.6971 413.275 68.8502 412.886 68.9923L414.53 69.4787C441.097 59.9417 462.196 61.1222 473.904 72.8125C485.612 84.5029 486.812 105.605 477.191 132.183C467.329 159.383 447.43 188.82 421.104 215.086C394.779 241.353 365.281 261.236 338.018 271.051C311.38 280.648 290.243 279.479 278.502 267.772C268.191 257.486 266.038 239.576 272.377 217.179C272.24 216.764 271.977 215.966 271.829 215.441C264.854 238.888 266.936 257.71 277.773 268.493C284.469 275.161 294.051 278.511 305.896 278.511C315.396 278.511 326.338 276.353 338.369 272.019C365.763 262.154 395.414 242.2 421.85 215.835L421.882 215.802C448.296 189.443 468.288 159.881 478.177 132.554C487.94 105.583 486.686 84.1094 474.643 72.0857Z" fill="white"/>
<path opacity="0.6" d="M467.461 170.877C444.619 158.006 413.555 149.524 379.992 146.993H379.909C346.368 144.479 314.41 148.212 289.909 157.514C265.687 166.691 251.733 180.146 250.577 195.4C249.481 210.085 260.345 224.913 281.258 237.314L280.376 235.701C260.652 223.65 250.445 209.468 251.503 195.471C252.631 180.594 266.388 167.423 290.21 158.372C314.607 149.114 346.456 145.403 379.887 147.917H379.964C413.385 150.442 444.269 158.881 466.973 171.68C489.184 184.196 500.794 199.28 499.665 214.152C498.893 224.377 492.389 233.887 480.221 241.828C479.887 242.342 479.415 243.052 478.972 243.714C481.901 241.874 484.675 239.799 487.267 237.51C495.397 230.537 499.955 222.623 500.591 214.223C501.747 198.974 489.968 183.578 467.461 170.877Z" fill="white"/>
<path style="mix-blend-mode:screen" d="M355.638 272.849C354.02 272.606 352.511 271.89 351.301 270.792C350.091 269.693 349.235 268.261 348.84 266.677C348.446 265.093 348.531 263.428 349.086 261.893C349.64 260.357 350.638 259.02 351.954 258.05C353.27 257.081 354.845 256.522 356.479 256.445C358.113 256.368 359.734 256.776 361.136 257.618C362.537 258.459 363.658 259.697 364.354 261.173C365.051 262.65 365.294 264.3 365.051 265.914C364.889 266.986 364.518 268.015 363.958 268.944C363.397 269.873 362.659 270.683 361.785 271.327C360.911 271.971 359.918 272.437 358.863 272.698C357.809 272.959 356.713 273.011 355.638 272.849Z" fill="url(#paint41_radial)"/>
<path style="mix-blend-mode:screen" d="M268.076 237.073C266.458 236.83 264.948 236.114 263.738 235.015C262.529 233.916 261.672 232.484 261.278 230.9C260.884 229.315 260.97 227.65 261.525 226.115C262.08 224.579 263.079 223.242 264.395 222.273C265.712 221.303 267.287 220.745 268.921 220.669C270.556 220.593 272.176 221.002 273.578 221.844C274.979 222.687 276.099 223.925 276.795 225.402C277.491 226.879 277.733 228.529 277.489 230.143C277.161 232.307 275.986 234.253 274.221 235.553C272.456 236.852 270.245 237.399 268.076 237.073Z" fill="url(#paint42_radial)"/>
<path style="mix-blend-mode:screen" d="M458.519 175.774C456.902 175.532 455.393 174.816 454.183 173.719C452.973 172.621 452.116 171.191 451.72 169.607C451.325 168.024 451.409 166.36 451.962 164.824C452.514 163.289 453.511 161.951 454.825 160.98C456.14 160.009 457.713 159.449 459.347 159.37C460.98 159.291 462.601 159.696 464.003 160.535C465.406 161.375 466.528 162.61 467.227 164.085C467.926 165.56 468.171 167.208 467.932 168.822C467.772 169.895 467.401 170.926 466.841 171.857C466.282 172.787 465.544 173.598 464.67 174.244C463.795 174.889 462.802 175.357 461.747 175.619C460.692 175.882 459.595 175.934 458.519 175.774Z" fill="url(#paint43_radial)"/>
<path style="mix-blend-mode:screen" d="M433.7 71.8888C432.082 71.6439 430.573 70.9257 429.364 69.825C428.155 68.7242 427.3 67.2905 426.909 65.7052C426.517 64.1198 426.605 62.4542 427.162 60.919C427.72 59.3838 428.721 58.048 430.04 57.0808C431.359 56.1135 432.935 55.5582 434.571 55.4851C436.206 55.412 437.826 55.8244 439.226 56.6702C440.626 57.5159 441.743 58.757 442.436 60.2363C443.129 61.7156 443.366 63.3667 443.118 64.9806C442.787 67.1424 441.609 69.0845 439.843 70.38C438.077 71.6755 435.867 72.2182 433.7 71.8888Z" fill="url(#paint44_radial)"/>
<path style="mix-blend-mode:screen" d="M317.889 158.17C316.271 157.927 314.762 157.211 313.552 156.112C312.342 155.013 311.486 153.581 311.092 151.997C310.698 150.412 310.784 148.747 311.338 147.211C311.893 145.676 312.892 144.339 314.209 143.37C315.525 142.4 317.1 141.842 318.735 141.766C320.369 141.69 321.99 142.099 323.391 142.941C324.793 143.783 325.912 145.022 326.608 146.499C327.305 147.976 327.546 149.626 327.302 151.24C326.973 153.403 325.798 155.348 324.033 156.648C322.268 157.947 320.058 158.495 317.889 158.17Z" fill="url(#paint45_radial)"/>
<path style="mix-blend-mode:screen" d="M494.893 205.014C493.275 204.771 491.765 204.054 490.555 202.955C489.346 201.856 488.489 200.424 488.095 198.84C487.701 197.256 487.787 195.591 488.342 194.055C488.897 192.519 489.896 191.182 491.212 190.213C492.529 189.244 494.104 188.686 495.738 188.609C497.373 188.533 498.993 188.942 500.395 189.785C501.796 190.627 502.916 191.865 503.612 193.342C504.308 194.82 504.55 196.47 504.306 198.084C504.144 199.155 503.773 200.185 503.212 201.113C502.652 202.042 501.913 202.851 501.039 203.495C500.165 204.138 499.172 204.604 498.118 204.864C497.063 205.125 495.967 205.176 494.893 205.014Z" fill="url(#paint46_radial)"/>
<path style="mix-blend-mode:screen" d="M354.088 89.8042C353.046 89.6477 352.075 89.1868 351.296 88.4796C350.517 87.7724 349.966 86.8508 349.712 85.8312C349.459 84.8117 349.513 83.7399 349.87 82.7515C350.227 81.7631 350.87 80.9024 351.717 80.2782C352.564 79.654 353.577 79.2943 354.629 79.2447C355.681 79.1951 356.724 79.4577 357.627 79.9994C358.529 80.541 359.25 81.3374 359.699 82.2878C360.147 83.2383 360.303 84.3001 360.147 85.339C359.936 86.7322 359.18 87.985 358.044 88.8222C356.907 89.6594 355.485 90.0126 354.088 89.8042Z" fill="url(#paint47_radial)"/>
<path style="mix-blend-mode:screen" d="M289.525 163.515C288.484 163.359 287.512 162.897 286.734 162.19C285.955 161.482 285.404 160.56 285.15 159.541C284.897 158.521 284.952 157.449 285.31 156.46C285.667 155.472 286.31 154.611 287.158 153.987C288.005 153.364 289.019 153.005 290.071 152.956C291.124 152.907 292.167 153.17 293.069 153.713C293.971 154.255 294.691 155.052 295.139 156.003C295.587 156.954 295.742 158.017 295.585 159.055C295.374 160.448 294.617 161.701 293.481 162.537C292.345 163.373 290.922 163.725 289.525 163.515Z" fill="url(#paint48_radial)"/>
<path style="mix-blend-mode:screen" d="M325.527 280.577C324.485 280.421 323.514 279.96 322.735 279.253C321.956 278.546 321.405 277.624 321.151 276.604C320.897 275.585 320.952 274.513 321.309 273.525C321.666 272.536 322.308 271.676 323.156 271.051C324.003 270.427 325.016 270.068 326.068 270.018C327.12 269.968 328.163 270.231 329.066 270.773C329.968 271.314 330.689 272.111 331.138 273.061C331.586 274.011 331.742 275.073 331.586 276.112C331.482 276.802 331.243 277.465 330.883 278.063C330.522 278.661 330.047 279.183 329.484 279.597C328.921 280.012 328.282 280.312 327.603 280.48C326.924 280.648 326.218 280.681 325.527 280.577Z" fill="url(#paint49_radial)"/>
<path style="mix-blend-mode:screen" d="M442.806 253.07C441.188 252.827 439.678 252.111 438.469 251.012C437.259 249.913 436.402 248.481 436.008 246.897C435.614 245.312 435.7 243.647 436.255 242.112C436.81 240.576 437.809 239.239 439.125 238.27C440.442 237.3 442.017 236.742 443.651 236.666C445.286 236.59 446.906 236.999 448.308 237.841C449.709 238.684 450.829 239.922 451.525 241.399C452.221 242.876 452.463 244.526 452.219 246.14C452.057 247.212 451.686 248.242 451.125 249.17C450.565 250.099 449.826 250.908 448.952 251.551C448.078 252.195 447.085 252.66 446.031 252.921C444.976 253.182 443.88 253.232 442.806 253.07Z" fill="url(#paint50_radial)"/>
<path d="M464.5 99.1312C468.333 98.2979 479 97.3811 489.5 102.631C501.5 108.631 501.391 119.805 499.5 127.131C495.5 142.631 451 270.631 255 252.631" stroke="url(#paint51_linear)" stroke-width="12"/>
<path d="M414.283 69.5715C417.276 67.0361 426.264 61.2193 438 60.9258C451.412 60.5903 456.561 70.5075 458.331 77.8639C462.075 93.4276 499.511 221.513 318 297.63" stroke="url(#paint52_linear)" stroke-width="8"/>
<path d="M630.058 135.601L622.909 172.869C623.766 179.312 631.593 188.863 644.082 191.742C654.073 194.045 664.921 189.139 669.096 186.398L681.299 152.997C678.137 155.772 667.901 160.731 652.254 158.373C636.607 156.016 630.937 142.209 630.058 135.601Z" fill="url(#paint53_linear)"/>
<ellipse cx="656.533" cy="141.004" rx="27.4377" ry="18.7084" transform="rotate(15.1215 656.533 141.004)" fill="url(#paint54_linear)"/>
<path d="M646.884 143.527C643.703 143.264 641.097 140.661 640.191 139.392L651.75 78.6043L664.221 80.3506L653.577 141.438C652.671 142.244 650.064 143.79 646.884 143.527Z" fill="url(#paint55_linear)"/>
<path fill-rule="evenodd" clip-rule="evenodd" d="M664.458 51.4994L658.958 79.9994L656 79.5L661.5 51L664.458 51.4994Z" fill="#C7D4D9"/>
<path fill-rule="evenodd" clip-rule="evenodd" d="M692.751 55.9573L684.605 83.8165L681.707 83.0421L689.853 55.1829L692.751 55.9573Z" fill="#C7D4D9"/>
<path fill-rule="evenodd" clip-rule="evenodd" d="M677.057 62.9128L671.029 91.3058L668.081 90.7516L674.109 62.3586L677.057 62.9128Z" fill="#C7D4D9"/>
<path fill-rule="evenodd" clip-rule="evenodd" d="M734.625 116.417L721.054 142.075L718.37 140.734L731.941 115.077L734.625 116.417Z" fill="#C7D4D9"/>
<path fill-rule="evenodd" clip-rule="evenodd" d="M741.984 130.355L727.178 155.32L724.562 153.851L739.369 128.885L741.984 130.355Z" fill="#C7D4D9"/>
<path fill-rule="evenodd" clip-rule="evenodd" d="M757.08 130.707L741.23 155.023L738.679 153.445L754.529 129.128L757.08 130.707Z" fill="#C7D4D9"/>
<path d="M666.279 144.983C663.145 144.42 660.827 141.58 660.06 140.231L677.945 80.7881L690.159 83.71L673.153 143.538C672.168 144.254 669.414 145.547 666.279 144.983Z" fill="url(#paint56_linear)"/>
<path d="M655.845 153.541C652.685 153.151 650.217 150.444 649.378 149.139L664.009 88.7947L676.363 91.0385L662.63 151.718C661.685 152.488 659.005 153.931 655.845 153.541Z" fill="url(#paint57_linear)"/>
<path fill-rule="evenodd" clip-rule="evenodd" d="M95.1915 181.572C101.563 191.263 107.89 203.099 125 214.13C144.243 226.536 168.212 239.003 193.5 246.13C218.796 253.259 247.142 258.286 262 259.13V247.13C247.524 246.307 216.621 242.209 191.5 235.13C166.371 228.048 147.757 220.223 129 208.13C112.624 197.572 104.878 189.014 98.5424 179.385L95.1915 181.572Z" fill="#5BADDE"/>
<path fill-rule="evenodd" clip-rule="evenodd" d="M114.897 230.54C113.59 242.144 116.079 252.523 120.587 261.387C129.645 279.196 146.802 290.793 157.395 293.682C162.385 295.043 166.891 295.474 170.89 295.208C166.348 290.34 163.868 285.375 162.906 280.681C160.783 270.335 166.168 261.518 172.487 259.22C178.609 256.994 185.039 258.975 189.598 262.864C194.149 266.745 197.094 272.749 195.976 278.898C194.56 286.686 187.985 294.386 177.378 297.176C182.483 301.379 189.977 304.403 199.5 308.129C222.117 316.979 245.472 315.829 268 311.129C290.513 306.432 309.787 297.647 319 292.629L327 298.129C317.547 303.278 293.32 311.368 270.5 316.129C247.695 320.887 220.883 321.279 197.5 312.129C186.644 307.881 179.203 302.94 173.654 297.924C168.673 298.628 162.96 298.31 156.605 296.577C145.198 293.466 127.355 281.313 117.913 262.747C113.171 253.424 110.535 242.459 111.916 230.204L114.897 230.54ZM174.633 294.735C185.443 292.685 191.774 285.235 193.024 278.361C193.906 273.511 191.6 268.514 187.652 265.146C183.71 261.784 178.391 260.266 173.513 262.039C168.832 263.742 163.967 270.925 165.844 280.079C166.774 284.609 169.391 289.681 174.633 294.735Z" fill="#5BADDE"/>
<path d="M113 235.5L119.368 169.088C119.751 165.094 117.71 161.257 114.183 159.344L78.2312 139.838C75.0076 138.089 73 134.716 73 131.049V110.749C73 107.19 71.1077 103.898 68.0313 102.107L0 62.5" stroke="#5BADDE" stroke-width="3"/>
<circle cx="462" cy="141" r="26" fill="url(#paint58_radial)"/>
<circle cx="665" cy="40" r="40" fill="url(#paint59_radial)"/>
<circle cx="694" cy="50" r="24" fill="url(#paint60_radial)"/>
<circle cx="75" cy="134" r="22" fill="url(#paint61_radial)"/>
<circle cx="758" cy="125" r="29" fill="url(#paint62_radial)"/>
<circle cx="736" cy="109" r="21" fill="url(#paint63_radial)"/>
<path fill-rule="evenodd" clip-rule="evenodd" d="M72.4288 163.196C77.4736 159.973 84.1473 161.159 87.7723 165.924L99 180L97 184L85.3848 167.74C82.7055 164.219 77.7728 163.342 74.044 165.724L53.6027 178.784C49.8628 181.173 48.5906 186.038 50.6819 189.952L61.9475 211.039C64.5371 215.886 63.3353 221.888 59.0791 225.364L-0.051102 273.662L-1.94888 271.338L57.1813 223.041C60.3272 220.472 61.2155 216.035 59.3014 212.453L48.0358 191.366C45.2065 186.07 46.9277 179.488 51.9876 176.256L72.4288 163.196Z" fill="#5BADDE"/>
<circle cx="26" cy="250" r="15" fill="url(#paint64_radial)"/>
<defs>
<filter id="filter0_f" x="327.796" y="271.329" width="169.027" height="97.2222" filterUnits="userSpaceOnUse" color-interpolation-filters="sRGB">
<feFlood flood-opacity="0" result="BackgroundImageFix"/>
<feBlend mode="normal" in="SourceGraphic" in2="BackgroundImageFix" result="shape"/>
<feGaussianBlur stdDeviation="5" result="effect1_foregroundBlur"/>
</filter>
<filter id="filter1_f" x="316.846" y="240.797" width="122.72" height="117.155" filterUnits="userSpaceOnUse" color-interpolation-filters="sRGB">
<feFlood flood-opacity="0" result="BackgroundImageFix"/>
<feBlend mode="normal" in="SourceGraphic" in2="BackgroundImageFix" result="shape"/>
<feGaussianBlur stdDeviation="5" result="effect1_foregroundBlur"/>
</filter>
<filter id="filter2_f" x="289.678" y="182.679" width="63.7035" height="92.8134" filterUnits="userSpaceOnUse" color-interpolation-filters="sRGB">
<feFlood flood-opacity="0" result="BackgroundImageFix"/>
<feBlend mode="normal" in="SourceGraphic" in2="BackgroundImageFix" result="shape"/>
<feGaussianBlur stdDeviation="5" result="effect1_foregroundBlur"/>
</filter>
<filter id="filter3_f" x="458.297" y="231.57" width="229.727" height="131.131" filterUnits="userSpaceOnUse" color-interpolation-filters="sRGB">
<feFlood flood-opacity="0" result="BackgroundImageFix"/>
<feBlend mode="normal" in="SourceGraphic" in2="BackgroundImageFix" result="shape"/>
<feGaussianBlur stdDeviation="5" result="effect1_foregroundBlur"/>
</filter>
<filter id="filter4_f" x="423.206" y="282.312" width="234.444" height="83.6179" filterUnits="userSpaceOnUse" color-interpolation-filters="sRGB">
<feFlood flood-opacity="0" result="BackgroundImageFix"/>
<feBlend mode="normal" in="SourceGraphic" in2="BackgroundImageFix" result="shape"/>
<feGaussianBlur stdDeviation="5" result="effect1_foregroundBlur"/>
</filter>
<filter id="filter5_f" x="316.442" y="185.024" width="186.947" height="149.331" filterUnits="userSpaceOnUse" color-interpolation-filters="sRGB">
<feFlood flood-opacity="0" result="BackgroundImageFix"/>
<feBlend mode="normal" in="SourceGraphic" in2="BackgroundImageFix" result="shape"/>
<feGaussianBlur stdDeviation="5" result="effect1_foregroundBlur"/>
</filter>
<filter id="filter6_f" x="335.094" y="324.992" width="185.815" height="46.008" filterUnits="userSpaceOnUse" color-interpolation-filters="sRGB">
<feFlood flood-opacity="0" result="BackgroundImageFix"/>
<feBlend mode="normal" in="SourceGraphic" in2="BackgroundImageFix" result="shape"/>
<feGaussianBlur stdDeviation="5" result="effect1_foregroundBlur"/>
</filter>
<filter id="filter7_f" x="314.819" y="300.155" width="148.477" height="79.023" filterUnits="userSpaceOnUse" color-interpolation-filters="sRGB">
<feFlood flood-opacity="0" result="BackgroundImageFix"/>
<feBlend mode="normal" in="SourceGraphic" in2="BackgroundImageFix" result="shape"/>
<feGaussianBlur stdDeviation="5" result="effect1_foregroundBlur"/>
</filter>
<filter id="filter8_f" x="270.379" y="253.994" width="84.3829" height="75.3794" filterUnits="userSpaceOnUse" color-interpolation-filters="sRGB">
<feFlood flood-opacity="0" result="BackgroundImageFix"/>
<feBlend mode="normal" in="SourceGraphic" in2="BackgroundImageFix" result="shape"/>
<feGaussianBlur stdDeviation="5" result="effect1_foregroundBlur"/>
</filter>
<filter id="filter9_f" x="479" y="181.656" width="187.587" height="183.34" filterUnits="userSpaceOnUse" color-interpolation-filters="sRGB">
<feFlood flood-opacity="0" result="BackgroundImageFix"/>
<feBlend mode="normal" in="SourceGraphic" in2="BackgroundImageFix" result="shape"/>
<feGaussianBlur stdDeviation="5" result="effect1_foregroundBlur"/>
</filter>
<filter id="filter10_f" x="442.553" y="235.381" width="209.364" height="130.256" filterUnits="userSpaceOnUse" color-interpolation-filters="sRGB">
<feFlood flood-opacity="0" result="BackgroundImageFix"/>
<feBlend mode="normal" in="SourceGraphic" in2="BackgroundImageFix" result="shape"/>
<feGaussianBlur stdDeviation="5" result="effect1_foregroundBlur"/>
</filter>
<filter id="filter11_f" x="297.824" y="246.967" width="218.205" height="96.0163" filterUnits="userSpaceOnUse" color-interpolation-filters="sRGB">
<feFlood flood-opacity="0" result="BackgroundImageFix"/>
<feBlend mode="normal" in="SourceGraphic" in2="BackgroundImageFix" result="shape"/>
<feGaussianBlur stdDeviation="5" result="effect1_foregroundBlur"/>
</filter>
<radialGradient id="paint0_radial" cx="0" cy="0" r="1" gradientUnits="userSpaceOnUse" gradientTransform="translate(502.022 348.784) scale(100.314 166.132)">
<stop stop-color="#9AD0EC"/>
<stop offset="0.71" stop-color="#25A1DB"/>
<stop offset="1" stop-color="#1B6FB8"/>
</radialGradient>
<radialGradient id="paint1_radial" cx="0" cy="0" r="1" gradientUnits="userSpaceOnUse" gradientTransform="translate(502.118 348.116) scale(96.1666 155.206)">
<stop stop-color="#90C3E4"/>
<stop offset="0.71" stop-color="#2398D4"/>
<stop offset="1" stop-color="#1969B4"/>
</radialGradient>
<radialGradient id="paint2_radial" cx="0" cy="0" r="1" gradientUnits="userSpaceOnUse" gradientTransform="translate(502.214 347.405) scale(92.0195 144.63)">
<stop stop-color="#86B7DD"/>
<stop offset="0.71" stop-color="#218ECE"/>
<stop offset="1" stop-color="#1863B0"/>
</radialGradient>
<radialGradient id="paint3_radial" cx="0" cy="0" r="1" gradientUnits="userSpaceOnUse" gradientTransform="translate(502.328 346.723) scale(87.8789 134.414)">
<stop stop-color="#7CABD5"/>
<stop offset="0.71" stop-color="#1F85C8"/>
<stop offset="1" stop-color="#165EAC"/>
</radialGradient>
<radialGradient id="paint4_radial" cx="0" cy="0" r="1" gradientUnits="userSpaceOnUse" gradientTransform="translate(500.839 349.431) scale(82.8896 125.401)">
<stop stop-color="#729ECE"/>
<stop offset="0.71" stop-color="#1C7CC1"/>
<stop offset="1" stop-color="#1558A8"/>
</radialGradient>
<radialGradient id="paint5_radial" cx="0" cy="0" r="1" gradientUnits="userSpaceOnUse" gradientTransform="translate(500.951 348.762) scale(78.7835 115.832)">
<stop stop-color="#6892C6"/>
<stop offset="0.71" stop-color="#1A73BB"/>
<stop offset="1" stop-color="#1352A4"/>
</radialGradient>
<radialGradient id="paint6_radial" cx="0" cy="0" r="1" gradientUnits="userSpaceOnUse" gradientTransform="translate(501.049 348.052) scale(74.6577 106.584)">
<stop stop-color="#5E86BF"/>
<stop offset="0.71" stop-color="#186AB5"/>
<stop offset="1" stop-color="#124CA0"/>
</radialGradient>
<radialGradient id="paint7_radial" cx="0" cy="0" r="1" gradientUnits="userSpaceOnUse" gradientTransform="translate(501.187 347.369) scale(70.5385 97.6973)">
<stop stop-color="#557AB8"/>
<stop offset="0.71" stop-color="#1661AF"/>
<stop offset="1" stop-color="#11469C"/>
</radialGradient>
<radialGradient id="paint8_radial" cx="0" cy="0" r="1" gradientUnits="userSpaceOnUse" gradientTransform="translate(501.285 346.672) scale(66.4061 89.1441)">
<stop stop-color="#4B6DB0"/>
<stop offset="0.71" stop-color="#1457A8"/>
<stop offset="1" stop-color="#0F4098"/>
</radialGradient>
<radialGradient id="paint9_radial" cx="0" cy="0" r="1" gradientUnits="userSpaceOnUse" gradientTransform="translate(501.377 349.418) scale(62.2672 81.5979)">
<stop stop-color="#4161A9"/>
<stop offset="0.71" stop-color="#124EA2"/>
<stop offset="1" stop-color="#0E3A94"/>
</radialGradient>
<radialGradient id="paint10_radial" cx="0" cy="0" r="1" gradientUnits="userSpaceOnUse" gradientTransform="translate(501.488 348.711) scale(58.1283 73.6968)">
<stop stop-color="#3755A1"/>
<stop offset="0.71" stop-color="#10459C"/>
<stop offset="1" stop-color="#0C3490"/>
</radialGradient>
<radialGradient id="paint11_radial" cx="0" cy="0" r="1" gradientUnits="userSpaceOnUse" gradientTransform="translate(501.587 348.032) scale(53.9829 66.1404)">
<stop stop-color="#2D489A"/>
<stop offset="0.71" stop-color="#0E3C95"/>
<stop offset="1" stop-color="#0B2F8C"/>
</radialGradient>
<radialGradient id="paint12_radial" cx="0" cy="0" r="1" gradientUnits="userSpaceOnUse" gradientTransform="translate(501.698 347.324) scale(49.8374 58.9374)">
<stop stop-color="#233C92"/>
<stop offset="0.71" stop-color="#0B338F"/>
<stop offset="1" stop-color="#092988"/>
</radialGradient>
<radialGradient id="paint13_radial" cx="0" cy="0" r="1" gradientUnits="userSpaceOnUse" gradientTransform="translate(501.79 350.063) scale(45.6788 52.56)">
<stop stop-color="#19308B"/>
<stop offset="0.71" stop-color="#092989"/>
<stop offset="1" stop-color="#082384"/>
</radialGradient>
<radialGradient id="paint14_radial" cx="0" cy="0" r="1" gradientUnits="userSpaceOnUse" gradientTransform="translate(501.895 349.358) scale(41.5268 46.0124)">
<stop stop-color="#0F2383"/>
<stop offset="0.71" stop-color="#072082"/>
<stop offset="1" stop-color="#061D80"/>
</radialGradient>
<linearGradient id="paint15_linear" x1="660.032" y1="305.511" x2="322.794" y2="177.636" gradientUnits="userSpaceOnUse">
<stop offset="0.0175002" stop-color="#1670A6"/>
<stop offset="0.118575" stop-color="#5BADDE"/>
<stop offset="0.65625" stop-color="#5BADDE"/>
<stop offset="0.963542" stop-color="#5BADDE"/>
<stop offset="1" stop-color="#1670A6"/>
</linearGradient>
<linearGradient id="paint16_linear" x1="660.032" y1="305.511" x2="322.794" y2="177.636" gradientUnits="userSpaceOnUse">
<stop offset="0.0175002" stop-color="#1670A6"/>
<stop offset="0.118575" stop-color="#5BADDE"/>
<stop offset="0.65625" stop-color="#5BADDE"/>
<stop offset="0.963542" stop-color="#5BADDE"/>
<stop offset="1" stop-color="#1670A6"/>
</linearGradient>
<linearGradient id="paint17_linear" x1="661.225" y1="205.646" x2="701.853" y2="234.275" gradientUnits="userSpaceOnUse">
<stop stop-color="#CCCCCC"/>
<stop offset="0.129431" stop-color="#EBEBEB"/>
<stop offset="0.348953" stop-color="#797A7E"/>
<stop offset="0.527289" stop-color="#EBEBEB"/>
<stop offset="0.677183" stop-color="#7A7C80"/>
<stop offset="0.776987" stop-color="#949596"/>
<stop offset="0.902302" stop-color="#E5E5E5"/>
<stop offset="1" stop-color="#A7A7A7"/>
</linearGradient>
<linearGradient id="paint18_linear" x1="695.819" y1="180.009" x2="695.819" y2="217.426" gradientUnits="userSpaceOnUse">
<stop stop-color="#707070"/>
<stop offset="1" stop-color="#B6B6B6"/>
</linearGradient>
<linearGradient id="paint19_linear" x1="697.423" y1="167.873" x2="708.801" y2="174.308" gradientUnits="userSpaceOnUse">
<stop stop-color="#3270FB"/>
<stop offset="0.248389" stop-color="#6294F1"/>
<stop offset="0.457454" stop-color="#00479D"/>
<stop offset="0.697057" stop-color="#6294F1"/>
<stop offset="1" stop-color="#3270FB"/>
</linearGradient>
<linearGradient id="paint20_linear" x1="714.682" y1="178.318" x2="725.361" y2="185.858" gradientUnits="userSpaceOnUse">
<stop stop-color="#FB3232"/>
<stop offset="0.248389" stop-color="#F16262"/>
<stop offset="0.457454" stop-color="#9D0000"/>
<stop offset="0.697057" stop-color="#F16262"/>
<stop offset="1" stop-color="#FB3232"/>
</linearGradient>
<linearGradient id="paint21_linear" x1="701.824" y1="179.28" x2="712.747" y2="186.462" gradientUnits="userSpaceOnUse">
<stop stop-color="#32A416"/>
<stop offset="0.248389" stop-color="#26DC38"/>
<stop offset="0.457454" stop-color="#009D06"/>
<stop offset="0.697057" stop-color="#2CDD33"/>
<stop offset="1" stop-color="#17AE26"/>
</linearGradient>
<linearGradient id="paint22_linear" x1="657.5" y1="253.63" x2="297" y2="242.63" gradientUnits="userSpaceOnUse">
<stop offset="0.0175002" stop-color="#1670A6"/>
<stop offset="0.118575" stop-color="#5BADDE"/>
<stop offset="0.65625" stop-color="#5BADDE"/>
<stop offset="0.963542" stop-color="#5BADDE"/>
<stop offset="1" stop-color="#1670A6"/>
</linearGradient>
<linearGradient id="paint23_linear" x1="657.5" y1="253.63" x2="297" y2="242.63" gradientUnits="userSpaceOnUse">
<stop offset="0.0175002" stop-color="#1670A6"/>
<stop offset="0.118575" stop-color="#5BADDE"/>
<stop offset="0.65625" stop-color="#5BADDE"/>
<stop offset="0.963542" stop-color="#5BADDE"/>
<stop offset="1" stop-color="#1670A6"/>
</linearGradient>
<radialGradient id="paint24_radial" cx="0" cy="0" r="1" gradientUnits="userSpaceOnUse" gradientTransform="translate(382.733 316.843) scale(83.7897 129.927)">
<stop stop-color="#9AD0EC"/>
<stop offset="0.71" stop-color="#25A1DB"/>
<stop offset="1" stop-color="#1B6FB8"/>
</radialGradient>
<radialGradient id="paint25_radial" cx="0" cy="0" r="1" gradientUnits="userSpaceOnUse" gradientTransform="translate(382.813 316.321) scale(80.3256 121.382)">
<stop stop-color="#90C3E4"/>
<stop offset="0.71" stop-color="#2398D4"/>
<stop offset="1" stop-color="#1969B4"/>
</radialGradient>
<radialGradient id="paint26_radial" cx="0" cy="0" r="1" gradientUnits="userSpaceOnUse" gradientTransform="translate(382.893 315.765) scale(76.8616 113.111)">
<stop stop-color="#86B7DD"/>
<stop offset="0.71" stop-color="#218ECE"/>
<stop offset="1" stop-color="#1863B0"/>
</radialGradient>
<radialGradient id="paint27_radial" cx="0" cy="0" r="1" gradientUnits="userSpaceOnUse" gradientTransform="translate(382.989 315.232) scale(73.4031 105.122)">
<stop stop-color="#7CABD5"/>
<stop offset="0.71" stop-color="#1F85C8"/>
<stop offset="1" stop-color="#165EAC"/>
</radialGradient>
<radialGradient id="paint28_radial" cx="0" cy="0" r="1" gradientUnits="userSpaceOnUse" gradientTransform="translate(381.745 317.35) scale(69.2357 98.073)">
<stop stop-color="#729ECE"/>
<stop offset="0.71" stop-color="#1C7CC1"/>
<stop offset="1" stop-color="#1558A8"/>
</radialGradient>
<radialGradient id="paint29_radial" cx="0" cy="0" r="1" gradientUnits="userSpaceOnUse" gradientTransform="translate(381.838 316.826) scale(65.8059 90.589)">
<stop stop-color="#6892C6"/>
<stop offset="0.71" stop-color="#1A73BB"/>
<stop offset="1" stop-color="#1352A4"/>
</radialGradient>
<radialGradient id="paint30_radial" cx="0" cy="0" r="1" gradientUnits="userSpaceOnUse" gradientTransform="translate(381.92 316.27) scale(62.3598 83.3566)">
<stop stop-color="#5E86BF"/>
<stop offset="0.71" stop-color="#186AB5"/>
<stop offset="1" stop-color="#124CA0"/>
</radialGradient>
<radialGradient id="paint31_radial" cx="0" cy="0" r="1" gradientUnits="userSpaceOnUse" gradientTransform="translate(382.035 315.736) scale(58.9191 76.4065)">
<stop stop-color="#557AB8"/>
<stop offset="0.71" stop-color="#1661AF"/>
<stop offset="1" stop-color="#11469C"/>
</radialGradient>
<radialGradient id="paint32_radial" cx="0" cy="0" r="1" gradientUnits="userSpaceOnUse" gradientTransform="translate(382.117 315.192) scale(55.4674 69.7172)">
<stop stop-color="#4B6DB0"/>
<stop offset="0.71" stop-color="#1457A8"/>
<stop offset="1" stop-color="#0F4098"/>
</radialGradient>
<radialGradient id="paint33_radial" cx="0" cy="0" r="1" gradientUnits="userSpaceOnUse" gradientTransform="translate(382.194 317.339) scale(52.0103 63.8155)">
<stop stop-color="#4161A9"/>
<stop offset="0.71" stop-color="#124EA2"/>
<stop offset="1" stop-color="#0E3A94"/>
</radialGradient>
<radialGradient id="paint34_radial" cx="0" cy="0" r="1" gradientUnits="userSpaceOnUse" gradientTransform="translate(382.287 316.786) scale(48.5532 57.6363)">
<stop stop-color="#3755A1"/>
<stop offset="0.71" stop-color="#10459C"/>
<stop offset="1" stop-color="#0C3490"/>
</radialGradient>
<radialGradient id="paint35_radial" cx="0" cy="0" r="1" gradientUnits="userSpaceOnUse" gradientTransform="translate(382.369 316.255) scale(45.0906 51.7267)">
<stop stop-color="#2D489A"/>
<stop offset="0.71" stop-color="#0E3C95"/>
<stop offset="1" stop-color="#0B2F8C"/>
</radialGradient>
<radialGradient id="paint36_radial" cx="0" cy="0" r="1" gradientUnits="userSpaceOnUse" gradientTransform="translate(382.462 315.702) scale(41.628 46.0934)">
<stop stop-color="#233C92"/>
<stop offset="0.71" stop-color="#0B338F"/>
<stop offset="1" stop-color="#092988"/>
</radialGradient>
<radialGradient id="paint37_radial" cx="0" cy="0" r="1" gradientUnits="userSpaceOnUse" gradientTransform="translate(382.539 317.844) scale(38.1544 41.1058)">
<stop stop-color="#19308B"/>
<stop offset="0.71" stop-color="#092989"/>
<stop offset="1" stop-color="#082384"/>
</radialGradient>
<radialGradient id="paint38_radial" cx="0" cy="0" r="1" gradientUnits="userSpaceOnUse" gradientTransform="translate(382.627 317.292) scale(34.6863 35.9851)">
<stop stop-color="#0F2383"/>
<stop offset="0.71" stop-color="#072082"/>
<stop offset="1" stop-color="#061D80"/>
</radialGradient>
<radialGradient id="paint39_radial" cx="0" cy="0" r="1" gradientUnits="userSpaceOnUse" gradientTransform="translate(443.665 138.05) rotate(145.848) scale(209.156 322.517)">
<stop stop-color="#74C0F2"/>
<stop offset="1" stop-color="#1D6EBA"/>
</radialGradient>
<linearGradient id="paint40_linear" x1="381.679" y1="77.2363" x2="381.679" y2="268.249" gradientUnits="userSpaceOnUse">
<stop stop-color="#BFDFF0"/>
<stop offset="1" stop-color="#7AB7E2"/>
</linearGradient>
<radialGradient id="paint41_radial" cx="0" cy="0" r="1" gradientUnits="userSpaceOnUse" gradientTransform="translate(356.851 264.671) rotate(98.5808) scale(8.25311 8.27255)">
<stop stop-color="white" stop-opacity="0.87"/>
<stop offset="1" stop-opacity="0"/>
</radialGradient>
<radialGradient id="paint42_radial" cx="0" cy="0" r="1" gradientUnits="userSpaceOnUse" gradientTransform="translate(14261.1 3643.38) scale(249.845 249.231)">
<stop stop-color="white" stop-opacity="0.87"/>
<stop offset="1" stop-opacity="0"/>
</radialGradient>
<radialGradient id="paint43_radial" cx="0" cy="0" r="1" gradientUnits="userSpaceOnUse" gradientTransform="translate(11760.7 -1815.74) scale(249.844 249.219)">
<stop stop-color="white" stop-opacity="0.87"/>
<stop offset="1" stop-opacity="0"/>
</radialGradient>
<radialGradient id="paint44_radial" cx="0" cy="0" r="1" gradientUnits="userSpaceOnUse" gradientTransform="translate(5996.71 489.092) scale(210.796 210.288)">
<stop stop-color="white" stop-opacity="0.87"/>
<stop offset="1" stop-opacity="0"/>
</radialGradient>
<radialGradient id="paint45_radial" cx="0" cy="0" r="1" gradientUnits="userSpaceOnUse" gradientTransform="translate(11725.1 2435.57) scale(249.845 249.219)">
<stop stop-color="white" stop-opacity="0.87"/>
<stop offset="1" stop-opacity="0"/>
</radialGradient>
<radialGradient id="paint46_radial" cx="0" cy="0" r="1" gradientUnits="userSpaceOnUse" gradientTransform="translate(12509 -3001.53) scale(249.844 249.242)">
<stop stop-color="white" stop-opacity="0.87"/>
<stop offset="1" stop-opacity="0"/>
</radialGradient>
<radialGradient id="paint47_radial" cx="0" cy="0" r="1" gradientUnits="userSpaceOnUse" gradientTransform="translate(6332.11 1058.97) scale(103.526 103.264)">
<stop stop-color="white" stop-opacity="0.87"/>
<stop offset="1" stop-opacity="0"/>
</radialGradient>
<radialGradient id="paint48_radial" cx="0" cy="0" r="1" gradientUnits="userSpaceOnUse" gradientTransform="translate(7874.75 2157.6) scale(103.526 103.271)">
<stop stop-color="white" stop-opacity="0.87"/>
<stop offset="1" stop-opacity="0"/>
</radialGradient>
<radialGradient id="paint49_radial" cx="0" cy="0" r="1" gradientUnits="userSpaceOnUse" gradientTransform="translate(10062.4 1245.78) scale(103.526 103.271)">
<stop stop-color="white" stop-opacity="0.87"/>
<stop offset="1" stop-opacity="0"/>
</radialGradient>
<radialGradient id="paint50_radial" cx="0" cy="0" r="1" gradientUnits="userSpaceOnUse" gradientTransform="translate(14129.7 -1617.64) scale(249.844 249.242)">
<stop stop-color="white" stop-opacity="0.87"/>
<stop offset="1" stop-opacity="0"/>
</radialGradient>
<linearGradient id="paint51_linear" x1="503.5" y1="112.13" x2="255" y2="254.13" gradientUnits="userSpaceOnUse">
<stop stop-color="#81CDFB"/>
<stop offset="0.03125" stop-color="#1F78AD"/>
<stop offset="0.114583" stop-color="#81CDFB"/>
<stop offset="0.463542" stop-color="#1F78AD"/>
<stop offset="0.75" stop-color="#5BADDE"/>
<stop offset="1" stop-color="#5BADDE"/>
<stop offset="1" stop-color="#5BADDE"/>
</linearGradient>
<linearGradient id="paint52_linear" x1="271.5" y1="237.13" x2="470" y2="68.6301" gradientUnits="userSpaceOnUse">
<stop stop-color="#54A6D7"/>
<stop offset="0.322917" stop-color="#81CDFB"/>
<stop offset="0.875" stop-color="#1A73A9"/>
<stop offset="1" stop-color="#81CDFB"/>
</linearGradient>
<linearGradient id="paint53_linear" x1="626.085" y1="158.827" x2="673.825" y2="172.654" gradientUnits="userSpaceOnUse">
<stop stop-color="#CCCCCC"/>
<stop offset="0.129431" stop-color="#EBEBEB"/>
<stop offset="0.348953" stop-color="#797A7E"/>
<stop offset="0.527289" stop-color="#EBEBEB"/>
<stop offset="0.677183" stop-color="#7A7C80"/>
<stop offset="0.776987" stop-color="#949596"/>
<stop offset="0.902302" stop-color="#E5E5E5"/>
<stop offset="1" stop-color="#A7A7A7"/>
</linearGradient>
<linearGradient id="paint54_linear" x1="656.533" y1="122.296" x2="656.533" y2="159.713" gradientUnits="userSpaceOnUse">
<stop stop-color="#707070"/>
<stop offset="1" stop-color="#B6B6B6"/>
</linearGradient>
<linearGradient id="paint55_linear" x1="645.427" y1="111.349" x2="658.346" y2="113.661" gradientUnits="userSpaceOnUse">
<stop stop-color="#3270FB"/>
<stop offset="0.248389" stop-color="#6294F1"/>
<stop offset="0.457454" stop-color="#00479D"/>
<stop offset="0.697057" stop-color="#6294F1"/>
<stop offset="1" stop-color="#3270FB"/>
</linearGradient>
<linearGradient id="paint56_linear" x1="668.215" y1="112.799" x2="680.784" y2="116.434" gradientUnits="userSpaceOnUse">
<stop stop-color="#FB3232"/>
<stop offset="0.248389" stop-color="#F16262"/>
<stop offset="0.457454" stop-color="#9D0000"/>
<stop offset="0.697057" stop-color="#F16262"/>
<stop offset="1" stop-color="#FB3232"/>
</linearGradient>
<linearGradient id="paint57_linear" x1="656.031" y1="121.296" x2="668.776" y2="124.242" gradientUnits="userSpaceOnUse">
<stop stop-color="#289816"/>
<stop offset="0.248389" stop-color="#45D22E"/>
<stop offset="0.457454" stop-color="#039D00"/>
<stop offset="0.697057" stop-color="#36D133"/>
<stop offset="1" stop-color="#058703"/>
</linearGradient>
<radialGradient id="paint58_radial" cx="0" cy="0" r="1" gradientUnits="userSpaceOnUse" gradientTransform="translate(462 141) rotate(90) scale(26)">
<stop stop-color="white"/>
<stop offset="0.380208" stop-color="#DFF0FA"/>
<stop offset="1" stop-color="#47DDFA" stop-opacity="0"/>
</radialGradient>
<radialGradient id="paint59_radial" cx="0" cy="0" r="1" gradientUnits="userSpaceOnUse" gradientTransform="translate(665 40) rotate(90) scale(40)">
<stop stop-color="white"/>
<stop offset="0.380208" stop-color="#85D2FF"/>
<stop offset="1" stop-color="white" stop-opacity="0"/>
</radialGradient>
<radialGradient id="paint60_radial" cx="0" cy="0" r="1" gradientUnits="userSpaceOnUse" gradientTransform="translate(694 50) rotate(90) scale(24)">
<stop stop-color="white"/>
<stop offset="0.380208" stop-color="#85D2FF"/>
<stop offset="1" stop-color="white" stop-opacity="0"/>
</radialGradient>
<radialGradient id="paint61_radial" cx="0" cy="0" r="1" gradientUnits="userSpaceOnUse" gradientTransform="translate(75 134) rotate(90) scale(22)">
<stop stop-color="white"/>
<stop offset="0.380208" stop-color="#85D2FF"/>
<stop offset="1" stop-color="white" stop-opacity="0"/>
</radialGradient>
<radialGradient id="paint62_radial" cx="0" cy="0" r="1" gradientUnits="userSpaceOnUse" gradientTransform="translate(758 125) rotate(90) scale(29)">
<stop stop-color="white"/>
<stop offset="0.380208" stop-color="#85D2FF"/>
<stop offset="1" stop-color="white" stop-opacity="0"/>
</radialGradient>
<radialGradient id="paint63_radial" cx="0" cy="0" r="1" gradientUnits="userSpaceOnUse" gradientTransform="translate(736 109) rotate(90) scale(21)">
<stop stop-color="white"/>
<stop offset="0.380208" stop-color="#85D2FF"/>
<stop offset="1" stop-color="white" stop-opacity="0"/>
</radialGradient>
<radialGradient id="paint64_radial" cx="0" cy="0" r="1" gradientUnits="userSpaceOnUse" gradientTransform="translate(26 250) rotate(90) scale(15)">
<stop stop-color="#B0F1FF"/>
<stop offset="0.380208" stop-color="#20ACFF"/>
<stop offset="1" stop-color="white" stop-opacity="0"/>
</radialGradient>
</defs>
</svg>
