<svg width="20" height="24" fill="none" xmlns="http://www.w3.org/2000/svg"><path d="M13.465.139a.58.58 0 00-.418-.186H3.685C1.957-.047.53 1.373.53 3.101v17.704c0 1.728 1.426 3.148 3.154 3.148h12.707c1.728 0 3.154-1.42 3.154-3.148V6.747c0-.15-.07-.295-.168-.405L13.465.138zm.168 1.86l3.96 4.157h-2.575a1.38 1.38 0 01-1.385-1.38V2zm2.76 20.795H3.684a2.008 2.008 0 01-1.994-1.989V3.101c0-1.084.904-1.988 1.994-1.988h8.788v3.663a2.536 2.536 0 002.545 2.54h3.368v13.49c0 1.09-.904 1.988-1.994 1.988z" fill="#fff"/><path d="M14.81 18.794H5.267c-.318 0-.58.26-.58.58 0 .319.262.58.58.58h9.548c.32 0 .58-.262.58-.58 0-.32-.26-.58-.585-.58zm-5.195-2.082c.11.116.261.186.424.186.162 0 .313-.07.423-.186l3.397-3.646a.578.578 0 10-.847-.789l-2.394 2.569v-6.33a.581.581 0 00-.58-.58c-.318 0-.58.26-.58.58v6.33L7.07 12.277a.578.578 0 10-.846.789l3.391 3.646z" fill="#fff"/></svg>