<svg width="95" height="98" fill="none" xmlns="http://www.w3.org/2000/svg"><path d="M12.488 20.718l6.516-8.52" stroke="url(#paint0_linear)" stroke-linecap="round"/><path d="M9.773 20.185l8.688-10.65" stroke="url(#paint1_linear)" stroke-linecap="round"/><path d="M7.602 19.12l6.515-9.052" stroke="url(#paint2_linear)" stroke-linecap="round"/><path d="M14.117 70.237C24.107 79.183 40 80.71 46.696 80.354c-5.973-1.242-20.661-4.785-28.778-12.247C9.231 60.12 5.973 47.962 5.973 41.484c0-5.477 2.66-11.997 4.9-16.207.552-1.036.168-2.341-.892-2.844-1.755-.832-3.702-1.715-4.008-1.715C5.43 20.718 0 28.172 0 38.289s1.629 20.766 14.117 31.948z" fill="url(#paint3_linear)"/><path d="M26.8 42.428l2.027-6.83" stroke="url(#paint4_linear)" stroke-linecap="round"/><path d="M24.976 42.71l2.874-8.66" stroke="url(#paint5_linear)" stroke-linecap="round"/><path d="M23.354 42.534l1.9-7.164" stroke="url(#paint6_linear)" stroke-linecap="round"/><path d="M39.587 73.183c8.374 3.41 18.655.822 22.748-.898-4.024.55-14.037 1.599-20.886-1.295-7.332-3.097-12.274-10.04-13.824-14.126-1.22-3.217-1.219-7.52-.897-10.646.118-1.146-.697-2.227-1.86-2.337-1.066-.101-2.055-.174-2.212-.117-.34.12-1.944 6.037.477 12.42 2.421 6.382 5.986 12.736 16.454 17z" fill="url(#paint7_linear)"/><path d="M58.64 14.08l8.145 2.332" stroke="url(#paint8_linear)" stroke-linecap="round"/><path d="M59.453 11.561l9.504 2.802" stroke="url(#paint9_linear)" stroke-linecap="round"/><path d="M59.645 9.506l8.226 1.657" stroke="url(#paint10_linear)" stroke-linecap="round"/><path d="M12.002 36.523C8.87 54.135 20.854 63.83 25.217 68.132c-2.745-5.36-8.744-11.276-8.813-21.428-.076-11.281 3.652-20.813 22.018-28.708 4.885-2.1 11.889-2.991 16.563-2.77 1.166.055 2.222-.768 2.294-1.916.115-1.827.206-3.818.096-4.085-.198-.479-8.93-2.629-18.103.95-9.173 3.578-24.47 10.607-27.27 26.35z" fill="url(#paint11_linear)"/><g clip-path="url(#clip0)"><path d="M70.898 66.774c-1.127 3.105-2.845 5.8-5.107 8.01-2.574 2.514-5.954 4.504-10.045 5.913a3.13 3.13 0 01-.979.167h-.037a3.145 3.145 0 01-1.016-.18c-4.116-1.459-7.528-3.49-10.139-6.039-2.293-2.239-4.047-4.954-5.214-8.074-2.123-5.672-2.047-11.905-1.985-16.914v-.077c.017-.414.027-.848.03-1.328a4.454 4.454 0 014.233-4.409c4.909-.242 8.697-1.82 11.921-4.964l.028-.026a2.7 2.7 0 011.89-.715 2.78 2.78 0 011.825.74l.027.025c3.268 3.186 7.078 4.813 11.99 5.118 2.357.147 4.242 2.108 4.293 4.464.01.483.026.917.048 1.328v.033c.13 5.02.29 11.266-1.763 16.928z" fill="url(#paint12_linear)"/><path d="M70.898 66.774c-1.127 3.105-2.845 5.8-5.107 8.01-2.574 2.514-5.954 4.504-10.045 5.913a3.13 3.13 0 01-.979.167l-.29-42.726c.652.013 1.303.26 1.826.74l.027.025c3.268 3.186 7.078 4.813 11.99 5.118 2.357.147 4.242 2.108 4.293 4.464.01.483.026.917.048 1.328v.033c.13 5.02.29 11.266-1.763 16.928z" fill="url(#paint13_linear)"/><path d="M65.228 59.569a10.49 10.49 0 01-10.535 10.58h-.037c-5.87-.038-10.678-4.846-10.717-10.717a10.49 10.49 0 0110.572-10.58h.038c5.852.06 10.64 4.859 10.679 10.717z" fill="url(#paint14_linear)"/><path d="M65.228 59.569a10.49 10.49 0 01-10.535 10.58l-.144-21.296c5.852.058 10.64 4.858 10.679 10.716z" fill="url(#paint15_linear)"/><path d="M59.404 57.998l-4.761 4.766-1.029 1.03a1.234 1.234 0 01-.884.36 1.267 1.267 0 01-.889-.372L49.6 61.539a1.253 1.253 0 01-.012-1.773 1.252 1.252 0 011.772.011l1.35 1.351 4.911-4.914a1.252 1.252 0 011.773.012c.492.492.498 1.287.011 1.772z" fill="url(#paint16_linear)"/><path d="M59.404 57.998l-4.761 4.766-.024-3.547 3.002-3.003a1.252 1.252 0 011.771.012c.493.492.499 1.287.012 1.772z" fill="url(#paint17_linear)"/></g><defs><linearGradient id="paint0_linear" x1="17.898" y1="20.171" x2="12.991" y2="17.262" gradientUnits="userSpaceOnUse"><stop stop-color="#3F93C9"/><stop offset=".819" stop-color="#A7CCE4"/></linearGradient><linearGradient id="paint1_linear" x1="16.987" y1="19.502" x2="10.67" y2="15.508" gradientUnits="userSpaceOnUse"><stop stop-color="#3F93C9"/><stop offset=".819" stop-color="#A7CCE4"/></linearGradient><linearGradient id="paint2_linear" x1="13.012" y1="18.539" x2="7.954" y2="15.718" gradientUnits="userSpaceOnUse"><stop stop-color="#3F93C9"/><stop offset=".819" stop-color="#A7CCE4"/></linearGradient><linearGradient id="paint3_linear" x1="46.696" y1="80.401" x2="-10.344" y2="67.894" gradientUnits="userSpaceOnUse"><stop stop-color="#3F93C9"/><stop offset="1" stop-color="#A7CCE4"/></linearGradient><linearGradient id="paint4_linear" x1="30.045" y1="40.874" x2="26.271" y2="40.228" gradientUnits="userSpaceOnUse"><stop stop-color="#3F93C9"/><stop offset=".819" stop-color="#A7CCE4"/></linearGradient><linearGradient id="paint5_linear" x1="29.315" y1="40.666" x2="24.393" y2="39.676" gradientUnits="userSpaceOnUse"><stop stop-color="#3F93C9"/><stop offset=".819" stop-color="#A7CCE4"/></linearGradient><linearGradient id="paint6_linear" x1="26.59" y1="40.959" x2="22.747" y2="40.405" gradientUnits="userSpaceOnUse"><stop stop-color="#3F93C9"/><stop offset=".819" stop-color="#A7CCE4"/></linearGradient><linearGradient id="paint7_linear" x1="62.346" y1="72.314" x2="23.904" y2="78.108" gradientUnits="userSpaceOnUse"><stop stop-color="#3F93C9"/><stop offset="1" stop-color="#A7CCE4"/></linearGradient><linearGradient id="paint8_linear" x1="60.662" y1="17.866" x2="61.382" y2="13.48" gradientUnits="userSpaceOnUse"><stop stop-color="#3F93C9"/><stop offset=".819" stop-color="#A7CCE4"/></linearGradient><linearGradient id="paint9_linear" x1="61.834" y1="16.037" x2="62.718" y2="10.885" gradientUnits="userSpaceOnUse"><stop stop-color="#3F93C9"/><stop offset=".819" stop-color="#A7CCE4"/></linearGradient><linearGradient id="paint10_linear" x1="61.497" y1="12.824" x2="61.868" y2="8.751" gradientUnits="userSpaceOnUse"><stop stop-color="#3F93C9"/><stop offset=".819" stop-color="#A7CCE4"/></linearGradient><linearGradient id="paint11_linear" x1="64.522" y1="26.561" x2="11.684" y2="48.346" gradientUnits="userSpaceOnUse"><stop stop-color="#BFDFF0"/><stop offset="1" stop-color="#7AB7E2"/></linearGradient><linearGradient id="paint12_linear" x1="66.726" y1="78.198" x2="40.73" y2="61.151" gradientUnits="userSpaceOnUse"><stop stop-color="#3F93C9"/><stop offset=".819" stop-color="#A7CCE4"/></linearGradient><linearGradient id="paint13_linear" x1="66.726" y1="78.198" x2="40.73" y2="61.151" gradientUnits="userSpaceOnUse"><stop stop-color="#3F93C9"/><stop offset=".819" stop-color="#A7CCE4"/></linearGradient><linearGradient id="paint14_linear" x1="57.696" y1="50.844" x2="57.213" y2="64.938" gradientUnits="userSpaceOnUse"><stop stop-color="#F9FBFC"/><stop offset="1" stop-color="#DCEEFB"/></linearGradient><linearGradient id="paint15_linear" x1="57.696" y1="50.844" x2="57.213" y2="64.938" gradientUnits="userSpaceOnUse"><stop stop-color="#F9FBFC"/><stop offset="1" stop-color="#DCEEFB"/></linearGradient><linearGradient id="paint16_linear" x1="59.814" y1="64.2" x2="47.73" y2="59.983" gradientUnits="userSpaceOnUse"><stop stop-color="#3F93C9"/><stop offset="1" stop-color="#A7CCE4"/></linearGradient><linearGradient id="paint17_linear" x1="59.814" y1="64.2" x2="47.73" y2="59.983" gradientUnits="userSpaceOnUse"><stop stop-color="#3F93C9"/><stop offset="1" stop-color="#A7CCE4"/></linearGradient><clipPath id="clip0"><path transform="matrix(1.00615 .00647 .00673 .99352 33 38)" fill="#fff" d="M0 0h42.449v43.004H0z"/></clipPath></defs></svg>