<svg width="44" height="44" fill="none" xmlns="http://www.w3.org/2000/svg"><g clip-path="url(#clip0)" fill="#fff"><path d="M35.265 22.011l-1.786-1.786a.86.86 0 00-.607-.251h-1.035v-1.745h2.82a.86.86 0 100-1.718h-2.82v-1.745h1.035a.86.86 0 00.607-.251l1.786-1.786a.86.86 0 00-1.215-1.215l-1.534 1.534H30.97v-.44a3.44 3.44 0 00-.865-2.284v-1.65a.86.86 0 00-1.72 0v.59a3.452 3.452 0 00-1.743 0v-.59a.86.86 0 10-1.72 0v1.65a3.442 3.442 0 00-.865 2.284v.44h-1.544l-1.534-1.534a.86.86 0 10-1.215 1.215l1.785 1.786c.161.16.38.251.608.251h1.034v1.745h-2.82a.86.86 0 100 1.718h2.82v1.745h-1.034a.86.86 0 00-.608.252l-1.785 1.785a.86.86 0 001.215 1.216l1.534-1.535h.765a4.33 4.33 0 004.236 3.463 4.33 4.33 0 004.236-3.463h.765l1.534 1.535a.857.857 0 001.215 0 .86.86 0 000-1.216zm-7.75-11.14a1.74 1.74 0 011.738 1.737v.44h-3.476v-.44c0-.958.78-1.738 1.738-1.738zm2.603 9.962c0 1.135-.73 2.102-1.744 2.457v-5.92a.86.86 0 10-1.719 0v5.92a2.608 2.608 0 01-1.744-2.457v-6.067h5.207v6.067z"/><path d="M27.516 0C18.426 0 11.03 7.395 11.03 16.485a16.4 16.4 0 003.082 9.588l-1.546 1.546-.042-.043a.859.859 0 00-1.216 0L1.057 37.83a3.592 3.592 0 00-1.056 2.557 3.59 3.59 0 001.056 2.558A3.59 3.59 0 003.615 44a3.59 3.59 0 002.557-1.056L16.424 32.69a.86.86 0 000-1.215l-.042-.042 1.546-1.546a16.395 16.395 0 009.588 3.082C36.606 32.97 44 25.575 44 16.485S36.606 0 27.516 0zM4.956 41.729a1.884 1.884 0 01-1.341.552 1.884 1.884 0 01-1.895-1.895c0-.509.196-.985.552-1.342l9.645-9.645.039.04.003.003 2.6 2.6.042.042-9.644 9.645zm10.21-11.51l-.021-.022-1.363-1.363 1.411-1.411c.434.488.897.95 1.385 1.384l-1.411 1.411zm12.35 1.033c-8.142 0-14.767-6.625-14.767-14.767S19.373 1.72 27.516 1.72c8.142 0 14.766 6.624 14.766 14.766s-6.624 14.767-14.766 14.767z"/><path d="M39.922 12.449a.86.86 0 00-1.634.532 11.3 11.3 0 01.17 6.436.86.86 0 001.66.445 13.017 13.017 0 00-.196-7.413zM38.83 9.99l-.015-.027a.86.86 0 10-1.49.856l.013.023a.86.86 0 101.492-.852z"/></g><defs><clipPath id="clip0"><path fill="#fff" d="M0 0h44v44H0z"/></clipPath></defs></svg>