<svg width="54" height="57" fill="none" xmlns="http://www.w3.org/2000/svg"><g clip-path="url(#clip0)" fill="#fff"><path d="M49.5 2.35h-45C2.018 2.35 0 4.455 0 7.047v32.889c0 2.591 2.018 4.698 4.5 4.698h15.753c-.049 1.878-.393 4.88-1.676 6.289-.472.518-1.013.759-1.702.759-.622 0-1.125.525-1.125 1.175 0 .649.503 1.174 1.125 1.174h20.25c.622 0 1.125-.525 1.125-1.174 0-.65-.503-1.175-1.125-1.175-.689 0-1.23-.24-1.702-.76-1.283-1.409-1.627-4.41-1.676-6.288H49.5c2.482 0 4.5-2.107 4.5-4.698V7.047c0-2.59-2.018-4.698-4.5-4.698zM20.854 51.682c1.359-2.175 1.622-5.306 1.656-7.048h8.98c.034 1.742.297 4.873 1.656 7.048H20.854zM51.75 39.937c0 1.295-1.01 2.35-2.25 2.35h-45c-1.24 0-2.25-1.055-2.25-2.35v-4.699h49.5v4.699zm0-7.048H2.25V7.048c0-1.295 1.01-2.35 2.25-2.35h45c1.24 0 2.25 1.055 2.25 2.35v25.841z"/><path d="M27 41.111c1.243 0 2.25-1.051 2.25-2.349 0-1.297-1.007-2.349-2.25-2.349s-2.25 1.052-2.25 2.35c0 1.297 1.007 2.348 2.25 2.348zm-8.38-19.392l1.175-6.482h1.791l-1.935 9.11h-1.81l-1.42-6.095L15 24.347h-1.81l-1.936-9.11h1.792l1.18 6.47 1.439-6.47h1.522l1.432 6.482zm10.739 0l1.174-6.482h1.792l-1.936 9.11h-1.81l-1.42-6.095-1.42 6.095h-1.81l-1.935-9.11h1.792l1.18 6.47 1.438-6.47h1.522l1.433 6.482zm10.738 0l1.175-6.482h1.792l-1.936 9.11h-1.81l-1.42-6.095-1.42 6.095h-1.81l-1.935-9.11h1.791l1.18 6.47 1.439-6.47h1.522l1.432 6.482z"/></g><defs><clipPath id="clip0"><path fill="#fff" d="M0 0h54v56.381H0z"/></clipPath></defs></svg>