<svg width="82" height="82" fill="none" xmlns="http://www.w3.org/2000/svg"><g clip-path="url(#clip0)"><path d="M52.067.8H13.793C10.866.8 8.47 3.197 8.47 6.125V34.07c0 2.928 2.396 5.323 5.323 5.323h.996c.95 0 1.721.77 1.721 1.721v4.91c0 1.092 1.33 1.626 2.085.837l6.636-6.937a1.72 1.72 0 011.243-.531h25.593c2.928 0 5.323-2.395 5.323-5.323V6.124C57.39 3.196 54.995.8 52.067.8z" fill="url(#paint0_linear)"/><path d="M68.207 34.763H57.339c-.343 2.602-2.58 4.63-5.272 4.63H26.474c-.47 0-.919.192-1.244.532l-.62.648v27.46c0 2.927 2.396 5.322 5.323 5.322h25.593c.47 0 .919.192 1.244.531l6.635 6.938c.754.788 2.085.254 2.085-.837v-4.91c0-.951.77-1.722 1.721-1.722h.996c2.928 0 5.323-2.395 5.323-5.323V40.087c0-2.928-2.395-5.323-5.323-5.323z" fill="url(#paint1_linear)"/><path d="M25.818 14.322h-6.201c-.3 0-.542.243-.542.542v16.501c0 .3.243.542.542.542h6.201c.3 0 .542-.243.542-.542v-16.5c0-.3-.242-.543-.542-.543z" fill="url(#paint2_linear)"/><path d="M28.86 15.38h-2.5v15.204h2.5a.54.54 0 00.542-.541V15.922a.54.54 0 00-.541-.542z" fill="url(#paint3_linear)"/><path d="M46.998 21.8c0-.97-.786-1.757-1.756-1.757a1.757 1.757 0 000-3.514H40.03c.855-2.53 2.11-4.684 1.773-6.42-.387-1.992-2.877-2.655-3.244-.774-.36 1.846-3.16 5.353-3.16 5.353-.82.818-.828 1.762-5.997 1.888v12.81h1.993c.863 0 1.72.135 2.54.4l1.34.434a7.518 7.518 0 002.314.364h7.652a1.757 1.757 0 000-3.513 1.757 1.757 0 000-3.514c.971 0 1.758-.787 1.758-1.757z" fill="url(#paint4_linear)"/><path d="M25.818 32.707h-6.202c-.74 0-1.342-.602-1.342-1.342V14.864c0-.74.602-1.342 1.342-1.342h6.202c.74 0 1.342.602 1.342 1.342v16.501c0 .74-.601 1.342-1.342 1.342zm-5.942-1.602h5.683V15.123h-5.683v15.982zm5.942-15.982h.004-.004z" fill="url(#paint5_linear)"/><path d="M28.861 31.385h-2.5a.8.8 0 01-.802-.8V15.38a.8.8 0 01.801-.8h2.501c.74 0 1.342.601 1.342 1.342v14.12c0 .741-.602 1.343-1.342 1.343zm-1.7-1.602h1.44V16.181h-1.44v13.602zm1.7-13.602h.003-.003z" fill="url(#paint6_linear)"/><path d="M36.224 23.257a.802.802 0 01-.357-1.519c3.868-1.922 3.379-5.042 3.373-5.073a.801.801 0 011.579-.273c.03.176.685 4.333-4.239 6.78a.796.796 0 01-.356.085z" fill="url(#paint7_linear)"/><path d="M45.242 20.843h-3.423a2.56 2.56 0 01-2.558-2.557 2.56 2.56 0 012.558-2.558h3.422a2.56 2.56 0 012.558 2.558 2.56 2.56 0 01-2.557 2.557zm-3.423-3.513a.957.957 0 000 1.912h3.423a.957.957 0 000-1.912h-3.423z" fill="url(#paint8_linear)"/><path d="M45.242 24.358h-3.423A2.56 2.56 0 0139.26 21.8a2.56 2.56 0 012.558-2.558h3.422A2.56 2.56 0 0147.8 21.8a2.56 2.56 0 01-2.557 2.558zm-3.423-3.515a.957.957 0 000 1.913h3.423a.957.957 0 000-1.913h-3.423z" fill="url(#paint9_linear)"/><path d="M45.242 27.871h-3.423a2.56 2.56 0 01-2.558-2.557 2.56 2.56 0 012.558-2.558h3.422a2.56 2.56 0 012.558 2.558 2.56 2.56 0 01-2.557 2.557zm-3.423-3.513a.957.957 0 000 1.912h3.423a.957.957 0 000-1.912h-3.423z" fill="url(#paint10_linear)"/><path d="M45.242 31.385h-3.423a2.56 2.56 0 01-2.558-2.558 2.56 2.56 0 012.558-2.557h3.422a2.56 2.56 0 012.558 2.557 2.56 2.56 0 01-2.557 2.558zm-3.423-3.514a.957.957 0 000 1.912h3.423a.957.957 0 000-1.912h-3.423z" fill="url(#paint11_linear)"/><path d="M45.242 31.385h-7.653c-.87 0-1.732-.136-2.56-.404l-1.34-.433a7.442 7.442 0 00-2.294-.362h-1.993a.8.8 0 01-.8-.801v-12.81a.8.8 0 01.78-.8c4.111-.1 4.615-.694 5.102-1.269.1-.117.2-.235.314-.35.764-.963 2.713-3.637 2.975-4.975.209-1.07 1-1.762 2.016-1.762 1.118.001 2.48.89 2.8 2.537.288 1.484-.333 3.042-1.051 4.846a59.74 59.74 0 00-.365.926h4.069a2.56 2.56 0 012.557 2.558c0 .68-.266 1.298-.7 1.757.434.458.7 1.077.7 1.756 0 .68-.266 1.3-.7 1.758a2.548 2.548 0 010 3.513c.434.459.7 1.077.7 1.757a2.56 2.56 0 01-2.557 2.558zm-15.039-2.8h1.192c.947 0 1.885.147 2.787.439l1.34.434a6.703 6.703 0 002.067.326h7.653a.957.957 0 000-1.912.8.8 0 110-1.602.957.957 0 000-1.912.8.8 0 110-1.601.957.957 0 000-1.913.8.8 0 110-1.601.957.957 0 000-1.912H40.03a.8.8 0 01-.759-1.058c.245-.723.516-1.404.778-2.062.626-1.57 1.166-2.926.967-3.948-.164-.846-.83-1.24-1.227-1.24h-.004c-.116 0-.35.004-.44.466-.387 1.982-3.022 5.325-3.321 5.7a.726.726 0 01-.06.066c-.095.095-.176.192-.258.288-.8.944-1.687 1.636-5.503 1.808v11.233z" fill="url(#paint12_linear)"/><path d="M17.724 48.038c-.252 0-.507-.048-.752-.146a2.002 2.002 0 01-1.263-1.867v-4.91a.921.921 0 00-.92-.92h-.996A6.13 6.13 0 017.67 34.07V6.124A6.13 6.13 0 0113.793 0h38.274a6.13 6.13 0 016.124 6.124V34.07a6.13 6.13 0 01-6.124 6.124H26.474a.923.923 0 00-.665.284l-6.635 6.937a2.003 2.003 0 01-1.45.623zm-3.93-46.436A4.527 4.527 0 009.27 6.124V34.07a4.527 4.527 0 004.522 4.522h.996a2.525 2.525 0 012.522 2.522v4.91c0 .25.18.35.257.38a.394.394 0 00.449-.096l6.635-6.937a2.534 2.534 0 011.822-.779h25.592a4.527 4.527 0 004.523-4.522V6.124a4.527 4.527 0 00-4.522-4.522H13.793z" fill="url(#paint13_linear)"/><path d="M56.181 49.63h6.202c.3 0 .542.242.542.54v16.501c0 .3-.243.542-.542.542h-6.202a.542.542 0 01-.541-.542v-16.5c0-.3.242-.542.541-.542z" fill="url(#paint14_linear)"/><path d="M53.14 50.687h2.5V65.89h-2.5a.542.542 0 01-.543-.541v-14.12c0-.3.243-.542.542-.542z" fill="url(#paint15_linear)"/><path d="M35.002 57.107c0-.97.786-1.757 1.756-1.757a1.757 1.757 0 010-3.514h5.212c-.855-2.53-2.11-4.685-1.773-6.42.387-1.992 2.877-2.655 3.244-.774.36 1.846 3.16 5.353 3.16 5.353.82.818.828 1.762 5.996 1.888v12.81h-1.992a8.26 8.26 0 00-2.54.4l-1.34.434a7.518 7.518 0 01-2.314.364H36.76a1.757 1.757 0 010-3.513 1.757 1.757 0 010-3.514 1.758 1.758 0 01-1.758-1.757z" fill="url(#paint16_linear)"/><path d="M62.383 48.828h-6.201c-.74 0-1.343.603-1.343 1.342v16.502c0 .74.603 1.342 1.343 1.342h6.201c.74 0 1.343-.602 1.343-1.342V50.17c0-.74-.602-1.342-1.343-1.342zm-5.942 1.602h5.683v15.982h-5.683V50.43z" fill="url(#paint17_linear)"/><path d="M55.64 49.886h-2.5c-.741 0-1.343.602-1.343 1.343v14.12c0 .74.602 1.343 1.342 1.343h2.501a.8.8 0 00.801-.801V50.687a.8.8 0 00-.8-.8zm-2.242 1.602h1.441V65.09H53.4V51.488z" fill="url(#paint18_linear)"/><path d="M41.969 51.035a.801.801 0 00-.788.665c-.03.176-.686 4.333 4.239 6.78a.802.802 0 00.712-1.435c-3.868-1.922-3.378-5.042-3.373-5.073a.802.802 0 00-.79-.937z" fill="url(#paint19_linear)"/><path d="M40.181 51.035h-3.423a2.56 2.56 0 00-2.558 2.558 2.56 2.56 0 002.558 2.557h3.423a2.56 2.56 0 002.558-2.557 2.56 2.56 0 00-2.558-2.558zm-3.422 3.514a.957.957 0 010-1.912h3.422a.957.957 0 010 1.912H36.76z" fill="url(#paint20_linear)"/><path d="M40.181 54.549h-3.423a2.56 2.56 0 00-2.558 2.557 2.56 2.56 0 002.558 2.558h3.423a2.56 2.56 0 002.558-2.558 2.56 2.56 0 00-2.558-2.557zm-3.422 3.514a.957.957 0 010-1.913h3.422a.957.957 0 010 1.913H36.76z" fill="url(#paint21_linear)"/><path d="M40.181 58.063h-3.423A2.56 2.56 0 0034.2 60.62a2.56 2.56 0 002.558 2.558h3.423a2.56 2.56 0 002.558-2.558 2.56 2.56 0 00-2.558-2.557zm-3.422 3.514a.957.957 0 010-1.912h3.422a.957.957 0 010 1.912H36.76z" fill="url(#paint22_linear)"/><path d="M40.181 61.577h-3.423a2.56 2.56 0 00-2.558 2.557 2.56 2.56 0 002.558 2.558h3.423a2.56 2.56 0 002.558-2.558 2.56 2.56 0 00-2.558-2.557zm-3.422 3.513a.957.957 0 010-1.912h3.422a.957.957 0 010 1.912H36.76z" fill="url(#paint23_linear)"/><path d="M42.211 42.726c-1.118 0-2.48.89-2.8 2.536-.288 1.484.333 3.043 1.051 4.847.121.304.244.612.365.926h-4.069a2.56 2.56 0 00-2.557 2.558c0 .68.266 1.298.7 1.756a2.549 2.549 0 000 3.514 2.549 2.549 0 000 3.514 2.549 2.549 0 00-.7 1.757 2.56 2.56 0 002.557 2.557h7.653c.87 0 1.732-.136 2.56-.404l1.34-.433a7.443 7.443 0 012.294-.362h1.993a.8.8 0 00.8-.801v-12.81a.8.8 0 00-.78-.8c-4.111-.1-4.615-.695-5.103-1.27-.1-.117-.2-.234-.313-.35-.764-.962-2.713-3.636-2.975-4.974-.21-1.07-1-1.76-2.016-1.76zM36.758 54.55a.957.957 0 010-1.912h5.212a.8.8 0 00.759-1.058 40.79 40.79 0 00-.778-2.063c-.626-1.57-1.166-2.925-.967-3.947.164-.847.83-1.24 1.227-1.24h.004c.115 0 .35.004.44.466.387 1.982 3.022 5.325 3.321 5.7a.74.74 0 00.06.066c.095.095.176.192.258.288.8.944 1.687 1.636 5.503 1.808V63.89h-1.192c-.947 0-1.885.148-2.787.44l-1.34.433a6.701 6.701 0 01-2.067.327H36.76a.957.957 0 010-1.912.8.8 0 100-1.602.957.957 0 010-1.912.8.8 0 100-1.602.957.957 0 010-1.912.8.8 0 100-1.602z" fill="url(#paint24_linear)"/><path d="M64.276 81.999a2.004 2.004 0 01-1.45-.622l-6.635-6.937a.926.926 0 00-.665-.284H29.933a6.13 6.13 0 01-6.124-6.124V40.573c0-.206.08-.405.222-.554l.62-.648a2.533 2.533 0 011.823-.779h25.593a4.533 4.533 0 004.478-3.934.8.8 0 01.794-.697h10.868a6.13 6.13 0 016.124 6.124v27.946a6.131 6.131 0 01-6.124 6.124h-.996a.921.921 0 00-.92.92v4.911c0 .826-.496 1.559-1.262 1.867a2.012 2.012 0 01-.753.146zM25.41 40.894v27.138a4.527 4.527 0 004.522 4.522h25.593c.685 0 1.349.284 1.822.779l6.635 6.937c.173.18.372.128.449.097a.395.395 0 00.257-.38v-4.911a2.524 2.524 0 012.522-2.522h.995a4.528 4.528 0 004.523-4.522V40.086a4.527 4.527 0 00-4.523-4.523H58c-.677 2.684-3.114 4.631-5.934 4.631H26.474a.924.924 0 00-.665.284l-.398.416z" fill="url(#paint25_linear)"/></g><defs><linearGradient id="paint0_linear" x1="40.218" y1="5.098" x2="39.404" y2="35.853" gradientUnits="userSpaceOnUse"><stop stop-color="#F9FBFC"/><stop offset="1" stop-color="#DCEEFB"/></linearGradient><linearGradient id="paint1_linear" x1="73.53" y1="81.2" x2="15.922" y2="64.192" gradientUnits="userSpaceOnUse"><stop stop-color="#3F93C9"/><stop offset="1" stop-color="#A7CCE4"/></linearGradient><linearGradient id="paint2_linear" x1="23.803" y1="15.95" x2="23.023" y2="27.551" gradientUnits="userSpaceOnUse"><stop stop-color="#F9FBFC"/><stop offset="1" stop-color="#DCEEFB"/></linearGradient><linearGradient id="paint3_linear" x1="28.334" y1="16.787" x2="26.958" y2="26.672" gradientUnits="userSpaceOnUse"><stop stop-color="#F9FBFC"/><stop offset="1" stop-color="#DCEEFB"/></linearGradient><linearGradient id="paint4_linear" x1="40.822" y1="10.29" x2="40.297" y2="25.094" gradientUnits="userSpaceOnUse"><stop stop-color="#F9FBFC"/><stop offset="1" stop-color="#DCEEFB"/></linearGradient><linearGradient id="paint5_linear" x1="23.059" y1="31.287" x2="15.002" y2="17.799" gradientUnits="userSpaceOnUse"><stop offset=".03" stop-color="#3B83C5"/><stop offset=".214" stop-color="#4E9FD9"/><stop offset=".618" stop-color="#A1D2F3"/><stop offset="1" stop-color="#C4E6FD"/></linearGradient><linearGradient id="paint6_linear" x1="28.06" y1="30.141" x2="20.045" y2="22.135" gradientUnits="userSpaceOnUse"><stop offset=".03" stop-color="#3B83C5"/><stop offset=".214" stop-color="#4E9FD9"/><stop offset=".618" stop-color="#A1D2F3"/><stop offset="1" stop-color="#C4E6FD"/></linearGradient><linearGradient id="paint7_linear" x1="40.864" y1="23.257" x2="34.173" y2="21.901" gradientUnits="userSpaceOnUse"><stop stop-color="#3F93C9"/><stop offset="1" stop-color="#A7CCE4"/></linearGradient><linearGradient id="paint8_linear" x1="47.799" y1="20.843" x2="38.831" y2="16.648" gradientUnits="userSpaceOnUse"><stop stop-color="#3F93C9"/><stop offset="1" stop-color="#A7CCE4"/></linearGradient><linearGradient id="paint9_linear" x1="47.799" y1="24.358" x2="38.831" y2="20.162" gradientUnits="userSpaceOnUse"><stop stop-color="#3F93C9"/><stop offset="1" stop-color="#A7CCE4"/></linearGradient><linearGradient id="paint10_linear" x1="47.799" y1="27.871" x2="38.831" y2="23.676" gradientUnits="userSpaceOnUse"><stop stop-color="#3F93C9"/><stop offset="1" stop-color="#A7CCE4"/></linearGradient><linearGradient id="paint11_linear" x1="47.799" y1="31.385" x2="38.831" y2="27.189" gradientUnits="userSpaceOnUse"><stop stop-color="#3F93C9"/><stop offset="1" stop-color="#A7CCE4"/></linearGradient><linearGradient id="paint12_linear" x1="38.94" y1="29.611" x2="31.885" y2="9.187" gradientUnits="userSpaceOnUse"><stop offset=".03" stop-color="#3B83C5"/><stop offset=".214" stop-color="#4E9FD9"/><stop offset=".618" stop-color="#A1D2F3"/><stop offset="1" stop-color="#C4E6FD"/></linearGradient><linearGradient id="paint13_linear" x1="32.93" y1="0" x2="32.93" y2="48.038" gradientUnits="userSpaceOnUse"><stop stop-color="#DBF0F9"/><stop offset="1" stop-color="#88BCDF"/></linearGradient><linearGradient id="paint14_linear" x1="62.925" y1="49.629" x2="53.722" y2="50.698" gradientUnits="userSpaceOnUse"><stop stop-color="#3F93C9"/><stop offset="1" stop-color="#A7CCE4"/></linearGradient><linearGradient id="paint15_linear" x1="55.64" y1="50.687" x2="51.757" y2="50.905" gradientUnits="userSpaceOnUse"><stop stop-color="#3F93C9"/><stop offset="1" stop-color="#A7CCE4"/></linearGradient><linearGradient id="paint16_linear" x1="52.597" y1="43.527" x2="31.115" y2="48.264" gradientUnits="userSpaceOnUse"><stop stop-color="#3F93C9"/><stop offset="1" stop-color="#A7CCE4"/></linearGradient><linearGradient id="paint17_linear" x1="60.606" y1="66.239" x2="59.844" y2="53.569" gradientUnits="userSpaceOnUse"><stop stop-color="#F9FBFC"/><stop offset="1" stop-color="#DCEEFB"/></linearGradient><linearGradient id="paint18_linear" x1="54.811" y1="65.136" x2="53.699" y2="54.11" gradientUnits="userSpaceOnUse"><stop stop-color="#F9FBFC"/><stop offset="1" stop-color="#DCEEFB"/></linearGradient><linearGradient id="paint19_linear" x1="44.667" y1="57.867" x2="44.475" y2="52.885" gradientUnits="userSpaceOnUse"><stop stop-color="#F9FBFC"/><stop offset="1" stop-color="#DCEEFB"/></linearGradient><linearGradient id="paint20_linear" x1="39.742" y1="55.677" x2="39.685" y2="52.288" gradientUnits="userSpaceOnUse"><stop stop-color="#F9FBFC"/><stop offset="1" stop-color="#DCEEFB"/></linearGradient><linearGradient id="paint21_linear" x1="39.742" y1="59.191" x2="39.685" y2="55.801" gradientUnits="userSpaceOnUse"><stop stop-color="#F9FBFC"/><stop offset="1" stop-color="#DCEEFB"/></linearGradient><linearGradient id="paint22_linear" x1="39.742" y1="62.705" x2="39.685" y2="59.315" gradientUnits="userSpaceOnUse"><stop stop-color="#F9FBFC"/><stop offset="1" stop-color="#DCEEFB"/></linearGradient><linearGradient id="paint23_linear" x1="39.742" y1="66.218" x2="39.685" y2="62.829" gradientUnits="userSpaceOnUse"><stop stop-color="#F9FBFC"/><stop offset="1" stop-color="#DCEEFB"/></linearGradient><linearGradient id="paint24_linear" x1="46.66" y1="64.474" x2="46.108" y2="48.609" gradientUnits="userSpaceOnUse"><stop stop-color="#F9FBFC"/><stop offset="1" stop-color="#DCEEFB"/></linearGradient><linearGradient id="paint25_linear" x1="74.331" y1="81.999" x2="14.821" y2="64.459" gradientUnits="userSpaceOnUse"><stop stop-color="#3F93C9"/><stop offset="1" stop-color="#A7CCE4"/></linearGradient><clipPath id="clip0"><path fill="#fff" d="M0 0h82v82H0z"/></clipPath></defs></svg>