<svg width="82" height="82" fill="none" xmlns="http://www.w3.org/2000/svg"><g clip-path="url(#clip0)"><path d="M20.503 5.497a41.184 41.184 0 00-6.886 5.002C5.259 18.002 1.522 32.272 3.45 41l16.996 4.965 25.198-7.58L20.503 5.496z" fill="url(#paint0_linear)"/><path d="M22.768 72.58C10.17 67.345 2.082 56.855 3.45 41H41L29.95 66.999l-7.182 5.58z" fill="url(#paint1_linear)"/><path d="M41 80.679c7.47 0 14.855-1.602 19.772-5.433l.942-2.695-3.737-14.574L41 41 22.768 72.58C25.732 77.568 33.53 80.678 41 80.678z" fill="url(#paint2_linear)"/><path d="M61.76 75.414s6.905-3.862 9.795-7.089C78.05 61.075 82 51.501 82 41l-13.293-5.178L41 41l19.772 34.246.988.168z" fill="url(#paint3_linear)"/><path d="M61.497 5.497C73.75 12.587 82 25.826 82 41H41l10.09-26.319 10.407-9.184z" fill="url(#paint4_linear)"/><path d="M41 0a40.794 40.794 0 00-20.497 5.497l4.312 7.47L41 41 61.497 5.497A40.794 40.794 0 0041 0z" fill="url(#paint5_linear)"/><path d="M71.555 68.325a41.08 41.08 0 01-10.783 6.921l.726 1.257a41.231 41.231 0 0010.057-8.178z" fill="url(#paint6_linear)"/><path d="M41 68.774c15.34 0 27.774-12.435 27.774-27.774 0-15.34-12.435-27.774-27.774-27.774-15.34 0-27.774 12.435-27.774 27.774 0 15.34 12.435 27.774 27.774 27.774z" fill="#DAD8DB"/><path d="M41 64.806c13.148 0 23.806-10.658 23.806-23.806 0-13.148-10.658-23.806-23.806-23.806-13.148 0-23.806 10.658-23.806 23.806 0 13.148 10.658 23.806 23.806 23.806z" fill="#ECEAEC"/><path d="M41 48.935a7.935 7.935 0 100-15.87 7.935 7.935 0 000 15.87z" fill="#fff"/><path d="M34.387 48.935a1.322 1.322 0 01-.935-2.258l30.42-30.418a1.322 1.322 0 111.87 1.87l-30.42 30.419a1.318 1.318 0 01-.935.387z" fill="#5D5360"/><path d="M20.502 76.503l2.266-3.924C11.973 65.9 4.518 54.353 3.45 41H0c0 15.174 8.25 28.413 20.502 35.503z" fill="url(#paint7_linear)"/><path d="M41 44.968a3.968 3.968 0 100-7.936 3.968 3.968 0 000 7.936z" fill="#6F6571"/><path d="M41 42.323a1.323 1.323 0 100-2.646 1.323 1.323 0 000 2.646z" fill="#4B3F4E"/><path d="M0 41h3.45a41.42 41.42 0 01-.144-3.306 40.852 40.852 0 0110.31-27.195C5.26 18.002 0 28.884 0 41z" fill="url(#paint8_linear)"/><path d="M22.768 72.58l-2.265 3.923A40.793 40.793 0 0041 82a40.79 40.79 0 0020.497-5.497l-.725-1.257a40.817 40.817 0 01-16.466 3.448 40.798 40.798 0 01-21.538-6.115z" fill="url(#paint9_linear)"/></g><defs><linearGradient id="paint0_linear" x1="24.299" y1="5.497" x2="24.299" y2="45.965" gradientUnits="userSpaceOnUse"><stop stop-color="#BFDFF0"/><stop offset="1" stop-color="#7AB7E2"/></linearGradient><linearGradient id="paint1_linear" x1="22.15" y1="41" x2="22.15" y2="72.579" gradientUnits="userSpaceOnUse"><stop stop-color="#DBF0F9"/><stop offset="1" stop-color="#88BCDF"/></linearGradient><linearGradient id="paint2_linear" x1="55.106" y1="78.132" x2="29.997" y2="59.031" gradientUnits="userSpaceOnUse"><stop stop-color="#3F93C9"/><stop offset=".819" stop-color="#A7CCE4"/></linearGradient><linearGradient id="paint3_linear" x1="61.5" y1="35.822" x2="61.5" y2="75.414" gradientUnits="userSpaceOnUse"><stop stop-color="#BFDFF0"/><stop offset="1" stop-color="#7AB7E2"/></linearGradient><linearGradient id="paint4_linear" x1="61.5" y1="5.497" x2="61.5" y2="41" gradientUnits="userSpaceOnUse"><stop stop-color="#DBF0F9"/><stop offset="1" stop-color="#88BCDF"/></linearGradient><linearGradient id="paint5_linear" x1="47.107" y1="3.794" x2="46.35" y2="30.947" gradientUnits="userSpaceOnUse"><stop stop-color="#F9FBFC"/><stop offset="1" stop-color="#DCEEFB"/></linearGradient><linearGradient id="paint6_linear" x1="66.164" y1="68.325" x2="66.164" y2="76.503" gradientUnits="userSpaceOnUse"><stop stop-color="#BFDFF0"/><stop offset="1" stop-color="#7AB7E2"/></linearGradient><linearGradient id="paint7_linear" x1="11.384" y1="41" x2="11.384" y2="76.503" gradientUnits="userSpaceOnUse"><stop stop-color="#DBF0F9"/><stop offset="1" stop-color="#88BCDF"/></linearGradient><linearGradient id="paint8_linear" x1="6.808" y1="10.499" x2="6.808" y2="41" gradientUnits="userSpaceOnUse"><stop stop-color="#BFDFF0"/><stop offset="1" stop-color="#7AB7E2"/></linearGradient><linearGradient id="paint9_linear" x1="54.542" y1="81.395" x2="51.17" y2="70.023" gradientUnits="userSpaceOnUse"><stop stop-color="#3F93C9"/><stop offset=".819" stop-color="#A7CCE4"/></linearGradient><clipPath id="clip0"><path fill="#fff" d="M0 0h82v82H0z"/></clipPath></defs></svg>