<svg width="82" height="82" fill="none" xmlns="http://www.w3.org/2000/svg"><g clip-path="url(#clip0)"><path d="M66.062 70.365l4.305-4.305L49.97 45.664l-4.304 4.305 20.395 20.396z" fill="#61AFF6"/><path d="M68.099 68.326l2.264-2.264-20.395-20.396-2.265 2.265L68.1 68.326z" fill="#55A2F0"/><path d="M31.653 63.307c17.482 0 31.654-14.172 31.654-31.654C63.307 14.172 49.135 0 31.653 0 14.172 0 0 14.172 0 31.653c0 17.482 14.172 31.654 31.653 31.654z" fill="url(#paint0_linear)"/><path d="M31.653 58.007c14.555 0 26.354-11.799 26.354-26.354C58.007 17.1 46.208 5.3 31.653 5.3 17.1 5.3 5.3 17.099 5.3 31.653c0 14.555 11.799 26.354 26.353 26.354z" fill="url(#paint1_linear)"/><path d="M50.289 13.019c-6.137-6.137-14.547-8.614-22.52-7.432a26.236 26.236 0 0114.752 7.432c10.292 10.291 10.292 26.978 0 37.27A26.236 26.236 0 0127.77 57.72c7.972 1.182 16.382-1.295 22.519-7.431 10.291-10.292 10.291-26.979 0-37.27z" fill="#CCDFED"/><path d="M81.409 76.472l-4.937 4.936a2.02 2.02 0 01-2.856 0L58.962 66.755a2.02 2.02 0 010-2.856l4.937-4.937a2.02 2.02 0 012.856 0L81.41 73.615a2.02 2.02 0 010 2.857z" fill="url(#paint2_linear)"/><path d="M35.102 43.606H27.62V49h-5.856v-5.394H17v-4.74h4.764v-2.5H17v-4.74h4.764V15h12.943c3.734 0 6.716.98 8.947 2.942C45.884 19.888 47 22.48 47 25.718c0 3.3-1.061 5.893-3.184 7.777-2.122 1.868-5.073 2.825-8.853 2.872H27.62v2.498h7.482v4.74zm-7.482-11.98h6.994c2.107 0 3.718-.49 4.834-1.47 1.115-.982 1.673-2.445 1.673-4.39 0-1.744-.55-3.169-1.65-4.274-1.084-1.106-2.587-1.682-4.508-1.728H27.62v11.862z" fill="url(#paint3_linear)"/></g><defs><linearGradient id="paint0_linear" x1="63.307" y1="63.307" x2="-11.84" y2="42.247" gradientUnits="userSpaceOnUse"><stop stop-color="#3F93C9"/><stop offset="1" stop-color="#A7CCE4"/></linearGradient><linearGradient id="paint1_linear" x1="39.505" y1="10.177" x2="38.533" y2="45.083" gradientUnits="userSpaceOnUse"><stop stop-color="#F9FBFC"/><stop offset="1" stop-color="#DCEEFB"/></linearGradient><linearGradient id="paint2_linear" x1="58.893" y1="70.185" x2="83.453" y2="70.185" gradientUnits="userSpaceOnUse"><stop offset=".056" stop-color="#BAC3C2"/><stop offset=".495" stop-color="#DEDFDF"/><stop offset="1" stop-color="#BAC3C2"/></linearGradient><linearGradient id="paint3_linear" x1="33.155" y1="46.483" x2="23.896" y2="16.954" gradientUnits="userSpaceOnUse"><stop offset=".03" stop-color="#3B83C5"/><stop offset=".214" stop-color="#4E9FD9"/><stop offset=".618" stop-color="#A1D2F3"/><stop offset="1" stop-color="#C4E6FD"/></linearGradient><clipPath id="clip0"><path fill="#fff" d="M0 0h82v82H0z"/></clipPath></defs></svg>