<svg width="48" height="48" fill="none" xmlns="http://www.w3.org/2000/svg"><path d="M48 24c0 7.924-6.4 14.4-14.4 14.4-7.924 0-14.4-6.476-14.4-14.4S25.6 9.6 33.524 9.6C41.6 9.6 48 16.076 48 24z" fill="#FF8500"/><path d="M33.6 9.6C41.524 9.6 48 16.076 48 24s-6.4 14.4-14.4 14.4c-7.924 0-14.4-6.476-14.4-14.4" fill="#FF8500"/><path d="M33.6 9.6C41.524 9.6 48 16.076 48 24s-6.4 14.4-14.4 14.4" fill="#FF8500"/><path d="M14.248 9.6C6.4 9.676 0 16.076 0 24s6.4 14.4 14.4 14.4c3.733 0 7.086-1.448 9.676-3.733.534-.458.99-.991 1.448-1.524h-2.972c-.38-.457-.761-.99-1.066-1.448h5.104c.305-.457.61-.99.839-1.524h-6.781a9.083 9.083 0 01-.61-1.523h7.924c.457-1.448.762-2.972.762-4.572 0-1.067-.153-2.057-.305-3.048h-8.838c.076-.533.229-.99.38-1.523h7.925a9.08 9.08 0 00-.61-1.524h-6.705c.229-.534.534-.99.838-1.524h5.105a7.245 7.245 0 00-1.143-1.524h-2.819c.457-.533.915-.99 1.448-1.447-2.514-2.362-5.943-3.734-9.676-3.734 0-.152 0-.152-.076-.152z" fill="#CB2026"/><path d="M0 24c0 7.924 6.4 14.4 14.4 14.4 3.733 0 7.086-1.448 9.676-3.733.534-.458.99-.991 1.448-1.524h-2.972c-.38-.457-.761-.99-1.066-1.448h5.104c.305-.457.61-.99.839-1.524h-6.781a9.083 9.083 0 01-.61-1.523h7.924c.457-1.448.762-2.972.762-4.572 0-1.067-.153-2.057-.305-3.048h-8.838c.076-.533.229-.99.38-1.523h7.925a9.08 9.08 0 00-.61-1.524h-6.705c.229-.534.534-.99.838-1.524h5.105a7.245 7.245 0 00-1.143-1.524h-2.819c.457-.533.915-.99 1.448-1.447-2.514-2.362-5.943-3.734-9.676-3.734h-.076" fill="#CB2026"/><path d="M14.4 38.4c3.733 0 7.086-1.448 9.676-3.733.534-.458.99-.991 1.448-1.524h-2.972c-.38-.457-.761-.99-1.066-1.448h5.104c.305-.457.61-.99.839-1.524h-6.781a9.083 9.083 0 01-.61-1.523h7.924c.457-1.448.762-2.972.762-4.572 0-1.067-.153-2.057-.305-3.048h-8.838c.076-.533.229-.99.38-1.523h7.925a9.08 9.08 0 00-.61-1.524h-6.705c.229-.534.534-.99.838-1.524h5.105a7.245 7.245 0 00-1.143-1.524h-2.819c.457-.533.915-.99 1.448-1.447-2.514-2.362-5.943-3.734-9.676-3.734h-.076" fill="#CB2026"/><path d="M20.038 25.219c0 2.133 1.448 2.667 2.667 2.667 1.143 0 1.6-.229 1.6-.229l.305-1.448s-.838.381-1.6.381c-1.677 0-1.372-1.219-1.372-1.219h3.124s.229-.99.229-1.371c0-.99-.534-2.21-2.21-2.21-1.6-.152-2.743 1.524-2.743 3.429zm2.667-2.21c.838 0 .686.99.686 1.067h-1.676c0-.076.152-1.067.99-1.067z" fill="#fff"/><path d="M20.8 25.22c0 2.133.686 2.666 1.905 2.666 1.143 0 1.6-.229 1.6-.229l.305-1.447s-.838.38-1.6.38c-1.676 0-1.372-1.218-1.372-1.218h3.124s.229-.99.229-1.372c0-.99-.534-2.21-2.21-2.21-1.6-.152-1.98 1.524-1.98 3.43zm1.905-2.21c.838 0 .99.99.99 1.066h-1.98c0-.076.152-1.066.99-1.066z" fill="#DCE5E5"/><path d="M45.029 20.419l-.305 2.057s-.61-.762-1.447-.762c-1.372 0-2.59 1.676-2.59 3.657 0 1.22.609 2.515 1.904 2.515.914 0 1.447-.61 1.447-.61l-.076.533h1.524l1.143-7.314-1.6-.076zm-.686 4.038c0 .838-.38 1.905-1.219 1.905-.533 0-.838-.457-.838-1.22 0-1.218.533-1.98 1.22-1.98.532 0 .837.38.837 1.295zm-5.105 3.276c.458-2.514.534-4.571 1.6-4.19.153-.99.381-1.372.534-1.753h-.305c-.686 0-1.22.915-1.22.915l.153-.838h-1.447l-.99 5.942h1.675v-.076z" fill="#fff"/><path d="M44.724 22.476s-.61-.762-1.447-.762c-1.372 0-1.829 1.677-1.829 3.657 0 1.22-.152 2.515 1.143 2.515.914 0 1.447-.61 1.447-.61l-.076.533h1.524l1.143-7.314-1.905 1.981zm-.076 1.981c0 .838-.686 1.905-1.524 1.905-.533 0-.838-.457-.838-1.22 0-1.218.533-1.98 1.22-1.98.532 0 1.142.38 1.142 1.295zm-25.143 3.2l.229-1.295c-.077 0-.229.076-.381.076-.534 0-.61-.305-.534-.457l.458-2.667h.838l.228-1.447h-.762l.153-.915H18.21s-.914 5.03-.914 5.639c0 .914.533 1.295 1.219 1.295.457 0 .838-.153.99-.229zm12.876 0l.305-1.676s-.762.38-1.295.38c-1.067 0-1.524-.837-1.524-1.752 0-1.828.914-2.819 1.98-2.819.763 0 1.372.457 1.372.457l.229-1.6s-.915-.38-1.753-.38c-1.752 0-3.504 1.523-3.504 4.419 0 1.904.914 3.2 2.742 3.2.61 0 1.448-.229 1.448-.229zm-21.257-6.019c-1.067 0-1.828.305-1.828.305l-.23 1.295s.687-.305 1.677-.305c.534 0 .99.077.99.534 0 .305-.076.38-.076.38h-.685c-1.296 0-2.743.534-2.743 2.287 0 1.37.914 1.676 1.447 1.676 1.067 0 1.524-.686 1.6-.686l-.076.61h1.372l.61-4.191c0-1.829-1.525-1.905-2.058-1.905zm.305 3.429c0 .228-.152 1.447-1.067 1.447-.457 0-.61-.38-.61-.61 0-.38.23-.913 1.372-.913.229.076.305.076.305.076zm3.2 2.743c.38 0 2.286.075 2.286-1.982 0-1.904-1.829-1.524-1.829-2.285 0-.381.305-.534.838-.534.229 0 1.067.076 1.067.076l.228-1.371s-.533-.152-1.447-.152c-1.143 0-2.286.457-2.286 1.98 0 1.753 1.905 1.6 1.905 2.286 0 .457-.534.534-.915.534-.685 0-1.37-.229-1.37-.229l-.23 1.371c.077.153.458.305 1.753.305zM2.82 27.733l.914-5.486.152 5.486h1.067l1.98-5.486-.837 5.486h1.6l1.219-7.314H6.4l-1.523 4.495L4.8 20.42H2.59l-1.218 7.314h1.447zm23.618 0c.457-2.514.534-4.571 1.6-4.19.153-.99.381-1.372.534-1.753h-.305c-.686 0-1.22.915-1.22.915l.153-.838h-1.447l-.991 5.942h1.676v-.076zm9.448-6.095c-1.067 0-1.829.305-1.829.305l-.228 1.295s.686-.305 1.676-.305c.533 0 .99.077.99.534 0 .305-.076.38-.076.38h-.685c-1.296 0-2.743.534-2.743 2.287 0 1.37.914 1.676 1.447 1.676 1.067 0 1.524-.686 1.6-.686l-.076.61h1.372l.61-4.191c.075-1.829-1.525-1.905-2.058-1.905zm.381 3.429c0 .228-.152 1.447-1.067 1.447-.457 0-.61-.38-.61-.61 0-.38.23-.913 1.372-.913.229.076.229.076.305.076z" fill="#fff"/><path d="M17.143 26.59c0 .915.534 1.296 1.22 1.296.532 0 .99-.153 1.142-.229l.229-1.295c-.077 0-.229.076-.381.076-.534 0-.61-.305-.534-.457l.458-2.667h.838l.228-1.447h-.762l.153-.915m12.647 6.705l.305-1.676s-.762.38-1.295.38c-1.067 0-1.524-.837-1.524-1.752 0-1.828.914-2.819 1.98-2.819.763 0 1.372.457 1.372.457l.229-1.6s-.915-.38-1.753-.38c-1.752 0-2.742 1.523-2.742 4.419 0 1.904.152 3.2 1.98 3.2.61 0 1.448-.229 1.448-.229zM9.067 23.314s.686-.305 1.676-.305c.534 0 .99.077.99.534 0 .305-.076.38-.076.38h-.685c-1.296 0-2.743.534-2.743 2.287 0 1.37.914 1.676 1.447 1.676 1.067 0 1.524-.686 1.6-.686l-.076.61h1.372l.61-4.191c0-1.752-1.525-1.829-2.134-1.829l-1.981 1.524zm3.124 1.753c0 .228-.915 1.447-1.829 1.447-.457 0-.61-.38-.61-.61 0-.38.23-.913 1.372-.913.229.076 1.067.076 1.067.076zm.762 2.59s.457.152 1.752.152c.38 0 2.286.076 2.286-1.98 0-1.905-1.829-1.525-1.829-2.287 0-.38.305-.533.838-.533.229 0 1.067.076 1.067.076l.228-1.371s-.533-.152-1.447-.152c-1.143 0-1.524.457-1.524 1.98 0 1.753 1.143 1.6 1.143 2.286 0 .457-.534.534-.915.534M2.82 27.733l.914-5.486.152 5.486h1.067l1.98-5.486-.837 5.486h1.6l1.219-7.314H7.01l-2.133 4.495L4.8 20.42h-.838l-2.59 7.314h1.447zm22.019 0h1.6c.456-2.514.532-4.571 1.6-4.19.152-.99.38-1.372.532-1.753h-.304c-.686 0-1.22.915-1.22.915l.153-.838m6.629 1.447s.686-.305 1.676-.305c.533 0 .99.077.99.534 0 .305-.076.38-.076.38h-.685c-1.296 0-2.743.534-2.743 2.287 0 1.37.914 1.676 1.447 1.676 1.067 0 1.524-.686 1.6-.686l-.076.61h1.372l.61-4.191c0-1.752-1.525-1.829-2.134-1.829l-1.981 1.524zm3.124 1.753c0 .228-.915 1.447-1.829 1.447-.457 0-.61-.38-.61-.61 0-.38.23-.914 1.372-.914.305.077 1.067.077 1.067.077zm.685 2.666h1.6c.458-2.514.534-4.571 1.6-4.19.153-.99.381-1.372.534-1.753h-.305c-.686 0-1.22.915-1.22.915l.153-.838" fill="#fff"/></svg>