<svg width="64" height="64" viewBox="0 0 64 64" fill="none" xmlns="http://www.w3.org/2000/svg">
<path d="M18.2461 52.9052H13.6577L24.2437 42.3592L21.5972 39.7026L11.0376 50.2223V45.6973H7.2876V56.6549H18.2461V52.9052Z" fill="white"/>
<path d="M45.7539 52.9052V56.6549H56.7124V45.6973H52.9624V50.2223L42.4028 39.7026L39.7563 42.3592L50.3423 52.9052H45.7539Z" fill="white"/>
<path d="M11.0376 13.7778L21.5972 24.2975L24.2437 21.6409L13.6577 11.0949H18.2461V7.34521H7.2876V18.3028H11.0376V13.7778Z" fill="white"/>
<path d="M42.4028 24.2975L52.9624 13.7778V18.3028H56.7124V7.34521H45.7539V11.0949H50.3423L39.7563 21.6409L42.4028 24.2975Z" fill="white"/>
<path d="M6 0C2.68629 0 0 2.68629 0 6V58C0 61.3137 2.68629 64 6 64H58C61.3137 64 64 61.3137 64 58V6C64 2.68629 61.3137 0 58 0H6ZM60.25 54.25C60.25 57.5637 57.5637 60.25 54.25 60.25H9.75C6.43629 60.25 3.75 57.5637 3.75 54.25V9.75C3.75 6.43629 6.43629 3.75 9.75 3.75H54.25C57.5637 3.75 60.25 6.43629 60.25 9.75V54.25Z" fill="white"/>
</svg>
