<svg width="42" height="42" viewBox="0 0 42 42" fill="none" xmlns="http://www.w3.org/2000/svg">
<path d="M24.3874 34.0961C24.3874 28.7246 28.7425 24.3695 34.1139 24.3695C35.0227 24.3695 35.9013 24.5045 36.7366 24.7381V11.7658L24.925 0H2.64059C1.19278 0 0.0177002 1.17372 0.0177002 2.62275V39.3417C0.0177002 40.7907 1.19264 41.9645 2.64045 41.9645H28.4119C25.9767 40.1967 24.3874 37.3366 24.3874 34.0961Z" fill="url(#paint0_linear)"/>
<path d="M36.6989 11.8026H27.5572C26.1094 11.8026 24.9344 10.6277 24.9344 9.17988V0.0263672L36.6989 11.8026Z" fill="url(#paint1_linear)"/>
<path d="M34.1138 26.2632C38.4597 26.2632 41.9822 29.7869 41.9822 34.1316C41.9822 38.4749 38.4598 42 34.1138 42C29.7705 42 26.2454 38.475 26.2454 34.1316C26.2454 29.7869 29.7705 26.2632 34.1138 26.2632Z" fill="url(#paint2_linear)"/>
<path d="M26.8986 19.8844C27.3379 19.8844 27.553 19.5015 27.553 19.1304C27.553 18.7461 27.3287 18.375 26.8986 18.375H24.3965C23.9073 18.375 23.6346 18.7802 23.6346 19.2274V25.3765C23.6346 25.9247 23.9466 26.2289 24.3689 26.2289C24.7886 26.2289 25.102 25.9247 25.102 25.3765V23.6888H26.6154C27.0849 23.6888 27.3196 23.3045 27.3196 22.9229C27.3196 22.5492 27.0849 22.178 26.6154 22.178H25.102V19.8844H26.8986ZM18.4414 18.375H16.6107C16.1137 18.375 15.7609 18.716 15.7609 19.2221V25.3818C15.7609 26.0099 16.2684 26.2066 16.6316 26.2066H18.5528C20.8267 26.2066 22.3283 24.7104 22.3283 22.4009C22.3272 19.9592 20.9134 18.375 18.4414 18.375ZM18.5294 24.6881H17.4133V19.8936H18.4192C19.9418 19.8936 20.6039 20.9153 20.6039 22.3249C20.6039 23.6443 19.9536 24.6881 18.5294 24.6881ZM11.8229 18.375H10.0092C9.49647 18.375 9.21057 18.7133 9.21057 19.2274V25.3765C9.21057 25.9247 9.5384 26.2289 9.97898 26.2289C10.4196 26.2289 10.7474 25.9247 10.7474 25.3765V23.5812H11.8843C13.2875 23.5812 14.4455 22.5871 14.4455 20.9885C14.4456 19.4242 13.3284 18.375 11.8229 18.375ZM11.7928 22.1388H10.7475V19.8189H11.7928C12.438 19.8189 12.8484 20.3224 12.8484 20.9794C12.8471 21.6352 12.438 22.1388 11.7928 22.1388Z" fill="white"/>
<path fill-rule="evenodd" clip-rule="evenodd" d="M36.9722 34.3559L34.4973 36.8308C34.3455 36.9826 34.0992 36.9826 33.9474 36.8308L31.4725 34.3559C31.3206 34.204 31.3206 33.9578 31.4725 33.8059C31.6244 33.654 31.8706 33.654 32.0225 33.8059L33.8335 35.6169L33.8335 31.1113L34.6112 31.1113L34.6112 35.6169L36.4222 33.8059C36.5741 33.654 36.8203 33.654 36.9722 33.8059C37.1241 33.9578 37.1241 34.204 36.9722 34.3559Z" fill="white"/>
<defs>
<linearGradient id="paint0_linear" x1="18.3772" y1="0" x2="18.3772" y2="41.9645" gradientUnits="userSpaceOnUse">
<stop stop-color="#BFDFF0"/>
<stop offset="1" stop-color="#7AB7E2"/>
</linearGradient>
<linearGradient id="paint1_linear" x1="36.6989" y1="11.8026" x2="22.7322" y2="7.89245" gradientUnits="userSpaceOnUse">
<stop stop-color="#3F93C9"/>
<stop offset="1" stop-color="#A7CCE4"/>
</linearGradient>
<linearGradient id="paint2_linear" x1="41.9822" y1="42" x2="23.3023" y2="36.765" gradientUnits="userSpaceOnUse">
<stop stop-color="#3F93C9"/>
<stop offset="1" stop-color="#A7CCE4"/>
</linearGradient>
</defs>
</svg>
