<svg width="159" height="527" viewBox="0 0 159 527" fill="none" xmlns="http://www.w3.org/2000/svg">
<path d="M0.0834935 395.273L0.0834961 526.836L227.956 526.836L227.956 395.273L0.0834935 395.273Z" fill="transparent"/>
<path d="M115.338 502.629L117.758 501.231L115.338 502.629Z" fill="white"/>
<path d="M115.338 505.669L152 484.502L115.338 505.669Z" fill="white"/>
<path d="M130.558 425.229L152 437.607L130.558 425.229Z" fill="white"/>
<path d="M142.206 444.782L123.816 434.163L123.816 487.946L142.206 477.328L142.206 444.782ZM139.574 475.807L126.447 483.386L126.447 438.718L139.574 446.296L139.574 475.807Z" fill="white"/>
<path d="M112.706 505.669L105.134 501.301L112.706 505.669Z" fill="white"/>
<path d="M77.3538 436.847L111.391 417.201L77.3538 436.847Z" fill="white"/>
<path d="M106.427 499.009L114.022 503.389L115.338 502.629L115.338 419.481L114.022 418.721L112.706 419.481L112.706 502.629L106.427 499.009Z" fill="white"/>
<path d="M104.228 487.946L104.228 434.163L85.8384 444.782L85.8384 477.328L104.228 487.946ZM88.4638 446.302L101.591 438.724L101.591 483.385L88.4638 475.807L88.4638 446.302Z" fill="white"/>
<path d="M1.39819 485.263L25.0269 498.904L1.39819 485.263Z" fill="white"/>
<path d="M9.87695 499.945L9.87695 526.836L12.5082 526.836L12.5082 504.506L25.6353 512.084L25.6353 526.836L28.2665 526.836L28.2665 510.564L9.87695 499.945Z" fill="white"/>
<path d="M0.0834953 484.502L0.0834961 526.836L1.39912 526.836L1.39912 485.262L0.0834953 484.502Z" fill="white"/>
<path d="M1.39819 436.847L26.0209 422.633L1.39819 436.847Z" fill="white"/>
<path d="M28.2665 411.546L28.2665 395.273L25.6353 395.273L25.6353 410.026L12.5082 417.604L12.5082 395.273L9.87695 395.273L9.87695 422.165L28.2665 411.546Z" fill="white"/>
<path d="M0.0830078 437.608L1.39864 436.848L1.39864 395.274L0.083007 395.274L0.0830078 437.608Z" fill="white"/>
<path d="M74.7229 441.408L38.7214 462.195L74.7229 441.408Z" fill="white"/>
<path d="M73.4074 439.128L37.406 459.915L73.4074 439.128Z" fill="white"/>
<path d="M39.3762 416.441L76.0384 437.608L39.3762 416.441Z" fill="white"/>
<path d="M1.39864 441.408L1.39864 480.702L1.39864 439.888L38.0608 418.721L36.7452 417.961L36.7452 416.441L26.0214 422.633L1.39864 436.847L0.083007 437.608L1.39864 438.368L1.39864 441.408Z" fill="white"/>
<path d="M38.0606 428.509L9.87695 444.782L9.87695 466.019L56.4502 439.128L38.0606 428.509ZM12.5082 446.302L38.0606 431.55L51.1877 439.128L12.5082 461.458L12.5082 446.302Z" fill="white"/>
<path d="M77.3542 436.847L76.0386 437.607L77.3542 436.847Z" fill="white"/>
<path d="M1.39819 480.702L1.39819 482.222L2.71382 482.982L1.39819 483.742L1.39819 485.263L25.0269 498.904L36.7447 505.669L35.4291 504.909L36.7447 504.149L36.7447 502.629L38.0604 503.389L38.3001 503.255L38.0604 503.389L2.71382 482.982L38.7211 462.195L74.7225 441.408L74.7225 482.222L76.0382 481.462L77.3538 482.222L77.3538 439.888L76.0382 440.648L73.4069 439.128L37.4055 459.915L1.39819 480.702Z" fill="white"/>
<path d="M40.6919 504.909L76.0384 484.502L40.6919 504.909Z" fill="white"/>
<path d="M19.6711 482.982L38.0607 493.601L66.2444 477.328L66.2444 456.091L19.6711 482.982ZM63.6131 475.808L38.0607 490.56L24.9337 482.982L63.6131 460.652L63.6131 475.808Z" fill="white"/>
<path d="M36.7451 505.669L36.7451 526.836L39.3764 526.836L39.3764 507.19L36.7451 505.669Z" fill="white"/>
<path d="M78.6695 526.836L76.699 525.696L78.6695 526.836Z" fill="white"/>
<path d="M36.7451 504.149L38.0607 503.389L36.7451 502.629L36.7451 504.149Z" fill="white"/>
<path d="M47.8545 526.836L50.4857 526.836L50.4857 526.433L51.1874 526.836L56.4499 526.836L47.8545 521.872L47.8545 526.836Z" fill="white"/>
<path d="M40.6917 504.909L76.0382 484.502L105.134 501.302L112.706 505.669L112.706 504.149L114.022 503.389L106.426 499.009L77.3539 482.222L76.0382 481.462L74.7226 482.222L38.3002 503.255L38.0605 503.389L36.7448 504.149L35.4292 504.909L36.7448 505.669L39.3761 507.19L73.407 526.836L78.6695 526.836L76.699 525.696L40.6917 504.909Z" fill="white"/>
<path d="M76.0382 494.291L57.6487 504.909L95.6265 526.836L100.889 526.836L62.9112 504.909L76.0382 497.331L101.597 512.084L101.597 526.836L104.228 526.836L104.228 510.564L76.0382 494.291Z" fill="white"/>
<path d="M112.706 414.92L78.6697 395.273L112.706 414.92Z" fill="white"/>
<path d="M36.7451 416.44L36.7451 417.961L38.0607 418.721L73.4073 439.128L76.0385 440.648L77.3542 439.888L112.707 419.481L114.022 418.721L112.707 419.481L112.707 417.961L73.4073 395.273L111.391 417.201L77.3542 436.847L76.0385 437.607L39.3764 416.44L39.3764 395.273L36.7451 395.273L36.7451 416.44Z" fill="white"/>
<path d="M76.0382 427.819L94.4336 417.201L56.4499 395.273L51.1874 395.273L89.1711 417.201L76.0382 424.779L50.4857 410.026L50.4857 395.273L47.8545 395.273L47.8545 411.546L76.0382 427.819Z" fill="white"/>
<path d="M115.338 419.481L114.022 418.721L115.338 419.481Z" fill="white"/>
<path d="M112.707 417.961L111.391 417.201L112.707 416.441L112.707 414.92L78.6697 395.274L73.4072 395.274L112.707 417.961Z" fill="white"/>
<path d="M104.228 395.273L101.597 395.273L101.597 395.677L100.889 395.273L95.6267 395.273L104.228 400.238L104.228 395.273Z" fill="white"/>
<path d="M1.39819 482.222L1.39819 483.742L2.71382 482.982L1.39819 482.222Z" fill="white"/>
<path d="M1.39864 485.263L1.39864 483.742L1.39864 482.222L1.39864 480.702L1.39864 441.408L1.39864 438.368L0.0830069 437.608L0.0830078 484.502L1.39864 485.263Z" fill="white"/>
<path d="M152 481.462L153.316 482.222L153.316 441.408L150.685 439.888L150.685 482.222L152 481.462Z" fill="white"/>
<path d="M152 484.502L187.346 504.909L152 484.502Z" fill="white"/>
<path d="M152 437.607L188.662 416.44L152 437.607Z" fill="white"/>
<path d="M207.221 425.638L191.293 416.441L191.293 417.961L189.977 418.721L226.64 439.888L226.64 480.702L190.632 459.915L154.631 439.128L152 440.648L149.368 439.128L150.684 439.888L153.315 441.408L189.317 462.195L227.955 484.502L227.955 437.608L207.221 425.638Z" fill="white"/>
<path d="M112.707 414.92L112.707 416.44L115.338 414.92L115.338 395.273L112.707 395.273L112.707 414.92Z" fill="white"/>
<path d="M112.707 417.961L112.707 419.481L114.022 418.721L112.707 417.961Z" fill="white"/>
<path d="M132.412 395.274L127.149 395.274L126.447 395.677L126.447 395.274L123.816 395.274L123.816 400.238L132.412 395.274Z" fill="white"/>
<path d="M112.706 416.44L111.391 417.2L112.706 417.961L114.022 418.721L115.338 419.481L149.369 439.128L152 440.648L154.631 439.128L189.978 418.721L191.293 417.961L191.293 416.44L191.293 395.273L188.662 395.273L188.662 416.44L152 437.607L130.558 425.229L116.653 417.2L154.631 395.273L149.369 395.273L115.338 414.92L112.706 416.44Z" fill="white"/>
<path d="M152 427.819L180.184 411.546L180.184 395.273L177.553 395.273L177.553 410.026L152 424.779L138.873 417.201L176.851 395.273L171.588 395.273L133.611 417.201L152 427.819Z" fill="white"/>
<path d="M188.662 507.19L154.631 526.836L188.662 507.19Z" fill="white"/>
<path d="M115.338 505.669L152 484.502L187.347 504.909L151.339 525.696L189.978 503.389L153.316 482.222L152 481.462L150.684 482.222L117.759 501.231L115.338 502.629L114.022 503.389L112.707 504.149L112.707 505.669L112.707 507.19L112.707 526.836L115.338 526.836L115.338 507.19L115.338 505.669Z" fill="white"/>
<path d="M152 494.291L123.816 510.564L123.816 526.836L126.447 526.836L126.447 512.084L152 497.331L165.127 504.909L127.149 526.836L132.412 526.836L170.389 504.909L152 494.291Z" fill="white"/>
<path d="M191.293 505.669L191.293 504.149L191.293 502.629L189.978 503.389L151.339 525.696L149.369 526.836L154.631 526.836L188.662 507.19L188.662 526.836L191.293 526.836L191.293 505.669Z" fill="white"/>
<path d="M0.0830052 263.711L0.0830078 395.274L227.956 395.274L227.956 263.711L0.0830052 263.711Z" fill="transparent"/>
<path d="M115.338 371.066L117.758 369.668L115.338 371.066Z" fill="white"/>
<path d="M115.338 374.106L152 352.939L115.338 374.106Z" fill="white"/>
<path d="M130.558 293.666L152 306.045L130.558 293.666Z" fill="white"/>
<path d="M142.206 313.219L123.816 302.601L123.816 356.383L142.206 345.765L142.206 313.219ZM139.575 344.245L126.448 351.823L126.448 307.156L139.575 314.734L139.575 344.245Z" fill="white"/>
<path d="M112.706 374.106L105.134 369.738L112.706 374.106Z" fill="white"/>
<path d="M77.3538 305.285L111.391 285.638L77.3538 305.285Z" fill="white"/>
<path d="M106.427 367.446L114.022 371.826L115.338 371.066L115.338 287.918L114.022 287.158L112.706 287.918L112.706 371.066L106.427 367.446Z" fill="white"/>
<path d="M104.228 356.383L104.228 302.601L85.8384 313.219L85.8384 345.765L104.228 356.383ZM88.4638 314.739L101.591 307.161L101.591 351.828L88.4638 344.25L88.4638 314.739Z" fill="white"/>
<path d="M1.39819 353.7L25.0269 367.341L1.39819 353.7Z" fill="white"/>
<path d="M9.87695 368.382L9.87695 395.274L12.5082 395.274L12.5082 372.943L25.6353 380.521L25.6353 395.274L28.2665 395.274L28.2665 379.001L9.87695 368.382Z" fill="white"/>
<path d="M0.083007 352.94L0.0830078 395.274L1.39864 395.274L1.39864 353.7L0.083007 352.94Z" fill="white"/>
<path d="M1.39819 305.285L26.0209 291.07L1.39819 305.285Z" fill="white"/>
<path d="M28.2665 279.984L28.2665 263.711L25.6353 263.711L25.6353 278.463L12.5082 286.041L12.5082 263.711L9.87695 263.711L9.87695 290.602L28.2665 279.984Z" fill="white"/>
<path d="M0.0830078 306.045L1.39864 305.285L1.39864 263.711L0.083007 263.711L0.0830078 306.045Z" fill="white"/>
<path d="M74.7229 309.845L38.7214 330.632L74.7229 309.845Z" fill="white"/>
<path d="M73.4074 307.565L37.406 328.352L73.4074 307.565Z" fill="white"/>
<path d="M39.3762 284.878L76.0384 306.045L39.3762 284.878Z" fill="white"/>
<path d="M1.39864 309.845L1.39864 349.139L1.39864 308.325L38.0608 287.158L36.7452 286.398L36.7452 284.878L26.0214 291.07L1.39864 305.285L0.083007 306.045L1.39864 306.805L1.39864 309.845Z" fill="white"/>
<path d="M38.0606 296.946L9.87695 313.219L9.87695 334.456L56.4502 307.565L38.0606 296.946ZM12.5082 314.74L38.0606 299.987L51.1877 307.565L12.5082 329.896L12.5082 314.74Z" fill="white"/>
<path d="M77.354 305.285L76.0383 306.045L77.354 305.285Z" fill="white"/>
<path d="M1.39819 349.139L1.39819 350.659L2.71382 351.419L1.39819 352.179L1.39819 353.7L25.0269 367.341L36.7447 374.106L35.4291 373.346L36.7447 372.586L36.7447 371.066L38.0604 371.826L38.3001 371.692L38.0604 371.826L2.71382 351.419L38.7211 330.632L74.7225 309.845L74.7225 350.659L76.0382 349.899L77.3538 350.659L77.3538 308.325L76.0382 309.085L73.4069 307.565L37.4055 328.352L1.39819 349.139Z" fill="white"/>
<path d="M40.6919 373.346L76.0384 352.939L40.6919 373.346Z" fill="white"/>
<path d="M19.6711 351.419L38.0607 362.038L66.2444 345.765L66.2444 324.528L19.6711 351.419ZM63.6131 344.245L38.0607 358.997L24.9337 351.419L63.6131 329.089L63.6131 344.245Z" fill="white"/>
<path d="M36.7451 374.106L36.7451 395.273L39.3764 395.273L39.3764 375.627L36.7451 374.106Z" fill="white"/>
<path d="M78.6697 395.274L76.6992 394.133L78.6697 395.274Z" fill="white"/>
<path d="M36.7451 372.586L38.0607 371.826L36.7451 371.066L36.7451 372.586Z" fill="white"/>
<path d="M47.8545 395.273L50.4857 395.273L50.4857 394.87L51.1874 395.273L56.4499 395.273L47.8545 390.309L47.8545 395.273Z" fill="white"/>
<path d="M40.6917 373.346L76.0382 352.939L105.134 369.739L112.706 374.106L112.706 372.586L114.022 371.826L106.426 367.446L77.3539 350.659L76.0382 349.899L74.7226 350.659L38.3002 371.692L38.0605 371.826L36.7448 372.586L35.4292 373.346L36.7448 374.106L39.3761 375.627L73.407 395.273L78.6695 395.273L76.699 394.133L40.6917 373.346Z" fill="white"/>
<path d="M76.0382 362.728L57.6487 373.346L95.6265 395.274L100.889 395.274L62.9112 373.346L76.0382 365.768L101.597 380.521L101.597 395.274L104.228 395.274L104.228 379.001L76.0382 362.728Z" fill="white"/>
<path d="M112.706 283.357L78.6697 263.711L112.706 283.357Z" fill="white"/>
<path d="M36.7451 284.878L36.7451 286.398L38.0607 287.158L73.4073 307.565L76.0385 309.085L77.3542 308.325L112.707 287.918L114.022 287.158L112.707 287.918L112.707 286.398L73.4073 263.711L111.391 285.638L77.3542 305.284L76.0385 306.045L39.3764 284.878L39.3764 263.711L36.7451 263.711L36.7451 284.878Z" fill="white"/>
<path d="M76.0382 296.256L94.4336 285.638L56.4499 263.711L51.1874 263.711L89.1711 285.638L76.0382 293.216L50.4857 278.463L50.4857 263.711L47.8545 263.711L47.8545 279.983L76.0382 296.256Z" fill="white"/>
<path d="M115.338 287.918L114.022 287.158L115.338 287.918Z" fill="white"/>
<path d="M112.707 286.398L111.391 285.638L112.707 284.878L112.707 283.357L78.6697 263.711L73.4072 263.711L112.707 286.398Z" fill="white"/>
<path d="M104.228 263.711L101.597 263.711L101.597 264.114L100.889 263.711L95.6267 263.711L104.228 268.675L104.228 263.711Z" fill="white"/>
<path d="M1.39819 350.659L1.39819 352.179L2.71382 351.419L1.39819 350.659Z" fill="white"/>
<path d="M1.39864 353.7L1.39864 352.179L1.39864 350.659L1.39864 349.139L1.39864 309.845L1.39864 306.805L0.0830069 306.045L0.0830078 352.94L1.39864 353.7Z" fill="white"/>
<path d="M152 349.899L153.316 350.659L153.316 309.845L150.684 308.325L150.684 350.659L152 349.899Z" fill="white"/>
<path d="M152 352.939L187.346 373.346L152 352.939Z" fill="white"/>
<path d="M152 306.045L188.662 284.878L152 306.045Z" fill="white"/>
<path d="M207.221 294.075L191.293 284.878L191.293 286.398L189.977 287.158L226.64 308.325L226.64 349.139L190.632 328.352L154.631 307.565L152 309.085L149.368 307.565L150.684 308.325L153.315 309.845L189.317 330.632L227.955 352.94L227.955 306.045L207.221 294.075Z" fill="white"/>
<path d="M112.707 283.357L112.707 284.878L115.338 283.357L115.338 263.711L112.707 263.711L112.707 283.357Z" fill="white"/>
<path d="M112.707 286.398L112.707 287.918L114.022 287.158L112.707 286.398Z" fill="white"/>
<path d="M132.412 263.711L127.149 263.711L126.448 264.114L126.448 263.711L123.816 263.711L123.816 268.675L132.412 263.711Z" fill="white"/>
<path d="M112.706 284.878L111.391 285.638L112.706 286.398L114.022 287.158L115.338 287.918L149.369 307.565L152 309.085L154.631 307.565L189.978 287.158L191.293 286.398L191.293 284.878L191.293 263.711L188.662 263.711L188.662 284.878L152 306.045L130.558 293.666L116.653 285.638L154.631 263.711L149.369 263.711L115.338 283.357L112.706 284.878Z" fill="white"/>
<path d="M152 296.256L180.184 279.984L180.184 263.711L177.553 263.711L177.553 278.463L152 293.216L138.873 285.638L176.851 263.711L171.588 263.711L133.611 285.638L152 296.256Z" fill="white"/>
<path d="M188.662 375.627L154.631 395.274L188.662 375.627Z" fill="white"/>
<path d="M115.338 374.107L152 352.94L187.347 373.346L151.339 394.133L189.978 371.826L153.316 350.659L152 349.899L150.684 350.659L117.759 369.669L115.338 371.066L114.022 371.826L112.707 372.586L112.707 374.107L112.707 375.627L112.707 395.274L115.338 395.274L115.338 375.627L115.338 374.107Z" fill="white"/>
<path d="M152 362.728L123.816 379.001L123.816 395.274L126.447 395.274L126.447 380.521L152 365.768L165.127 373.346L127.149 395.274L132.412 395.274L170.389 373.346L152 362.728Z" fill="white"/>
<path d="M191.293 374.107L191.293 372.586L191.293 371.066L189.977 371.826L151.339 394.133L149.368 395.274L154.631 395.274L188.662 375.627L188.662 395.274L191.293 395.274L191.293 374.107Z" fill="white"/>
<path d="M0.083006 132.148L0.0830078 263.711L227.956 263.711L227.956 132.148L0.083006 132.148Z" fill="transparent"/>
<path d="M115.338 239.503L117.758 238.106L115.338 239.503Z" fill="white"/>
<path d="M115.338 242.544L152 221.377L115.338 242.544Z" fill="white"/>
<path d="M130.558 162.103L152 174.482L130.558 162.103Z" fill="white"/>
<path d="M142.205 181.656L123.816 171.038L123.816 224.821L142.205 214.202L142.205 181.656ZM139.574 212.682L126.447 220.26L126.447 175.593L139.574 183.171L139.574 212.682Z" fill="white"/>
<path d="M112.706 242.544L105.134 238.176L112.706 242.544Z" fill="white"/>
<path d="M77.3538 173.722L111.391 154.075L77.3538 173.722Z" fill="white"/>
<path d="M106.427 235.884L114.022 240.263L115.338 239.503L115.338 156.356L114.022 155.595L112.706 156.356L112.706 239.503L106.427 235.884Z" fill="white"/>
<path d="M104.228 224.821L104.228 171.038L85.8384 181.656L85.8384 214.202L104.228 224.821ZM88.4638 183.177L101.591 175.599L101.591 220.26L88.4638 212.682L88.4638 183.177Z" fill="white"/>
<path d="M1.39819 222.137L25.0269 235.779L1.39819 222.137Z" fill="white"/>
<path d="M9.87695 236.819L9.87695 263.711L12.5082 263.711L12.5082 241.38L25.6353 248.958L25.6353 263.711L28.2665 263.711L28.2665 247.438L9.87695 236.819Z" fill="white"/>
<path d="M0.0830072 221.377L0.0830078 263.711L1.39864 263.711L1.39864 222.137L0.0830072 221.377Z" fill="white"/>
<path d="M1.39819 173.722L26.0209 159.507L1.39819 173.722Z" fill="white"/>
<path d="M28.2665 148.421L28.2665 132.148L25.6353 132.148L25.6353 146.901L12.5082 154.479L12.5082 132.148L9.87695 132.148L9.87695 159.039L28.2665 148.421Z" fill="white"/>
<path d="M0.0830078 174.482L1.39864 173.722L1.39864 132.148L0.0830072 132.148L0.0830078 174.482Z" fill="white"/>
<path d="M74.7226 178.283L38.7212 199.07L74.7226 178.283Z" fill="white"/>
<path d="M73.407 176.002L37.4055 196.789L73.407 176.002Z" fill="white"/>
<path d="M39.3762 153.315L76.0384 174.482L39.3762 153.315Z" fill="white"/>
<path d="M1.39864 178.283L1.39864 217.576L1.39864 176.762L38.0608 155.595L36.7452 154.835L36.7452 153.315L26.0214 159.507L1.39864 173.722L0.0830072 174.482L1.39864 175.242L1.39864 178.283Z" fill="white"/>
<path d="M38.0606 165.384L9.87695 181.657L9.87695 202.894L56.4502 176.002L38.0606 165.384ZM12.5082 183.177L38.0606 168.424L51.1877 176.002L12.5082 198.333L12.5082 183.177Z" fill="white"/>
<path d="M77.354 173.722L76.0383 174.482L77.354 173.722Z" fill="white"/>
<path d="M1.39819 217.576L1.39819 219.096L2.71382 219.857L1.39819 220.617L1.39819 222.137L25.0269 235.779L36.7447 242.544L35.4291 241.784L36.7447 241.024L36.7447 239.503L38.0604 240.263L38.3001 240.129L38.0604 240.263L2.71382 219.857L38.7211 199.07L74.7225 178.283L74.7225 219.096L76.0382 218.336L77.3538 219.096L77.3538 176.762L76.0382 177.523L73.4069 176.002L37.4055 196.789L1.39819 217.576Z" fill="white"/>
<path d="M40.6917 241.784L76.0382 221.377L40.6917 241.784Z" fill="white"/>
<path d="M19.6709 219.857L38.0605 230.475L66.2441 214.202L66.2441 192.965L19.6709 219.857ZM63.6129 212.682L38.0605 227.435L24.9334 219.857L63.6129 197.526L63.6129 212.682Z" fill="white"/>
<path d="M36.7451 242.544L36.7451 263.711L39.3764 263.711L39.3764 244.064L36.7451 242.544Z" fill="white"/>
<path d="M78.6697 263.711L76.6992 262.571L78.6697 263.711Z" fill="white"/>
<path d="M36.7451 241.023L38.0607 240.263L36.7451 239.503L36.7451 241.023Z" fill="white"/>
<path d="M47.8545 263.711L50.4857 263.711L50.4857 263.307L51.1874 263.711L56.4499 263.711L47.8545 258.747L47.8545 263.711Z" fill="white"/>
<path d="M40.6917 241.784L76.0382 221.377L105.134 238.176L112.706 242.544L112.706 241.024L114.022 240.263L106.426 235.884L77.3539 219.096L76.0382 218.336L74.7226 219.096L38.3002 240.129L38.0605 240.263L36.7448 241.024L35.4292 241.784L36.7448 242.544L39.3761 244.064L73.407 263.711L78.6695 263.711L76.699 262.571L40.6917 241.784Z" fill="white"/>
<path d="M76.0382 231.165L57.6487 241.784L95.6265 263.711L100.889 263.711L62.9112 241.784L76.0382 234.206L101.597 248.958L101.597 263.711L104.228 263.711L104.228 247.438L76.0382 231.165Z" fill="white"/>
<path d="M112.706 151.795L78.6697 132.148L112.706 151.795Z" fill="white"/>
<path d="M36.7451 153.315L36.7451 154.835L38.0607 155.595L73.4073 176.002L76.0385 177.523L77.3542 176.762L112.707 156.356L114.022 155.595L112.707 156.356L112.707 154.835L73.4073 132.148L111.391 154.075L77.3542 173.722L76.0385 174.482L39.3764 153.315L39.3764 132.148L36.7451 132.148L36.7451 153.315Z" fill="white"/>
<path d="M76.0382 164.694L94.4336 154.075L56.4499 132.148L51.1874 132.148L89.1711 154.075L76.0382 161.653L50.4857 146.901L50.4857 132.148L47.8545 132.148L47.8545 148.421L76.0382 164.694Z" fill="white"/>
<path d="M115.338 156.356L114.022 155.595L115.338 156.356Z" fill="white"/>
<path d="M112.707 154.835L111.391 154.075L112.707 153.315L112.707 151.795L78.6697 132.148L73.4072 132.148L112.707 154.835Z" fill="white"/>
<path d="M104.228 132.148L101.597 132.148L101.597 132.551L100.889 132.148L95.6267 132.148L104.228 137.112L104.228 132.148Z" fill="white"/>
<path d="M1.39819 219.096L1.39819 220.617L2.71382 219.857L1.39819 219.096Z" fill="white"/>
<path d="M1.39864 222.137L1.39864 220.617L1.39864 219.096L1.39864 217.576L1.39864 178.283L1.39864 175.242L0.0830072 174.482L0.0830078 221.377L1.39864 222.137Z" fill="white"/>
<path d="M152 218.336L153.315 219.096L153.315 178.283L150.684 176.762L150.684 219.096L152 218.336Z" fill="white"/>
<path d="M152 221.377L187.346 241.784L152 221.377Z" fill="white"/>
<path d="M152 174.482L188.662 153.315L152 174.482Z" fill="white"/>
<path d="M207.221 162.513L191.293 153.315L191.293 154.835L189.978 155.595L226.64 176.762L226.64 217.576L190.633 196.789L154.631 176.002L152 177.522L149.369 176.002L150.684 176.762L153.316 178.283L189.317 199.069L227.956 221.377L227.956 174.482L207.221 162.513Z" fill="white"/>
<path d="M112.707 151.795L112.707 153.315L115.338 151.795L115.338 132.148L112.707 132.148L112.707 151.795Z" fill="white"/>
<path d="M112.707 154.835L112.707 156.356L114.022 155.595L112.707 154.835Z" fill="white"/>
<path d="M132.411 132.148L127.149 132.148L126.447 132.551L126.447 132.148L123.816 132.148L123.816 137.112L132.411 132.148Z" fill="white"/>
<path d="M112.706 153.315L111.391 154.075L112.706 154.835L114.022 155.595L115.338 156.356L149.368 176.002L152 177.523L154.631 176.002L189.977 155.595L191.293 154.835L191.293 153.315L191.293 132.148L188.662 132.148L188.662 153.315L152 174.482L130.558 162.103L116.653 154.075L154.631 132.148L149.368 132.148L115.338 151.795L112.706 153.315Z" fill="white"/>
<path d="M152 164.694L180.184 148.421L180.184 132.148L177.553 132.148L177.553 146.901L152 161.653L138.873 154.075L176.851 132.148L171.588 132.148L133.611 154.075L152 164.694Z" fill="white"/>
<path d="M188.662 244.064L154.631 263.711L188.662 244.064Z" fill="white"/>
<path d="M115.338 242.544L152 221.377L187.347 241.784L151.339 262.571L189.978 240.263L153.316 219.096L152 218.336L150.684 219.096L117.759 238.106L115.338 239.503L114.022 240.263L112.707 241.024L112.707 242.544L112.707 244.064L112.707 263.711L115.338 263.711L115.338 244.064L115.338 242.544Z" fill="white"/>
<path d="M152 231.165L123.816 247.438L123.816 263.711L126.447 263.711L126.447 248.958L152 234.206L165.127 241.784L127.149 263.711L132.412 263.711L170.389 241.784L152 231.165Z" fill="white"/>
<path d="M191.293 242.544L191.293 241.024L191.293 239.503L189.977 240.263L151.339 262.571L149.368 263.711L154.631 263.711L188.662 244.064L188.662 263.711L191.293 263.711L191.293 242.544Z" fill="white"/>
<path d="M0.083006 0.585251L0.0830078 132.148L227.956 132.148L227.956 0.585187L0.083006 0.585251Z" fill="transparent"/>
<path d="M115.338 107.94L117.758 106.543L115.338 107.94Z" fill="white"/>
<path d="M115.338 110.981L152 89.814L115.338 110.981Z" fill="white"/>
<path d="M130.558 30.5406L152 42.9192L130.558 30.5406Z" fill="white"/>
<path d="M142.205 50.0938L123.816 39.4752L123.816 93.2581L142.205 82.6395L142.205 50.0938ZM139.574 81.1192L126.447 88.6972L126.447 44.0302L139.574 51.6082L139.574 81.1192Z" fill="white"/>
<path d="M112.706 110.981L105.134 106.613L112.706 110.981Z" fill="white"/>
<path d="M77.3538 42.1591L111.391 22.5123L77.3538 42.1591Z" fill="white"/>
<path d="M106.427 104.321L114.022 108.701L115.338 107.941L115.338 24.7928L114.022 24.0327L112.706 24.7928L112.706 107.941L106.427 104.321Z" fill="white"/>
<path d="M104.228 93.2582L104.228 39.4753L85.8384 50.0939L85.8384 82.6396L104.228 93.2582ZM88.4638 51.6142L101.591 44.0361L101.591 88.7032L88.4638 81.1252L88.4638 51.6142Z" fill="white"/>
<path d="M1.39819 90.5741L25.0269 104.216L1.39819 90.5741Z" fill="white"/>
<path d="M9.87695 105.257L9.87695 132.148L12.5082 132.148L12.5082 109.817L25.6353 117.395L25.6353 132.148L28.2665 132.148L28.2665 115.875L9.87695 105.257Z" fill="white"/>
<path d="M0.0830072 89.8141L0.0830078 132.148L1.39864 132.148L1.39864 90.5742L0.0830072 89.8141Z" fill="white"/>
<path d="M1.39819 42.1591L26.0209 27.9444L1.39819 42.1591Z" fill="white"/>
<path d="M28.2665 16.858L28.2665 0.585122L25.6353 0.585122L25.6353 15.3377L12.5082 22.9157L12.5082 0.585126L9.87695 0.585127L9.87695 27.4766L28.2665 16.858Z" fill="white"/>
<path d="M0.0830078 42.9193L1.39864 42.1592L1.39864 0.585323L0.0830072 0.585323L0.0830078 42.9193Z" fill="white"/>
<path d="M74.7226 46.7198L38.7212 67.5067L74.7226 46.7198Z" fill="white"/>
<path d="M73.407 44.4394L37.4055 65.2263L73.407 44.4394Z" fill="white"/>
<path d="M39.3762 21.7522L76.0384 42.9192L39.3762 21.7522Z" fill="white"/>
<path d="M1.39864 46.7199L1.39864 86.0133L1.39864 45.1996L38.0608 24.0326L36.7452 23.2724L36.7452 21.7522L26.0214 27.9444L1.39864 42.159L0.0830072 42.9192L1.39864 43.6793L1.39864 46.7199Z" fill="white"/>
<path d="M38.0606 33.8209L9.87695 50.0938L9.87695 71.3309L56.4502 44.4395L38.0606 33.8209ZM12.5082 51.614L38.0606 36.8615L51.1877 44.4395L12.5082 66.7701L12.5082 51.614Z" fill="white"/>
<path d="M77.354 42.1591L76.0383 42.9192L77.354 42.1591Z" fill="white"/>
<path d="M1.39819 86.0133L1.39819 87.5336L2.71382 88.2937L1.39819 89.0538L1.39819 90.5741L25.0269 104.216L36.7447 110.981L35.4291 110.221L36.7447 109.461L36.7447 107.94L38.0604 108.701L38.3001 108.566L38.0604 108.701L2.71382 88.2937L38.7211 67.5068L74.7225 46.7198L74.7225 87.5335L76.0382 86.7734L77.3538 87.5335L77.3538 45.1995L76.0382 45.9597L73.4069 44.4394L37.4055 65.2263L1.39819 86.0133Z" fill="white"/>
<path d="M40.6919 110.221L76.0384 89.814L40.6919 110.221Z" fill="white"/>
<path d="M19.6709 88.2938L38.0605 98.9123L66.2441 82.6395L66.2441 61.4023L19.6709 88.2938ZM63.6129 81.1192L38.0605 95.8718L24.9334 88.2938L63.6129 65.9632L63.6129 81.1192Z" fill="white"/>
<path d="M36.7451 110.981L36.7451 132.148L39.3764 132.148L39.3764 112.501L36.7451 110.981Z" fill="white"/>
<path d="M78.6697 132.148L76.6992 131.008L78.6697 132.148Z" fill="white"/>
<path d="M36.7451 109.461L38.0607 108.701L36.7451 107.941L36.7451 109.461Z" fill="white"/>
<path d="M47.8545 132.148L50.4857 132.148L50.4857 131.744L51.1874 132.148L56.4499 132.148L47.8545 127.184L47.8545 132.148Z" fill="white"/>
<path d="M40.6917 110.221L76.0382 89.8141L105.134 106.613L112.706 110.981L112.706 109.461L114.022 108.701L106.426 104.321L77.3539 87.5336L76.0382 86.7735L74.7226 87.5336L38.3002 108.566L38.0605 108.701L36.7448 109.461L35.4292 110.221L36.7448 110.981L39.3761 112.501L73.407 132.148L78.6695 132.148L76.699 131.008L40.6917 110.221Z" fill="white"/>
<path d="M76.0385 99.6023L57.6489 110.221L95.6267 132.148L100.889 132.148L62.9114 110.221L76.0385 102.643L101.597 117.395L101.597 132.148L104.228 132.148L104.228 115.875L76.0385 99.6023Z" fill="white"/>
<path d="M112.707 20.2319L78.6699 0.585215L112.707 20.2319Z" fill="white"/>
<path d="M36.7451 21.7522L36.7451 23.2724L38.0607 24.0326L73.4073 44.4394L76.0385 45.9597L77.3542 45.1996L112.707 24.7927L114.022 24.0326L112.707 24.7927L112.707 23.2724L73.4073 0.585141L111.391 22.5123L77.3542 42.159L76.0385 42.9191L39.3764 21.7522L39.3764 0.585151L36.7451 0.585152L36.7451 21.7522Z" fill="white"/>
<path d="M76.0382 33.131L94.4336 22.5124L56.4499 0.58526L51.1874 0.585261L89.1711 22.5124L76.0382 30.0904L50.4857 15.3378L50.4857 0.585262L47.8545 0.585262L47.8545 16.8581L76.0382 33.131Z" fill="white"/>
<path d="M115.338 24.7927L114.022 24.0326L115.338 24.7927Z" fill="white"/>
<path d="M112.707 23.2724L111.391 22.5123L112.707 21.7522L112.707 20.2319L78.6697 0.585188L73.4072 0.58519L112.707 23.2724Z" fill="white"/>
<path d="M104.228 0.58526L101.597 0.585261L101.597 0.988722L100.889 0.585261L95.6267 0.585263L104.228 5.54956L104.228 0.58526Z" fill="white"/>
<path d="M1.39819 87.5336L1.39819 89.0538L2.71382 88.2937L1.39819 87.5336Z" fill="white"/>
<path d="M1.39864 90.5743L1.39864 89.0541L1.39864 87.5338L1.39864 86.0135L1.39864 46.7201L1.39864 43.6795L0.0830072 42.9194L0.0830078 89.8142L1.39864 90.5743Z" fill="white"/>
<path d="M152 86.7733L153.316 87.5334L153.316 46.7197L150.684 45.1994L150.684 87.5334L152 86.7733Z" fill="white"/>
<path d="M152 89.8141L187.346 110.221L152 89.8141Z" fill="white"/>
<path d="M152 42.9192L188.662 21.7522L152 42.9192Z" fill="white"/>
<path d="M207.221 30.9498L191.293 21.7521L191.293 23.2724L189.978 24.0326L226.64 45.1995L226.64 86.0132L190.633 65.2263L154.631 44.4394L152 45.9597L149.369 44.4394L150.684 45.1995L153.316 46.7198L189.317 67.5068L227.956 89.8139L227.956 42.9191L207.221 30.9498Z" fill="white"/>
<path d="M112.707 20.2319L112.707 21.7522L115.338 20.2319L115.338 0.585193L112.707 0.585194L112.707 20.2319Z" fill="white"/>
<path d="M112.707 23.2724L112.707 24.7927L114.022 24.0326L112.707 23.2724Z" fill="white"/>
<path d="M132.411 0.58526L127.149 0.585262L126.447 0.988723L126.447 0.585262L123.816 0.585263L123.816 5.54956L132.411 0.58526Z" fill="white"/>
<path d="M112.706 21.7522L111.391 22.5123L112.706 23.2724L114.022 24.0326L115.338 24.7927L149.368 44.4394L152 45.9597L154.631 44.4394L189.977 24.0326L191.293 23.2724L191.293 21.7521L191.293 0.585129L188.662 0.58513L188.662 21.7521L152 42.9191L130.558 30.5405L116.653 22.5123L154.631 0.58514L149.368 0.585141L115.338 20.2319L112.706 21.7522Z" fill="white"/>
<path d="M152 33.1309L180.184 16.858L180.184 0.585127L177.553 0.585128L177.553 15.3377L152 30.0903L138.873 22.5123L176.851 0.585128L171.588 0.58513L133.611 22.5123L152 33.1309Z" fill="white"/>
<path d="M188.662 112.501L154.631 132.148L188.662 112.501Z" fill="white"/>
<path d="M115.338 110.981L152 89.8139L187.347 110.221L151.339 131.008L189.978 108.701L153.316 87.5335L152 86.7734L150.684 87.5335L117.759 106.543L115.338 107.94L114.022 108.701L112.707 109.461L112.707 110.981L112.707 112.501L112.707 132.148L115.338 132.148L115.338 112.501L115.338 110.981Z" fill="white"/>
<path d="M152 99.6022L123.816 115.875L123.816 132.148L126.447 132.148L126.447 117.395L152 102.643L165.127 110.221L127.149 132.148L132.411 132.148L170.389 110.221L152 99.6022Z" fill="white"/>
<path d="M191.293 110.981L191.293 109.461L191.293 107.94L189.978 108.701L151.339 131.008L149.369 132.148L154.631 132.148L188.662 112.501L188.662 132.148L191.293 132.148L191.293 110.981Z" fill="white"/>
</svg>
