<svg width="477" height="556" viewBox="0 0 477 556" fill="none" xmlns="http://www.w3.org/2000/svg">
<path d="M475.449 185.035L403.656 226.482L475.449 185.035Z" fill="rgba(255, 255, 255, .4)"/>
<path d="M421.542 243.222L421.542 277.552L427.093 277.552L427.093 246.429L454.787 230.442L454.787 277.552L460.338 277.552L460.338 220.82L421.542 243.222Z" fill="rgba(255, 255, 255, .4)"/>
<path d="M243.416 226.482L248.523 223.534L243.416 226.482Z" fill="rgba(255, 255, 255, .4)"/>
<path d="M243.416 232.897L320.76 188.242L243.416 232.897Z" fill="rgba(255, 255, 255, .4)"/>
<path d="M275.525 63.1957L320.76 89.3102L275.525 63.1957Z" fill="rgba(255, 255, 255, .4)"/>
<path d="M300.098 104.446L261.302 82.0445L261.302 195.508L300.098 173.106L300.098 104.446ZM294.547 169.899L266.854 185.886L266.854 91.6539L294.547 107.641L294.547 169.899Z" fill="rgba(255, 255, 255, .4)"/>
<path d="M237.865 232.897L221.89 223.682L237.865 232.897Z" fill="rgba(255, 255, 255, .4)"/>
<path d="M163.283 87.7065L235.089 46.2588L163.283 87.7065Z" fill="rgba(255, 255, 255, .4)"/>
<path d="M224.616 218.847L240.64 228.086L243.415 226.482L243.415 51.0697L240.64 49.4661L237.864 51.0697L237.864 226.482L224.616 218.847Z" fill="rgba(255, 255, 255, .4)"/>
<path d="M219.978 195.508L219.978 82.0445L181.182 104.446L181.182 173.106L219.978 195.508ZM186.721 107.653L214.415 91.6663L214.415 185.898L186.721 169.911L186.721 107.653Z" fill="rgba(255, 255, 255, .4)"/>
<path d="M3.0437 189.845L52.892 218.625L3.0437 189.845Z" fill="rgba(255, 255, 255, .4)"/>
<path d="M20.9304 220.82L20.9304 277.552L26.4815 277.552L26.4814 230.442L54.1749 246.429L54.1749 277.552L59.726 277.552L59.726 243.222L20.9304 220.82Z" fill="rgba(255, 255, 255, .4)"/>
<path d="M0.268307 188.242L0.268311 277.552L3.04383 277.552L3.04382 189.845L0.268307 188.242Z" fill="rgba(255, 255, 255, .4)"/>
<path d="M3.0437 87.7065L54.989 57.7186L3.0437 87.7065Z" fill="rgba(255, 255, 255, .4)"/>
<path d="M59.726 34.3303L59.726 0.000276777L54.1749 0.00027702L54.1749 31.1231L26.4815 47.11L26.4814 0.00027823L20.9304 0.000278473L20.9304 56.7318L59.726 34.3303Z" fill="rgba(255, 255, 255, .4)"/>
<path d="M0.268311 89.3102L3.04383 87.7066L3.04382 0.000259278L0.268307 0.000259399L0.268311 89.3102Z" fill="rgba(255, 255, 255, .4)"/>
<path d="M437.258 64.0592L481 89.3102L481 0.000257487L478.224 0.000257609L478.224 87.7066L437.258 64.0592Z" fill="rgba(255, 255, 255, .4)"/>
<path d="M460.338 56.7318L460.338 0.000276777L454.787 0.00027702L454.787 47.11L427.093 31.1231L427.093 0.00027823L421.542 0.000278473L421.542 34.3303L460.338 56.7318Z" fill="rgba(255, 255, 255, .4)"/>
<path d="M157.733 97.3282L81.7822 141.181L157.733 97.3282Z" fill="rgba(255, 255, 255, .4)"/>
<path d="M154.957 92.5175L79.0066 136.371L154.957 92.5175Z" fill="rgba(255, 255, 255, .4)"/>
<path d="M83.1636 44.6552L160.508 89.3102L83.1636 44.6552Z" fill="rgba(255, 255, 255, .4)"/>
<path d="M3.04382 97.3283L3.04383 180.224L3.04382 94.1211L80.3882 49.4661L77.6127 47.8625L77.6127 44.6552L54.9891 57.7187L3.04382 87.7066L0.268307 89.3102L3.04382 90.9138L3.04382 97.3283Z" fill="rgba(255, 255, 255, .4)"/>
<path d="M80.3881 70.1159L20.9304 104.446L20.9304 149.249L119.184 92.5174L80.3881 70.1159ZM26.4814 107.653L80.3881 76.5304L108.082 92.5174L26.4815 139.627L26.4814 107.653Z" fill="rgba(255, 255, 255, .4)"/>
<path d="M163.283 87.7066L160.508 89.3102L163.283 87.7066Z" fill="rgba(255, 255, 255, .4)"/>
<path d="M3.0437 180.224L3.0437 183.431L5.81921 185.035L3.0437 186.638L3.0437 189.845L52.892 218.624L77.6126 232.897L74.837 231.293L77.6126 229.689L77.6126 226.482L80.3881 228.086L80.8938 227.802L80.3881 228.086L5.81921 185.035L81.782 141.181L157.732 97.3282L157.732 183.431L160.508 181.827L163.283 183.431L163.283 94.1209L160.508 95.7246L154.957 92.5173L79.0065 136.37L3.0437 180.224Z" fill="rgba(255, 255, 255, .4)"/>
<path d="M85.9392 231.293L160.508 188.242L85.9392 231.293Z" fill="rgba(255, 255, 255, .4)"/>
<path d="M41.5925 185.035L80.3881 207.436L139.846 173.106L139.846 128.303L41.5925 185.035ZM134.295 169.899L80.3881 201.022L52.6946 185.035L134.295 137.925L134.295 169.899Z" fill="rgba(255, 255, 255, .4)"/>
<path d="M77.6125 232.897L77.6125 277.552L83.1636 277.552L83.1636 236.104L77.6125 232.897Z" fill="rgba(255, 255, 255, .4)"/>
<path d="M166.059 277.552L161.902 275.146L166.059 277.552Z" fill="rgba(255, 255, 255, .4)"/>
<path d="M77.6125 229.69L80.3881 228.086L77.6125 226.482L77.6125 229.69Z" fill="rgba(255, 255, 255, .4)"/>
<path d="M101.05 277.552L106.601 277.552L106.601 276.701L108.082 277.552L119.184 277.552L101.05 267.079L101.05 277.552Z" fill="rgba(255, 255, 255, .4)"/>
<path d="M85.939 231.293L160.508 188.242L221.89 223.682L237.865 232.897L237.865 229.69L240.64 228.086L224.616 218.847L163.283 183.431L160.508 181.827L157.732 183.431L80.8937 227.802L80.3879 228.086L77.6124 229.69L74.8369 231.293L77.6124 232.897L83.1635 236.104L154.957 277.552L166.059 277.552L161.902 275.146L85.939 231.293Z" fill="rgba(255, 255, 255, .4)"/>
<path d="M160.508 208.892L121.712 231.293L201.832 277.552L212.934 277.552L132.814 231.293L160.508 215.306L214.427 246.429L214.427 277.552L219.978 277.552L219.978 243.222L160.508 208.892Z" fill="rgba(255, 255, 255, .4)"/>
<path d="M237.865 41.4479L166.059 0.000167847L237.865 41.4479Z" fill="rgba(255, 255, 255, .4)"/>
<path d="M77.6125 44.6551L77.6125 47.8624L80.3881 49.466L154.957 92.5173L160.508 95.7246L163.283 94.121L237.865 51.0696L240.64 49.466L237.865 51.0696L237.865 47.8624L154.957 0.000141578L235.089 46.2587L163.283 87.7064L160.508 89.3101L83.1636 44.6551L83.1636 0.000144716L77.6125 0.000144958L77.6125 44.6551Z" fill="rgba(255, 255, 255, .4)"/>
<path d="M160.508 68.6604L199.316 46.2589L119.184 0.000304383L108.082 0.000304868L188.214 46.2589L160.508 62.2459L106.601 31.1231L106.601 0.000304933L101.05 0.000305176L101.05 34.3303L160.508 68.6604Z" fill="rgba(255, 255, 255, .4)"/>
<path d="M243.416 51.0697L240.64 49.4661L243.416 51.0697Z" fill="rgba(255, 255, 255, .4)"/>
<path d="M237.865 47.8624L235.089 46.2588L237.865 44.6552L237.865 41.4479L166.059 0.000213138L154.957 0.000213623L237.865 47.8624Z" fill="rgba(255, 255, 255, .4)"/>
<path d="M219.978 0.000209969L214.427 0.000210211L214.427 0.851372L212.934 0.000210277L201.832 0.000210762L219.978 10.4731L219.978 0.000209969Z" fill="rgba(255, 255, 255, .4)"/>
<path d="M3.0437 183.431L3.0437 186.638L5.81922 185.035L3.0437 183.431Z" fill="rgba(255, 255, 255, .4)"/>
<path d="M3.04383 189.846L3.04383 186.638L3.04383 183.431L3.04383 180.224L3.04382 97.3284L3.04382 90.9139L0.268306 89.3102L0.26831 188.242L3.04383 189.846Z" fill="rgba(255, 255, 255, .4)"/>
<path d="M320.76 181.827L323.536 183.431L323.536 97.3282L317.985 94.1209L317.985 183.431L320.76 181.827Z" fill="rgba(255, 255, 255, .4)"/>
<path d="M320.76 188.242L395.329 231.293L320.76 188.242Z" fill="rgba(255, 255, 255, .4)"/>
<path d="M478.224 180.224L402.261 136.371L478.224 180.224Z" fill="rgba(255, 255, 255, .4)"/>
<path d="M475.449 185.035L403.655 226.482L403.655 229.69L406.431 231.293L403.655 232.897L478.224 189.846L481 188.242L399.486 141.182L475.449 185.035Z" fill="rgba(255, 255, 255, .4)"/>
<path d="M400.88 207.436L439.676 185.035L341.422 128.303L341.422 173.106L400.88 207.436ZM346.973 137.925L428.574 185.035L400.88 201.022L346.973 169.899L346.973 137.925Z" fill="rgba(255, 255, 255, .4)"/>
<path d="M320.76 89.3102L398.105 44.6552L320.76 89.3102Z" fill="rgba(255, 255, 255, .4)"/>
<path d="M437.258 64.0592L403.655 44.6553L403.655 47.8625L400.88 49.4662L478.224 94.1211L478.224 180.224L402.262 136.371L326.311 92.5175L320.76 95.7248L315.209 92.5175L317.984 94.1211L323.536 97.3284L399.486 141.182L481 188.242L481 89.3102L437.258 64.0592Z" fill="rgba(255, 255, 255, .4)"/>
<path d="M460.338 104.446L400.88 70.116L362.084 92.5175L460.338 149.249L460.338 104.446ZM454.787 139.627L373.187 92.5175L400.88 76.5305L454.787 107.653L454.787 139.627Z" fill="rgba(255, 255, 255, .4)"/>
<path d="M237.865 41.4479L237.865 44.6552L243.416 41.4479L243.416 0.000171419L237.865 0.000171661L237.865 41.4479Z" fill="rgba(255, 255, 255, .4)"/>
<path d="M237.865 47.8624L237.865 51.0697L240.64 49.4661L237.865 47.8624Z" fill="rgba(255, 255, 255, .4)"/>
<path d="M279.436 0.000209969L268.334 0.000210455L266.853 0.851372L266.853 0.000210519L261.302 0.000210762L261.302 10.4731L279.436 0.000209969Z" fill="rgba(255, 255, 255, .4)"/>
<path d="M237.864 44.6551L235.089 46.2587L237.864 47.8624L240.64 49.466L243.415 51.0696L315.209 92.5173L320.76 95.7246L326.311 92.5173L400.88 49.466L403.655 47.8624L403.655 44.6551L403.655 0.00013759L398.104 0.000137833L398.104 44.6551L320.76 89.3101L275.525 63.1956L246.191 46.2587L326.311 0.000140971L315.209 0.000141456L243.415 41.4479L237.864 44.6551Z" fill="rgba(255, 255, 255, .4)"/>
<path d="M320.76 68.6604L380.218 34.3303L380.218 0.000300881L374.667 0.000301124L374.667 31.1231L320.76 62.2459L293.066 46.2589L373.186 0.000301188L362.084 0.000301674L281.964 46.2589L320.76 68.6604Z" fill="rgba(255, 255, 255, .4)"/>
<path d="M398.105 236.104L326.311 277.552L398.105 236.104Z" fill="rgba(255, 255, 255, .4)"/>
<path d="M243.416 232.897L320.76 188.242L395.329 231.293L319.366 275.146L400.88 228.086L323.536 183.431L320.76 181.827L317.985 183.431L248.523 223.534L243.416 226.482L240.641 228.086L237.865 229.69L237.865 232.897L237.865 236.104L237.865 277.552L243.416 277.552L243.416 236.104L243.416 232.897Z" fill="rgba(255, 255, 255, .4)"/>
<path d="M403.656 229.69L403.656 232.897L406.431 231.293L403.656 229.69Z" fill="rgba(255, 255, 255, .4)"/>
<path d="M320.76 208.892L261.302 243.222L261.302 277.552L266.854 277.552L266.854 246.429L320.76 215.306L348.454 231.293L268.334 277.552L279.436 277.552L359.556 231.293L320.76 208.892Z" fill="rgba(255, 255, 255, .4)"/>
<path d="M403.655 232.897L403.655 229.69L403.655 226.482L400.88 228.086L319.366 275.146L315.209 277.552L326.311 277.552L398.104 236.104L398.104 277.552L403.655 277.552L403.655 232.897Z" fill="rgba(255, 255, 255, .4)"/>
<path d="M362.084 277.552L373.187 277.552L374.667 276.701L374.667 277.552L380.218 277.552L380.218 267.079L362.084 277.552Z" fill="rgba(255, 255, 255, .4)"/>
</svg>
