<svg width="473" height="1088" viewBox="0 0 473 1088" fill="none" xmlns="http://www.w3.org/2000/svg">
<path d="M0.768787 815.812L0.768799 1087.75L483 1087.75L483 815.812L0.768787 815.812Z" fill="rgba(255, 255, 255, .5)"/>
<path d="M477.432 997.104L405.414 1037.71L477.432 997.104Z" fill="rgba(255, 255, 255, .5)"/>
<path d="M423.357 1054.11L423.357 1087.75L428.925 1087.75L428.925 1057.26L456.705 1041.59L456.705 1087.75L462.273 1087.75L462.273 1032.17L423.357 1054.11Z" fill="rgba(255, 255, 255, .5)"/>
<path d="M244.675 1037.71L249.798 1034.82L244.675 1037.71Z" fill="rgba(255, 255, 255, .5)"/>
<path d="M244.675 1044L322.26 1000.25L244.675 1044Z" fill="rgba(255, 255, 255, .5)"/>
<path d="M276.884 877.73L322.26 903.316L276.884 877.73Z" fill="rgba(255, 255, 255, .5)"/>
<path d="M301.534 918.145L262.617 896.197L262.617 1007.36L301.534 985.417L301.534 918.145ZM295.965 982.274L268.186 997.938L268.186 905.612L295.965 921.276L295.965 982.274Z" fill="rgba(255, 255, 255, .5)"/>
<path d="M239.106 1044L223.082 1034.97L239.106 1044Z" fill="rgba(255, 255, 255, .5)"/>
<path d="M164.292 901.745L236.322 861.135L164.292 901.745Z" fill="rgba(255, 255, 255, .5)"/>
<path d="M225.816 1030.23L241.89 1039.28L244.675 1037.71L244.675 865.849L241.89 864.278L239.106 865.849L239.106 1037.71L225.816 1030.23Z" fill="rgba(255, 255, 255, .5)"/>
<path d="M221.164 1007.36L221.164 896.197L182.247 918.145L182.247 985.417L221.164 1007.36ZM187.803 921.288L215.583 905.624L215.583 997.938L187.803 982.274L187.803 921.288Z" fill="rgba(255, 255, 255, .5)"/>
<path d="M3.55322 1001.82L53.5569 1030.01L3.55322 1001.82Z" fill="rgba(255, 255, 255, .5)"/>
<path d="M21.4956 1032.17L21.4956 1087.75L27.0639 1087.75L27.0639 1041.59L54.8438 1057.26L54.8438 1087.75L60.4121 1087.75L60.4121 1054.11L21.4956 1032.17Z" fill="rgba(255, 255, 255, .5)"/>
<path d="M0.768795 1000.25L0.768799 1087.75L3.55297 1087.75L3.55297 1001.82L0.768795 1000.25Z" fill="rgba(255, 255, 255, .5)"/>
<path d="M3.55322 901.745L55.6605 872.363L3.55322 901.745Z" fill="rgba(255, 255, 255, .5)"/>
<path d="M60.4121 849.448L60.4121 815.812L54.8438 815.812L54.8438 846.306L27.0639 861.969L27.0639 815.812L21.4956 815.812L21.4956 871.396L60.4121 849.448Z" fill="rgba(255, 255, 255, .5)"/>
<path d="M0.769043 903.316L3.55321 901.745L3.55321 815.812L0.769039 815.812L0.769043 903.316Z" fill="rgba(255, 255, 255, .5)"/>
<path d="M439.121 878.576L483 903.316L483 815.812L480.216 815.812L480.216 901.745L439.121 878.576Z" fill="rgba(255, 255, 255, .5)"/>
<path d="M462.273 871.396L462.273 815.812L456.705 815.812L456.705 861.969L428.925 846.306L428.925 815.812L423.357 815.812L423.357 849.448L462.273 871.396Z" fill="rgba(255, 255, 255, .5)"/>
<path d="M158.724 911.172L82.5371 954.138L158.724 911.172Z" fill="rgba(255, 255, 255, .5)"/>
<path d="M155.94 906.458L79.7529 949.425L155.94 906.458Z" fill="rgba(255, 255, 255, .5)"/>
<path d="M83.9228 859.564L161.508 903.316L83.9228 859.564Z" fill="rgba(255, 255, 255, .5)"/>
<path d="M3.55321 911.172L3.55321 992.39L3.55321 908.029L81.1388 864.278L78.3546 862.706L78.3546 859.564L55.6605 872.363L3.55321 901.745L0.769039 903.316L3.55321 904.887L3.55321 911.172Z" fill="rgba(255, 255, 255, .5)"/>
<path d="M81.1387 884.51L21.4956 918.145L21.4956 962.042L120.055 906.458L81.1387 884.51ZM27.0639 921.288L81.1387 890.795L108.919 906.458L27.0639 952.615L27.0639 921.288Z" fill="rgba(255, 255, 255, .5)"/>
<path d="M164.292 901.745L161.508 903.316L164.292 901.745Z" fill="rgba(255, 255, 255, .5)"/>
<path d="M3.55322 992.391L3.55322 995.533L6.33739 997.104L3.55322 998.675L3.55322 1001.82L53.5569 1030.01L78.3546 1044L75.5705 1042.43L78.3546 1040.86L78.3546 1037.71L81.1388 1039.28L81.6461 1039.01L81.1388 1039.28L6.33739 997.104L82.5371 954.138L158.724 911.172L158.724 995.533L161.509 993.962L164.293 995.533L164.293 908.03L161.509 909.601L155.94 906.458L79.7529 949.424L3.55322 992.391Z" fill="rgba(255, 255, 255, .5)"/>
<path d="M86.7073 1042.43L161.509 1000.25L86.7073 1042.43Z" fill="rgba(255, 255, 255, .5)"/>
<path d="M42.2222 997.104L81.1387 1019.05L140.782 985.417L140.782 941.52L42.2222 997.104ZM135.213 982.274L81.1387 1012.77L53.3589 997.104L135.213 950.947L135.213 982.274Z" fill="rgba(255, 255, 255, .5)"/>
<path d="M78.3545 1044L78.3545 1087.75L83.9228 1087.75L83.9228 1047.14L78.3545 1044Z" fill="rgba(255, 255, 255, .5)"/>
<path d="M167.077 1087.75L162.907 1085.39L167.077 1087.75Z" fill="rgba(255, 255, 255, .5)"/>
<path d="M78.3545 1040.86L81.1387 1039.28L78.3545 1037.71L78.3545 1040.86Z" fill="rgba(255, 255, 255, .5)"/>
<path d="M101.865 1087.75L107.434 1087.75L107.434 1086.92L108.919 1087.75L120.055 1087.75L101.865 1077.49L101.865 1087.75Z" fill="rgba(255, 255, 255, .5)"/>
<path d="M86.707 1042.43L161.508 1000.25L223.082 1034.97L239.106 1044L239.106 1040.86L241.891 1039.28L225.817 1030.23L164.293 995.533L161.508 993.962L158.724 995.533L81.646 1039.01L81.1386 1039.28L78.3545 1040.86L75.5703 1042.43L78.3545 1044L83.9228 1047.14L155.94 1087.75L167.077 1087.75L162.907 1085.39L86.707 1042.43Z" fill="rgba(255, 255, 255, .5)"/>
<path d="M161.508 1020.48L122.592 1042.43L202.962 1087.75L214.098 1087.75L133.728 1042.43L161.508 1026.76L215.595 1057.26L215.595 1087.75L221.164 1087.75L221.164 1054.11L161.508 1020.48Z" fill="rgba(255, 255, 255, .5)"/>
<path d="M239.107 856.422L167.077 815.813L239.107 856.422Z" fill="rgba(255, 255, 255, .5)"/>
<path d="M78.3545 859.564L78.3545 862.707L81.1387 864.278L155.94 906.458L161.508 909.601L164.293 908.03L239.106 865.849L241.891 864.278L239.106 865.849L239.106 862.707L155.94 815.812L236.322 861.135L164.293 901.745L161.508 903.316L83.9228 859.564L83.9228 815.812L78.3545 815.812L78.3545 859.564Z" fill="rgba(255, 255, 255, .5)"/>
<path d="M161.509 883.084L200.438 861.135L120.055 815.812L108.919 815.812L189.301 861.135L161.509 876.799L107.434 846.306L107.434 815.812L101.865 815.812L101.865 849.448L161.509 883.084Z" fill="rgba(255, 255, 255, .5)"/>
<path d="M244.675 865.849L241.891 864.278L244.675 865.849Z" fill="rgba(255, 255, 255, .5)"/>
<path d="M239.106 862.707L236.322 861.135L239.106 859.564L239.106 856.422L167.077 815.813L155.94 815.813L239.106 862.707Z" fill="rgba(255, 255, 255, .5)"/>
<path d="M221.164 815.812L215.596 815.812L215.596 816.646L214.098 815.812L202.962 815.812L221.164 826.074L221.164 815.812Z" fill="rgba(255, 255, 255, .5)"/>
<path d="M3.55322 995.533L3.55322 998.675L6.33739 997.104L3.55322 995.533Z" fill="rgba(255, 255, 255, .5)"/>
<path d="M3.55321 1001.82L3.55321 998.675L3.55321 995.533L3.55321 992.39L3.55321 911.172L3.55321 904.887L0.769039 903.316L0.769043 1000.25L3.55321 1001.82Z" fill="rgba(255, 255, 255, .5)"/>
<path d="M322.26 993.962L325.044 995.533L325.044 911.172L319.476 908.029L319.476 995.533L322.26 993.962Z" fill="rgba(255, 255, 255, .5)"/>
<path d="M322.26 1000.25L397.062 1042.43L322.26 1000.25Z" fill="rgba(255, 255, 255, .5)"/>
<path d="M480.216 992.391L404.016 949.425L480.216 992.391Z" fill="rgba(255, 255, 255, .5)"/>
<path d="M477.431 997.104L405.414 1037.71L405.414 1040.86L408.198 1042.43L405.414 1044L480.215 1001.82L482.999 1000.25L401.231 954.138L477.431 997.104Z" fill="rgba(255, 255, 255, .5)"/>
<path d="M402.63 1019.05L441.547 997.104L342.987 941.52L342.987 985.417L402.63 1019.05ZM348.555 950.947L430.41 997.104L402.63 1012.77L348.555 982.274L348.555 950.947Z" fill="rgba(255, 255, 255, .5)"/>
<path d="M322.26 903.316L399.846 859.564L322.26 903.316Z" fill="rgba(255, 255, 255, .5)"/>
<path d="M439.121 878.575L405.414 859.564L405.414 862.706L402.63 864.278L480.216 908.029L480.216 992.39L404.016 949.424L327.829 906.458L322.26 909.601L316.692 906.458L319.476 908.029L325.044 911.172L401.232 954.138L483 1000.25L483 903.316L439.121 878.575Z" fill="rgba(255, 255, 255, .5)"/>
<path d="M462.273 918.145L402.63 884.51L363.714 906.458L462.273 962.042L462.273 918.145ZM456.705 952.615L374.85 906.458L402.63 890.795L456.705 921.288L456.705 952.615Z" fill="rgba(255, 255, 255, .5)"/>
<path d="M239.107 856.422L239.107 859.564L244.675 856.422L244.675 815.812L239.107 815.812L239.107 856.422Z" fill="rgba(255, 255, 255, .5)"/>
<path d="M239.107 862.707L239.107 865.849L241.891 864.278L239.107 862.707Z" fill="rgba(255, 255, 255, .5)"/>
<path d="M280.807 815.812L269.67 815.812L268.186 816.646L268.186 815.812L262.617 815.812L262.617 826.074L280.807 815.812Z" fill="rgba(255, 255, 255, .5)"/>
<path d="M239.107 859.564L236.323 861.135L239.107 862.707L241.891 864.278L244.675 865.849L316.692 906.458L322.261 909.601L327.829 906.458L402.63 864.278L405.415 862.707L405.415 859.564L405.415 815.812L399.846 815.812L399.846 859.564L322.261 903.316L276.885 877.73L247.459 861.135L327.829 815.812L316.692 815.812L244.675 856.422L239.107 859.564Z" fill="rgba(255, 255, 255, .5)"/>
<path d="M322.26 883.084L381.903 849.448L381.903 815.813L376.335 815.813L376.335 846.306L322.26 876.799L294.48 861.135L374.85 815.813L363.713 815.813L283.344 861.135L322.26 883.084Z" fill="rgba(255, 255, 255, .5)"/>
<path d="M399.846 1047.14L327.829 1087.75L399.846 1047.14Z" fill="rgba(255, 255, 255, .5)"/>
<path d="M244.675 1044L322.261 1000.25L397.062 1042.43L320.862 1085.39L402.63 1039.28L325.045 995.533L322.261 993.962L319.476 995.533L249.798 1034.82L244.675 1037.71L241.891 1039.28L239.107 1040.86L239.107 1044L239.107 1047.14L239.107 1087.75L244.675 1087.75L244.675 1047.14L244.675 1044Z" fill="rgba(255, 255, 255, .5)"/>
<path d="M405.414 1040.86L405.414 1044L408.198 1042.43L405.414 1040.86Z" fill="rgba(255, 255, 255, .5)"/>
<path d="M322.261 1020.48L262.617 1054.11L262.617 1087.75L268.186 1087.75L268.186 1057.26L322.261 1026.76L350.04 1042.43L269.671 1087.75L280.807 1087.75L361.177 1042.43L322.261 1020.48Z" fill="rgba(255, 255, 255, .5)"/>
<path d="M405.414 1044L405.414 1040.86L405.414 1037.71L402.63 1039.28L320.862 1085.39L316.692 1087.75L327.829 1087.75L399.846 1047.14L399.846 1087.75L405.414 1087.75L405.414 1044Z" fill="rgba(255, 255, 255, .5)"/>
<path d="M363.714 1087.75L374.85 1087.75L376.335 1086.92L376.335 1087.75L381.904 1087.75L381.904 1077.49L363.714 1087.75Z" fill="rgba(255, 255, 255, .5)"/>
<path d="M0.769031 543.875L0.769043 815.812L483 815.812L483 543.875L0.769031 543.875Z" fill="rgba(255, 255, 255, .5)"/>
<path d="M477.432 725.167L405.414 765.776L477.432 725.167Z" fill="rgba(255, 255, 255, .5)"/>
<path d="M423.357 782.177L423.357 815.813L428.925 815.813L428.925 785.319L456.705 769.656L456.705 815.813L462.273 815.813L462.273 760.229L423.357 782.177Z" fill="rgba(255, 255, 255, .5)"/>
<path d="M244.675 765.776L249.798 762.887L244.675 765.776Z" fill="rgba(255, 255, 255, .5)"/>
<path d="M244.675 772.061L322.261 728.309L244.675 772.061Z" fill="rgba(255, 255, 255, .5)"/>
<path d="M276.884 605.792L322.26 631.379L276.884 605.792Z" fill="rgba(255, 255, 255, .5)"/>
<path d="M301.534 646.208L262.617 624.26L262.617 735.428L301.534 713.479L301.534 646.208ZM295.965 710.337L268.186 726.001L268.186 633.675L295.965 649.338L295.965 710.337Z" fill="rgba(255, 255, 255, .5)"/>
<path d="M239.106 772.061L223.082 763.032L239.106 772.061Z" fill="rgba(255, 255, 255, .5)"/>
<path d="M164.292 629.807L236.322 589.198L164.292 629.807Z" fill="rgba(255, 255, 255, .5)"/>
<path d="M225.816 758.295L241.89 767.347L244.675 765.776L244.675 593.912L241.89 592.34L239.106 593.912L239.106 765.776L225.816 758.295Z" fill="rgba(255, 255, 255, .5)"/>
<path d="M221.164 735.428L221.164 624.26L182.247 646.208L182.247 713.479L221.164 735.428ZM187.803 649.35L215.583 633.687L215.583 726.013L187.803 710.349L187.803 649.35Z" fill="rgba(255, 255, 255, .5)"/>
<path d="M3.55322 729.88L53.5569 758.077L3.55322 729.88Z" fill="rgba(255, 255, 255, .5)"/>
<path d="M21.4956 760.228L21.4956 815.812L27.0639 815.812L27.0639 769.656L54.8438 785.319L54.8438 815.812L60.4121 815.812L60.4121 782.177L21.4956 760.228Z" fill="rgba(255, 255, 255, .5)"/>
<path d="M0.769039 728.309L0.769043 815.812L3.55321 815.812L3.55321 729.88L0.769039 728.309Z" fill="rgba(255, 255, 255, .5)"/>
<path d="M3.55322 629.807L55.6605 600.426L3.55322 629.807Z" fill="rgba(255, 255, 255, .5)"/>
<path d="M60.4121 577.51L60.4121 543.875L54.8438 543.875L54.8438 574.368L27.0639 590.032L27.0639 543.875L21.4956 543.875L21.4956 599.459L60.4121 577.51Z" fill="rgba(255, 255, 255, .5)"/>
<path d="M0.769043 631.378L3.55321 629.807L3.55321 543.875L0.769039 543.875L0.769043 631.378Z" fill="rgba(255, 255, 255, .5)"/>
<path d="M439.121 606.638L483 631.379L483 543.875L480.216 543.875L480.216 629.807L439.121 606.638Z" fill="rgba(255, 255, 255, .5)"/>
<path d="M462.273 599.459L462.273 543.875L456.705 543.875L456.705 590.032L428.925 574.368L428.925 543.875L423.357 543.875L423.357 577.511L462.273 599.459Z" fill="rgba(255, 255, 255, .5)"/>
<path d="M158.724 639.234L82.5371 682.2L158.724 639.234Z" fill="rgba(255, 255, 255, .5)"/>
<path d="M155.94 634.521L79.7529 677.487L155.94 634.521Z" fill="rgba(255, 255, 255, .5)"/>
<path d="M83.9228 587.627L161.508 631.378L83.9228 587.627Z" fill="rgba(255, 255, 255, .5)"/>
<path d="M3.55321 639.234L3.55321 720.453L3.55321 636.092L81.1388 592.34L78.3546 590.769L78.3546 587.627L55.6605 600.426L3.55321 629.807L0.769039 631.378L3.55321 632.95L3.55321 639.234Z" fill="rgba(255, 255, 255, .5)"/>
<path d="M81.1387 612.572L21.4956 646.208L21.4956 690.105L120.055 634.521L81.1387 612.572ZM27.0639 649.35L81.1387 618.857L108.919 634.521L27.0639 680.678L27.0639 649.35Z" fill="rgba(255, 255, 255, .5)"/>
<path d="M164.292 629.807L161.508 631.378L164.292 629.807Z" fill="rgba(255, 255, 255, .5)"/>
<path d="M3.55322 720.453L3.55322 723.595L6.33739 725.167L3.55322 726.738L3.55322 729.88L53.5569 758.077L78.3546 772.061L75.5705 770.489L78.3546 768.918L78.3546 765.776L81.1388 767.347L81.6461 767.069L81.1388 767.347L6.33739 725.167L82.5371 682.2L158.724 639.234L158.724 723.595L161.509 722.024L164.293 723.595L164.293 636.092L161.509 637.663L155.94 634.521L79.7529 677.487L3.55322 720.453Z" fill="rgba(255, 255, 255, .5)"/>
<path d="M86.7073 770.49L161.509 728.309L86.7073 770.49Z" fill="rgba(255, 255, 255, .5)"/>
<path d="M42.2222 725.167L81.1387 747.115L140.782 713.479L140.782 669.583L42.2222 725.167ZM135.213 710.337L81.1387 740.83L53.3589 725.167L135.213 679.01L135.213 710.337Z" fill="rgba(255, 255, 255, .5)"/>
<path d="M78.3545 772.061L78.3545 815.812L83.9228 815.812L83.9228 775.203L78.3545 772.061Z" fill="rgba(255, 255, 255, .5)"/>
<path d="M167.077 815.812L162.907 813.456L167.077 815.812Z" fill="rgba(255, 255, 255, .5)"/>
<path d="M78.3545 768.918L81.1387 767.347L78.3545 765.776L78.3545 768.918Z" fill="rgba(255, 255, 255, .5)"/>
<path d="M101.865 815.812L107.434 815.812L107.434 814.979L108.919 815.812L120.055 815.812L101.865 805.551L101.865 815.812Z" fill="rgba(255, 255, 255, .5)"/>
<path d="M86.707 770.49L161.508 728.309L223.082 763.032L239.106 772.061L239.106 768.918L241.891 767.347L225.817 758.295L164.293 723.595L161.508 722.024L158.724 723.595L81.646 767.069L81.1386 767.347L78.3545 768.918L75.5703 770.49L78.3545 772.061L83.9228 775.203L155.94 815.812L167.077 815.812L162.907 813.456L86.707 770.49Z" fill="rgba(255, 255, 255, .5)"/>
<path d="M161.508 748.541L122.592 770.49L202.962 815.812L214.098 815.812L133.728 770.49L161.508 754.826L215.595 785.319L215.595 815.812L221.164 815.812L221.164 782.177L161.508 748.541Z" fill="rgba(255, 255, 255, .5)"/>
<path d="M239.107 584.484L167.077 543.875L239.107 584.484Z" fill="rgba(255, 255, 255, .5)"/>
<path d="M78.3545 587.627L78.3545 590.769L81.1387 592.34L155.94 634.521L161.508 637.663L164.293 636.092L239.106 593.911L241.891 592.34L239.106 593.911L239.106 590.769L155.94 543.875L236.322 589.198L164.293 629.807L161.508 631.378L83.9228 587.627L83.9228 543.875L78.3545 543.875L78.3545 587.627Z" fill="rgba(255, 255, 255, .5)"/>
<path d="M161.509 611.146L200.438 589.198L120.055 543.875L108.919 543.875L189.301 589.198L161.509 604.862L107.434 574.368L107.434 543.875L101.865 543.875L101.865 577.511L161.509 611.146Z" fill="rgba(255, 255, 255, .5)"/>
<path d="M244.675 593.912L241.891 592.34L244.675 593.912Z" fill="rgba(255, 255, 255, .5)"/>
<path d="M239.106 590.769L236.322 589.198L239.106 587.627L239.106 584.484L167.077 543.875L155.94 543.875L239.106 590.769Z" fill="rgba(255, 255, 255, .5)"/>
<path d="M221.164 543.875L215.596 543.875L215.596 544.709L214.098 543.875L202.962 543.875L221.164 554.136L221.164 543.875Z" fill="rgba(255, 255, 255, .5)"/>
<path d="M3.55322 723.595L3.55322 726.738L6.33739 725.167L3.55322 723.595Z" fill="rgba(255, 255, 255, .5)"/>
<path d="M3.55321 729.88L3.55321 726.738L3.55321 723.595L3.55321 720.453L3.55321 639.234L3.55321 632.95L0.769039 631.378L0.769043 728.309L3.55321 729.88Z" fill="rgba(255, 255, 255, .5)"/>
<path d="M322.261 722.024L325.045 723.595L325.045 639.234L319.477 636.092L319.477 723.595L322.261 722.024Z" fill="rgba(255, 255, 255, .5)"/>
<path d="M322.26 728.309L397.062 770.49L322.26 728.309Z" fill="rgba(255, 255, 255, .5)"/>
<path d="M480.216 720.453L404.016 677.487L480.216 720.453Z" fill="rgba(255, 255, 255, .5)"/>
<path d="M477.431 725.167L405.414 765.776L405.414 768.918L408.198 770.489L405.414 772.061L480.216 729.88L483 728.309L401.232 682.2L477.431 725.167Z" fill="rgba(255, 255, 255, .5)"/>
<path d="M402.63 747.115L441.547 725.167L342.987 669.583L342.987 713.479L402.63 747.115ZM348.555 679.01L430.41 725.167L402.63 740.83L348.555 710.337L348.555 679.01Z" fill="rgba(255, 255, 255, .5)"/>
<path d="M322.26 631.379L399.846 587.627L322.26 631.379Z" fill="rgba(255, 255, 255, .5)"/>
<path d="M439.121 606.638L405.414 587.627L405.414 590.769L402.63 592.34L480.216 636.092L480.216 720.453L404.016 677.487L327.829 634.521L322.26 637.663L316.692 634.521L319.476 636.092L325.044 639.234L401.232 682.2L483 728.309L483 631.378L439.121 606.638Z" fill="rgba(255, 255, 255, .5)"/>
<path d="M462.273 646.208L402.63 612.572L363.714 634.521L462.273 690.105L462.273 646.208ZM456.705 680.678L374.85 634.521L402.63 618.857L456.705 649.35L456.705 680.678Z" fill="rgba(255, 255, 255, .5)"/>
<path d="M239.106 584.484L239.106 587.627L244.675 584.484L244.675 543.875L239.106 543.875L239.106 584.484Z" fill="rgba(255, 255, 255, .5)"/>
<path d="M239.106 590.769L239.106 593.912L241.89 592.34L239.106 590.769Z" fill="rgba(255, 255, 255, .5)"/>
<path d="M280.807 543.875L269.67 543.875L268.186 544.709L268.186 543.875L262.617 543.875L262.617 554.136L280.807 543.875Z" fill="rgba(255, 255, 255, .5)"/>
<path d="M239.106 587.627L236.322 589.198L239.106 590.769L241.89 592.34L244.675 593.911L316.692 634.521L322.26 637.663L327.828 634.521L402.63 592.34L405.414 590.769L405.414 587.627L405.414 543.875L399.846 543.875L399.846 587.627L322.26 631.378L276.884 605.792L247.459 589.198L327.828 543.875L316.692 543.875L244.675 584.484L239.106 587.627Z" fill="rgba(255, 255, 255, .5)"/>
<path d="M322.26 611.146L381.903 577.511L381.903 543.875L376.335 543.875L376.335 574.368L322.26 604.862L294.48 589.198L374.85 543.875L363.713 543.875L283.344 589.198L322.26 611.146Z" fill="rgba(255, 255, 255, .5)"/>
<path d="M399.846 775.203L327.829 815.812L399.846 775.203Z" fill="rgba(255, 255, 255, .5)"/>
<path d="M244.675 772.061L322.261 728.309L397.062 770.49L320.862 813.456L402.63 767.347L325.045 723.595L322.261 722.024L319.476 723.595L249.798 762.887L244.675 765.776L241.891 767.347L239.107 768.918L239.107 772.061L239.107 775.203L239.107 815.812L244.675 815.812L244.675 775.203L244.675 772.061Z" fill="rgba(255, 255, 255, .5)"/>
<path d="M405.414 768.918L405.414 772.061L408.198 770.489L405.414 768.918Z" fill="rgba(255, 255, 255, .5)"/>
<path d="M322.26 748.541L262.617 782.177L262.617 815.812L268.186 815.812L268.186 785.319L322.26 754.826L350.04 770.49L269.67 815.812L280.807 815.812L361.177 770.49L322.26 748.541Z" fill="rgba(255, 255, 255, .5)"/>
<path d="M405.414 772.061L405.414 768.918L405.414 765.776L402.63 767.347L320.862 813.456L316.692 815.812L327.829 815.812L399.846 775.203L399.846 815.812L405.414 815.812L405.414 772.061Z" fill="rgba(255, 255, 255, .5)"/>
<path d="M363.714 815.812L374.85 815.812L376.335 814.979L376.335 815.812L381.904 815.812L381.904 805.551L363.714 815.812Z" fill="rgba(255, 255, 255, .5)"/>
<path d="M0.769031 271.937L0.769043 543.875L483 543.875L483 271.937L0.769031 271.937Z" fill="rgba(255, 255, 255, .5)"/>
<path d="M477.432 453.229L405.414 493.839L477.432 453.229Z" fill="rgba(255, 255, 255, .5)"/>
<path d="M423.357 510.239L423.357 543.875L428.925 543.875L428.925 513.382L456.705 497.718L456.705 543.875L462.273 543.875L462.273 488.291L423.357 510.239Z" fill="rgba(255, 255, 255, .5)"/>
<path d="M244.675 493.839L249.798 490.95L244.675 493.839Z" fill="rgba(255, 255, 255, .5)"/>
<path d="M244.675 500.123L322.26 456.372L244.675 500.123Z" fill="rgba(255, 255, 255, .5)"/>
<path d="M276.884 333.855L322.26 359.441L276.884 333.855Z" fill="rgba(255, 255, 255, .5)"/>
<path d="M301.534 374.271L262.617 352.322L262.617 463.49L301.534 441.542L301.534 374.271ZM295.965 438.4L268.186 454.063L268.186 361.738L295.965 377.401L295.965 438.4Z" fill="rgba(255, 255, 255, .5)"/>
<path d="M239.106 500.123L223.082 491.095L239.106 500.123Z" fill="rgba(255, 255, 255, .5)"/>
<path d="M164.292 357.87L236.322 317.261L164.292 357.87Z" fill="rgba(255, 255, 255, .5)"/>
<path d="M225.816 486.357L241.89 495.41L244.675 493.839L244.675 321.974L241.89 320.403L239.106 321.974L239.106 493.839L225.816 486.357Z" fill="rgba(255, 255, 255, .5)"/>
<path d="M221.164 463.49L221.164 352.322L182.247 374.271L182.247 441.542L221.164 463.49ZM187.803 377.413L215.583 361.75L215.583 454.063L187.803 438.4L187.803 377.413Z" fill="rgba(255, 255, 255, .5)"/>
<path d="M3.55322 457.943L53.5569 486.14L3.55322 457.943Z" fill="rgba(255, 255, 255, .5)"/>
<path d="M21.4956 488.291L21.4956 543.875L27.0639 543.875L27.0639 497.718L54.8438 513.382L54.8438 543.875L60.4121 543.875L60.4121 510.239L21.4956 488.291Z" fill="rgba(255, 255, 255, .5)"/>
<path d="M0.769039 456.371L0.769043 543.875L3.55321 543.875L3.55321 457.943L0.769039 456.371Z" fill="rgba(255, 255, 255, .5)"/>
<path d="M3.55322 357.87L55.6605 328.489L3.55322 357.87Z" fill="rgba(255, 255, 255, .5)"/>
<path d="M60.4121 305.573L60.4121 271.938L54.8438 271.938L54.8438 302.431L27.0639 318.094L27.0639 271.938L21.4956 271.938L21.4956 327.522L60.4121 305.573Z" fill="rgba(255, 255, 255, .5)"/>
<path d="M0.769043 359.441L3.55321 357.87L3.55321 271.938L0.769039 271.938L0.769043 359.441Z" fill="rgba(255, 255, 255, .5)"/>
<path d="M439.121 334.701L483 359.441L483 271.938L480.216 271.938L480.216 357.87L439.121 334.701Z" fill="rgba(255, 255, 255, .5)"/>
<path d="M462.273 327.522L462.273 271.938L456.705 271.938L456.705 318.094L428.925 302.431L428.925 271.938L423.357 271.938L423.357 305.573L462.273 327.522Z" fill="rgba(255, 255, 255, .5)"/>
<path d="M158.724 367.297L82.5371 410.263L158.724 367.297Z" fill="rgba(255, 255, 255, .5)"/>
<path d="M155.94 362.584L79.7529 405.55L155.94 362.584Z" fill="rgba(255, 255, 255, .5)"/>
<path d="M83.9228 315.689L161.508 359.441L83.9228 315.689Z" fill="rgba(255, 255, 255, .5)"/>
<path d="M3.55321 367.297L3.55321 448.516L3.55321 364.155L81.1388 320.403L78.3546 318.832L78.3546 315.689L55.6605 328.488L3.55321 357.87L0.769039 359.441L3.55321 361.012L3.55321 367.297Z" fill="rgba(255, 255, 255, .5)"/>
<path d="M81.1387 340.635L21.4956 374.271L21.4956 418.167L120.055 362.583L81.1387 340.635ZM27.0639 377.413L81.1387 346.92L108.919 362.583L27.0639 408.74L27.0639 377.413Z" fill="rgba(255, 255, 255, .5)"/>
<path d="M164.292 357.87L161.508 359.441L164.292 357.87Z" fill="rgba(255, 255, 255, .5)"/>
<path d="M3.55322 448.516L3.55322 451.658L6.33739 453.229L3.55322 454.801L3.55322 457.943L53.5569 486.14L78.3546 500.123L75.5705 498.552L78.3546 496.981L78.3546 493.839L81.1388 495.41L81.6461 495.132L81.1388 495.41L6.33739 453.229L82.5371 410.263L158.724 367.297L158.724 451.658L161.509 450.087L164.293 451.658L164.293 364.155L161.509 365.726L155.94 362.583L79.7529 405.55L3.55322 448.516Z" fill="rgba(255, 255, 255, .5)"/>
<path d="M86.7073 498.552L161.509 456.372L86.7073 498.552Z" fill="rgba(255, 255, 255, .5)"/>
<path d="M42.2222 453.229L81.1387 475.178L140.782 441.542L140.782 397.645L42.2222 453.229ZM135.213 438.4L81.1387 468.893L53.3589 453.229L135.213 407.072L135.213 438.4Z" fill="rgba(255, 255, 255, .5)"/>
<path d="M78.3545 500.123L78.3545 543.875L83.9228 543.875L83.9228 503.266L78.3545 500.123Z" fill="rgba(255, 255, 255, .5)"/>
<path d="M167.077 543.875L162.907 541.518L167.077 543.875Z" fill="rgba(255, 255, 255, .5)"/>
<path d="M78.3545 496.981L81.1387 495.41L78.3545 493.839L78.3545 496.981Z" fill="rgba(255, 255, 255, .5)"/>
<path d="M101.865 543.875L107.434 543.875L107.434 543.041L108.919 543.875L120.055 543.875L101.865 533.614L101.865 543.875Z" fill="rgba(255, 255, 255, .5)"/>
<path d="M86.707 498.552L161.508 456.372L223.082 491.095L239.106 500.123L239.106 496.981L241.891 495.41L225.817 486.357L164.293 451.658L161.508 450.087L158.724 451.658L81.646 495.132L81.1386 495.41L78.3545 496.981L75.5703 498.552L78.3545 500.123L83.9228 503.266L155.94 543.875L167.077 543.875L162.907 541.518L86.707 498.552Z" fill="rgba(255, 255, 255, .5)"/>
<path d="M161.508 476.604L122.592 498.552L202.962 543.875L214.098 543.875L133.728 498.552L161.508 482.889L215.595 513.382L215.595 543.875L221.164 543.875L221.164 510.239L161.508 476.604Z" fill="rgba(255, 255, 255, .5)"/>
<path d="M239.107 312.547L167.077 271.938L239.107 312.547Z" fill="rgba(255, 255, 255, .5)"/>
<path d="M78.3545 315.689L78.3545 318.832L81.1387 320.403L155.94 362.584L161.508 365.726L164.293 364.155L239.106 321.974L241.891 320.403L239.106 321.974L239.106 318.832L155.94 271.938L236.322 317.261L164.293 357.87L161.508 359.441L83.9228 315.689L83.9228 271.938L78.3545 271.938L78.3545 315.689Z" fill="rgba(255, 255, 255, .5)"/>
<path d="M161.509 339.209L200.438 317.261L120.055 271.938L108.919 271.938L189.301 317.261L161.509 332.924L107.434 302.431L107.434 271.938L101.865 271.938L101.865 305.573L161.509 339.209Z" fill="rgba(255, 255, 255, .5)"/>
<path d="M244.675 321.974L241.891 320.403L244.675 321.974Z" fill="rgba(255, 255, 255, .5)"/>
<path d="M239.106 318.832L236.322 317.261L239.106 315.69L239.106 312.547L167.077 271.938L155.94 271.938L239.106 318.832Z" fill="rgba(255, 255, 255, .5)"/>
<path d="M221.164 271.938L215.596 271.938L215.596 272.772L214.098 271.938L202.962 271.938L221.164 282.199L221.164 271.938Z" fill="rgba(255, 255, 255, .5)"/>
<path d="M3.55322 451.658L3.55322 454.801L6.33739 453.229L3.55322 451.658Z" fill="rgba(255, 255, 255, .5)"/>
<path d="M3.55321 457.943L3.55321 454.801L3.55321 451.658L3.55321 448.516L3.55321 367.297L3.55321 361.012L0.769039 359.441L0.769043 456.372L3.55321 457.943Z" fill="rgba(255, 255, 255, .5)"/>
<path d="M322.26 450.087L325.044 451.658L325.044 367.297L319.476 364.155L319.476 451.658L322.26 450.087Z" fill="rgba(255, 255, 255, .5)"/>
<path d="M322.26 456.372L397.062 498.552L322.26 456.372Z" fill="rgba(255, 255, 255, .5)"/>
<path d="M480.216 448.516L404.016 405.55L480.216 448.516Z" fill="rgba(255, 255, 255, .5)"/>
<path d="M477.431 453.229L405.414 493.839L405.414 496.981L408.198 498.552L405.414 500.123L480.215 457.943L482.999 456.372L401.231 410.263L477.431 453.229Z" fill="rgba(255, 255, 255, .5)"/>
<path d="M402.63 475.178L441.547 453.229L342.987 397.645L342.987 441.542L402.63 475.178ZM348.555 407.072L430.41 453.229L402.63 468.893L348.555 438.4L348.555 407.072Z" fill="rgba(255, 255, 255, .5)"/>
<path d="M322.26 359.441L399.846 315.689L322.26 359.441Z" fill="rgba(255, 255, 255, .5)"/>
<path d="M439.121 334.701L405.414 315.689L405.414 318.832L402.63 320.403L480.216 364.155L480.216 448.516L404.016 405.55L327.829 362.583L322.26 365.726L316.692 362.583L319.476 364.155L325.044 367.297L401.232 410.263L483 456.372L483 359.441L439.121 334.701Z" fill="rgba(255, 255, 255, .5)"/>
<path d="M462.273 374.271L402.63 340.635L363.714 362.583L462.273 418.167L462.273 374.271ZM456.705 408.74L374.85 362.583L402.63 346.92L456.705 377.413L456.705 408.74Z" fill="rgba(255, 255, 255, .5)"/>
<path d="M239.107 312.547L239.107 315.689L244.675 312.547L244.675 271.938L239.107 271.938L239.107 312.547Z" fill="rgba(255, 255, 255, .5)"/>
<path d="M239.107 318.832L239.107 321.974L241.891 320.403L239.107 318.832Z" fill="rgba(255, 255, 255, .5)"/>
<path d="M280.807 271.938L269.67 271.938L268.186 272.772L268.186 271.938L262.617 271.938L262.617 282.199L280.807 271.938Z" fill="rgba(255, 255, 255, .5)"/>
<path d="M239.107 315.689L236.323 317.261L239.107 318.832L241.891 320.403L244.675 321.974L316.692 362.584L322.261 365.726L327.829 362.584L402.63 320.403L405.415 318.832L405.415 315.689L405.415 271.938L399.846 271.938L399.846 315.689L322.261 359.441L276.885 333.855L247.459 317.261L327.829 271.938L316.692 271.938L244.675 312.547L239.107 315.689Z" fill="rgba(255, 255, 255, .5)"/>
<path d="M322.26 339.209L381.903 305.573L381.903 271.938L376.335 271.938L376.335 302.431L322.26 332.924L294.48 317.261L374.85 271.938L363.713 271.938L283.344 317.261L322.26 339.209Z" fill="rgba(255, 255, 255, .5)"/>
<path d="M399.846 503.266L327.829 543.875L399.846 503.266Z" fill="rgba(255, 255, 255, .5)"/>
<path d="M244.675 500.123L322.261 456.372L397.062 498.552L320.862 541.518L402.63 495.41L325.045 451.658L322.261 450.087L319.476 451.658L249.798 490.95L244.675 493.839L241.891 495.41L239.107 496.981L239.107 500.123L239.107 503.266L239.107 543.875L244.675 543.875L244.675 503.266L244.675 500.123Z" fill="rgba(255, 255, 255, .5)"/>
<path d="M405.414 496.981L405.414 500.123L408.198 498.552L405.414 496.981Z" fill="rgba(255, 255, 255, .5)"/>
<path d="M322.261 476.604L262.617 510.239L262.617 543.875L268.186 543.875L268.186 513.382L322.261 482.889L350.04 498.552L269.671 543.875L280.807 543.875L361.177 498.552L322.261 476.604Z" fill="rgba(255, 255, 255, .5)"/>
<path d="M405.414 500.123L405.414 496.981L405.414 493.839L402.63 495.41L320.862 541.518L316.692 543.875L327.829 543.875L399.846 503.266L399.846 543.875L405.414 543.875L405.414 500.123Z" fill="rgba(255, 255, 255, .5)"/>
<path d="M363.714 543.875L374.85 543.875L376.335 543.041L376.335 543.875L381.904 543.875L381.904 533.614L363.714 543.875Z" fill="rgba(255, 255, 255, .5)"/>
<path d="M0.769031 0.00012207L0.769043 271.938L483 271.938L483 0.000101482L0.769031 0.00012207Z" fill="rgba(255, 255, 255, .5)"/>
<path d="M477.432 181.292L405.414 221.901L477.432 181.292Z" fill="rgba(255, 255, 255, .5)"/>
<path d="M423.357 238.302L423.357 271.938L428.925 271.938L428.925 241.444L456.705 225.781L456.705 271.938L462.273 271.938L462.273 216.354L423.357 238.302Z" fill="rgba(255, 255, 255, .5)"/>
<path d="M244.675 221.901L249.798 219.013L244.675 221.901Z" fill="rgba(255, 255, 255, .5)"/>
<path d="M244.675 228.186L322.261 184.434L244.675 228.186Z" fill="rgba(255, 255, 255, .5)"/>
<path d="M276.884 61.9174L322.26 87.5037L276.884 61.9174Z" fill="rgba(255, 255, 255, .5)"/>
<path d="M301.534 102.333L262.617 80.385L262.617 191.553L301.534 169.605L301.534 102.333ZM295.965 166.462L268.186 182.126L268.186 89.8L295.965 105.464L295.965 166.462Z" fill="rgba(255, 255, 255, .5)"/>
<path d="M239.106 228.186L223.082 219.158L239.106 228.186Z" fill="rgba(255, 255, 255, .5)"/>
<path d="M164.292 85.9325L236.322 45.3232L164.292 85.9325Z" fill="rgba(255, 255, 255, .5)"/>
<path d="M225.816 214.42L241.89 223.472L244.675 221.901L244.675 50.0367L241.89 48.4655L239.106 50.0367L239.106 221.901L225.816 214.42Z" fill="rgba(255, 255, 255, .5)"/>
<path d="M221.164 191.553L221.164 80.385L182.247 102.333L182.247 169.605L221.164 191.553ZM187.803 105.476L215.583 89.8121L215.583 182.138L187.803 166.474L187.803 105.476Z" fill="rgba(255, 255, 255, .5)"/>
<path d="M3.55322 186.005L53.5569 214.202L3.55322 186.005Z" fill="rgba(255, 255, 255, .5)"/>
<path d="M21.4956 216.354L21.4956 271.938L27.0639 271.938L27.0639 225.781L54.8438 241.444L54.8438 271.938L60.4121 271.938L60.4121 238.302L21.4956 216.354Z" fill="rgba(255, 255, 255, .5)"/>
<path d="M0.769039 184.434L0.769043 271.938L3.55321 271.938L3.55321 186.005L0.769039 184.434Z" fill="rgba(255, 255, 255, .5)"/>
<path d="M3.55322 85.9325L55.6605 56.5512L3.55322 85.9325Z" fill="rgba(255, 255, 255, .5)"/>
<path d="M60.4121 33.6358L60.4121 0.000219591L54.8438 0.000219829L54.8438 30.4935L27.0639 46.1571L27.0639 0.000221015L21.4956 0.000221252L21.4956 55.5842L60.4121 33.6358Z" fill="rgba(255, 255, 255, .5)"/>
<path d="M0.769043 87.5037L3.55321 85.9325L3.55321 0.000228763L0.769039 0.000228882L0.769043 87.5037Z" fill="rgba(255, 255, 255, .5)"/>
<path d="M439.121 62.7634L483 87.5037L483 0.000227008L480.216 0.000227127L480.216 85.9325L439.121 62.7634Z" fill="rgba(255, 255, 255, .5)"/>
<path d="M462.273 55.5843L462.273 0.000341661L456.705 0.000341899L456.705 46.1572L428.925 30.4936L428.925 0.000343085L423.357 0.000343323L423.357 33.636L462.273 55.5843Z" fill="rgba(255, 255, 255, .5)"/>
<path d="M158.724 95.3595L82.5371 138.326L158.724 95.3595Z" fill="rgba(255, 255, 255, .5)"/>
<path d="M155.94 90.6461L79.7529 133.612L155.94 90.6461Z" fill="rgba(255, 255, 255, .5)"/>
<path d="M83.9228 43.752L161.508 87.5037L83.9228 43.752Z" fill="rgba(255, 255, 255, .5)"/>
<path d="M3.55321 95.3597L3.55321 176.578L3.55321 92.2173L81.1388 48.4656L78.3546 46.8944L78.3546 43.752L55.6605 56.5512L3.55321 85.9325L0.769039 87.5037L3.55321 89.0749L3.55321 95.3597Z" fill="rgba(255, 255, 255, .5)"/>
<path d="M81.1387 68.6976L21.4956 102.333L21.4956 146.23L120.055 90.646L81.1387 68.6976ZM27.0639 105.476L81.1387 74.9824L108.919 90.646L27.0639 136.803L27.0639 105.476Z" fill="rgba(255, 255, 255, .5)"/>
<path d="M164.292 85.9325L161.508 87.5037L164.292 85.9325Z" fill="rgba(255, 255, 255, .5)"/>
<path d="M3.55322 176.578L3.55322 179.721L6.33739 181.292L3.55322 182.863L3.55322 186.005L53.5569 214.202L78.3546 228.186L75.5705 226.615L78.3546 225.044L78.3546 221.901L81.1388 223.472L81.6461 223.194L81.1388 223.472L6.33739 181.292L82.5371 138.326L158.724 95.3596L158.724 179.721L161.509 178.149L164.293 179.721L164.293 92.2172L161.509 93.7884L155.94 90.646L79.7529 133.612L3.55322 176.578Z" fill="rgba(255, 255, 255, .5)"/>
<path d="M86.7073 226.615L161.509 184.434L86.7073 226.615Z" fill="rgba(255, 255, 255, .5)"/>
<path d="M42.2222 181.292L81.1387 203.24L140.782 169.605L140.782 125.708L42.2222 181.292ZM135.213 166.462L81.1387 196.956L53.3589 181.292L135.213 135.135L135.213 166.462Z" fill="rgba(255, 255, 255, .5)"/>
<path d="M78.3545 228.186L78.3545 271.938L83.9228 271.938L83.9228 231.328L78.3545 228.186Z" fill="rgba(255, 255, 255, .5)"/>
<path d="M167.077 271.938L162.907 269.581L167.077 271.938Z" fill="rgba(255, 255, 255, .5)"/>
<path d="M78.3545 225.044L81.1387 223.472L78.3545 221.901L78.3545 225.044Z" fill="rgba(255, 255, 255, .5)"/>
<path d="M101.865 271.938L107.434 271.938L107.434 271.104L108.919 271.938L120.055 271.938L101.865 261.677L101.865 271.938Z" fill="rgba(255, 255, 255, .5)"/>
<path d="M86.707 226.615L161.508 184.434L223.082 219.158L239.106 228.186L239.106 225.044L241.891 223.472L225.817 214.42L164.293 179.721L161.508 178.149L158.724 179.721L81.646 223.194L81.1386 223.472L78.3545 225.044L75.5703 226.615L78.3545 228.186L83.9228 231.328L155.94 271.938L167.077 271.938L162.907 269.581L86.707 226.615Z" fill="rgba(255, 255, 255, .5)"/>
<path d="M161.508 204.666L122.592 226.615L202.962 271.938L214.098 271.938L133.728 226.615L161.508 210.951L215.595 241.444L215.595 271.938L221.164 271.938L221.164 238.302L161.508 204.666Z" fill="rgba(255, 255, 255, .5)"/>
<path d="M239.107 40.6095L167.077 0.000156403L239.107 40.6095Z" fill="rgba(255, 255, 255, .5)"/>
<path d="M78.3545 43.7518L78.3545 46.8942L81.1387 48.4654L155.94 90.6459L161.508 93.7883L164.293 92.2171L239.106 50.0366L241.891 48.4654L239.106 50.0366L239.106 46.8942L155.94 9.58697e-05L236.322 45.323L164.293 85.9324L161.508 87.5035L83.9228 43.7518L83.9228 9.89444e-05L78.3545 9.91821e-05L78.3545 43.7518Z" fill="rgba(255, 255, 255, .5)"/>
<path d="M161.509 67.2716L200.438 45.3232L120.055 0.000304399L108.919 0.000304875L189.301 45.3232L161.509 60.9868L107.434 30.4936L107.434 0.000304938L101.865 0.000305176L101.865 33.6359L161.509 67.2716Z" fill="rgba(255, 255, 255, .5)"/>
<path d="M244.675 50.0367L241.891 48.4656L244.675 50.0367Z" fill="rgba(255, 255, 255, .5)"/>
<path d="M239.106 46.8943L236.322 45.3231L239.106 43.7519L239.106 40.6095L167.077 0.000190259L155.94 0.000190735L239.106 46.8943Z" fill="rgba(255, 255, 255, .5)"/>
<path d="M221.164 0.000133691L215.596 0.000133929L215.596 0.834079L214.098 0.000133993L202.962 0.000134468L221.164 10.2612L221.164 0.000133691Z" fill="rgba(255, 255, 255, .5)"/>
<path d="M3.55322 179.721L3.55322 182.863L6.33739 181.292L3.55322 179.721Z" fill="rgba(255, 255, 255, .5)"/>
<path d="M3.55321 186.005L3.55321 182.863L3.55321 179.721L3.55321 176.578L3.55321 95.3597L3.55321 89.0749L0.769039 87.5037L0.769043 184.434L3.55321 186.005Z" fill="rgba(255, 255, 255, .5)"/>
<path d="M322.261 178.149L325.045 179.721L325.045 95.3595L319.477 92.2171L319.477 179.721L322.261 178.149Z" fill="rgba(255, 255, 255, .5)"/>
<path d="M322.26 184.434L397.062 226.615L322.26 184.434Z" fill="rgba(255, 255, 255, .5)"/>
<path d="M480.216 176.578L404.016 133.612L480.216 176.578Z" fill="rgba(255, 255, 255, .5)"/>
<path d="M477.431 181.292L405.414 221.901L405.414 225.044L408.198 226.615L405.414 228.186L480.216 186.006L483 184.434L401.232 138.326L477.431 181.292Z" fill="rgba(255, 255, 255, .5)"/>
<path d="M402.63 203.24L441.547 181.292L342.987 125.708L342.987 169.605L402.63 203.24ZM348.555 135.135L430.41 181.292L402.63 196.956L348.555 166.462L348.555 135.135Z" fill="rgba(255, 255, 255, .5)"/>
<path d="M322.26 87.5037L399.846 43.752L322.26 87.5037Z" fill="rgba(255, 255, 255, .5)"/>
<path d="M439.121 62.7634L405.414 43.752L405.414 46.8944L402.63 48.4656L480.216 92.2173L480.216 176.578L404.016 133.612L327.829 90.6461L322.26 93.7885L316.692 90.6461L319.476 92.2173L325.044 95.3597L401.232 138.326L483 184.434L483 87.5037L439.121 62.7634Z" fill="rgba(255, 255, 255, .5)"/>
<path d="M462.273 102.333L402.63 68.6977L363.714 90.6461L462.273 146.23L462.273 102.333ZM456.705 136.803L374.85 90.6461L402.63 74.9825L456.705 105.476L456.705 136.803Z" fill="rgba(255, 255, 255, .5)"/>
<path d="M239.106 40.6096L239.106 43.752L244.675 40.6096L244.675 0.000213385L239.106 0.000213623L239.106 40.6096Z" fill="rgba(255, 255, 255, .5)"/>
<path d="M239.106 46.8943L239.106 50.0367L241.89 48.4656L239.106 46.8943Z" fill="rgba(255, 255, 255, .5)"/>
<path d="M280.807 0.000133691L269.67 0.000134167L268.186 0.83408L268.186 0.00013423L262.617 0.000134468L262.617 10.2612L280.807 0.000133691Z" fill="rgba(255, 255, 255, .5)"/>
<path d="M239.106 43.7518L236.322 45.323L239.106 46.8942L241.89 48.4654L244.675 50.0366L316.692 90.6459L322.26 93.7883L327.828 90.6459L402.63 48.4654L405.414 46.8942L405.414 43.7518L405.414 9.19629e-05L399.846 9.22006e-05L399.846 43.7518L322.26 87.5035L276.884 61.9173L247.459 45.323L327.828 9.52753e-05L316.692 9.57508e-05L244.675 40.6094L239.106 43.7518Z" fill="rgba(255, 255, 255, .5)"/>
<path d="M322.26 67.2716L381.903 33.6359L381.903 0.000300968L376.335 0.000301206L376.335 30.4936L322.26 60.9868L294.48 45.3232L374.85 0.000301269L363.713 0.000301744L283.344 45.3232L322.26 67.2716Z" fill="rgba(255, 255, 255, .5)"/>
<path d="M399.846 231.328L327.829 271.938L399.846 231.328Z" fill="rgba(255, 255, 255, .5)"/>
<path d="M244.675 228.186L322.261 184.434L397.062 226.615L320.862 269.581L402.63 223.472L325.045 179.721L322.261 178.149L319.476 179.721L249.798 219.013L244.675 221.901L241.891 223.472L239.107 225.044L239.107 228.186L239.107 231.328L239.107 271.938L244.675 271.938L244.675 231.328L244.675 228.186Z" fill="rgba(255, 255, 255, .5)"/>
<path d="M405.414 225.044L405.414 228.186L408.198 226.615L405.414 225.044Z" fill="rgba(255, 255, 255, .5)"/>
<path d="M322.26 204.666L262.617 238.302L262.617 271.938L268.186 271.938L268.186 241.444L322.26 210.951L350.04 226.615L269.67 271.938L280.807 271.938L361.177 226.615L322.26 204.666Z" fill="rgba(255, 255, 255, .5)"/>
<path d="M405.414 228.186L405.414 225.044L405.414 221.901L402.63 223.472L320.862 269.581L316.692 271.938L327.829 271.938L399.846 231.328L399.846 271.938L405.414 271.938L405.414 228.186Z" fill="rgba(255, 255, 255, .5)"/>
<path d="M363.714 271.938L374.85 271.938L376.335 271.104L376.335 271.938L381.904 271.938L381.904 261.677L363.714 271.938Z" fill="rgba(255, 255, 255, .5)"/>
</svg>
