<svg width="473" height="544" viewBox="0 0 473 544" fill="none" xmlns="http://www.w3.org/2000/svg">
<path d="M0.769031 0.00012207L0.769043 271.938L483 271.938L483 0.000101482L0.769031 0.00012207Z" fill="black"/>
<path d="M477.432 181.292L405.414 221.901L477.432 181.292Z" fill="rgba(255, 255, 255, .5)"/>
<path d="M423.357 238.302L423.357 271.938L428.925 271.938L428.925 241.444L456.705 225.781L456.705 271.938L462.273 271.938L462.273 216.354L423.357 238.302Z" fill="rgba(255, 255, 255, .5)"/>
<path d="M244.675 221.901L249.798 219.013L244.675 221.901Z" fill="rgba(255, 255, 255, .5)"/>
<path d="M244.675 228.186L322.261 184.434L244.675 228.186Z" fill="rgba(255, 255, 255, .5)"/>
<path d="M276.884 61.9174L322.26 87.5037L276.884 61.9174Z" fill="rgba(255, 255, 255, .5)"/>
<path d="M301.534 102.333L262.617 80.385L262.617 191.553L301.534 169.605L301.534 102.333ZM295.965 166.462L268.186 182.126L268.186 89.8L295.965 105.464L295.965 166.462Z" fill="rgba(255, 255, 255, .5)"/>
<path d="M239.106 228.186L223.082 219.158L239.106 228.186Z" fill="rgba(255, 255, 255, .5)"/>
<path d="M164.292 85.9325L236.322 45.3232L164.292 85.9325Z" fill="rgba(255, 255, 255, .5)"/>
<path d="M225.816 214.42L241.89 223.472L244.675 221.901L244.675 50.0367L241.89 48.4656L239.106 50.0367L239.106 221.901L225.816 214.42Z" fill="rgba(255, 255, 255, .5)"/>
<path d="M221.164 191.553L221.164 80.385L182.247 102.333L182.247 169.605L221.164 191.553ZM187.803 105.476L215.583 89.8121L215.583 182.138L187.803 166.474L187.803 105.476Z" fill="rgba(255, 255, 255, .5)"/>
<path d="M3.55322 186.005L53.5569 214.202L3.55322 186.005Z" fill="rgba(255, 255, 255, .5)"/>
<path d="M21.4956 216.354L21.4956 271.938L27.0639 271.938L27.0639 225.781L54.8438 241.444L54.8438 271.938L60.4121 271.938L60.4121 238.302L21.4956 216.354Z" fill="rgba(255, 255, 255, .5)"/>
<path d="M0.769039 184.434L0.769043 271.938L3.55321 271.938L3.55321 186.005L0.769039 184.434Z" fill="rgba(255, 255, 255, .5)"/>
<path d="M3.55322 85.9325L55.6605 56.5512L3.55322 85.9325Z" fill="rgba(255, 255, 255, .5)"/>
<path d="M60.4121 33.6358L60.4121 0.000218238L54.8438 0.000218476L54.8438 30.4935L27.0639 46.1571L27.0639 0.000219662L21.4956 0.000219899L21.4956 55.5842L60.4121 33.6358Z" fill="rgba(255, 255, 255, .5)"/>
<path d="M0.769043 87.5037L3.55321 85.9325L3.55321 0.000232134L0.769039 0.000232253L0.769043 87.5037Z" fill="rgba(255, 255, 255, .5)"/>
<path d="M439.121 62.7634L483 87.5037L483 0.00023038L480.216 0.000230499L480.216 85.9325L439.121 62.7634Z" fill="rgba(255, 255, 255, .5)"/>
<path d="M462.273 55.5843L462.273 0.000340308L456.705 0.000340546L456.705 46.1572L428.925 30.4936L428.925 0.000341732L423.357 0.00034197L423.357 33.636L462.273 55.5843Z" fill="rgba(255, 255, 255, .5)"/>
<path d="M158.724 95.3595L82.5371 138.326L158.724 95.3595Z" fill="rgba(255, 255, 255, .5)"/>
<path d="M155.94 90.6461L79.7529 133.612L155.94 90.6461Z" fill="rgba(255, 255, 255, .5)"/>
<path d="M83.9228 43.752L161.508 87.5037L83.9228 43.752Z" fill="rgba(255, 255, 255, .5)"/>
<path d="M3.55321 95.3597L3.55321 176.578L3.55321 92.2173L81.1388 48.4656L78.3546 46.8944L78.3546 43.752L55.6605 56.5512L3.55321 85.9325L0.769039 87.5037L3.55321 89.0749L3.55321 95.3597Z" fill="rgba(255, 255, 255, .5)"/>
<path d="M81.1387 68.6976L21.4956 102.333L21.4956 146.23L120.055 90.646L81.1387 68.6976ZM27.0639 105.476L81.1387 74.9824L108.919 90.646L27.0639 136.803L27.0639 105.476Z" fill="rgba(255, 255, 255, .5)"/>
<path d="M164.292 85.9325L161.508 87.5037L164.292 85.9325Z" fill="rgba(255, 255, 255, .5)"/>
<path d="M3.55322 176.578L3.55322 179.721L6.33739 181.292L3.55322 182.863L3.55322 186.005L53.5569 214.202L78.3546 228.186L75.5705 226.615L78.3546 225.044L78.3546 221.901L81.1388 223.472L81.6461 223.194L81.1388 223.472L6.33739 181.292L82.5371 138.326L158.724 95.3596L158.724 179.721L161.509 178.149L164.293 179.721L164.293 92.2172L161.509 93.7884L155.94 90.646L79.7529 133.612L3.55322 176.578Z" fill="rgba(255, 255, 255, .5)"/>
<path d="M86.7073 226.615L161.509 184.434L86.7073 226.615Z" fill="rgba(255, 255, 255, .5)"/>
<path d="M42.2222 181.292L81.1387 203.24L140.782 169.605L140.782 125.708L42.2222 181.292ZM135.213 166.462L81.1387 196.956L53.3589 181.292L135.213 135.135L135.213 166.462Z" fill="rgba(255, 255, 255, .5)"/>
<path d="M78.3545 228.186L78.3545 271.938L83.9228 271.938L83.9228 231.328L78.3545 228.186Z" fill="rgba(255, 255, 255, .5)"/>
<path d="M167.077 271.938L162.907 269.581L167.077 271.938Z" fill="rgba(255, 255, 255, .5)"/>
<path d="M78.3545 225.044L81.1387 223.472L78.3545 221.901L78.3545 225.044Z" fill="rgba(255, 255, 255, .5)"/>
<path d="M101.865 271.938L107.434 271.938L107.434 271.104L108.919 271.938L120.055 271.938L101.865 261.677L101.865 271.938Z" fill="rgba(255, 255, 255, .5)"/>
<path d="M86.707 226.615L161.508 184.434L223.082 219.158L239.106 228.186L239.106 225.044L241.891 223.472L225.817 214.42L164.293 179.721L161.508 178.149L158.724 179.721L81.646 223.194L81.1386 223.472L78.3545 225.044L75.5703 226.615L78.3545 228.186L83.9228 231.328L155.94 271.938L167.077 271.938L162.907 269.581L86.707 226.615Z" fill="rgba(255, 255, 255, .5)"/>
<path d="M161.508 204.666L122.592 226.615L202.962 271.938L214.098 271.938L133.728 226.615L161.508 210.951L215.595 241.444L215.595 271.938L221.164 271.938L221.164 238.302L161.508 204.666Z" fill="rgba(255, 255, 255, .5)"/>
<path d="M239.107 40.6095L167.077 0.000155702L239.107 40.6095Z" fill="rgba(255, 255, 255, .5)"/>
<path d="M78.3545 43.7518L78.3545 46.8942L81.1387 48.4654L155.94 90.6459L161.508 93.7883L164.293 92.2171L239.106 50.0366L241.89 48.4654L239.106 50.0366L239.106 46.8942L155.94 9.56455e-05L236.322 45.323L164.293 85.9324L161.508 87.5035L83.9228 43.7518L83.9228 9.87202e-05L78.3545 9.89579e-05L78.3545 43.7518Z" fill="rgba(255, 255, 255, .5)"/>
<path d="M161.509 67.2716L200.438 45.3232L120.055 0.000305707L108.919 0.000306183L189.301 45.3232L161.509 60.9868L107.434 30.4936L107.434 0.000306246L101.865 0.000306484L101.865 33.6359L161.509 67.2716Z" fill="rgba(255, 255, 255, .5)"/>
<path d="M244.675 50.0367L241.891 48.4656L244.675 50.0367Z" fill="rgba(255, 255, 255, .5)"/>
<path d="M239.106 46.8943L236.322 45.3231L239.106 43.7519L239.106 40.6095L167.077 0.000189516L155.94 0.000189991L239.106 46.8943Z" fill="rgba(255, 255, 255, .5)"/>
<path d="M221.164 0.000134007L215.596 0.000134245L215.596 0.834079L214.098 0.000134308L202.962 0.000134784L221.164 10.2612L221.164 0.000134007Z" fill="rgba(255, 255, 255, .5)"/>
<path d="M3.55322 179.721L3.55322 182.863L6.33739 181.292L3.55322 179.721Z" fill="rgba(255, 255, 255, .5)"/>
<path d="M3.55321 186.005L3.55321 182.863L3.55321 179.721L3.55321 176.578L3.55321 95.3597L3.55321 89.0749L0.769039 87.5037L0.769043 184.434L3.55321 186.005Z" fill="rgba(255, 255, 255, .5)"/>
<path d="M322.261 178.149L325.045 179.721L325.045 95.3595L319.477 92.2171L319.477 179.721L322.261 178.149Z" fill="rgba(255, 255, 255, .5)"/>
<path d="M322.26 184.434L397.062 226.615L322.26 184.434Z" fill="rgba(255, 255, 255, .5)"/>
<path d="M480.216 176.578L404.016 133.612L480.216 176.578Z" fill="rgba(255, 255, 255, .5)"/>
<path d="M477.431 181.292L405.414 221.901L405.414 225.044L408.198 226.615L405.414 228.186L480.216 186.006L483 184.434L401.232 138.326L477.431 181.292Z" fill="rgba(255, 255, 255, .5)"/>
<path d="M402.63 203.24L441.547 181.292L342.987 125.708L342.987 169.605L402.63 203.24ZM348.555 135.135L430.41 181.292L402.63 196.956L348.555 166.462L348.555 135.135Z" fill="rgba(255, 255, 255, .5)"/>
<path d="M322.26 87.5037L399.846 43.752L322.26 87.5037Z" fill="rgba(255, 255, 255, .5)"/>
<path d="M439.121 62.7634L405.414 43.752L405.414 46.8944L402.63 48.4656L480.216 92.2173L480.216 176.578L404.016 133.612L327.829 90.6461L322.26 93.7885L316.692 90.6461L319.476 92.2173L325.044 95.3597L401.232 138.326L483 184.434L483 87.5037L439.121 62.7634Z" fill="rgba(255, 255, 255, .5)"/>
<path d="M462.273 102.333L402.63 68.6977L363.714 90.6461L462.273 146.23L462.273 102.333V102.333ZM456.705 136.803L374.85 90.6461L402.63 74.9825L456.705 105.476L456.705 136.803Z" fill="rgba(255, 255, 255, .5)"/>
<path d="M239.106 40.6096L239.106 43.752L244.675 40.6096L244.675 0.000215202L239.106 0.00021544L239.106 40.6096Z" fill="rgba(255, 255, 255, .5)"/>
<path d="M239.106 46.8943L239.106 50.0367L241.89 48.4656L239.106 46.8943Z" fill="rgba(255, 255, 255, .5)"/>
<path d="M280.807 0.000134007L269.67 0.000134483L268.186 0.834079L268.186 0.000134546L262.617 0.000134784L262.617 10.2612L280.807 0.000134007Z" fill="rgba(255, 255, 255, .5)"/>
<path d="M239.106 43.7518L236.322 45.323L239.106 46.8942L241.89 48.4654L244.675 50.0366L316.692 90.6459L322.26 93.7883L327.828 90.6459L402.63 48.4654L405.414 46.8942L405.414 43.7518L405.414 9.17387e-05L399.846 9.19764e-05L399.846 43.7518L322.26 87.5035L276.884 61.9173L247.459 45.323L327.828 9.50511e-05L316.692 9.55266e-05L244.675 40.6094L239.106 43.7518Z" fill="rgba(255, 255, 255, .5)"/>
<path d="M322.26 67.2716L381.903 33.6359L381.903 0.000302276L376.335 0.000302514L376.335 30.4936L322.26 60.9868L294.48 45.3232L374.85 0.000302577L363.713 0.000303052L283.344 45.3232L322.26 67.2716Z" fill="rgba(255, 255, 255, .5)"/>
<path d="M399.846 231.328L327.829 271.938L399.846 231.328Z" fill="rgba(255, 255, 255, .5)"/>
<path d="M244.675 228.186L322.261 184.434L397.062 226.615L320.862 269.581L402.63 223.472L325.045 179.721L322.261 178.149L319.476 179.721L249.798 219.013L244.675 221.901L241.891 223.472L239.107 225.044L239.107 228.186L239.107 231.328L239.107 271.938L244.675 271.938L244.675 231.328L244.675 228.186Z" fill="rgba(255, 255, 255, .5)"/>
<path d="M405.414 225.044L405.414 228.186L408.198 226.615L405.414 225.044Z" fill="rgba(255, 255, 255, .5)"/>
<path d="M322.26 204.666L262.617 238.302L262.617 271.938L268.186 271.938L268.186 241.444L322.26 210.951L350.04 226.615L269.67 271.938L280.807 271.938L361.177 226.615L322.26 204.666Z" fill="rgba(255, 255, 255, .5)"/>
<path d="M405.414 228.186L405.414 225.044L405.414 221.901L402.63 223.472L320.862 269.581L316.692 271.938L327.829 271.938L399.846 231.328L399.846 271.938L405.414 271.938L405.414 228.186Z" fill="rgba(255, 255, 255, .5)"/>
<path d="M363.714 271.938L374.85 271.938L376.335 271.104L376.335 271.938L381.904 271.938L381.904 261.677L363.714 271.938Z" fill="rgba(255, 255, 255, .5)"/>
</svg>
