<svg width="64" height="64" viewBox="0 0 64 64" fill="none" xmlns="http://www.w3.org/2000/svg">
<path d="M59.4697 62.8965C61.3634 62.8965 62.8735 61.3618 62.8735 59.4915V4.50756C62.8735 2.61322 61.3394 1.10254 59.4697 1.10254H4.50641C2.63675 1.10254 1.10266 2.6372 1.10266 4.50756V59.4915C1.10266 61.3858 2.63675 62.8965 4.50641 62.8965H59.4697Z" fill="white"/>
<path d="M43.7213 62.8968V38.9657H51.7513L52.9498 29.6379H43.7213V23.6911C43.7213 20.9814 44.4644 19.159 48.3476 19.159H53.2854V10.7903C52.4225 10.6705 49.4981 10.4307 46.0944 10.4307C38.9753 10.4307 34.1094 14.7709 34.1094 22.7559V29.6379H26.0554V38.9657H34.1094V62.8968H43.7213Z" fill="#2D2D26"/>
</svg>
