<svg  width="40" height="40" viewBox="0 0 40 40" fill="none" xmlns="http://www.w3.org/2000/svg">
<path fill-rule="evenodd" clip-rule="evenodd" d="M38.6913 36.6103C38.6913 37.7613 37.762 38.7057 36.5967 38.7057H26.9054V23.979H31.8469L32.5845 18.2388H26.9054V14.5793C26.9054 12.9118 27.3627 11.7903 29.7523 11.7903H32.791V6.64036C32.26 6.56658 30.4604 6.41902 28.3657 6.41902C23.9848 6.41902 20.9904 9.08991 20.9904 14.0038V18.2388H16.0341V23.979H20.9904V38.7057H2.77308C1.62252 38.7057 0.678467 37.7761 0.678467 36.6103V2.77411C0.678467 1.62312 1.62252 0.678711 2.77308 0.678711H36.5967C37.7472 0.678711 38.6913 1.60836 38.6913 2.77411V36.6103Z" fill="#E8FCFF"/>
</svg>