<svg width="188" height="62" viewBox="0 0 188 62" fill="none" xmlns="http://www.w3.org/2000/svg">
<path fill-rule="evenodd" clip-rule="evenodd" d="M14.2764 0.317195C7.32588 2.3632 2.51588 5.8447 0.727885 10.1242C-0.848115 13.8957 0.198385 19.0017 3.25488 22.4532C5.26238 24.7202 10.3884 27.1942 15.0264 28.1342C18.8449 28.9082 19.6824 28.9242 23.2764 28.2907L27.2764 27.5852V24.8377V22.0902L23.6199 22.2587C20.3144 22.4117 19.7769 22.2982 18.0129 21.0757C15.9279 19.6307 14.0264 16.3557 14.0264 14.2097C14.0264 12.2922 14.7804 10.6192 16.3704 9.0092C18.4174 6.9362 20.1434 6.3352 24.0499 6.3352H27.5264V3.8527C27.5264 1.7932 27.3354 1.2682 26.4064 0.770698C25.0324 0.0356975 16.3379 -0.289305 14.2764 0.317195ZM71.0689 14.3772C66.8864 21.5692 63.5839 27.7642 63.7299 28.1442C63.8954 28.5757 64.7604 28.8352 66.0344 28.8352C67.5979 28.8352 68.3604 28.5262 69.3004 27.5122C69.9744 26.7847 70.5264 25.9587 70.5264 25.6767C70.5264 25.3947 70.8324 24.8087 71.2064 24.3747C71.5804 23.9402 72.6114 22.2352 73.4974 20.5852C74.3839 18.9352 75.2774 17.4092 75.4839 17.1937C75.9509 16.7067 77.5264 17.2697 77.5264 17.9237C77.5264 18.1882 78.2014 19.3862 79.0264 20.5852C79.8514 21.7842 80.5264 22.9027 80.5264 23.0707C80.5264 23.4487 82.4254 26.1992 83.7294 27.7102C84.6119 28.7322 85.1394 28.8347 89.4884 28.8277C92.1219 28.8232 94.5634 28.6377 94.9139 28.4152C95.3844 28.1167 94.2299 25.7952 90.5034 19.5482C81.6309 4.6732 79.7454 1.6582 79.2034 1.4777C78.9114 1.3802 75.2509 7.1852 71.0689 14.3772ZM169.637 2.7102C169.111 3.4667 167.827 5.6602 166.785 7.5852C165.204 10.5057 163.515 13.4492 160.044 19.3352C156.339 25.6182 155.083 28.0222 155.311 28.3907C155.462 28.6352 156.584 28.8352 157.806 28.8352C160.768 28.8352 161.005 28.5772 165.154 20.8352C167.66 16.1587 168.593 15.8752 170.033 19.3517C170.371 20.1677 170.845 20.8352 171.087 20.8352C171.329 20.8352 171.526 21.0527 171.526 21.3182C171.526 21.9862 175.426 27.9617 176.171 28.4352C176.504 28.6467 179.083 28.8232 181.901 28.8277C186.346 28.8342 187.026 28.7252 187.026 28.0052C187.026 27.5487 185.789 25.1632 184.276 22.7037C182.764 20.2447 181.526 18.0497 181.526 17.8257C181.526 17.6017 181.35 17.3437 181.134 17.2517C180.919 17.1602 178.966 14.0477 176.796 10.3352C172.478 2.9502 171.45 1.3747 170.935 1.3507C170.748 1.3422 170.164 1.9537 169.637 2.7102ZM30.8599 3.6687C30.3779 4.1507 30.4639 27.4622 30.9504 28.2292C31.2494 28.7007 32.6874 28.8347 36.3179 28.7292L41.2764 28.5852L41.5264 24.9752C41.8079 20.9117 42.1364 20.8332 44.1739 24.3437C46.7704 28.8167 46.8089 28.8352 53.5164 28.8352C56.7894 28.8352 59.5819 28.6502 59.7214 28.4242C59.8609 28.1982 57.9589 26.0062 55.4939 23.5527C53.0294 21.0997 51.1149 18.8252 51.2404 18.4992C51.4419 17.9732 56.1184 10.6482 59.3429 5.8082C59.9939 4.8312 60.5264 3.8747 60.5264 3.6832C60.5264 3.4917 57.8314 3.3352 54.5379 3.3352C47.6514 3.3352 48.5869 2.7082 44.8729 9.8127C43.6574 12.1372 42.4074 14.1247 42.0944 14.2292C41.6929 14.3632 41.5264 12.7927 41.5264 8.8767V3.3352H36.3599C33.5179 3.3352 31.0429 3.4852 30.8599 3.6687ZM99.3599 3.6687C99.1764 3.8517 99.0264 4.9527 99.0264 6.1152C99.0264 8.6892 99.5959 8.9902 103.608 8.5362C107.128 8.1382 107.558 9.0037 104.78 10.8957C102.632 12.3582 102.552 13.2652 104.536 13.6622C105.366 13.8282 106.626 14.6537 107.336 15.4972C110.473 19.2257 106.435 24.1442 100.569 23.7382C98.4924 23.5942 98.3379 23.6737 97.9469 25.0852C97.7184 25.9102 97.6254 26.8397 97.7404 27.1512C98.0634 28.0242 102.68 28.9472 106.675 28.9372C112.598 28.9227 116.906 26.9002 118.821 23.2352C119.628 21.6897 119.776 16.5487 119.026 16.0852C118.751 15.9152 118.526 15.3597 118.526 14.8502C118.526 13.8382 116.013 11.4952 114.179 10.7982C113.545 10.5572 113.026 10.1522 113.026 9.8977C113.026 9.6437 114.217 8.3442 115.673 7.0102C117.129 5.6767 118.493 4.3042 118.703 3.9602C119.004 3.4687 117.017 3.3352 109.389 3.3352C104.056 3.3352 99.5429 3.4852 99.3599 3.6687ZM122.375 3.6527C121.729 4.2992 121.966 27.5752 122.626 28.2352C123.254 28.8627 131.261 29.0972 132.735 28.5317C133.352 28.2952 133.53 27.4407 133.544 24.6567L133.562 21.0852L134.592 22.3352C135.158 23.0227 136.334 24.7102 137.205 26.0852L138.788 28.5852L145.157 28.7252C150.071 28.8332 151.526 28.7187 151.526 28.2252C151.526 27.8732 149.613 25.7247 147.276 23.4507C144.939 21.1762 143.026 19.0942 143.026 18.8227C143.026 18.5517 145.164 15.0872 147.776 11.1237C150.389 7.1602 152.526 3.7867 152.526 3.6262C152.526 3.1972 140.877 3.2867 140.194 3.7212C139.874 3.9247 138.443 6.3962 137.015 9.2132C135.587 12.0302 134.225 14.3352 133.989 14.3352C133.753 14.3352 133.496 11.9162 133.418 8.9602L133.276 3.5852L128 3.4442C125.099 3.3667 122.568 3.4607 122.375 3.6527ZM73.0264 24.4792C73.0264 25.6257 75.7239 28.4257 76.5264 28.1122C77.2619 27.8252 79.5264 24.8562 79.5264 24.1792C79.5264 23.9902 78.0639 23.8352 76.2764 23.8352C73.9589 23.8352 73.0264 24.0197 73.0264 24.4792ZM164.842 24.2292C164.708 24.4457 165.365 25.5147 166.302 26.6042L168.006 28.5852L169.766 26.6552C170.734 25.5932 171.526 24.5247 171.526 24.2802C171.526 23.7312 165.179 23.6827 164.842 24.2292ZM90.2764 39.6997C83.4034 40.9367 78.5264 45.9222 78.5264 51.7107C78.5264 54.9597 79.0154 56.2167 81.0544 58.2102C83.1739 60.2822 86.8509 61.3352 91.9689 61.3352C96.7744 61.3352 96.6454 61.5382 96.4229 54.3352L96.2764 49.5852H93.0264H89.7764L89.5264 53.5682L89.2764 57.5517L87.5264 55.9842C85.8009 54.4392 85.7764 54.3612 85.7764 50.3877C85.7764 46.7212 85.8929 46.2412 87.0679 45.0662C87.7784 44.3557 89.2409 43.4732 90.3179 43.1047C91.7984 42.5987 92.3134 42.1337 92.4284 41.1992C92.5904 39.8817 91.9079 39.4062 90.2764 39.6997ZM10.9934 41.9407C9.29238 44.8837 8.48889 46.3372 6.86189 49.4117C6.08389 50.8822 5.12789 52.4402 4.73689 52.8747C4.34589 53.3087 4.02138 53.8712 4.01488 54.1247C4.00888 54.3777 3.24388 55.8062 2.31488 57.2982C1.38538 58.7907 0.739884 60.3097 0.879384 60.6732C1.19788 61.5027 3.52638 61.5097 4.52638 60.6842C5.28088 60.0612 5.59389 59.5692 7.90089 55.3747C9.35289 52.7347 10.0104 51.8352 10.4879 51.8352C10.6749 51.8352 11.7944 53.5347 12.9759 55.6112C16.0574 61.0277 16.4814 61.3352 20.8709 61.3352C24.4134 61.3352 24.5264 61.2972 24.5264 60.1147C24.5264 59.4432 24.3219 58.7677 24.0719 58.6132C23.6924 58.3787 17.2314 47.6312 13.8134 41.5487C13.2839 40.6062 12.7064 39.8352 12.5304 39.8352C12.3544 39.8352 11.6629 40.7827 10.9934 41.9407ZM165.86 40.1687C165.228 40.8002 165.478 60.0867 166.126 60.7352C166.462 61.0707 168.071 61.3352 169.776 61.3352C173.336 61.3352 174.026 60.8322 174.026 58.2352V56.3352H177.046C180.323 56.3352 182.978 55.2907 184.868 53.2587C188.556 49.2937 187.244 43.0037 182.184 40.3977C181.008 39.7917 166.441 39.5872 165.86 40.1687ZM127.776 42.1857C121.624 44.6442 118.971 49.9577 121.515 54.7302C123.289 58.0592 124.989 59.3362 129.562 60.7737C131.925 61.5167 132.617 61.4862 135.682 60.5037C140.524 58.9512 144.041 55.0382 144.015 51.2302C143.969 44.3477 134.945 39.3217 127.776 42.1857ZM145.727 42.4147C145.336 43.0477 145.428 57.5082 145.829 58.5287C145.95 58.8347 146.828 59.5912 147.78 60.2102C149.285 61.1877 150.172 61.3352 154.544 61.3352C163.189 61.3352 164.026 60.3307 164.026 49.9602C164.026 45.2407 163.835 42.8442 163.426 42.4352C162.804 41.8127 158.204 41.6067 156.817 42.1387C156.147 42.3957 156.026 43.5332 156.026 49.5852C156.026 55.4732 155.894 56.7787 155.276 57.0162C153.292 57.7772 153.058 57.0217 152.914 49.4117L152.776 42.0852L149.444 41.9382C147.185 41.8387 145.988 41.9922 145.727 42.4147ZM26.8599 42.6687C26.6764 42.8517 26.5264 46.8742 26.5264 51.6072C26.5264 58.4102 26.6744 60.3357 27.2329 60.7992C27.6574 61.1517 29.2019 61.3252 31.1079 61.2352L34.2764 61.0852L34.4314 59.2102C34.6299 56.8162 35.4199 56.8582 37.1464 59.3542L38.5169 61.3352H42.7714C47.6789 61.3352 47.9889 60.9642 45.2764 58.3352C44.3139 57.4022 43.5264 56.3532 43.5264 56.0042C43.5264 55.6552 44.2014 54.6792 45.0264 53.8352C48.0644 50.7272 46.5394 44.3092 42.4219 42.8737C40.7574 42.2932 27.4109 42.1177 26.8599 42.6687ZM49.5569 43.0487C48.5834 44.2217 49.3789 45.8342 50.9349 45.8427C53.3864 45.8567 53.4889 46.1607 53.6369 53.8557L53.7764 61.0852L57.0729 61.2312C59.3889 61.3337 60.5369 61.1752 60.9329 60.6977C61.2754 60.2852 61.5519 57.2832 61.6369 53.0517L61.7764 46.0852L63.6809 45.9282C65.4934 45.7787 65.5774 45.6947 65.4309 44.1782L65.2764 42.5852L57.7229 42.4477C51.5494 42.3352 50.0579 42.4447 49.5569 43.0487ZM98.3934 42.6352C97.7414 43.2867 97.9579 60.0667 98.6264 60.7352C98.9639 61.0727 100.581 61.3352 102.323 61.3352C105.619 61.3352 106.026 61.0282 106.026 58.5442C106.026 56.8812 106.466 57.0177 108.513 59.3147C110.26 61.2767 110.313 61.2957 114.271 61.4322C119.032 61.5962 119.522 60.9967 116.791 58.3497C115.147 56.7562 114.434 54.8352 115.485 54.8352C116.373 54.8352 118.026 51.4467 118.026 49.6262C118.026 47.4542 117.13 45.5612 115.285 43.8352C113.999 42.6327 113.66 42.5792 106.354 42.4267C102.177 42.3397 98.5949 42.4332 98.3934 42.6352ZM177.432 44.8547C179.739 47.0042 178.201 52.1437 175.371 51.7407C174.394 51.6022 174.26 51.2407 174.126 48.3877C174.043 46.6292 174.092 44.8857 174.235 44.5127C174.616 43.5192 176.178 43.6862 177.432 44.8547ZM134.251 47.0072C136.659 50.1647 135.319 56.8352 132.276 56.8352C129.565 56.8352 127.892 50.2152 129.872 47.3217C131.588 44.8142 132.527 44.7472 134.251 47.0072ZM37.5049 46.3352C37.7229 46.3352 38.2499 47.0547 38.6759 47.9337C39.3564 49.3392 39.3629 49.7017 38.7279 50.9292C37.8874 52.5542 35.8039 54.0657 35.0484 53.5987C34.7614 53.4212 34.5264 51.7332 34.5264 49.8472C34.5264 46.4202 34.9254 45.6457 36.4424 46.1247C36.8084 46.2407 37.2869 46.3352 37.5049 46.3352ZM109.651 46.9997C110.522 48.3262 110.649 50.0717 109.963 51.2932C109.212 52.6307 107.12 53.9522 106.429 53.5252C105.93 53.2167 105.891 46.6367 106.386 46.1417C106.868 45.6602 109.168 46.2652 109.651 46.9997ZM8.47289 57.3682C8.05189 57.6282 8.20588 58.1832 9.01288 59.3167L10.1414 60.9012L11.3339 59.7812C12.6259 58.5672 12.9014 57.3602 11.9014 57.2937C11.5579 57.2707 10.7779 57.1962 10.1689 57.1282C9.55938 57.0602 8.79638 57.1682 8.47289 57.3682Z" fill="white"/>
</svg>
