<svg width="64" height="64" viewBox="0 0 64 64" fill="none" xmlns="http://www.w3.org/2000/svg">
<path d="M63.8342 22.8899C57.7623 22.8899 51.6875 22.8899 45.6156 22.8899C52.7255 34.6043 44.5823 50.0176 29.8877 48.5837C20.9106 47.7084 12.6974 38.0603 16.3396 27.0946C16.5685 26.401 17.0569 25.6441 17.429 24.9146C17.7824 24.221 18.3785 23.4076 18.2076 22.8896C12.2372 22.8896 0.143799 22.8896 0.143799 22.8896V52.9442C0.74959 58.8228 5.37307 63.4431 11.355 63.9996H32.0653H52.7767C58.7697 63.3819 63.2389 58.3935 63.8321 53.1001C63.8342 53.1004 63.8342 28.1073 63.8342 22.8899Z" fill="#deecf7"/>
<path d="M30.3553 19.9313C27.9078 20.2254 26.5926 20.7544 25.3707 21.4884C22.5652 23.1728 19.9255 26.3139 19.4537 30.5199C18.4995 39.0104 24.7283 44.8465 31.9113 44.8465C37.6337 44.8465 44.596 40.7582 44.5248 32.2341C44.4599 24.4717 38.2667 18.98 30.3553 19.9313ZM41.0997 34.7237C40.0566 39.0205 35.2884 42.2699 30.3553 41.5752C25.6392 40.9122 20.5708 35.0513 23.3458 28.496C24.368 26.0831 26.6733 23.3764 31.4437 23.0457C37.3035 22.6393 42.7596 27.8762 41.0997 34.7237Z" fill="#deecf7"/>
<path d="M60.2529 3.58121C58.5358 1.86406 55.7254 0.289314 52.6229 0H31.9746H31.9174H17.122V16.1968H14.4744V0H12.8403V16.1968H10.1906V0.154019C9.60434 0.265578 9.0302 0.419598 8.47847 0.610012V16.1968H5.83087V1.86827C4.98825 2.38835 4.24505 2.97542 3.63821 3.58042C0.117126 7.10229 -0.165859 13.1576 0.056994 20.8664H19.834C20.6362 20.68 21.5994 19.6891 22.3257 19.1532C24.9902 17.1913 28.4174 16.1209 31.896 16.0831H31.9946C35.4732 16.1206 38.9015 17.1913 41.5649 19.1532C42.2923 19.6891 43.2533 20.68 44.0556 20.8664H63.8326C63.923 13.0814 63.7759 7.10309 60.2529 3.58121ZM57.5373 14.0859C57.5373 14.9937 56.802 15.729 55.8961 15.729H49.0544C48.1484 15.729 47.4132 14.9937 47.4132 14.0859V7.24629C47.4132 6.33932 48.1484 5.60509 49.0544 5.60509H55.8961C56.802 5.60509 57.5373 6.33932 57.5373 7.24629V14.0859Z" fill="#deecf7"/>
</svg>