<svg width="40" height="40" viewBox="0 0 40 40" fill="none" xmlns="http://www.w3.org/2000/svg">
<path d="M39.5902 14.0863C35.8536 14.0863 32.1153 14.0863 28.3788 14.0863C32.7541 21.2952 27.7429 30.7803 18.7001 29.8979C13.1757 29.3592 8.12143 23.422 10.3627 16.6738C10.5036 16.247 10.8042 15.7812 11.0332 15.3323C11.2507 14.9055 11.6174 14.4049 11.5123 14.0862C7.83822 14.0862 0.396118 14.0862 0.396118 14.0862V32.5813C0.768913 36.1989 3.61413 39.0422 7.29534 39.3846H20.0401H32.7856C36.4736 39.0045 39.2239 35.9347 39.5889 32.6772C39.5902 32.6774 39.5902 17.2971 39.5902 14.0863Z" fill="#E8FCFF"/>
<path d="M18.9877 12.2657C17.4816 12.4467 16.6722 12.7723 15.9203 13.2239C14.1938 14.2605 12.5694 16.1935 12.279 18.7818C11.6918 24.0067 15.525 27.5982 19.9453 27.5982C23.4668 27.5982 27.7512 25.0823 27.7074 19.8367C27.6675 15.0598 23.8563 11.6803 18.9877 12.2657ZM25.5997 21.3688C24.9578 24.0129 22.0235 26.0126 18.9877 25.5851C16.0855 25.1771 12.9665 21.5703 14.6742 17.5363C15.3033 16.0515 16.7219 14.3858 19.6575 14.1823C23.2636 13.9322 26.6212 17.1549 25.5997 21.3688Z" fill="#E8FCFF"/>
<path d="M37.3863 2.20382C36.3296 1.14711 34.6002 0.178039 32.6909 0H19.9843H19.9491H10.8442V9.96727H9.21494V0H8.20936V9.96727H6.57877V0.094781C6.21798 0.163432 5.86466 0.258214 5.52514 0.375392V9.96727H3.89584V1.14971C3.37731 1.46976 2.91996 1.83103 2.54651 2.20334C0.379694 4.37064 0.20555 8.09697 0.34269 12.8409H12.5131C13.0068 12.7261 13.5995 12.1164 14.0465 11.7866C15.6862 10.5793 17.7952 9.92053 19.9359 9.89732H19.9966C22.1373 9.92036 24.247 10.5793 25.886 11.7866C26.3336 12.1164 26.925 12.7261 27.4188 12.8409H39.5892C39.6449 8.05006 39.5543 4.37113 37.3863 2.20382ZM35.7152 8.66825C35.7152 9.22687 35.2627 9.67935 34.7052 9.67935H30.4949C29.9374 9.67935 29.4849 9.22687 29.4849 8.66825V4.45925C29.4849 3.90112 29.9374 3.44929 30.4949 3.44929H34.7052C35.2627 3.44929 35.7152 3.90112 35.7152 4.45925V8.66825Z" fill="#E8FCFF"/>
</svg>