<svg width="72" height="63" viewBox="0 0 72 63" fill="none" xmlns="http://www.w3.org/2000/svg">
<path d="M27.1824 43.167L28.8575 33.4119L21.7615 26.5035L31.568 25.0804L35.9534 16.2051L40.3392 25.0804L50.1463 26.5035L43.0503 33.4119L44.725 43.167L35.9534 38.5615L27.1824 43.167Z" fill="#F5C615"/>
<path d="M38.2028 11.269C39.5525 12.9473 39.9403 19.5075 40.3984 21.3384C40.8565 23.1692 41.3266 21.7491 40.8953 18.9927C40.6089 17.1619 43.702 18.02 43.2439 16.8187C42.1744 16.8187 41.0502 17.1131 40.3984 15.3885C39.1195 12.0016 42.2127 12.6994 41.3534 11.3835C39.7683 11.7729 38.9475 11.7267 37.4967 6.9974C36.4316 3.52571 38.3748 2.17236 40.0637 5.62425C40.8442 7.21965 43.9125 14.6254 44.3706 15.3885C44.8289 16.1513 45.286 21.338 45.5923 22.7115C45.8974 24.0849 48.3492 21.9079 46.814 21.6435C45.707 21.4529 46.4185 19.7762 45.9933 18.5923C45.0955 16.0941 49.663 16.7614 48.3267 15.3885C46.4175 15.7887 45.3058 15.7887 43.6062 10.9639C43.173 9.73476 46.4515 8.86611 44.6757 8.6753C42.9572 9.05692 42.098 8.75178 40.2328 3.3675C39.1129 0.136317 42.2125 -1.37484 44.103 1.60012C45.6397 4.01953 45.8974 6.84444 46.5091 7.76006C47.1203 8.6753 48.342 12.3368 49.5637 14.1677C50.7854 15.9984 50.3283 18.8976 51.1856 20.8809C52.0431 22.8639 54.1464 21.0332 52.6196 20.4229C51.0917 19.813 51.6037 17.7753 51.1856 16.609C50.4615 14.5874 55.3306 15.9032 54.4527 14.0151C51.1679 14.3585 50.1178 14.1297 48.9535 10.9639C47.9743 8.30261 52.6384 9.09497 51.1856 7.66475C48.7432 8.40859 48.1891 9.13301 46.2037 4.2513C44.2176 -0.631588 48.0555 -0.8026 50.3174 2.87795C51.4243 4.6799 52.6196 6.53968 54.2992 8.98064C55.9796 11.4214 56.7438 13.4052 57.2021 14.473C57.6601 15.5408 57.715 19.0717 58.9178 21.9326C59.5139 23.3505 56.1968 25.2472 52.4664 25.5149C50.0032 24.5995 43.3448 24.3692 41.2316 24.0171C40.9255 23.5214 37.9163 17.3335 36.4267 14.3585C36.1789 13.2523 36.2738 13.5576 36.1335 12.3069C35.9929 11.0565 36.8522 9.59054 38.2028 11.269ZM12.7116 21.9326C13.9147 19.0717 13.9693 15.5408 14.4276 14.473C14.8859 13.4052 15.6497 11.4214 17.3303 8.98064C19.0103 6.53968 20.2048 4.6799 21.3122 2.87795C23.5741 -0.8026 27.4116 -0.631588 25.4259 4.2513C23.4404 9.13301 22.8869 8.40859 20.4442 7.66475C18.9914 9.09497 23.6555 8.30261 22.6764 10.9639C21.512 14.1297 20.4611 14.3585 17.1771 14.0151C16.299 15.9032 21.1682 14.5874 20.4442 16.609C20.0262 17.7753 20.5377 19.813 19.0103 20.4229C17.4828 21.0332 19.5863 22.8639 20.4442 20.8809C21.3015 18.8976 20.8432 15.9984 22.0655 14.1677C23.2878 12.3368 24.5095 8.6753 25.1208 7.76006C25.7316 6.84444 25.9893 4.01953 27.5267 1.60012C29.417 -1.37484 32.5159 0.136317 31.397 3.3675C29.5316 8.75178 28.6722 9.05692 26.9539 8.6753C25.1781 8.86611 28.4559 9.73476 28.0233 10.9639C26.324 15.7887 25.2123 15.7887 23.3028 15.3885C21.9658 16.7614 26.5339 16.0941 25.6364 18.5923C25.2109 19.7762 25.9231 21.4529 24.8152 21.6435C23.2798 21.9079 25.7314 24.0849 26.0375 22.7115C26.3427 21.338 26.801 16.1513 27.2592 15.3885C27.7175 14.6254 30.7848 7.21965 31.5658 5.62425C33.2553 2.17236 35.1984 3.52571 34.1334 6.9974C32.6825 11.7267 31.8612 11.7729 30.2766 11.3835C29.4172 12.6994 32.5105 12.0016 31.2311 15.3885C30.5796 17.1131 29.4551 16.8187 28.3861 16.8187C27.9278 18.02 31.0212 17.1619 30.7347 18.9927C30.3034 21.7491 30.7728 23.1692 31.2311 21.3384C31.6896 19.5075 32.0765 12.9473 33.4271 11.269C34.7767 9.59054 35.6369 11.0563 35.4964 12.3069C35.3555 13.5576 35.4509 13.2523 35.2029 14.3585C33.7136 17.3335 30.7034 23.5214 30.3983 24.0171C28.285 24.3692 21.6267 24.5995 19.1634 25.5149C15.4322 25.2474 12.1157 23.3507 12.7116 21.9326ZM16.2603 58.5644C18.2465 47.1221 17.0244 43.7653 14.7329 40.7142C12.4417 37.6632 8.98547 31.0587 7.70643 28.6618C6.2546 25.9415 2.96574 23.4544 2.52766 20.3923C2.1924 18.047 1.44317 14.6256 0.374023 12.9475C4.19289 9.74389 9.36757 16.59 8.27919 20.0227C10.3415 20.7093 11.6779 22.5593 12.5942 24.695C13.484 26.7685 25.9485 27.9331 25.9485 36.2446C25.9485 42.1637 13.9172 39.4364 16.2988 33.2388C17.1484 31.0275 23.1729 32.2088 21.9701 35.1838C21.0051 37.5688 18.4078 36.2446 20.1136 34.373C20.5416 33.9036 19.2616 33.5762 18.7047 34.4974C16.9202 37.4491 21.9128 39.0806 23.0583 36.2446C24.8182 31.8889 19.0404 29.822 16.4664 31.3016C16.0699 29.6914 12.6417 26.831 10.6851 27.9751C13.7705 28.5459 15.1533 31.1791 14.5803 33.4675C13.3373 38.4326 21.3058 44.1952 25.9485 39.3032C25.6325 45.7229 23.1881 55.71 21.7596 58.5646C20.2324 61.6158 17.9405 60.2421 16.2603 58.5644ZM34.843 51.2114C33.8278 54.693 34.4581 62.0163 30.2764 62.3024C26.6163 62.5526 23.5168 61.9017 22.4286 61.1008C23.4596 59.2127 25.4646 49.4295 26.3596 45.2151C28.1925 44.1852 29.9324 43.4225 30.3909 42.9073C30.7918 44.1087 28.9015 55.7798 28.1855 57.6107C27.4693 59.4416 29.6354 59.7884 29.7036 57.6107C29.8181 53.9492 31.8229 45.0814 31.5937 42.1064C32.2757 41.6728 35.3065 40.6197 35.3065 40.6197C35.3065 40.6197 36.0619 46.4545 32.7968 47.4843C32.1096 49.0863 36.2847 46.2672 34.843 51.2114ZM41.3534 62.3024C37.1719 62.0163 37.802 54.6932 36.7861 51.2114C35.344 46.2672 39.5203 49.0863 38.8328 47.4845C35.5679 46.4545 36.3222 40.6199 36.3222 40.6199C36.3222 40.6199 39.3539 41.673 40.0359 42.1066C39.8068 45.0816 41.8119 53.9494 41.9264 57.6109C41.9946 59.7886 44.1605 59.4418 43.4445 57.6109C42.7285 55.78 40.8382 44.1089 41.2392 42.9075C41.6972 43.4225 43.4365 44.1853 45.2695 45.2153C46.1653 49.4297 48.1704 59.2129 49.2013 61.101C48.1129 61.9017 45.0123 62.5526 41.3534 62.3024ZM69.2201 20.3921C68.7825 23.4542 65.493 25.9414 64.0418 28.6616C62.7627 31.0585 59.3065 37.6632 57.0151 40.714C54.7238 43.7651 53.5015 47.1219 55.4873 58.5642C53.8075 60.2419 51.5158 61.6156 49.9882 58.5642C48.5595 55.7098 46.1151 45.7227 45.7993 39.3028C50.4418 44.1949 58.4105 38.4325 57.1677 33.4671C56.5949 31.1787 57.9777 28.5456 61.0629 27.9747C59.1065 26.8306 55.6783 29.691 55.2814 31.3012C52.7076 29.8217 46.9298 31.8886 48.6897 36.2442C49.8354 39.0802 54.8276 37.4487 53.0433 34.497C52.4866 33.5758 51.2066 33.9032 51.6344 34.3726C53.3402 36.2442 50.7425 37.5685 49.7781 35.1834C48.5751 32.2085 54.5993 31.0271 55.4494 33.2384C57.8302 39.436 45.7993 42.1633 45.7993 36.2442C45.7993 27.9327 58.2638 26.7681 59.1534 24.6946C60.0699 22.559 61.4067 20.7089 63.4688 20.0223C62.3804 16.5896 67.5551 9.74349 71.374 12.9471C70.3048 14.6256 69.5556 18.0468 69.2201 20.3921Z" fill="white"/>
</svg>
