<svg width="88" height="90" viewBox="0 0 88 90" fill="none" xmlns="http://www.w3.org/2000/svg">
<g filter="url(#filter0_d)">
<path d="M35.1824 43.167L36.8575 33.4119L29.7615 26.5035L39.568 25.0804L43.9534 16.2051L48.3392 25.0804L58.1463 26.5035L51.0503 33.4119L52.725 43.167L43.9534 38.5615L35.1824 43.167Z" fill="#F5C615"/>
<path d="M46.2028 11.269C47.5525 12.9473 47.9403 19.5075 48.3984 21.3384C48.8565 23.1692 49.3266 21.7491 48.8953 18.9927C48.6089 17.1619 51.702 18.02 51.2439 16.8187C50.1744 16.8187 49.0502 17.1131 48.3984 15.3885C47.1195 12.0016 50.2127 12.6994 49.3534 11.3835C47.7683 11.7729 46.9475 11.7267 45.4967 6.9974C44.4316 3.52571 46.3748 2.17236 48.0637 5.62425C48.8442 7.21965 51.9125 14.6254 52.3706 15.3885C52.8289 16.1513 53.286 21.338 53.5923 22.7115C53.8974 24.0849 56.3492 21.9079 54.814 21.6435C53.707 21.4529 54.4185 19.7762 53.9933 18.5923C53.0955 16.0941 57.663 16.7614 56.3267 15.3885C54.4175 15.7887 53.3058 15.7887 51.6062 10.9639C51.173 9.73476 54.4515 8.86611 52.6757 8.6753C50.9572 9.05692 50.098 8.75178 48.2328 3.3675C47.1129 0.136317 50.2125 -1.37484 52.103 1.60012C53.6397 4.01953 53.8974 6.84444 54.5091 7.76006C55.1203 8.6753 56.342 12.3368 57.5637 14.1677C58.7854 15.9984 58.3283 18.8976 59.1856 20.8809C60.0431 22.8639 62.1464 21.0332 60.6196 20.4229C59.0917 19.813 59.6037 17.7753 59.1856 16.609C58.4615 14.5874 63.3306 15.9032 62.4527 14.0151C59.1679 14.3585 58.1178 14.1297 56.9535 10.9639C55.9743 8.30261 60.6384 9.09497 59.1856 7.66475C56.7432 8.40859 56.1891 9.13301 54.2037 4.2513C52.2176 -0.631588 56.0555 -0.8026 58.3174 2.87795C59.4243 4.6799 60.6196 6.53968 62.2992 8.98064C63.9796 11.4214 64.7438 13.4052 65.2021 14.473C65.6601 15.5408 65.715 19.0717 66.9178 21.9326C67.5139 23.3505 64.1968 25.2472 60.4664 25.5149C58.0032 24.5995 51.3448 24.3692 49.2316 24.0171C48.9255 23.5214 45.9163 17.3335 44.4267 14.3585C44.1789 13.2523 44.2738 13.5576 44.1335 12.3069C43.9929 11.0565 44.8522 9.59054 46.2028 11.269ZM20.7116 21.9326C21.9147 19.0717 21.9693 15.5408 22.4276 14.473C22.8859 13.4052 23.6497 11.4214 25.3303 8.98064C27.0103 6.53968 28.2048 4.6799 29.3122 2.87795C31.5741 -0.8026 35.4116 -0.631588 33.4259 4.2513C31.4404 9.13301 30.8869 8.40859 28.4442 7.66475C26.9914 9.09497 31.6555 8.30261 30.6764 10.9639C29.512 14.1297 28.4611 14.3585 25.1771 14.0151C24.299 15.9032 29.1682 14.5874 28.4442 16.609C28.0262 17.7753 28.5377 19.813 27.0103 20.4229C25.4828 21.0332 27.5863 22.8639 28.4442 20.8809C29.3015 18.8976 28.8432 15.9984 30.0655 14.1677C31.2878 12.3368 32.5095 8.6753 33.1208 7.76006C33.7316 6.84444 33.9893 4.01953 35.5267 1.60012C37.417 -1.37484 40.5159 0.136317 39.397 3.3675C37.5316 8.75178 36.6722 9.05692 34.9539 8.6753C33.1781 8.86611 36.4559 9.73476 36.0233 10.9639C34.324 15.7887 33.2123 15.7887 31.3028 15.3885C29.9658 16.7614 34.5339 16.0941 33.6364 18.5923C33.2109 19.7762 33.9231 21.4529 32.8152 21.6435C31.2798 21.9079 33.7314 24.0849 34.0375 22.7115C34.3427 21.338 34.801 16.1513 35.2592 15.3885C35.7175 14.6254 38.7848 7.21965 39.5658 5.62425C41.2553 2.17236 43.1984 3.52571 42.1334 6.9974C40.6825 11.7267 39.8612 11.7729 38.2766 11.3835C37.4172 12.6994 40.5105 12.0016 39.2311 15.3885C38.5796 17.1131 37.4551 16.8187 36.3861 16.8187C35.9278 18.02 39.0212 17.1619 38.7347 18.9927C38.3034 21.7491 38.7728 23.1692 39.2311 21.3384C39.6896 19.5075 40.0765 12.9473 41.4271 11.269C42.7767 9.59054 43.6369 11.0563 43.4964 12.3069C43.3555 13.5576 43.4509 13.2523 43.2029 14.3585C41.7136 17.3335 38.7034 23.5214 38.3983 24.0171C36.285 24.3692 29.6267 24.5995 27.1634 25.5149C23.4322 25.2474 20.1157 23.3507 20.7116 21.9326ZM24.2603 58.5644C26.2465 47.1221 25.0244 43.7653 22.7329 40.7142C20.4417 37.6632 16.9855 31.0587 15.7064 28.6618C14.2546 25.9415 10.9657 23.4544 10.5277 20.3923C10.1924 18.047 9.44317 14.6256 8.37402 12.9475C12.1929 9.74389 17.3676 16.59 16.2792 20.0227C18.3415 20.7093 19.6779 22.5593 20.5942 24.695C21.484 26.7685 33.9485 27.9331 33.9485 36.2446C33.9485 42.1637 21.9172 39.4364 24.2988 33.2388C25.1484 31.0275 31.1729 32.2088 29.9701 35.1838C29.0051 37.5688 26.4078 36.2446 28.1136 34.373C28.5416 33.9036 27.2616 33.5762 26.7047 34.4974C24.9202 37.4491 29.9128 39.0806 31.0583 36.2446C32.8182 31.8889 27.0404 29.822 24.4664 31.3016C24.0699 29.6914 20.6417 26.831 18.6851 27.9751C21.7705 28.5459 23.1533 31.1791 22.5803 33.4675C21.3373 38.4326 29.3058 44.1952 33.9485 39.3032C33.6325 45.7229 31.1881 55.71 29.7596 58.5646C28.2324 61.6158 25.9405 60.2421 24.2603 58.5644ZM42.843 51.2114C41.8278 54.693 42.4581 62.0163 38.2764 62.3024C34.6163 62.5526 31.5168 61.9017 30.4286 61.1008C31.4596 59.2127 33.4646 49.4295 34.3596 45.2151C36.1925 44.1852 37.9324 43.4225 38.3909 42.9073C38.7918 44.1087 36.9015 55.7798 36.1855 57.6107C35.4693 59.4416 37.6354 59.7884 37.7036 57.6107C37.8181 53.9492 39.8229 45.0814 39.5937 42.1064C40.2757 41.6728 43.3065 40.6197 43.3065 40.6197C43.3065 40.6197 44.0619 46.4545 40.7968 47.4843C40.1096 49.0863 44.2847 46.2672 42.843 51.2114ZM49.3534 62.3024C45.1719 62.0163 45.802 54.6932 44.7861 51.2114C43.344 46.2672 47.5203 49.0863 46.8328 47.4845C43.5679 46.4545 44.3222 40.6199 44.3222 40.6199C44.3222 40.6199 47.3539 41.673 48.0359 42.1066C47.8068 45.0816 49.8119 53.9494 49.9264 57.6109C49.9946 59.7886 52.1605 59.4418 51.4445 57.6109C50.7285 55.78 48.8382 44.1089 49.2392 42.9075C49.6972 43.4225 51.4365 44.1853 53.2695 45.2153C54.1653 49.4297 56.1704 59.2129 57.2013 61.101C56.1129 61.9017 53.0123 62.5526 49.3534 62.3024ZM77.2201 20.3921C76.7825 23.4542 73.493 25.9414 72.0418 28.6616C70.7627 31.0585 67.3065 37.6632 65.0151 40.714C62.7238 43.7651 61.5015 47.1219 63.4873 58.5642C61.8075 60.2419 59.5158 61.6156 57.9882 58.5642C56.5595 55.7098 54.1151 45.7227 53.7993 39.3028C58.4418 44.1949 66.4105 38.4325 65.1677 33.4671C64.5949 31.1787 65.9777 28.5456 69.0629 27.9747C67.1065 26.8306 63.6783 29.691 63.2814 31.3012C60.7076 29.8217 54.9298 31.8886 56.6897 36.2442C57.8354 39.0802 62.8276 37.4487 61.0433 34.497C60.4866 33.5758 59.2066 33.9032 59.6344 34.3726C61.3402 36.2442 58.7425 37.5685 57.7781 35.1834C56.5751 32.2085 62.5993 31.0271 63.4494 33.2384C65.8302 39.436 53.7993 42.1633 53.7993 36.2442C53.7993 27.9327 66.2638 26.7681 67.1534 24.6946C68.0699 22.559 69.4067 20.7089 71.4688 20.0223C70.3804 16.5896 75.5551 9.74349 79.374 12.9471C78.3048 14.6256 77.5556 18.0468 77.2201 20.3921Z" fill="white"/>
</g>
<path d="M6.64926 84.577L8.57026 71.8633H12.489V89.7699H9.8252V76.9284L7.87855 89.7699H5.21473L3.11454 77.1074V89.7699H0.655762V71.8633H4.57453L6.64926 84.577Z" fill="white"/>
<path d="M17.1757 83.8351L13.6155 71.8633H16.5609L18.7124 80.0235L20.8639 71.8633H23.5532L19.993 83.8351V89.7699H17.1757V83.8351Z" fill="white"/>
<path d="M24.3214 76.1602C24.3214 74.711 24.6672 73.5983 25.3587 72.8221C26.0502 72.0462 27.0875 71.6582 28.4707 71.6582C29.8537 71.6582 30.8912 72.0462 31.5827 72.8221C32.2742 73.5983 32.62 74.7112 32.62 76.1602V76.8511H29.9561V75.9813C29.9561 75.3333 29.8319 74.8772 29.5847 74.6126C29.3369 74.3484 28.9912 74.216 28.5474 74.216C28.1032 74.216 27.7574 74.3484 27.5102 74.6126C27.2626 74.8772 27.1388 75.3333 27.1388 75.9813C27.1388 76.595 27.2754 77.1368 27.5487 77.6056C27.8215 78.0748 28.1634 78.5181 28.5733 78.9356C28.983 79.3538 29.4224 79.7715 29.8924 80.189C30.3617 80.6071 30.8016 81.0633 31.2115 81.5577C31.6212 82.0527 31.9626 82.6152 32.2359 83.2461C32.5088 83.8771 32.6458 84.6189 32.6458 85.4716C32.6458 86.9214 32.2911 88.0341 31.5829 88.8099C30.8743 89.586 29.8284 89.9738 28.4452 89.9738C27.062 89.9738 26.016 89.586 25.3076 88.8099C24.5989 88.0341 24.2446 86.9214 24.2446 85.4716V84.2438H26.9083V85.6507C26.9083 86.2991 27.0404 86.7506 27.3053 87.0064C27.5698 87.2621 27.924 87.3902 28.3683 87.3902C28.8122 87.3902 29.1663 87.2623 29.4312 87.0064C29.6957 86.7506 29.8282 86.2989 29.8282 85.6507C29.8282 85.0368 29.6914 84.4956 29.4185 84.0262C29.1453 83.5575 28.8038 83.1143 28.3939 82.6962C27.9842 82.2786 27.5442 81.8607 27.0748 81.4428C26.6049 81.0251 26.1656 80.5691 25.7557 80.0741C25.346 79.5797 25.0042 79.017 24.7313 78.3859C24.458 77.7551 24.3214 77.0134 24.3214 76.1602Z" fill="white"/>
<path d="M33.4907 71.8633H42.1992V74.4215H39.2537V89.7699H36.4364V74.4215H33.4909V71.8633H33.4907Z" fill="white"/>
<path d="M52.5975 89.7699H49.7545L49.2678 86.5212H45.8101L45.3234 89.7699H42.7366L45.605 71.8633H49.7289L52.5975 89.7699ZM46.1687 84.091H48.8838L47.5262 75.0355L46.1687 84.091Z" fill="white"/>
<path d="M59.7947 89.7699C59.7601 89.6509 59.7261 89.5395 59.6923 89.4374C59.6577 89.3351 59.6281 89.207 59.6025 89.0534C59.577 88.9001 59.5597 88.7042 59.5514 88.4653C59.5424 88.2267 59.5385 87.928 59.5385 87.57V84.756C59.5385 83.9207 59.3933 83.3324 59.1032 82.9909C58.8126 82.6501 58.3432 82.4792 57.6945 82.4792H56.7212V89.7699H53.9038V71.8633H58.1555C59.6238 71.8633 60.6868 72.2047 61.3443 72.8864C62.0014 73.5687 62.3302 74.6004 62.3302 75.9817V77.3887C62.3302 79.2304 61.7157 80.4415 60.4862 81.0211C61.2034 81.3113 61.6941 81.7847 61.959 82.4408C62.2233 83.0975 62.3559 83.8949 62.3559 84.8325V87.5953C62.3559 88.0388 62.3728 88.4265 62.4072 88.7592C62.4412 89.0917 62.5263 89.4285 62.6634 89.7695H59.7947V89.7699ZM56.7212 74.4213V79.9212H57.8226C58.3516 79.9212 58.766 79.785 59.0649 79.5119C59.3634 79.2393 59.5131 78.7445 59.5131 78.0281V76.263C59.5131 75.6151 59.3978 75.1463 59.1673 74.8561C58.9368 74.5663 58.5738 74.4213 58.0787 74.4213H56.7212Z" fill="white"/>
<path d="M66.9146 87.0576V89.7692H64.1997V87.0576H66.9146Z" fill="white"/>
<path d="M74.8545 89.7699C74.8199 89.6509 74.7861 89.5395 74.7521 89.4374C74.7175 89.3351 74.6879 89.207 74.6623 89.0534C74.6368 88.9001 74.6195 88.7042 74.6112 88.4653C74.6022 88.2267 74.5983 87.928 74.5983 87.57V84.756C74.5983 83.9207 74.4532 83.3324 74.163 82.9909C73.8724 82.6501 73.4031 82.4792 72.7543 82.4792H71.781V89.7699H68.9636V71.8633H73.2153C74.6837 71.8633 75.7466 72.2047 76.4041 72.8864C77.0612 73.5687 77.39 74.6004 77.39 75.9817V77.3887C77.39 79.2304 76.7755 80.4415 75.546 81.0211C76.2634 81.3113 76.7539 81.7847 77.0188 82.4408C77.2831 83.0975 77.4157 83.8949 77.4157 84.8325V87.5953C77.4157 88.0388 77.4326 88.4265 77.467 88.7592C77.501 89.0917 77.5861 89.4285 77.7232 89.7695H74.8545V89.7699ZM71.7808 74.4213V79.9212H72.8822C73.4112 79.9212 73.8256 79.785 74.1245 79.5119C74.423 79.2393 74.5727 78.7445 74.5727 78.0281V76.263C74.5727 75.6151 74.4574 75.1463 74.2269 74.8561C73.9966 74.5663 73.6334 74.4213 73.1384 74.4213H71.7808Z" fill="white"/>
<path d="M81.9492 71.8633V85.677C81.9492 86.3254 82.0814 86.7769 82.3463 87.0327C82.6108 87.2884 82.9651 87.4165 83.4092 87.4165C83.8531 87.4165 84.2072 87.2886 84.4723 87.0327C84.7366 86.7769 84.8692 86.3252 84.8692 85.677V71.8633H87.533V85.4979C87.533 86.9477 87.1783 88.0604 86.4699 88.836C85.7612 89.6123 84.7154 90.0001 83.3322 90.0001C81.9492 90.0001 80.9032 89.6123 80.1948 88.836C79.4861 88.0604 79.1318 86.9475 79.1318 85.4979V71.8633H81.9492Z" fill="white"/>
<defs>
<filter id="filter0_d" x="4.37402" y="0" width="78.9999" height="70.3567" filterUnits="userSpaceOnUse" color-interpolation-filters="sRGB">
<feFlood flood-opacity="0" result="BackgroundImageFix"/>
<feColorMatrix in="SourceAlpha" type="matrix" values="0 0 0 0 0 0 0 0 0 0 0 0 0 0 0 0 0 0 127 0"/>
<feOffset dy="4"/>
<feGaussianBlur stdDeviation="2"/>
<feColorMatrix type="matrix" values="0 0 0 0 0 0 0 0 0 0 0 0 0 0 0 0 0 0 0.25 0"/>
<feBlend mode="normal" in2="BackgroundImageFix" result="effect1_dropShadow"/>
<feBlend mode="normal" in="SourceGraphic" in2="effect1_dropShadow" result="shape"/>
</filter>
</defs>
</svg>
