<svg width="64" height="64" viewBox="0 0 64 64" fill="none" xmlns="http://www.w3.org/2000/svg">
<path d="M44.4113 21.0511L20.9361 35.6107C20.5228 35.867 20.3348 36.3703 20.479 36.8349L23.628 46.9816C23.6941 47.1948 24.0047 47.1654 24.0297 46.9436L24.7951 40.1398C24.8246 39.8769 24.9507 39.6344 25.1489 39.4591L45.0281 21.8801C45.504 21.4593 44.9513 20.7162 44.4113 21.0511Z" fill="#deecf7"/>
<path d="M10 0C4.47715 0 0 4.47715 0 10V54C0 59.5229 4.47715 64 10 64H54C59.5229 64 64 59.5229 64 54V10C64 4.47715 59.5229 0 54 0H10ZM53.3482 16.6299L46.0413 51.5642C45.6984 53.2035 43.7757 53.9398 42.4256 52.9487L37.8713 49.6057C34.1543 46.8773 28.9967 47.2976 25.7704 50.5917C24.7836 51.5993 23.0789 51.1915 22.6549 49.8463L20.1963 42.0449C19.196 38.8709 16.6824 36.4025 13.4908 35.46L7.72091 33.7562C6.2941 33.3349 6.20998 31.3456 7.5962 30.8054L50.3938 14.1276C52.0228 13.4929 53.7062 14.9186 53.3482 16.6299Z" fill="#deecf7"/>
</svg>
