<svg  width="40" height="40" viewBox="0 0 40 40" fill="none" xmlns="http://www.w3.org/2000/svg">
<path d="M27.8685 13.5701L13.4222 22.5298C13.1679 22.6875 13.0522 22.9973 13.1409 23.2831L15.0787 29.5273C15.1194 29.6585 15.3106 29.6404 15.326 29.5039L15.797 25.317C15.8151 25.1552 15.8927 25.0059 16.0147 24.8981L28.2481 14.0802C28.5409 13.8213 28.2008 13.3639 27.8685 13.5701Z" fill="#E8FCFF"/>
<path d="M10.5384 0.615356C5.0156 0.615356 0.538452 5.09251 0.538452 10.6154V30C0.538452 35.5228 5.01561 40 10.5385 40H29.9231C35.4459 40 39.9231 35.5228 39.9231 30V10.6154C39.9231 5.0925 35.4459 0.615356 29.9231 0.615356H10.5384ZM33.3681 10.8491L28.8716 32.3472C28.6605 33.3559 27.4774 33.809 26.6465 33.1992L23.8439 31.1419C21.5565 29.4629 18.3826 29.7215 16.3972 31.7487C15.7899 32.3688 14.7408 32.1178 14.4799 31.29L13.5824 28.4419C12.5821 25.2679 10.0684 22.7995 6.87685 21.8571L5.28978 21.3884C4.41174 21.1291 4.35998 19.905 5.21304 19.5725L31.55 9.30928C32.5525 8.91866 33.5884 9.79601 33.3681 10.8491Z" fill="#E8FCFF"/>
</svg>