<svg width="481" height="501" viewBox="0 0 481 501" fill="none" xmlns="http://www.w3.org/2000/svg">
<path d="M400.951 14.9927L400.701 14.8484L400.451 14.9928L361.655 37.3943L360.906 37.8273L361.655 38.2603L459.909 94.9918L460.659 95.4249L460.659 94.5588L460.659 49.7558L460.659 49.4672L460.409 49.3228L400.951 14.9927ZM400.701 -4.64672L477.545 39.7195L477.545 124.668L402.345 81.2474L402.095 81.6804L402.345 81.2474L327.132 37.8272L400.701 -4.64672Z" stroke="rgba(255, 255, 255, 0)"/>
<path d="M347.294 114.92L347.294 84.1005L427.395 130.344L400.701 145.754L347.294 114.92Z" stroke="rgba(255, 255, 255, 0)"/>
<path d="M454.108 53.2516L454.108 84.0709L374.008 37.8271L400.701 22.4175L454.108 53.2516Z" stroke="rgba(255, 255, 255, 0)"/>
<path d="M403.977 -10.3237L403.977 -54.1901L420.863 -54.1901L420.863 -20.36L420.863 -20.0714L421.113 -19.927L459.909 2.47446L460.659 2.90754L460.659 2.04146L460.659 -54.1901L477.546 -54.1901L477.546 32.1503L437.329 8.93583L437.329 8.93579L403.977 -10.3237Z" stroke="rgba(255, 255, 255, 0)"/>
<path d="M267.175 222.362L267.175 192.027L320.581 161.193L347.275 176.603L268.021 222.362L267.175 222.362Z" stroke="rgba(255, 255, 255, 0)"/>
<path d="M281.123 222.362L359.627 177.036L360.377 176.603L359.627 176.17L320.831 153.768L320.581 153.624L320.331 153.768L260.874 188.099L260.624 188.243L260.624 188.532L260.624 222.362L243.737 222.362L243.737 181.414L243.737 178.495L320.581 134.129L394.15 176.603L318.937 220.023L318.937 220.023L314.896 222.362L281.123 222.362Z" stroke="rgba(255, 255, 255, 0)"/>
<path d="M121.284 177.036L199.787 222.362L166.014 222.362L161.973 220.023L161.973 220.023L86.7603 176.603L160.329 134.129L221.461 169.425L221.461 169.425L237.186 178.495L237.186 181.414L237.186 222.362L220.299 222.362L220.299 188.532L220.299 188.243L220.049 188.098L160.579 153.768L160.329 153.624L160.079 153.768L121.284 176.17L120.534 176.603L121.284 177.036Z" stroke="rgba(255, 255, 255, 0)"/>
<path d="M81.8531 86.9239L81.8532 86.9239L157.054 43.4916L157.054 128.439L80.465 172.666L80.4624 172.668L80.2075 172.817L6.64042 130.344L81.8531 86.9239ZM79.9592 153.179L80.2092 153.323L80.4592 153.179L139.917 118.848L140.167 118.704L140.167 118.415L140.167 73.6125L140.167 72.7465L139.417 73.1795L41.1637 129.911L40.4138 130.344L41.1637 130.777L79.9592 153.179Z" stroke="rgba(255, 255, 255, 0)"/>
<path d="M454.108 222.362L427.414 222.362L427.414 192.027L454.108 176.618L454.108 222.362Z" stroke="rgba(255, 255, 255, 0)"/>
<path d="M327.998 222.362L397.426 182.28L397.426 222.362L380.539 222.362L380.539 212.389L380.539 211.522L379.789 211.956L361.772 222.362L327.998 222.362Z" stroke="rgba(255, 255, 255, 0)"/>
<mask id="path-11-inside-1" fill="rgba(255, 255, 255, .2)">
<path d="M373.008 222.862L374.488 222.862L374.488 222.01L373.008 222.862Z"/>
</mask>
<path d="M373.008 222.862L372.509 221.995L369.262 223.862L373.008 223.862L373.008 222.862ZM374.488 222.862L374.488 223.862L375.488 223.862L375.488 222.862L374.488 222.862ZM374.488 222.01L375.488 222.01L375.488 220.282L373.989 221.144L374.488 222.01ZM373.008 223.862L374.488 223.862L374.488 221.862L373.008 221.862L373.008 223.862ZM375.488 222.862L375.488 222.01L373.488 222.01L373.488 222.862L375.488 222.862ZM373.989 221.144L372.509 221.995L373.506 223.728L374.986 222.877L373.989 221.144Z" fill="black" mask="url(#path-11-inside-1)"/>
<path d="M78.5777 81.2474L3.36493 124.668L3.36493 39.7196L80.2093 -4.64672L153.778 37.8273L78.5777 81.2474ZM20.5016 49.3228L20.2516 49.4672L20.2516 49.7558L20.2516 94.5588L20.2516 95.4249L21.0016 94.9918L119.255 38.2603L120.005 37.8273L119.255 37.3943L80.4593 14.9928L80.2093 14.8484L79.9593 14.9927L20.5016 49.3228Z" stroke="rgba(255, 255, 255, 0)"/>
<path d="M26.8026 84.0709L26.8025 53.2516L80.2092 22.4175L106.903 37.8271L26.8026 84.0709Z" stroke="rgba(255, 255, 255, 0)"/>
<path d="M53.496 222.362L26.8026 222.362L26.8025 176.618L53.496 192.027L53.496 222.362Z" stroke="rgba(255, 255, 255, 0)"/>
<mask id="path-16-inside-2" fill="rgba(255, 255, 255, .2)">
<path d="M106.422 222.862L107.903 222.862L106.422 222.01L106.422 222.862Z"/>
</mask>
<path d="M106.422 222.862L105.422 222.862L105.422 223.862L106.422 223.862L106.422 222.862ZM107.903 222.862L107.903 223.862L111.648 223.862L108.401 221.995L107.903 222.862ZM106.422 222.01L106.921 221.144L105.422 220.282L105.422 222.01L106.422 222.01ZM106.422 223.862L107.903 223.862L107.903 221.862L106.422 221.862L106.422 223.862ZM108.401 221.995L106.921 221.144L105.924 222.877L107.404 223.728L108.401 221.995ZM105.422 222.01L105.422 222.862L107.422 222.862L107.422 222.01L105.422 222.01Z" fill="black" mask="url(#path-16-inside-2)"/>
<path d="M83.4847 182.28L152.912 222.362L119.139 222.362L101.121 211.956L100.371 211.522L100.371 212.389L100.371 222.362L83.4847 222.362L83.4847 182.28Z" stroke="rgba(255, 255, 255, 0)"/>
<path d="M20.2515 166.13L20.2515 222.362L3.36487 222.362L3.36486 136.021L52.4631 164.367L76.9337 178.495L76.9337 222.362L60.0471 222.362L60.0471 188.532L60.0471 188.243L59.7971 188.099L21.0015 165.697L20.2515 165.264L20.2515 166.13Z" stroke="rgba(255, 255, 255, 0)"/>
<path d="M213.748 192.028L213.748 222.362L212.889 222.362L133.636 176.603L160.329 161.193L213.748 192.028Z" stroke="rgba(255, 255, 255, 0)"/>
<path d="M107.769 -54.19L187.035 -8.43152L160.329 6.97823L106.922 -23.8559L106.922 -54.19L107.769 -54.19Z" stroke="rgba(255, 255, 255, 0)"/>
<path d="M83.4847 -10.3239L83.4847 -54.1902L100.371 -54.1902L100.371 -20.3601L100.371 -20.0715L100.621 -19.9271L160.079 14.4029L160.329 14.5473L160.579 14.403L199.387 -7.99855L200.137 -8.43157L199.387 -8.86461L120.871 -54.1902L154.644 -54.1902L233.91 -8.4316L162.855 32.5831L162.854 32.5832L160.329 34.0423L83.4847 -10.3239Z" stroke="rgba(255, 255, 255, 0)"/>
<path d="M477.546 136.021L477.546 222.362L460.659 222.362L460.659 166.13L460.659 165.264L459.909 165.697L421.113 188.099L420.863 188.243L420.863 188.532L420.863 222.362L403.977 222.362L403.977 178.495L477.546 136.021Z" stroke="rgba(255, 255, 255, 0)"/>
<path d="M3.36487 32.1502L3.36486 -54.1901L20.2515 -54.1901L20.2515 2.04146L20.2515 2.90754L21.0015 2.47446L59.7971 -19.927L60.0471 -20.0714L60.0471 -20.36L60.0471 -54.1901L76.9337 -54.1901L76.9337 -10.3237L54.5602 2.59531L54.5602 2.59533L3.36487 32.1502Z" stroke="rgba(255, 255, 255, 0)"/>
<path d="M373.988 -23.8559L320.581 6.9782L293.888 -8.43145L373.142 -54.19L373.988 -54.19L373.988 -23.8559Z" stroke="rgba(255, 255, 255, 0)"/>
<path d="M247.012 -8.43157L326.266 -54.1902L360.04 -54.1902L281.536 -8.86459L280.786 -8.4316L281.536 -7.99858L320.331 14.4029L320.581 14.5473L320.831 14.4029L380.289 -19.9271L380.539 -20.0715L380.539 -20.3601L380.539 -54.1902L397.426 -54.1902L397.426 -10.3239L320.581 34.0424L275.596 8.07224L275.596 8.07223L247.012 -8.43157Z" stroke="rgba(255, 255, 255, 0)"/>
<path d="M187.042 114.92L187.042 53.2515L213.748 37.8416L213.748 130.33L187.042 114.92Z" stroke="rgba(255, 255, 255, 0)"/>
<path d="M133.616 114.92L80.2092 145.754L53.5158 130.344L133.616 84.1005L133.616 114.92Z" stroke="rgba(255, 255, 255, 0)"/>
<path d="M293.868 114.92L267.175 130.33L267.175 37.842L293.868 53.2517L293.868 114.92Z" stroke="rgba(255, 255, 255, 0)"/>
<path d="M243.749 170.92L243.749 -2.75436L314.792 38.2603L314.793 38.2604L317.318 39.7195L317.318 128.452L248.107 168.411L248.106 168.411L243.749 170.92ZM261.374 26.9214L260.624 26.4883L260.624 27.3544L260.624 140.817L260.624 141.684L261.374 141.25L300.169 118.849L300.419 118.705L300.419 118.416L300.419 49.7559L300.419 49.4673L300.169 49.3229L261.374 26.9214Z" stroke="rgba(255, 255, 255, 0)"/>
<path d="M224.688 163.723L224.687 163.723L163.605 128.452L163.605 39.7193L237.174 -2.7547L237.174 170.938L224.688 163.723ZM220.299 27.3541L220.299 26.488L219.549 26.9211L180.754 49.3226L180.504 49.4669L180.504 49.7556L180.504 118.416L180.504 118.704L180.754 118.849L219.549 141.25L220.299 141.683L220.299 140.817L220.299 27.3541Z" stroke="rgba(255, 255, 255, 0)"/>
<path d="M323.844 43.5039L399.057 86.9241L474.27 130.344L403.227 171.359L403.226 171.359L400.701 172.818L323.844 128.452L323.844 43.5039ZM439.747 130.777L440.497 130.344L439.747 129.911L341.493 73.1796L340.743 72.7466L340.743 73.6126L340.743 118.416L340.743 118.704L340.993 118.849L400.451 153.179L400.701 153.323L400.951 153.179L439.747 130.777Z" stroke="rgba(255, 255, 255, 0)"/>
<mask id="path-33-inside-3" fill="rgba(255, 255, 255, .2)">
<path d="M475.27 130.345L403.477 171.792L475.27 130.345Z"/>
</mask>
<path d="M475.27 130.345L403.477 171.792L475.27 130.345Z" fill="rgba(255, 255, 255, .2)"/>
<path d="M474.77 129.478L402.977 170.926L403.977 172.658L475.77 131.211L474.77 129.478ZM403.977 172.658L475.77 131.211L474.77 129.478L402.977 170.926L403.977 172.658Z" fill="black" mask="url(#path-33-inside-3)"/>
<path d="M480.321 222.362L478.546 222.362L478.545 135.444L480.321 134.418L480.321 222.362Z" fill="rgba(255, 255, 255, .2)" stroke="rgba(255, 255, 255, 0)"/>
<path d="M459.659 166.996L459.659 222.362L455.108 222.362L455.108 175.752L455.108 174.886L454.358 175.319L426.664 191.306L426.414 191.45L426.414 191.739L426.414 222.362L421.863 222.362L421.863 188.82L459.659 166.996Z" fill="rgba(255, 255, 255, .2)" stroke="rgba(255, 255, 255, 0)"/>
<mask id="path-37-inside-4" fill="rgba(255, 255, 255, .2)">
<path d="M243.237 171.792L248.344 168.844L243.237 171.792Z"/>
</mask>
<path d="M243.237 171.792L248.344 168.844L243.237 171.792Z" fill="rgba(255, 255, 255, .2)"/>
<path d="M243.737 172.658L248.844 169.71L247.844 167.978L242.737 170.926L243.737 172.658ZM247.844 167.978L242.737 170.926L243.737 172.658L248.844 169.71L247.844 167.978Z" fill="black" mask="url(#path-37-inside-4)"/>
<mask id="path-39-inside-5" fill="rgba(255, 255, 255, .2)">
<path d="M243.237 178.207L320.581 133.552L243.237 178.207Z"/>
</mask>
<path d="M243.237 178.207L320.581 133.552L243.237 178.207Z" fill="rgba(255, 255, 255, .2)"/>
<path d="M243.737 179.073L321.081 134.418L320.081 132.686L242.737 177.341L243.737 179.073ZM320.081 132.686L242.737 177.341L243.737 179.073L321.081 134.418L320.081 132.686Z" fill="black" mask="url(#path-39-inside-5)"/>
<mask id="path-41-inside-6" fill="rgba(255, 255, 255, .2)">
<path d="M275.347 8.50525L320.581 34.6197L275.347 8.50525Z"/>
</mask>
<path d="M275.347 8.50525L320.581 34.6197L275.347 8.50525Z" fill="rgba(255, 255, 255, .2)"/>
<path d="M274.847 9.37129L320.081 35.4858L321.081 33.7537L275.847 7.63921L274.847 9.37129ZM321.081 33.7537L275.847 7.63921L274.847 9.37129L320.081 35.4858L321.081 33.7537Z" fill="black" mask="url(#path-41-inside-6)"/>
<mask id="path-43-inside-7" fill="rgba(255, 255, 255, .2)">
<path d="M323.357 128.74L323.357 42.6378L323.357 128.74Z"/>
</mask>
<path d="M323.357 128.74L323.357 42.6378L323.357 128.74Z" fill="rgba(255, 255, 255, .2)"/>
<path d="M324.357 128.74L324.357 42.6378L322.357 42.6378L322.357 128.74L324.357 128.74ZM322.357 42.6378L322.357 128.74L324.357 128.74L324.357 42.6378L322.357 42.6378Z" fill="black" mask="url(#path-43-inside-7)"/>
<path d="M294.618 115.641L294.868 115.497L294.868 115.208L294.868 52.9505L294.868 52.6618L294.618 52.5175L266.925 36.5305L266.175 36.0975L266.175 36.9635L266.175 131.195L266.175 132.061L266.925 131.628L294.618 115.641ZM261.624 139.951L261.624 28.2202L299.419 50.0442L299.419 118.127L261.624 139.951Z" fill="rgba(255, 255, 255, .2)" stroke="rgba(255, 255, 255, 0)"/>
<mask id="path-46-inside-8" fill="rgba(255, 255, 255, .2)">
<path d="M237.686 178.207L221.711 168.992L237.686 178.207Z"/>
</mask>
<path d="M237.686 178.207L221.711 168.992L237.686 178.207Z" fill="rgba(255, 255, 255, .2)"/>
<path d="M238.186 177.34L222.211 168.126L221.212 169.858L237.186 179.073L238.186 177.34ZM221.212 169.858L237.186 179.073L238.186 177.34L222.211 168.126L221.212 169.858Z" fill="black" mask="url(#path-46-inside-8)"/>
<mask id="path-48-inside-9" fill="rgba(255, 255, 255, .2)">
<path d="M163.105 33.0162L234.91 -8.43148L163.105 33.0162Z"/>
</mask>
<path d="M163.105 33.0162L234.91 -8.43148L163.105 33.0162Z" fill="rgba(255, 255, 255, .2)"/>
<path d="M163.605 33.8823L235.41 -7.5654L234.411 -9.29755L162.605 32.1502L163.605 33.8823ZM234.411 -9.29755L162.605 32.1502L163.605 33.8823L235.41 -7.5654L234.411 -9.29755Z" fill="black" mask="url(#path-48-inside-9)"/>
<path d="M240.461 172.818L238.186 171.506L238.186 -3.33228L240.461 -4.647L242.737 -3.33228L242.737 171.503L240.461 172.818Z" fill="rgba(255, 255, 255, .2)" stroke="rgba(255, 255, 255, 0)"/>
<path d="M186.292 52.5298L186.042 52.6741L186.042 52.9628L186.042 115.221L186.042 115.509L186.292 115.654L213.986 131.641L214.736 132.074L214.736 131.208L214.736 36.9758L214.736 36.1099L213.986 36.5428L186.292 52.5298ZM219.299 139.951L181.504 118.127L181.504 50.0442L219.299 28.2202L219.299 139.951Z" fill="rgba(255, 255, 255, .2)" stroke="rgba(255, 255, 255, 0)"/>
<path d="M77.4337 222.862L77.4337 178.207L77.4337 222.862Z" stroke="rgba(255, 255, 255, 0)"/>
<mask id="path-53-inside-10" fill="rgba(255, 255, 255, .2)">
<path d="M2.86487 135.155L52.7131 163.934L2.86487 135.155Z"/>
</mask>
<path d="M2.86487 135.155L52.7131 163.934L2.86487 135.155Z" fill="rgba(255, 255, 255, .2)"/>
<path d="M2.36488 136.021L52.2131 164.8L53.2131 163.068L3.36486 134.289L2.36488 136.021ZM53.2131 163.068L3.36486 134.289L2.36488 136.021L52.2131 164.8L53.2131 163.068Z" fill="black" mask="url(#path-53-inside-10)"/>
<path d="M25.8025 175.752L25.8025 222.362L21.2515 222.362L21.2515 166.996L59.047 188.82L59.047 222.362L54.496 222.362L54.496 191.739L54.496 191.45L54.246 191.306L26.5525 175.319L25.8025 174.886L25.8025 175.752Z" fill="rgba(255, 255, 255, .2)" stroke="rgba(255, 255, 255, 0)"/>
<path d="M2.36493 222.362L0.589416 222.362L0.589412 134.418L2.36493 135.444L2.36493 222.362Z" fill="rgba(255, 255, 255, .2)" stroke="rgba(255, 255, 255, 0)"/>
<mask id="path-57-inside-11" fill="rgba(255, 255, 255, .2)">
<path d="M2.86487 33.0162L54.8102 3.02833L2.86487 33.0162Z"/>
</mask>
<path d="M2.86487 33.0162L54.8102 3.02833L2.86487 33.0162Z" fill="rgba(255, 255, 255, .2)"/>
<path d="M3.36483 33.8823L55.3102 3.89438L54.3102 2.16229L2.3649 32.1502L3.36483 33.8823ZM54.3102 2.16229L2.3649 32.1502L3.36483 33.8823L55.3102 3.89438L54.3102 2.16229Z" fill="black" mask="url(#path-57-inside-11)"/>
<path d="M21.2515 1.17542L21.2515 -54.19L25.8025 -54.19L25.8025 -7.58027L25.8025 -6.71429L26.5525 -7.14724L54.246 -23.1342L54.496 -23.2785L54.496 -23.5672L54.496 -54.19L59.047 -54.19L59.047 -20.6487L21.2515 1.17542Z" fill="rgba(255, 255, 255, .2)" stroke="rgba(255, 255, 255, 0)"/>
<path d="M2.36493 32.7276L0.589416 33.7534L0.589412 -54.1902L2.36493 -54.1902L2.36493 32.7276Z" fill="rgba(255, 255, 255, .2)" stroke="rgba(255, 255, 255, 0)"/>
<path d="M480.321 33.7538L478.546 32.7288L478.546 -54.1902L480.321 -54.1902L480.321 33.7538Z" fill="rgba(255, 255, 255, .2)" stroke="rgba(255, 255, 255, 0)"/>
<path d="M455.108 -7.58027L455.108 -54.19L459.659 -54.19L459.659 1.17542L421.863 -20.6487L421.863 -54.19L426.414 -54.19L426.414 -23.5672L426.414 -23.2785L426.664 -23.1342L454.358 -7.14724L455.108 -6.71429L455.108 -7.58027Z" fill="rgba(255, 255, 255, .2)" stroke="rgba(255, 255, 255, 0)"/>
<mask id="path-63-inside-12" fill="rgba(255, 255, 255, .2)">
<path d="M157.554 42.6379L81.6031 86.4911L157.554 42.6379Z"/>
</mask>
<path d="M157.554 42.6379L81.6031 86.4911L157.554 42.6379Z" fill="rgba(255, 255, 255, .2)"/>
<path d="M157.054 41.7719L81.1031 85.6251L82.1032 87.3571L158.054 43.5039L157.054 41.7719ZM82.1032 87.3571L158.054 43.5039L157.054 41.7719L81.1031 85.6251L82.1032 87.3571Z" fill="black" mask="url(#path-63-inside-12)"/>
<mask id="path-65-inside-13" fill="rgba(255, 255, 255, .2)">
<path d="M154.778 37.8273L78.8276 81.6804L154.778 37.8273Z"/>
</mask>
<path d="M154.778 37.8273L78.8276 81.6804L154.778 37.8273Z" fill="rgba(255, 255, 255, .2)"/>
<path d="M154.278 36.9613L78.3276 80.8144L79.3277 82.5464L155.278 38.6933L154.278 36.9613ZM79.3277 82.5464L155.278 38.6933L154.278 36.9613L78.3276 80.8144L79.3277 82.5464Z" fill="black" mask="url(#path-65-inside-13)"/>
<mask id="path-67-inside-14" fill="rgba(255, 255, 255, .2)">
<path d="M82.9847 -10.0352L160.329 34.6197L82.9847 -10.0352Z"/>
</mask>
<path d="M82.9847 -10.0352L160.329 34.6197L82.9847 -10.0352Z" fill="rgba(255, 255, 255, .2)"/>
<path d="M82.4847 -9.16917L159.829 35.4858L160.829 33.7537L83.4847 -10.9012L82.4847 -9.16917ZM160.829 33.7537L83.4847 -10.9012L82.4847 -9.16917L159.829 35.4858L160.829 33.7537Z" fill="black" mask="url(#path-67-inside-14)"/>
<path d="M79.2096 -5.22422L3.36493 38.5649L3.36493 36.2237L3.36493 35.9351L3.11507 35.7907L1.08885 34.62L3.11491 33.4494L3.11506 33.4493L55.0602 3.4615L54.8102 3.02848L55.0603 3.46148L76.9338 -9.16886L76.9338 -6.82772L76.9338 -6.53916L77.1836 -6.39478L79.2096 -5.22422Z" fill="rgba(255, 255, 255, .2)" stroke="rgba(255, 255, 255, 0)"/>
<path d="M26.0525 52.5298L25.8025 52.6742L25.8025 52.9629L25.8025 84.9368L25.8025 85.8028L26.5525 85.3698L108.153 38.2601L108.903 37.827L108.153 37.394L80.4592 21.4071L80.2092 21.2628L79.9592 21.4071L26.0525 52.5298ZM21.2515 93.6925L21.2515 50.0443L80.2092 16.0029L118.005 37.8271L21.2515 93.6925Z" fill="rgba(255, 255, 255, .2)" stroke="rgba(255, 255, 255, 0)"/>
<mask id="path-71-inside-15" fill="rgba(255, 255, 255, .2)">
<path d="M163.105 33.0161L160.329 34.6198L163.105 33.0161Z"/>
</mask>
<path d="M163.105 33.0161L160.329 34.6198L163.105 33.0161Z" fill="rgba(255, 255, 255, .2)"/>
<path d="M162.604 32.1503L159.829 33.7539L160.829 35.4856L163.605 33.882L162.604 32.1503ZM160.829 35.4856L163.605 33.882L162.604 32.1503L159.829 33.7539L160.829 35.4856Z" fill="black" mask="url(#path-71-inside-15)"/>
<path d="M162.605 127.874L160.579 126.704L160.329 126.56L160.079 126.704L158.054 127.874L158.054 42.6381L158.054 41.7721L157.304 42.2051L81.3532 86.0583L5.64055 129.767L3.36493 128.452L3.36493 125.822L79.0777 82.1134L78.8277 81.6804L79.0777 82.1134L154.778 38.4047L160.079 41.4675L160.329 41.612L160.579 41.4675L162.605 40.2973L162.605 127.874ZM5.64054 130.922L76.9338 172.082L76.9338 174.711L74.6572 176.026L52.9632 163.501L3.36493 134.867L3.36493 132.237L5.64054 130.922Z" fill="rgba(255, 255, 255, .2)" stroke="rgba(255, 255, 255, 0)"/>
<mask id="path-74-inside-16" fill="rgba(255, 255, 255, .2)">
<path d="M85.7602 176.603L160.329 133.552L85.7602 176.603Z"/>
</mask>
<path d="M85.7602 176.603L160.329 133.552L85.7602 176.603Z" fill="rgba(255, 255, 255, .2)"/>
<path d="M86.2602 177.469L160.829 134.418L159.829 132.686L85.2602 175.737L86.2602 177.469ZM159.829 132.686L85.2602 175.737L86.2602 177.469L160.829 134.418L159.829 132.686Z" fill="black" mask="url(#path-74-inside-16)"/>
<path d="M134.366 115.641L134.616 115.497L134.616 115.208L134.616 83.2343L134.616 82.3683L133.866 82.8013L52.2658 129.911L51.5157 130.344L52.2658 130.777L79.9593 146.764L80.2093 146.908L80.4592 146.764L134.366 115.641ZM139.167 118.127L80.2092 152.168L42.4136 130.344L139.167 74.4786L139.167 118.127Z" fill="rgba(255, 255, 255, .2)" stroke="rgba(255, 255, 255, 0)"/>
<path d="M82.4847 222.362L77.9337 222.362L77.9337 179.073L82.4847 181.702L82.4847 222.362Z" fill="rgba(255, 255, 255, .2)" stroke="rgba(255, 255, 255, 0)"/>
<mask id="path-78-inside-17" fill="rgba(255, 255, 255, .2)">
<path d="M165.88 222.862L161.723 220.456L165.88 222.862Z"/>
</mask>
<path d="M165.88 222.862L161.723 220.456L165.88 222.862Z" fill="rgba(255, 255, 255, .2)"/>
<path d="M166.381 221.996L162.224 219.591L161.222 221.322L165.379 223.727L166.381 221.996ZM161.222 221.322L165.379 223.727L166.381 221.996L162.224 219.591L161.222 221.322Z" fill="black" mask="url(#path-78-inside-17)"/>
<path d="M77.9337 172.658L79.2097 173.395L77.9337 174.133L77.9337 172.658Z" fill="rgba(255, 255, 255, .2)" stroke="rgba(255, 255, 255, 0)"/>
<path d="M101.371 213.255L117.139 222.362L108.036 222.362L106.672 221.577L105.922 221.146L105.922 222.01L105.922 222.362L101.371 222.362L101.371 213.255Z" fill="rgba(255, 255, 255, .2)" stroke="rgba(255, 255, 255, 0)"/>
<path d="M85.5103 176.17L84.7602 176.603L85.5103 177.036L161.473 220.889L161.473 220.889L164.018 222.362L154.912 222.362L83.2349 180.981L83.2347 180.981L77.6839 177.774L75.6577 176.603L77.6839 175.432L77.4337 174.999L77.6839 175.432L80.4538 173.832L80.4594 173.829L80.9596 173.548L80.9596 173.548L80.965 173.545L157.804 129.174L157.804 129.174L160.329 127.715L162.854 129.174L162.855 129.174L224.187 164.589L224.188 164.589L239.461 173.396L237.436 174.566L237.186 174.711L237.186 174.999L237.186 177.341L221.961 168.559L221.961 168.559L160.579 133.119L160.329 132.974L160.079 133.119L85.5103 176.17Z" fill="rgba(255, 255, 255, .2)" stroke="rgba(255, 255, 255, 0)"/>
<path d="M132.386 177.036L210.89 222.362L201.787 222.362L122.534 176.603L160.329 154.779L219.299 188.82L219.299 222.362L214.748 222.362L214.748 191.739L214.748 191.45L214.498 191.306L160.579 160.183L160.329 160.039L160.079 160.183L132.386 176.17L131.636 176.603L132.386 177.036Z" fill="rgba(255, 255, 255, .2)" stroke="rgba(255, 255, 255, 0)"/>
<path d="M163.355 33.4492L234.909 -7.85346L237.186 -6.53915L237.186 -3.90927L162.855 38.9977L162.854 38.9978L160.329 40.457L155.028 37.3942L155.028 37.3941L80.4594 -5.6571L80.4592 -5.65719L77.9337 -7.11639L77.9337 -10.0351L77.9337 -54.19L82.4847 -54.19L82.4847 -10.0351L82.4847 -9.74639L82.7347 -9.60205L160.079 35.0529L160.329 35.1973L160.579 35.0528L163.355 33.4493L163.355 33.4492Z" fill="rgba(255, 255, 255, .2)" stroke="rgba(255, 255, 255, 0)"/>
<path d="M101.371 -20.6488L101.371 -54.1901L105.922 -54.1901L105.922 -23.5673L105.922 -23.2787L106.172 -23.1343L160.079 7.98844L160.329 8.13274L160.579 7.9885L188.285 -7.99846L189.035 -8.43144L188.285 -8.86456L109.769 -54.1901L118.871 -54.1901L198.137 -8.43155L160.329 13.3926L101.371 -20.6488Z" fill="rgba(255, 255, 255, .2)" stroke="rgba(255, 255, 255, 0)"/>
<path d="M4.64093 130.344L3.36487 131.082L3.36487 129.607L4.64093 130.344Z" fill="rgba(255, 255, 255, .2)" stroke="rgba(255, 255, 255, 0)"/>
<path d="M2.36493 131.948L2.36493 134.289L0.589416 133.263L0.589412 35.486L2.36493 36.5119L2.36493 42.6378L2.36493 125.533L2.36493 128.741L2.36493 131.948Z" fill="rgba(255, 255, 255, .2)" stroke="rgba(255, 255, 255, 0)"/>
<path d="M320.831 126.704L320.581 126.559L320.331 126.704L318.306 127.874L318.306 40.297L322.857 42.9265L322.857 127.874L320.831 126.704Z" fill="rgba(255, 255, 255, .2)" stroke="rgba(255, 255, 255, 0)"/>
<mask id="path-89-inside-18" fill="rgba(255, 255, 255, .2)">
<path d="M320.581 133.552L395.15 176.603L320.581 133.552Z"/>
</mask>
<path d="M320.581 133.552L395.15 176.603L320.581 133.552Z" fill="rgba(255, 255, 255, .2)"/>
<path d="M320.081 134.418L394.65 177.469L395.65 175.737L321.081 132.686L320.081 134.418ZM395.65 175.737L321.081 132.686L320.081 134.418L394.65 177.469L395.65 175.737Z" fill="black" mask="url(#path-89-inside-18)"/>
<mask id="path-91-inside-19" fill="rgba(255, 255, 255, .2)">
<path d="M478.045 125.534L402.083 81.6804L478.045 125.534Z"/>
</mask>
<path d="M478.045 125.534L402.083 81.6804L478.045 125.534Z" fill="rgba(255, 255, 255, .2)"/>
<path d="M478.545 124.668L402.583 80.8144L401.583 82.5464L477.545 126.4L478.545 124.668ZM401.583 82.5464L477.545 126.4L478.545 124.668L402.583 80.8144L401.583 82.5464Z" fill="black" mask="url(#path-91-inside-19)"/>
<path d="M475.268 130.923L479.821 133.552L477.796 134.722L477.795 134.722L406.253 176.026L403.977 174.711L403.977 172.081L475.268 130.923Z" fill="rgba(255, 255, 255, .2)" stroke="rgba(255, 255, 255, 0)"/>
<path d="M347.044 82.8013L346.294 82.3683L346.294 83.2344L346.294 115.208L346.294 115.497L346.544 115.641L400.451 146.764L400.701 146.908L400.951 146.764L428.645 130.777L429.395 130.344L428.645 129.911L347.044 82.8013ZM341.743 74.4786L438.497 130.344L400.701 152.168L341.743 118.127L341.743 74.4786Z" fill="rgba(255, 255, 255, .2)" stroke="rgba(255, 255, 255, 0)"/>
<mask id="path-95-inside-20" fill="rgba(255, 255, 255, .2)">
<path d="M320.581 34.6198L397.926 -10.0352L320.581 34.6198Z"/>
</mask>
<path d="M320.581 34.6198L397.926 -10.0352L320.581 34.6198Z" fill="rgba(255, 255, 255, .2)"/>
<path d="M321.081 35.4858L398.426 -9.16917L397.426 -10.9012L320.081 33.7537L321.081 35.4858ZM397.426 -10.9012L320.081 33.7537L321.081 35.4858L398.426 -9.16917L397.426 -10.9012Z" fill="black" mask="url(#path-95-inside-20)"/>
<path d="M436.829 9.802L436.829 9.80204L480.321 34.9087L480.321 132.686L399.557 86.0583L323.607 42.2053L323.607 42.2052L321.581 41.0346L326.132 38.4047L401.833 82.1134L402.083 81.6804L401.833 82.1135L477.795 125.967L478.545 126.4L478.545 125.534L478.545 39.4309L478.545 39.1422L478.295 38.9979L401.701 -5.22417L403.727 -6.39473L403.977 -6.53911L403.977 -6.82767L403.977 -9.1688L436.829 9.802Z" fill="rgba(255, 255, 255, .2)" stroke="rgba(255, 255, 255, 0)"/>
<path d="M454.358 85.3698L455.108 85.8028L455.108 84.9368L455.108 52.9629L455.108 52.6742L454.858 52.5298L400.951 21.4071L400.701 21.2628L400.451 21.4071L372.758 37.394L372.008 37.8271L372.758 38.2601L454.358 85.3698ZM459.659 93.6925L362.905 37.8271L400.701 16.0029L459.659 50.0443L459.659 93.6925Z" fill="rgba(255, 255, 255, .2)" stroke="rgba(255, 255, 255, 0)"/>
<path d="M398.426 -10.0351L398.426 -54.19L402.977 -54.19L402.977 -10.0351L402.977 -7.1164L400.451 -5.65719L400.451 -5.65711L325.882 37.3941L325.882 37.3942L320.581 40.457L315.28 37.3942L315.28 37.3941L243.487 -4.05349L243.487 -4.05357L240.711 -5.6571L237.936 -7.26076L237.686 -6.82783L237.936 -7.26076L235.91 -8.43144L237.936 -9.60213L243.487 -12.8093L243.487 -12.8094L315.164 -54.19L324.266 -54.19L245.762 -8.86445L245.012 -8.43145L245.762 -7.99844L275.096 8.93839L275.346 8.50538L275.096 8.9384L320.331 35.0529L320.581 35.1972L320.831 35.0529L398.176 -9.60205L398.426 -9.74639L398.426 -10.0351Z" fill="rgba(255, 255, 255, .2)" stroke="rgba(255, 255, 255, 0)"/>
<path d="M282.786 -8.43151L362.04 -54.1901L371.142 -54.1901L292.638 -8.86454L291.888 -8.4315L292.638 -7.99851L320.331 7.98845L320.581 8.13277L320.831 7.98844L374.738 -23.1343L374.988 -23.2787L374.988 -23.5673L374.988 -54.1901L379.539 -54.1901L379.539 -20.6488L320.581 13.3926L282.786 -8.43151Z" fill="rgba(255, 255, 255, .2)" stroke="rgba(255, 255, 255, 0)"/>
<mask id="path-101-inside-21" fill="rgba(255, 255, 255, .2)">
<path d="M397.926 181.414L326.132 222.862L397.926 181.414Z"/>
</mask>
<path d="M397.926 181.414L326.132 222.862L397.926 181.414Z" fill="rgba(255, 255, 255, .2)"/>
<path d="M397.426 180.548L325.632 221.996L326.632 223.728L398.426 182.28L397.426 180.548ZM326.632 223.728L398.426 182.28L397.426 180.548L325.632 221.996L326.632 223.728Z" fill="black" mask="url(#path-101-inside-21)"/>
<path d="M242.987 177.774L242.737 177.918L242.737 178.207L242.737 181.414L242.737 222.362L238.186 222.362L238.186 181.414L238.186 178.207L238.186 175.288L240.712 173.829L243.487 172.225L243.487 172.225L248.594 169.277L248.344 168.844L248.594 169.277L318.056 129.174L318.056 129.174L320.581 127.715L323.107 129.174L323.107 129.174L399.701 173.396L395.148 176.024L320.831 133.119L320.581 132.974L320.331 133.119L242.987 177.774Z" fill="rgba(255, 255, 255, .2)" stroke="rgba(255, 255, 255, 0)"/>
<path d="M405.253 176.603L403.977 177.34L403.977 175.866L405.253 176.603Z" fill="rgba(255, 255, 255, .2)" stroke="rgba(255, 255, 255, 0)"/>
<path d="M270.021 222.362L348.525 177.036L349.275 176.603L348.525 176.17L320.831 160.183L320.581 160.039L320.331 160.183L266.425 191.306L266.175 191.45L266.175 191.739L266.175 222.362L261.624 222.362L261.624 188.82L320.581 154.779L358.377 176.603L279.123 222.362L270.021 222.362Z" fill="rgba(255, 255, 255, .2)" stroke="rgba(255, 255, 255, 0)"/>
<path d="M316.893 222.362L319.437 220.889L319.438 220.889L400.951 173.829L400.951 173.829L402.977 172.658L402.977 174.999L402.977 178.207L402.977 222.362L398.426 222.362L398.426 181.414L398.426 180.548L397.676 180.981L325.998 222.362L316.893 222.362Z" fill="rgba(255, 255, 255, .2)" stroke="rgba(255, 255, 255, 0)"/>
<path d="M379.539 222.362L374.988 222.362L374.988 222.01L374.988 221.146L374.239 221.577L372.874 222.362L363.771 222.362L379.539 213.255L379.539 222.362Z" fill="rgba(255, 255, 255, .2)" stroke="rgba(255, 255, 255, 0)"/>
</svg>
