<?xml version="1.0" encoding="utf-8"?>
<!-- Generator: Adobe Illustrator 23.0.1, SVG Export Plug-In . SVG Version: 6.00 Build 0)  -->
<svg version="1.1" id="Layer_1" xmlns="http://www.w3.org/2000/svg" xmlns:xlink="http://www.w3.org/1999/xlink" x="0px" y="0px"
	 viewBox="0 0 481.5 222.4" style="enable-background:new 0 0 481.5 222.4;" xml:space="preserve">
<style type="text/css">
	.st0{fill:rgba(255, 255, 255, .5);}
	.st1{fill:rgba(255, 255, 255, .5);filter:url(#Adobe_OpacityMaskFilter);}
	.st2{mask:url(#path-11-inside-1_1_);}
	.st3{fill:rgba(255, 255, 255, .5);filter:url(#Adobe_OpacityMaskFilter_1_);}
	.st4{mask:url(#path-16-inside-2_1_);}
	.st5{fill:rgba(255, 255, 255, .5);filter:url(#Adobe_OpacityMaskFilter_2_);}
	.st6{mask:url(#path-33-inside-3_1_);}
	.st7{fill:rgba(255, 255, 255, .5);filter:url(#Adobe_OpacityMaskFilter_3_);}
	.st8{mask:url(#path-37-inside-4_1_);}
	.st9{fill:rgba(255, 255, 255, .5);filter:url(#Adobe_OpacityMaskFilter_4_);}
	.st10{mask:url(#path-39-inside-5_1_);}
	.st11{fill:rgba(255, 255, 255, .5);filter:url(#Adobe_OpacityMaskFilter_5_);}
	.st12{mask:url(#path-41-inside-6_1_);}
	.st13{fill:rgba(255, 255, 255, .5);filter:url(#Adobe_OpacityMaskFilter_6_);}
	.st14{mask:url(#path-43-inside-7_1_);}
	.st15{fill:rgba(255, 255, 255, .5);filter:url(#Adobe_OpacityMaskFilter_7_);}
	.st16{mask:url(#path-46-inside-8_1_);}
	.st17{fill:rgba(255, 255, 255, .5);filter:url(#Adobe_OpacityMaskFilter_8_);}
	.st18{mask:url(#path-48-inside-9_1_);}
	.st19{fill:rgba(255, 255, 255, .5);filter:url(#Adobe_OpacityMaskFilter_9_);}
	.st20{mask:url(#path-53-inside-10_1_);}
	.st21{fill:rgba(255, 255, 255, .5);filter:url(#Adobe_OpacityMaskFilter_10_);}
	.st22{mask:url(#path-57-inside-11_1_);}
	.st23{fill:rgba(255, 255, 255, .5);filter:url(#Adobe_OpacityMaskFilter_11_);}
	.st24{mask:url(#path-63-inside-12_1_);}
	.st25{fill:rgba(255, 255, 255, .5);filter:url(#Adobe_OpacityMaskFilter_12_);}
	.st26{mask:url(#path-65-inside-13_1_);}
	.st27{fill:rgba(255, 255, 255, .5);filter:url(#Adobe_OpacityMaskFilter_13_);}
	.st28{mask:url(#path-67-inside-14_1_);}
	.st29{fill:rgba(255, 255, 255, .5);filter:url(#Adobe_OpacityMaskFilter_14_);}
	.st30{mask:url(#path-71-inside-15_1_);}
	.st31{fill:rgba(255, 255, 255, .5);filter:url(#Adobe_OpacityMaskFilter_15_);}
	.st32{mask:url(#path-74-inside-16_1_);}
	.st33{fill:rgba(255, 255, 255, .5);filter:url(#Adobe_OpacityMaskFilter_16_);}
	.st34{mask:url(#path-78-inside-17_1_);}
	.st35{fill:rgba(255, 255, 255, .5);filter:url(#Adobe_OpacityMaskFilter_17_);}
	.st36{mask:url(#path-89-inside-18_1_);}
	.st37{fill:rgba(255, 255, 255, .5);filter:url(#Adobe_OpacityMaskFilter_18_);}
	.st38{mask:url(#path-91-inside-19_1_);}
	.st39{fill:rgba(255, 255, 255, .5);filter:url(#Adobe_OpacityMaskFilter_19_);}
	.st40{mask:url(#path-95-inside-20_1_);}
	.st41{fill:rgba(255, 255, 255, .5);filter:url(#Adobe_OpacityMaskFilter_20_);}
	.st42{mask:url(#path-101-inside-21_1_);}
</style>
<path class="st0" d="M401,15l-0.3-0.1l-0.3,0.1l-38.8,22.4l-0.7,0.4l0.7,0.4L459.9,95l0.8,0.4v-0.9V49.8v-0.3l-0.3-0.1L401,15z
	 M400.7-4.6l76.8,44.4v84.9l-75.2-43.4l-0.3,0.4l0.3-0.4l-75.2-43.4L400.7-4.6z"/>
<path class="st0" d="M347.3,114.9V84.1l80.1,46.2l-26.7,15.4L347.3,114.9z"/>
<path class="st0" d="M454.1,53.3v30.8L374,37.8l26.7-15.4L454.1,53.3z"/>
<path class="st0" d="M404-10.3v-43.9h16.9v33.8v0.3l0.3,0.1l38.8,22.4l0.8,0.4V2v-56.2h16.9v86.3L437.3,8.9v0L404-10.3z"/>
<path class="st0" d="M267.2,222.4V192l53.4-30.8l26.7,15.4L268,222.4H267.2z"/>
<path class="st0" d="M281.1,222.4l78.5-45.3l0.8-0.4l-0.8-0.4l-38.8-22.4l-0.3-0.1l-0.3,0.1l-59.5,34.3l-0.3,0.1v0.3v33.8h-16.9
	v-40.9v-2.9l76.8-44.4l73.6,42.5L318.9,220l0,0l-4,2.3H281.1z"/>
<path class="st0" d="M121.3,177l78.5,45.3H166l-4-2.3l0,0l-75.2-43.4l73.6-42.5l61.1,35.3l0,0l15.7,9.1v2.9v40.9h-16.9v-33.8v-0.3
	l-0.3-0.1l-59.5-34.3l-0.3-0.1l-0.3,0.1l-38.8,22.4l-0.8,0.4L121.3,177z"/>
<path class="st0" d="M81.9,86.9L81.9,86.9l75.2-43.4v84.9l-76.6,44.2l0,0l-0.3,0.1L6.6,130.3L81.9,86.9z M80,153.2l0.3,0.1l0.3-0.1
	l59.5-34.3l0.3-0.1v-0.3V73.6v-0.9l-0.8,0.4l-98.3,56.7l-0.7,0.4l0.7,0.4L80,153.2z"/>
<path class="st0" d="M454.1,222.4h-26.7V192l26.7-15.4V222.4z"/>
<path class="st0" d="M328,222.4l69.4-40.1v40.1h-16.9v-10v-0.9l-0.8,0.4l-18,10.4H328z"/>
<defs>
	<filter id="Adobe_OpacityMaskFilter" filterUnits="userSpaceOnUse" x="369.3" y="220.3" width="6.2" height="3.6">
		<feColorMatrix  type="matrix" values="1 0 0 0 0  0 1 0 0 0  0 0 1 0 0  0 0 0 1 0"/>
	</filter>
</defs>
<mask maskUnits="userSpaceOnUse" x="369.3" y="220.3" width="6.2" height="3.6" id="path-11-inside-1_1_">
	<path class="st1" d="M373,222.9h1.5V222L373,222.9z"/>
</mask>
<path class="st2" d="M373,222.9l-0.5-0.9l-3.2,1.9h3.7V222.9z M374.5,222.9v1h1v-1H374.5z M374.5,222h1v-1.7l-1.5,0.9L374.5,222z
	 M373,223.9h1.5v-2H373V223.9z M375.5,222.9V222h-2v0.9H375.5z M374,221.1l-1.5,0.9l1,1.7l1.5-0.9L374,221.1z"/>
<path class="st0" d="M78.6,81.2L3.4,124.7V39.7L80.2-4.6l73.6,42.5L78.6,81.2z M20.5,49.3l-0.3,0.1v0.3v44.8v0.9L21,95l98.3-56.7
	l0.8-0.4l-0.8-0.4L80.5,15l-0.3-0.1L80,15L20.5,49.3z"/>
<path class="st0" d="M26.8,84.1l0-30.8l53.4-30.8l26.7,15.4L26.8,84.1z"/>
<path class="st0" d="M53.5,222.4H26.8l0-45.7L53.5,192V222.4z"/>
<defs>
	<filter id="Adobe_OpacityMaskFilter_1_" filterUnits="userSpaceOnUse" x="105.4" y="220.3" width="6.2" height="3.6">
		<feColorMatrix  type="matrix" values="1 0 0 0 0  0 1 0 0 0  0 0 1 0 0  0 0 0 1 0"/>
	</filter>
</defs>
<mask maskUnits="userSpaceOnUse" x="105.4" y="220.3" width="6.2" height="3.6" id="path-16-inside-2_1_">
	<path class="st3" d="M106.4,222.9h1.5l-1.5-0.9V222.9z"/>
</mask>
<path class="st4" d="M106.4,222.9h-1v1h1V222.9z M107.9,222.9v1h3.7l-3.2-1.9L107.9,222.9z M106.4,222l0.5-0.9l-1.5-0.9v1.7H106.4z
	 M106.4,223.9h1.5v-2h-1.5V223.9z M108.4,222l-1.5-0.9l-1,1.7l1.5,0.9L108.4,222z M105.4,222v0.9h2V222H105.4z"/>
<path class="st0" d="M83.5,182.3l69.4,40.1h-33.8l-18-10.4l-0.8-0.4v0.9v10H83.5V182.3z"/>
<path class="st0" d="M20.3,166.1v56.2H3.4l0-86.3l49.1,28.3l24.5,14.1v43.9H60v-33.8v-0.3l-0.3-0.1L21,165.7l-0.8-0.4V166.1z"/>
<path class="st0" d="M213.7,192v30.3h-0.9l-79.3-45.8l26.7-15.4L213.7,192z"/>
<path class="st0" d="M107.8-54.2L187-8.4L160.3,7l-53.4-30.8v-30.3H107.8z"/>
<path class="st0" d="M83.5-10.3v-43.9h16.9v33.8v0.3l0.3,0.1l59.5,34.3l0.3,0.1l0.3-0.1L199.4-8l0.8-0.4l-0.8-0.4l-78.5-45.3h33.8
	l79.3,45.8l-71.1,41l0,0l-2.5,1.5L83.5-10.3z"/>
<path class="st0" d="M477.5,136v86.3h-16.9v-56.2v-0.9l-0.8,0.4l-38.8,22.4l-0.3,0.1v0.3v33.8H404v-43.9L477.5,136z"/>
<path class="st0" d="M3.4,32.2l0-86.3h16.9V2v0.9L21,2.5l38.8-22.4l0.3-0.1v-0.3v-33.8h16.9v43.9L54.6,2.6v0L3.4,32.2z"/>
<path class="st0" d="M374-23.9L320.6,7L293.9-8.4l79.3-45.8h0.8V-23.9z"/>
<path class="st0" d="M247-8.4l79.3-45.8H360L281.5-8.9l-0.8,0.4l0.8,0.4l38.8,22.4l0.3,0.1l0.3-0.1l59.5-34.3l0.3-0.1v-0.3v-33.8
	h16.9v43.9L320.6,34l-45-26v0L247-8.4z"/>
<path class="st0" d="M187,114.9V53.3l26.7-15.4v92.5L187,114.9z"/>
<path class="st0" d="M133.6,114.9l-53.4,30.8l-26.7-15.4l80.1-46.2V114.9z"/>
<path class="st0" d="M293.9,114.9l-26.7,15.4V37.8l26.7,15.4V114.9z"/>
<path class="st0" d="M243.7,170.9V-2.8l71,41l0,0l2.5,1.5v88.7l-69.2,40h0L243.7,170.9z M261.4,26.9l-0.8-0.4v0.9v113.5v0.9l0.8-0.4
	l38.8-22.4l0.3-0.1v-0.3V49.8v-0.3l-0.3-0.1L261.4,26.9z"/>
<path class="st0" d="M224.7,163.7L224.7,163.7l-61.1-35.3V39.7l73.6-42.5v173.7L224.7,163.7z M220.3,27.4v-0.9l-0.8,0.4l-38.8,22.4
	l-0.3,0.1v0.3v68.7v0.3l0.3,0.1l38.8,22.4l0.8,0.4v-0.9V27.4z"/>
<path class="st0" d="M323.8,43.5l75.2,43.4l75.2,43.4l-71,41h0l-2.5,1.5l-76.9-44.4V43.5z M439.7,130.8l0.8-0.4l-0.8-0.4l-98.3-56.7
	l-0.8-0.4v0.9v44.8v0.3l0.3,0.1l59.5,34.3l0.3,0.1l0.3-0.1L439.7,130.8z"/>
<path class="st0" d="M475.3,130.3l-71.8,41.4L475.3,130.3z"/>
<defs>
	<filter id="Adobe_OpacityMaskFilter_2_" filterUnits="userSpaceOnUse" x="403" y="129.5" width="72.8" height="43.2">
		<feColorMatrix  type="matrix" values="1 0 0 0 0  0 1 0 0 0  0 0 1 0 0  0 0 0 1 0"/>
	</filter>
</defs>
<mask maskUnits="userSpaceOnUse" x="403" y="129.5" width="72.8" height="43.2" id="path-33-inside-3_1_">
	<path class="st5" d="M475.3,130.3l-71.8,41.4L475.3,130.3z"/>
</mask>
<path class="st6" d="M474.8,129.5L403,170.9l1,1.7l71.8-41.4L474.8,129.5z M404,172.7l71.8-41.4l-1-1.7L403,170.9L404,172.7z"/>
<path class="st0" d="M480.3,222.4h-1.8l0-86.9l1.8-1V222.4z"/>
<path class="st0" d="M459.7,167v55.4h-4.6v-46.6v-0.9l-0.8,0.4l-27.7,16l-0.3,0.1v0.3v30.6h-4.6v-33.5L459.7,167z"/>
<path class="st0" d="M243.2,171.8l5.1-2.9L243.2,171.8z"/>
<defs>
	<filter id="Adobe_OpacityMaskFilter_3_" filterUnits="userSpaceOnUse" x="242.7" y="168" width="6.1" height="4.7">
		<feColorMatrix  type="matrix" values="1 0 0 0 0  0 1 0 0 0  0 0 1 0 0  0 0 0 1 0"/>
	</filter>
</defs>
<mask maskUnits="userSpaceOnUse" x="242.7" y="168" width="6.1" height="4.7" id="path-37-inside-4_1_">
	<path class="st7" d="M243.2,171.8l5.1-2.9L243.2,171.8z"/>
</mask>
<path class="st8" d="M243.7,172.7l5.1-2.9l-1-1.7l-5.1,2.9L243.7,172.7z M247.8,168l-5.1,2.9l1,1.7l5.1-2.9L247.8,168z"/>
<path class="st0" d="M243.2,178.2l77.3-44.7L243.2,178.2z"/>
<defs>
	<filter id="Adobe_OpacityMaskFilter_4_" filterUnits="userSpaceOnUse" x="242.7" y="132.7" width="78.3" height="46.4">
		<feColorMatrix  type="matrix" values="1 0 0 0 0  0 1 0 0 0  0 0 1 0 0  0 0 0 1 0"/>
	</filter>
</defs>
<mask maskUnits="userSpaceOnUse" x="242.7" y="132.7" width="78.3" height="46.4" id="path-39-inside-5_1_">
	<path class="st9" d="M243.2,178.2l77.3-44.7L243.2,178.2z"/>
</mask>
<path class="st10" d="M243.7,179.1l77.3-44.7l-1-1.7l-77.3,44.7L243.7,179.1z M320.1,132.7l-77.3,44.7l1,1.7l77.3-44.7L320.1,132.7z
	"/>
<path class="st0" d="M275.3,8.5l45.2,26.1L275.3,8.5z"/>
<defs>
	<filter id="Adobe_OpacityMaskFilter_5_" filterUnits="userSpaceOnUse" x="274.8" y="7.6" width="46.2" height="27.8">
		<feColorMatrix  type="matrix" values="1 0 0 0 0  0 1 0 0 0  0 0 1 0 0  0 0 0 1 0"/>
	</filter>
</defs>
<mask maskUnits="userSpaceOnUse" x="274.8" y="7.6" width="46.2" height="27.8" id="path-41-inside-6_1_">
	<path class="st11" d="M275.3,8.5l45.2,26.1L275.3,8.5z"/>
</mask>
<path class="st12" d="M274.8,9.4l45.2,26.1l1-1.7L275.8,7.6L274.8,9.4z M321.1,33.8L275.8,7.6l-1,1.7l45.2,26.1L321.1,33.8z"/>
<path class="st0" d="M323.4,128.7V42.6V128.7z"/>
<defs>
	<filter id="Adobe_OpacityMaskFilter_6_" filterUnits="userSpaceOnUse" x="322.4" y="42.6" width="2" height="86.1">
		<feColorMatrix  type="matrix" values="1 0 0 0 0  0 1 0 0 0  0 0 1 0 0  0 0 0 1 0"/>
	</filter>
</defs>
<mask maskUnits="userSpaceOnUse" x="322.4" y="42.6" width="2" height="86.1" id="path-43-inside-7_1_">
	<path class="st13" d="M323.4,128.7V42.6V128.7z"/>
</mask>
<path class="st14" d="M324.4,128.7V42.6h-2v86.1H324.4z M322.4,42.6v86.1h2V42.6H322.4z"/>
<path class="st0" d="M294.6,115.6l0.3-0.1v-0.3V53v-0.3l-0.3-0.1l-27.7-16l-0.8-0.4V37v94.2v0.9l0.8-0.4L294.6,115.6z M261.6,140
	V28.2L299.4,50v68.1L261.6,140z"/>
<path class="st0" d="M237.7,178.2l-16-9.2L237.7,178.2z"/>
<defs>
	<filter id="Adobe_OpacityMaskFilter_7_" filterUnits="userSpaceOnUse" x="221.2" y="168.1" width="17" height="10.9">
		<feColorMatrix  type="matrix" values="1 0 0 0 0  0 1 0 0 0  0 0 1 0 0  0 0 0 1 0"/>
	</filter>
</defs>
<mask maskUnits="userSpaceOnUse" x="221.2" y="168.1" width="17" height="10.9" id="path-46-inside-8_1_">
	<path class="st15" d="M237.7,178.2l-16-9.2L237.7,178.2z"/>
</mask>
<path class="st16" d="M238.2,177.3l-16-9.2l-1,1.7l16,9.2L238.2,177.3z M221.2,169.9l16,9.2l1-1.7l-16-9.2L221.2,169.9z"/>
<path class="st0" d="M163.1,33l71.8-41.4L163.1,33z"/>
<defs>
	<filter id="Adobe_OpacityMaskFilter_8_" filterUnits="userSpaceOnUse" x="162.6" y="-9.3" width="72.8" height="43.2">
		<feColorMatrix  type="matrix" values="1 0 0 0 0  0 1 0 0 0  0 0 1 0 0  0 0 0 1 0"/>
	</filter>
</defs>
<mask maskUnits="userSpaceOnUse" x="162.6" y="-9.3" width="72.8" height="43.2" id="path-48-inside-9_1_">
	<path class="st17" d="M163.1,33l71.8-41.4L163.1,33z"/>
</mask>
<path class="st18" d="M163.6,33.9l71.8-41.4l-1-1.7l-71.8,41.4L163.6,33.9z M234.4-9.3l-71.8,41.4l1,1.7l71.8-41.4L234.4-9.3z"/>
<path class="st0" d="M240.5,172.8l-2.3-1.3V-3.3l2.3-1.3l2.3,1.3v174.8L240.5,172.8z"/>
<path class="st0" d="M186.3,52.5l-0.3,0.1V53v62.3v0.3l0.3,0.1l27.7,16l0.8,0.4v-0.9V37v-0.9l-0.8,0.4L186.3,52.5z M219.3,140
	l-37.8-21.8V50l37.8-21.8V140z"/>
<path class="st0" d="M77.4,222.9v-44.7V222.9z"/>
<path class="st0" d="M2.9,135.2l49.8,28.8L2.9,135.2z"/>
<defs>
	<filter id="Adobe_OpacityMaskFilter_9_" filterUnits="userSpaceOnUse" x="2.4" y="134.3" width="50.8" height="30.5">
		<feColorMatrix  type="matrix" values="1 0 0 0 0  0 1 0 0 0  0 0 1 0 0  0 0 0 1 0"/>
	</filter>
</defs>
<mask maskUnits="userSpaceOnUse" x="2.4" y="134.3" width="50.8" height="30.5" id="path-53-inside-10_1_">
	<path class="st19" d="M2.9,135.2l49.8,28.8L2.9,135.2z"/>
</mask>
<path class="st20" d="M2.4,136l49.8,28.8l1-1.7L3.4,134.3L2.4,136z M53.2,163.1L3.4,134.3l-1,1.7l49.8,28.8L53.2,163.1z"/>
<path class="st0" d="M25.8,175.8v46.6h-4.6V167L59,188.8v33.5h-4.6v-30.6v-0.3l-0.3-0.1l-27.7-16l-0.8-0.4V175.8z"/>
<path class="st0" d="M2.4,222.4H0.6l0-87.9l1.8,1V222.4z"/>
<path class="st0" d="M2.9,33L54.8,3L2.9,33z"/>
<defs>
	<filter id="Adobe_OpacityMaskFilter_10_" filterUnits="userSpaceOnUse" x="2.4" y="2.2" width="52.9" height="31.7">
		<feColorMatrix  type="matrix" values="1 0 0 0 0  0 1 0 0 0  0 0 1 0 0  0 0 0 1 0"/>
	</filter>
</defs>
<mask maskUnits="userSpaceOnUse" x="2.4" y="2.2" width="52.9" height="31.7" id="path-57-inside-11_1_">
	<path class="st21" d="M2.9,33L54.8,3L2.9,33z"/>
</mask>
<path class="st22" d="M3.4,33.9l51.9-30l-1-1.7l-51.9,30L3.4,33.9z M54.3,2.2l-51.9,30l1,1.7l51.9-30L54.3,2.2z"/>
<path class="st0" d="M21.3,1.2v-55.4h4.6v46.6v0.9l0.8-0.4l27.7-16l0.3-0.1v-0.3v-30.6H59v33.5L21.3,1.2z"/>
<path class="st0" d="M2.4,32.7l-1.8,1l0-87.9h1.8V32.7z"/>
<path class="st0" d="M480.3,33.8l-1.8-1v-86.9h1.8V33.8z"/>
<path class="st0" d="M455.1-7.6v-46.6h4.6V1.2l-37.8-21.8v-33.5h4.6v30.6v0.3l0.3,0.1l27.7,16l0.8,0.4V-7.6z"/>
<path class="st0" d="M157.6,42.6l-76,43.9L157.6,42.6z"/>
<defs>
	<filter id="Adobe_OpacityMaskFilter_11_" filterUnits="userSpaceOnUse" x="81.1" y="41.8" width="77" height="45.6">
		<feColorMatrix  type="matrix" values="1 0 0 0 0  0 1 0 0 0  0 0 1 0 0  0 0 0 1 0"/>
	</filter>
</defs>
<mask maskUnits="userSpaceOnUse" x="81.1" y="41.8" width="77" height="45.6" id="path-63-inside-12_1_">
	<path class="st23" d="M157.6,42.6l-76,43.9L157.6,42.6z"/>
</mask>
<path class="st24" d="M157.1,41.8l-76,43.9l1,1.7l76-43.9L157.1,41.8z M82.1,87.4l76-43.9l-1-1.7l-76,43.9L82.1,87.4z"/>
<path class="st0" d="M154.8,37.8l-76,43.9L154.8,37.8z"/>
<defs>
	<filter id="Adobe_OpacityMaskFilter_12_" filterUnits="userSpaceOnUse" x="78.3" y="37" width="77" height="45.6">
		<feColorMatrix  type="matrix" values="1 0 0 0 0  0 1 0 0 0  0 0 1 0 0  0 0 0 1 0"/>
	</filter>
</defs>
<mask maskUnits="userSpaceOnUse" x="78.3" y="37" width="77" height="45.6" id="path-65-inside-13_1_">
	<path class="st25" d="M154.8,37.8l-76,43.9L154.8,37.8z"/>
</mask>
<path class="st26" d="M154.3,37l-76,43.9l1,1.7l76-43.9L154.3,37z M79.3,82.5l76-43.9l-1-1.7l-76,43.9L79.3,82.5z"/>
<path class="st0" d="M83-10l77.3,44.7L83-10z"/>
<defs>
	<filter id="Adobe_OpacityMaskFilter_13_" filterUnits="userSpaceOnUse" x="82.5" y="-10.9" width="78.3" height="46.4">
		<feColorMatrix  type="matrix" values="1 0 0 0 0  0 1 0 0 0  0 0 1 0 0  0 0 0 1 0"/>
	</filter>
</defs>
<mask maskUnits="userSpaceOnUse" x="82.5" y="-10.9" width="78.3" height="46.4" id="path-67-inside-14_1_">
	<path class="st27" d="M83-10l77.3,44.7L83-10z"/>
</mask>
<path class="st28" d="M82.5-9.2l77.3,44.7l1-1.7L83.5-10.9L82.5-9.2z M160.8,33.8L83.5-10.9l-1,1.7l77.3,44.7L160.8,33.8z"/>
<path class="st0" d="M79.2-5.2L3.4,38.6v-2.3v-0.3l-0.2-0.1l-2-1.2l2-1.2l0,0l51.9-30L54.8,3l0.3,0.4L76.9-9.2v2.3v0.3l0.2,0.1
	L79.2-5.2z"/>
<path class="st0" d="M26.1,52.5l-0.3,0.1V53v32v0.9l0.8-0.4l81.6-47.1l0.8-0.4l-0.8-0.4l-27.7-16l-0.3-0.1L80,21.4L26.1,52.5z
	 M21.3,93.7V50l59-34L118,37.8L21.3,93.7z"/>
<path class="st0" d="M163.1,33l-2.8,1.6L163.1,33z"/>
<defs>
	<filter id="Adobe_OpacityMaskFilter_14_" filterUnits="userSpaceOnUse" x="159.8" y="32.2" width="3.8" height="3.3">
		<feColorMatrix  type="matrix" values="1 0 0 0 0  0 1 0 0 0  0 0 1 0 0  0 0 0 1 0"/>
	</filter>
</defs>
<mask maskUnits="userSpaceOnUse" x="159.8" y="32.2" width="3.8" height="3.3" id="path-71-inside-15_1_">
	<path class="st29" d="M163.1,33l-2.8,1.6L163.1,33z"/>
</mask>
<path class="st30" d="M162.6,32.2l-2.8,1.6l1,1.7l2.8-1.6L162.6,32.2z M160.8,35.5l2.8-1.6l-1-1.7l-2.8,1.6L160.8,35.5z"/>
<path class="st0" d="M162.6,127.9l-2-1.2l-0.3-0.1l-0.3,0.1l-2,1.2V42.6v-0.9l-0.8,0.4l-76,43.9L5.6,129.8l-2.3-1.3v-2.6l75.7-43.7
	l-0.3-0.4l0.3,0.4l75.7-43.7l5.3,3.1l0.3,0.1l0.3-0.1l2-1.2V127.9z M5.6,130.9l71.3,41.2v2.6l-2.3,1.3L53,163.5L3.4,134.9v-2.6
	L5.6,130.9z"/>
<path class="st0" d="M85.8,176.6l74.6-43.1L85.8,176.6z"/>
<defs>
	<filter id="Adobe_OpacityMaskFilter_15_" filterUnits="userSpaceOnUse" x="85.3" y="132.7" width="75.6" height="44.8">
		<feColorMatrix  type="matrix" values="1 0 0 0 0  0 1 0 0 0  0 0 1 0 0  0 0 0 1 0"/>
	</filter>
</defs>
<mask maskUnits="userSpaceOnUse" x="85.3" y="132.7" width="75.6" height="44.8" id="path-74-inside-16_1_">
	<path class="st31" d="M85.8,176.6l74.6-43.1L85.8,176.6z"/>
</mask>
<path class="st32" d="M86.3,177.5l74.6-43.1l-1-1.7l-74.6,43.1L86.3,177.5z M159.8,132.7l-74.6,43.1l1,1.7l74.6-43.1L159.8,132.7z"
	/>
<path class="st0" d="M134.4,115.6l0.3-0.1v-0.3v-32v-0.9l-0.8,0.4l-81.6,47.1l-0.8,0.4l0.8,0.4l27.7,16l0.3,0.1l0.2-0.1L134.4,115.6
	z M139.2,118.1l-59,34l-37.8-21.8l96.8-55.9V118.1z"/>
<path class="st0" d="M82.5,222.4h-4.6v-43.3l4.6,2.6V222.4z"/>
<path class="st0" d="M165.9,222.9l-4.2-2.4L165.9,222.9z"/>
<defs>
	<filter id="Adobe_OpacityMaskFilter_16_" filterUnits="userSpaceOnUse" x="161.2" y="219.6" width="5.2" height="4.1">
		<feColorMatrix  type="matrix" values="1 0 0 0 0  0 1 0 0 0  0 0 1 0 0  0 0 0 1 0"/>
	</filter>
</defs>
<mask maskUnits="userSpaceOnUse" x="161.2" y="219.6" width="5.2" height="4.1" id="path-78-inside-17_1_">
	<path class="st33" d="M165.9,222.9l-4.2-2.4L165.9,222.9z"/>
</mask>
<path class="st34" d="M166.4,222l-4.2-2.4l-1,1.7l4.2,2.4L166.4,222z M161.2,221.3l4.2,2.4l1-1.7l-4.2-2.4L161.2,221.3z"/>
<path class="st0" d="M77.9,172.7l1.3,0.7l-1.3,0.7V172.7z"/>
<path class="st0" d="M101.4,213.3l15.8,9.1H108l-1.4-0.8l-0.8-0.4v0.9v0.4h-4.6V213.3z"/>
<path class="st0" d="M85.5,176.2l-0.8,0.4l0.8,0.4l76,43.9l0,0l2.5,1.5h-9.1L83.2,181h0l-5.6-3.2l-2-1.2l2-1.2l-0.3-0.4l0.3,0.4
	l2.8-1.6l0,0l0.5-0.3l0,0l0,0l76.8-44.4l0,0l2.5-1.5l2.5,1.5h0l61.3,35.4h0l15.3,8.8l-2,1.2l-0.3,0.1v0.3v2.3l-15.2-8.8l0,0
	l-61.4-35.4l-0.3-0.1l-0.3,0.1L85.5,176.2z"/>
<path class="st0" d="M132.4,177l78.5,45.3h-9.1l-79.3-45.8l37.8-21.8l59,34v33.5h-4.6v-30.6v-0.3l-0.3-0.1l-53.9-31.1l-0.3-0.1
	l-0.3,0.1l-27.7,16l-0.8,0.4L132.4,177z"/>
<path class="st0" d="M163.4,33.4l71.6-41.3l2.3,1.3v2.6L162.9,39l0,0l-2.5,1.5l-5.3-3.1v0L80.5-5.7l0,0l-2.5-1.5V-10v-44.2h4.6V-10
	v0.3l0.3,0.1l77.3,44.7l0.3,0.1l0.3-0.1L163.4,33.4L163.4,33.4z"/>
<path class="st0" d="M101.4-20.6v-33.5h4.6v30.6v0.3l0.3,0.1L160.1,8l0.3,0.1l0.3-0.1l27.7-16l0.8-0.4l-0.8-0.4l-78.5-45.3h9.1
	l79.3,45.8l-37.8,21.8L101.4-20.6z"/>
<path class="st0" d="M4.6,130.3l-1.3,0.7v-1.5L4.6,130.3z"/>
<path class="st0" d="M2.4,131.9v2.3l-1.8-1l0-97.8l1.8,1v6.1v82.9v3.2V131.9z"/>
<path class="st0" d="M320.8,126.7l-0.3-0.1l-0.3,0.1l-2,1.2V40.3l4.6,2.6v84.9L320.8,126.7z"/>
<path class="st0" d="M320.6,133.6l74.6,43.1L320.6,133.6z"/>
<defs>
	<filter id="Adobe_OpacityMaskFilter_17_" filterUnits="userSpaceOnUse" x="320.1" y="132.7" width="75.6" height="44.8">
		<feColorMatrix  type="matrix" values="1 0 0 0 0  0 1 0 0 0  0 0 1 0 0  0 0 0 1 0"/>
	</filter>
</defs>
<mask maskUnits="userSpaceOnUse" x="320.1" y="132.7" width="75.6" height="44.8" id="path-89-inside-18_1_">
	<path class="st35" d="M320.6,133.6l74.6,43.1L320.6,133.6z"/>
</mask>
<path class="st36" d="M320.1,134.4l74.6,43.1l1-1.7l-74.6-43.1L320.1,134.4z M395.6,175.7l-74.6-43.1l-1,1.7l74.6,43.1L395.6,175.7z
	"/>
<path class="st0" d="M478,125.5l-76-43.9L478,125.5z"/>
<defs>
	<filter id="Adobe_OpacityMaskFilter_18_" filterUnits="userSpaceOnUse" x="401.6" y="80.8" width="77" height="45.6">
		<feColorMatrix  type="matrix" values="1 0 0 0 0  0 1 0 0 0  0 0 1 0 0  0 0 0 1 0"/>
	</filter>
</defs>
<mask maskUnits="userSpaceOnUse" x="401.6" y="80.8" width="77" height="45.6" id="path-91-inside-19_1_">
	<path class="st37" d="M478,125.5l-76-43.9L478,125.5z"/>
</mask>
<path class="st38" d="M478.5,124.7l-76-43.9l-1,1.7l76,43.9L478.5,124.7z M401.6,82.5l76,43.9l1-1.7l-76-43.9L401.6,82.5z"/>
<path class="st0" d="M475.3,130.9l4.6,2.6l-2,1.2h0L406.3,176l-2.3-1.3v-2.6L475.3,130.9z"/>
<path class="st0" d="M347,82.8l-0.8-0.4v0.9v32v0.3l0.3,0.1l53.9,31.1l0.3,0.1l0.3-0.1l27.7-16l0.8-0.4l-0.8-0.4L347,82.8z
	 M341.7,74.5l96.8,55.9l-37.8,21.8l-59-34V74.5z"/>
<path class="st0" d="M320.6,34.6L397.9-10L320.6,34.6z"/>
<defs>
	<filter id="Adobe_OpacityMaskFilter_19_" filterUnits="userSpaceOnUse" x="320.1" y="-10.9" width="78.3" height="46.4">
		<feColorMatrix  type="matrix" values="1 0 0 0 0  0 1 0 0 0  0 0 1 0 0  0 0 0 1 0"/>
	</filter>
</defs>
<mask maskUnits="userSpaceOnUse" x="320.1" y="-10.9" width="78.3" height="46.4" id="path-95-inside-20_1_">
	<path class="st39" d="M320.6,34.6L397.9-10L320.6,34.6z"/>
</mask>
<path class="st40" d="M321.1,35.5l77.3-44.7l-1-1.7l-77.3,44.7L321.1,35.5z M397.4-10.9l-77.3,44.7l1,1.7l77.3-44.7L397.4-10.9z"/>
<path class="st0" d="M436.8,9.8L436.8,9.8l43.5,25.1v97.8l-80.8-46.6l-76-43.9v0l-2-1.2l4.6-2.6l75.7,43.7l0.3-0.4l-0.3,0.4l76,43.9
	l0.8,0.4v-0.9V39.4v-0.3l-0.3-0.1L401.7-5.2l2-1.2l0.3-0.1v-0.3v-2.3L436.8,9.8z"/>
<path class="st0" d="M454.4,85.4l0.8,0.4v-0.9V53v-0.3l-0.3-0.1L401,21.4l-0.3-0.1l-0.3,0.1l-27.7,16l-0.8,0.4l0.8,0.4L454.4,85.4z
	 M459.7,93.7l-96.8-55.9L400.7,16l59,34V93.7z"/>
<path class="st0" d="M398.4-10v-44.2h4.6V-10v2.9l-2.5,1.5v0l-74.6,43.1v0l-5.3,3.1l-5.3-3.1v0L243.5-4.1v0l-2.8-1.6l-2.8-1.6
	l-0.3,0.4l0.3-0.4l-2-1.2l2-1.2l5.6-3.2v0l71.7-41.4h9.1L245.8-8.9L245-8.4l0.8,0.4l29.3,16.9l0.3-0.4l-0.3,0.4l45.2,26.1l0.3,0.1
	l0.3-0.1l77.3-44.7l0.3-0.1V-10z"/>
<path class="st0" d="M282.8-8.4L362-54.2h9.1L292.6-8.9l-0.8,0.4l0.8,0.4l27.7,16l0.3,0.1l0.3-0.1l53.9-31.1l0.3-0.1v-0.3v-30.6h4.6
	v33.5l-59,34L282.8-8.4z"/>
<path class="st0" d="M397.9,181.4l-71.8,41.4L397.9,181.4z"/>
<defs>
	<filter id="Adobe_OpacityMaskFilter_20_" filterUnits="userSpaceOnUse" x="325.6" y="180.5" width="72.8" height="43.2">
		<feColorMatrix  type="matrix" values="1 0 0 0 0  0 1 0 0 0  0 0 1 0 0  0 0 0 1 0"/>
	</filter>
</defs>
<mask maskUnits="userSpaceOnUse" x="325.6" y="180.5" width="72.8" height="43.2" id="path-101-inside-21_1_">
	<path class="st41" d="M397.9,181.4l-71.8,41.4L397.9,181.4z"/>
</mask>
<path class="st42" d="M397.4,180.5L325.6,222l1,1.7l71.8-41.4L397.4,180.5z M326.6,223.7l71.8-41.4l-1-1.7L325.6,222L326.6,223.7z"
	/>
<path class="st0" d="M243,177.8l-0.3,0.1v0.3v3.2v40.9h-4.6v-40.9v-3.2v-2.9l2.5-1.5l2.8-1.6l0,0l5.1-2.9l-0.3-0.4l0.3,0.4
	l69.5-40.1l0,0l2.5-1.5l2.5,1.5l0,0l76.6,44.2l-4.6,2.6l-74.3-42.9l-0.3-0.1l-0.3,0.1L243,177.8z"/>
<path class="st0" d="M405.3,176.6l-1.3,0.7v-1.5L405.3,176.6z"/>
<path class="st0" d="M270,222.4l78.5-45.3l0.8-0.4l-0.8-0.4l-27.7-16l-0.3-0.1l-0.3,0.1l-53.9,31.1l-0.3,0.1v0.3v30.6h-4.6v-33.5
	l59-34l37.8,21.8l-79.3,45.8H270z"/>
<path class="st0" d="M316.9,222.4l2.5-1.5h0l81.5-47.1l0,0l2-1.2v2.3v3.2v44.2h-4.6v-40.9v-0.9l-0.8,0.4L326,222.4H316.9z"/>
<path class="st0" d="M379.5,222.4H375V222v-0.9l-0.7,0.4l-1.4,0.8h-9.1l15.8-9.1V222.4z"/>
</svg>
