<svg  width="41" height="40" viewBox="0 0 41 40" fill="none" xmlns="http://www.w3.org/2000/svg">
<path d="M22.5843 21.7058C21.9529 21.3383 21.0753 21.3383 20.3623 21.3383H18.021V26.1629H20.1699C20.9654 26.1629 21.98 26.2199 22.6659 25.7383C23.2956 25.3145 23.6522 24.4825 23.6522 23.6903C23.6522 22.9543 23.214 22.0738 22.5843 21.7058ZM21.701 17.5856C22.222 17.1889 22.4952 16.4816 22.4952 15.8302C22.4952 15.1225 22.1666 14.4431 21.564 14.0755C20.9334 13.7079 19.781 13.7928 19.0409 13.7928H18.021V18.039H19.3703C20.1379 18.0386 21.0433 18.0952 21.701 17.5856ZM33.2308 0H7.69154C3.86877 0 0.769287 3.09949 0.769287 6.92308V32.4615C0.769287 36.2843 3.86877 39.3846 7.69154 39.3846H33.2308C37.0536 39.3846 40.1539 36.2843 40.1539 32.4615V6.92308C40.1539 3.09949 37.0536 0 33.2308 0ZM21.5299 29.7579H13.484V10.3389H22.2749C24.8214 10.3389 27.1709 11.9598 27.1709 14.8189C27.1709 17.0265 25.9385 18.5383 24.3664 19.008V19.065C26.6975 19.5467 28.3623 20.8127 28.3623 23.8671C28.3623 26.6937 26.4374 29.7579 21.5299 29.7579Z" fill="#456bb5"/>


</svg>