<svg width="64" height="64" viewBox="0 0 64 64" fill="none" xmlns="http://www.w3.org/2000/svg">
<path d="M35.4493 35.272C34.4233 34.6747 32.9973 34.6747 31.8387 34.6747H28.034V42.5147H31.526C32.8187 42.5147 34.4673 42.6073 35.582 41.8247C36.6053 41.136 37.1847 39.784 37.1847 38.4967C37.1847 37.3007 36.4727 35.87 35.4493 35.272ZM34.014 28.5767C34.8607 27.932 35.3047 26.7827 35.3047 25.724C35.3047 24.574 34.7707 23.47 33.7913 22.8727C32.7667 22.2753 30.894 22.4133 29.6913 22.4133H28.034V29.3133H30.2267C31.474 29.3127 32.9453 29.4047 34.014 28.5767ZM52.75 0H11.2487C5.03667 0 0 5.03667 0 11.25V52.75C0 58.962 5.03667 64 11.2487 64H52.75C58.962 64 64 58.962 64 52.75V11.25C64 5.03667 58.962 0 52.75 0ZM33.736 48.3567H20.6613V16.8007H34.9467C39.0847 16.8007 42.9027 19.4347 42.9027 24.0807C42.9027 27.668 40.9 30.1247 38.3453 30.888V30.9807C42.1333 31.7633 44.8387 33.8207 44.8387 38.784C44.8387 43.3773 41.7107 48.3567 33.736 48.3567Z" fill="white"/>
</svg>
