<svg width="179" height="183" fill="none" xmlns="http://www.w3.org/2000/svg"><path fill-rule="evenodd" clip-rule="evenodd" d="M56.055 26.654A33.94 33.94 0 0187.43 5.657h63.484c6.248 0 11.313 5.065 11.313 11.313s-5.065 11.313-11.313 11.313H87.43a11.313 11.313 0 00-10.458 6.999L58.305 80.534c-3.072 7.447 2.403 15.628 10.459 15.628H103s-2.561 6.813-4.5 11.338c-1.94 4.525-4.5 11.288-12 11.288H68.764c-24.167 0-40.59-24.541-31.375-46.882l18.666-45.252z" fill="#fff"/><path fill-rule="evenodd" clip-rule="evenodd" d="M147.997 51.592h12.187l-37.907 103.697a33.939 33.939 0 01-31.89 22.327H0S2.5 172 5.157 166.303c2.656-5.697 5.065-11.313 11.313-11.313h73.916c4.756 0 9.004-2.974 10.631-7.442l32.479-89.197c2.004-5.851 7.998-6.76 14.501-6.76z" fill="#fff"/><path d="M123.728 25.957l7.679-21.94A6 6 0 01137.07 0h32.105c4.096 0 6.988 4.012 5.693 7.897l-7.314 21.94a5.999 5.999 0 01-5.692 4.102h-32.471c-4.133 0-7.028-4.08-5.663-7.982z" fill="#fff"/><path d="M160.025 11.394A3.394 3.394 0 01163.419 8h9.694c2.401 0 4.043 2.425 3.152 4.654a3.395 3.395 0 01-3.152 2.134h-9.694a3.394 3.394 0 01-3.394-3.394zM155.5 22.707a3.394 3.394 0 013.394-3.394h10.708c2.432 0 4.075 2.483 3.124 4.722a3.394 3.394 0 01-3.124 2.066h-10.708a3.394 3.394 0 01-3.394-3.394z" fill="#317CC2"/></svg>