<svg width="82" height="82" fill="none" xmlns="http://www.w3.org/2000/svg"><g clip-path="url(#clip0)"><path d="M45.466 36.553c-8.358-8.357-8.358-21.908 0-30.266a21.356 21.356 0 0130.11-.154c6.348 6.221 7.99 15.4 4.93 23.155a7.367 7.367 0 00-.381 4.084l1.275 6.691a1.845 1.845 0 01-2.158 2.158l-6.69-1.275a7.34 7.34 0 00-4.073.377c-7.693 3.041-16.791 1.452-23.013-4.77z" fill="url(#paint0_linear)"/><path d="M57.82 24.875v17.764c3.58.466 7.257.029 10.659-1.316a7.338 7.338 0 014.072-.377l1.654.315-16.386-16.386z" fill="url(#paint1_linear)"/><path d="M57.477 72.14c13.149-13.149 13.149-34.467 0-47.616-13.092-13.092-34.15-13.203-47.371-.244-9.987 9.788-12.57 24.23-7.757 36.43a11.592 11.592 0 01.601 6.425L.943 77.662c-.383 2.012 1.383 3.778 3.395 3.395l10.527-2.007a11.546 11.546 0 016.407.593c12.102 4.785 26.416 2.285 36.204-7.503z" fill="url(#paint2_linear)"/><path d="M50.1 77.73A33.496 33.496 0 0140 81.403L28.793 70.195c-.972-.97-1.456-2.11-1.456-3.419 0-1.35.486-2.502 1.461-3.451.975-.95 2.134-1.425 3.478-1.425 1.351 0 2.502.486 3.451 1.457L50.1 77.73z" fill="url(#paint3_linear)"/><path d="M67.13 52.088a33.524 33.524 0 01-9.654 20.051 33.775 33.775 0 01-7.082 5.425L29.49 56.658c-.507-.583-.76-1.685-.76-3.307 0-3.043.861-5.63 2.575-7.767l-9.45-9.459c-.779-.632-1.168-1.519-1.168-2.66 0-2.025 1.097-3.947 3.293-5.762 2.195-1.815 5.256-2.723 9.182-2.723 4.01 0 7.26.993 9.753 2.976.4.318 16.478 16.392 24.214 24.132z" fill="url(#paint4_linear)"/><path d="M67.13 52.088a33.524 33.524 0 01-9.654 20.051 33.774 33.774 0 01-7.082 5.425l-20.75-20.752c.527.48 1.383.718 2.569.718 2.49 0 3.736-.864 3.736-2.597 0-1.35.052-2.353.158-3.008.105-.653.422-1.414.951-2.278.526-.866 1.342-1.743 2.444-2.63 4.765-3.671 7.15-7.535 7.15-11.588 0-2.221-.684-4.162-2.05-5.825 4.388 4.344 16.224 16.18 22.527 22.484z" fill="url(#paint5_linear)"/><path d="M20.687 33.466c0-2.026 1.098-3.947 3.293-5.763 2.195-1.814 5.256-2.723 9.183-2.723 4.01 0 7.26.993 9.752 2.976 2.49 1.985 3.736 4.476 3.736 7.473 0 4.053-2.384 7.916-7.149 11.59-1.102.886-1.918 1.762-2.445 2.627-.528.866-.845 1.626-.95 2.28-.106.655-.158 1.657-.158 3.008 0 1.732-1.246 2.596-3.736 2.596-1.31 0-2.217-.29-2.724-.872-.506-.582-.76-1.684-.76-3.307 0-3.909 1.415-7.07 4.244-9.481.126-.125.674-.562 1.646-1.31.97-.748 1.647-1.31 2.026-1.684.38-.374.802-.945 1.267-1.716.464-.77.697-1.55.697-2.339 0-1.372-.527-2.422-1.578-3.15-1.053-.728-2.42-1.092-4.102-1.092-1.431 0-2.609.233-3.534.7-.926.468-1.535.984-1.83 1.548a5.714 5.714 0 01-1.2 1.548c-.504.467-1.135.7-1.892.7-.968 0-1.84-.316-2.619-.95-.778-.632-1.167-1.52-1.167-2.659zm6.65 33.31c0-1.35.486-2.501 1.462-3.451.975-.95 2.133-1.425 3.477-1.425 1.35 0 2.501.486 3.451 1.456.95.972 1.425 2.112 1.425 3.42 0 1.31-.475 2.449-1.425 3.42-.95.971-2.1 1.456-3.45 1.456-1.353 0-2.513-.485-3.484-1.456-.972-.971-1.456-2.11-1.456-3.42z" fill="url(#paint6_linear)"/></g><defs><linearGradient id="paint0_linear" x1="74.738" y1="40.072" x2="47.513" y2="18.981" gradientUnits="userSpaceOnUse"><stop stop-color="#3F93C9"/><stop offset=".819" stop-color="#A7CCE4"/></linearGradient><linearGradient id="paint1_linear" x1="78.033" y1="53.971" x2="54.728" y2="30.666" gradientUnits="userSpaceOnUse"><stop stop-color="#0469BC" stop-opacity="0"/><stop offset="1" stop-color="#0469BC"/></linearGradient><linearGradient id="paint2_linear" x1="43.701" y1="20.866" x2="42.457" y2="65.481" gradientUnits="userSpaceOnUse"><stop stop-color="#F9FBFC"/><stop offset="1" stop-color="#DCEEFB"/></linearGradient><linearGradient id="paint3_linear" x1="42.907" y1="78.08" x2="29.873" y2="62.632" gradientUnits="userSpaceOnUse"><stop stop-color="#DCEEFA"/><stop offset=".208" stop-color="#DCEEFA"/><stop offset=".617" stop-color="#B4DDFA"/><stop offset="1" stop-color="#79C9FF"/></linearGradient><linearGradient id="paint4_linear" x1="39.415" y1="43.592" x2="23.485" y2="24.282" gradientUnits="userSpaceOnUse"><stop stop-color="#DCEEFA"/><stop offset=".208" stop-color="#DCEEFA"/><stop offset=".617" stop-color="#C0E4FD"/><stop offset="1" stop-color="#BCE1FA"/></linearGradient><linearGradient id="paint5_linear" x1="52.735" y1="57.637" x2="34.23" y2="43.315" gradientUnits="userSpaceOnUse"><stop stop-color="#DCEEFA"/><stop offset=".208" stop-color="#DCEEFA"/><stop offset=".617" stop-color="#C2E6FF"/><stop offset="1" stop-color="#AFD7F1"/></linearGradient><linearGradient id="paint6_linear" x1="42.246" y1="68.657" x2="19.962" y2="59.048" gradientUnits="userSpaceOnUse"><stop stop-color="#3F93C9"/><stop offset=".819" stop-color="#A7CCE4"/></linearGradient><clipPath id="clip0"><path fill="#fff" d="M0 0h82v82H0z"/></clipPath></defs></svg>