<svg width="44" height="33" fill="none" xmlns="http://www.w3.org/2000/svg"><path d="M43.538 14.771L18.678.553C16.76-.546 14.136.046 12.872 1.855L8.056 8.74a3.986 3.986 0 00-.723 2.295 4.01 4.01 0 002 3.464l5.242 3.028-.947 1.264a4 4 0 00-.795 2.386c0 .88.322 1.706.84 2.39l-1.395 2.1H5.5v-2.76A.908.908 0 004.583 22H.917C.41 22 0 22.4 0 22.907v9.175c0 .507.41.918.917.918h3.666c.507 0 .917-.41.917-.918v-.916h6.778a5.487 5.487 0 004.576-2.45l1.503-2.256c.29.063.581.12.88.12a4.197 4.197 0 003.582-2.03l1.007-1.68 7.802 4.505a.913.913 0 00.722.084.921.921 0 00.556-.468l.678-1.36c.112.008.219.032.332.032 3.538 0 6.417-2.882 6.417-6.423 0-.389-.057-.79-.143-1.199l3.303-1.653a.919.919 0 00.045-1.617zM3.667 31.166H1.833v-7.333h1.834v7.333zm11.662-3.463a3.659 3.659 0 01-3.05 1.633H5.5v-1.833h6.778c.616 0 1.186-.306 1.526-.817l1.269-1.905 1.574.945-1.318 1.977zm5.918-4.09c-.64 1.067-2.15 1.447-3.216.805l-2.325-1.395a2.15 2.15 0 01-1.04-1.835c0-.46.153-.916.428-1.285l1.08-1.44 6.064 3.5-.991 1.65zm10.454 1.693L10.248 12.928a2.169 2.169 0 01-.69-3.115l2.301-3.287 22.685 13.087-2.843 5.693zm2.813-1.53l1.919-3.843 2.036-1.018c.01.112.03.229.03.338 0 2.322-1.742 4.226-3.985 4.522zm1.267-5.567L12.915 5.018l1.459-2.084a2.582 2.582 0 013.394-.76l23.373 13.355-5.36 2.68z" fill="#fff"/></svg>