<svg width="44" height="43" fill="none" xmlns="http://www.w3.org/2000/svg"><path d="M43.998 35.755l-.001-.019a.613.613 0 00-.011-.075l-.002-.007a.608.608 0 00-.05-.14l-.004-.01-3.447-6.8V6.336a1.25 1.25 0 00-1.248-1.247H4.765a1.25 1.25 0 00-1.248 1.247v22.37L.07 35.504l-.005.01a.646.646 0 00-.049.14l-.002.007a.636.636 0 00-.011.075v.02a.26.26 0 00-.003.04v1.635c0 .817.665 1.481 1.482 1.481h41.036c.817 0 1.482-.664 1.482-1.481v-1.636l-.002-.04zM4.806 6.377h34.388v21.837H4.806V6.377zm-.249 23.126h34.886l2.863 5.648h-14.16l-.712-2.577a1.217 1.217 0 00-1.17-.891h-8.529c-.544 0-1.025.366-1.17.89l-.71 2.578H1.694l2.863-5.648zm22.251 5.648h-9.616l.6-2.18h8.415l.601 2.18zm15.903 2.28a.193.193 0 01-.193.192H1.482a.193.193 0 01-.193-.193v-.99h41.422v.99z" fill="#fff"/><path d="M37.175 18.37a.644.644 0 00-.645.644v6.536H7.47v-6.536a.644.644 0 10-1.29 0v6.814c0 .558.454 1.011 1.012 1.011h29.617c.557 0 1.01-.453 1.01-1.01v-6.815a.645.645 0 00-.644-.644z" fill="#fff"/><path d="M36.808 7.752H7.192c-.558 0-1.011.453-1.011 1.01v10.093a.644.644 0 101.289 0V9.041h29.06v9.814a.644.644 0 101.29 0V8.763c0-.558-.454-1.011-1.012-1.011z" fill="#fff"/><g clip-path="url(#clip0)" fill="#fff"><path d="M22 14.132A2.872 2.872 0 0019.131 17 2.872 2.872 0 0022 19.869 2.872 2.872 0 0024.869 17 2.872 2.872 0 0022 14.132zm0 5.02A2.154 2.154 0 0119.849 17c0-1.186.965-2.151 2.151-2.151s2.151.965 2.151 2.151A2.154 2.154 0 0122 19.151z"/><path d="M27.718 15.634l-.923-.2a5.014 5.014 0 00-.297-.717l.511-.794a.359.359 0 00-.048-.447l-1.437-1.437a.359.359 0 00-.447-.048l-.794.51a5.014 5.014 0 00-.716-.296l-.2-.923a.359.359 0 00-.351-.282h-2.032a.359.359 0 00-.35.282l-.2.923a5.15 5.15 0 00-.717.296l-.794-.51a.359.359 0 00-.447.048l-1.437 1.437a.359.359 0 00-.048.447l.51.794a5.02 5.02 0 00-.296.716l-.923.2a.359.359 0 00-.282.351v2.032c0 .169.118.314.282.35l.923.2c.08.246.18.486.297.717l-.511.794a.359.359 0 00.048.447l1.437 1.437c.119.12.305.14.447.048l.794-.51c.231.117.47.216.716.296l.2.923a.359.359 0 00.351.282h2.032a.359.359 0 00.35-.282l.2-.923c.246-.08.486-.18.717-.297l.794.511a.358.358 0 00.447-.048l1.437-1.437a.356.356 0 00.048-.447l-.51-.794a5.02 5.02 0 00.296-.716l.923-.2a.359.359 0 00.282-.351v-2.032a.359.359 0 00-.282-.35zm-.435 2.093l-.846.184a.359.359 0 00-.27.254 4.302 4.302 0 01-.396.958.359.359 0 00.01.37l.469.729-1.028 1.028-.729-.469a.358.358 0 00-.37-.01c-.303.17-.625.304-.958.397a.359.359 0 00-.254.27l-.184.845h-1.454l-.184-.846a.359.359 0 00-.254-.27 4.302 4.302 0 01-.958-.396.359.359 0 00-.37.01l-.729.469-1.027-1.029.468-.728a.359.359 0 00.01-.37 4.303 4.303 0 01-.397-.958.359.359 0 00-.27-.254l-.845-.184v-1.454l.846-.184a.359.359 0 00.27-.254c.092-.333.226-.655.396-.958a.359.359 0 00-.01-.37l-.469-.729 1.028-1.028.729.469a.358.358 0 00.37.01c.303-.17.625-.304.958-.397a.359.359 0 00.254-.27l.184-.845h1.454l.184.846c.028.13.126.233.254.27.333.092.655.226.958.396a.359.359 0 00.37-.01l.729-.469 1.027 1.028-.468.729a.359.359 0 00-.01.37c.17.303.304.625.397.958a.36.36 0 00.27.254l.845.184v1.454z"/></g><defs><clipPath id="clip0"><path fill="#fff" d="M16 11h12v12H16z"/></clipPath></defs></svg>