<svg width="82" height="82" fill="none" xmlns="http://www.w3.org/2000/svg"><g clip-path="url(#clip0)"><path d="M33 62.842c-.72 2.787-2.21 5.43-4.373 7.593-4.998 4.95-23.488 10.849-25.554 11.473-.817.24-1.73 0-2.355-.624a2.457 2.457 0 01-.624-2.403c.624-2.018 6.572-20.46 11.521-25.458 2.162-2.162 4.806-3.652 7.593-4.373l6.872 6.872 6.92 6.92z" fill="#E0E0E0"/><path d="M26.08 55.922l6.92 6.92c-.72 2.787-2.21 5.43-4.373 7.593-4.998 4.95-23.488 10.849-25.554 11.473-.817.24-1.73 0-2.355-.624L26.08 55.922z" fill="#E0E0E0"/><path d="M26.897 58.517l-6.776 6.824c-.48.432-1.105.672-1.682.672-.625 0-1.25-.24-1.73-.672v-.049c-.913-.96-.913-2.45 0-3.363l6.824-6.776a2.267 2.267 0 013.316 0h.048c.96.913.96 2.45 0 3.364z" fill="#828282"/><path d="M26.897 55.153c.96.913.96 2.45 0 3.364l-6.776 6.824c-.48.432-1.105.672-1.682.672-.625 0-1.25-.24-1.73-.672v-.049l10.14-10.14h.048z" fill="#828282"/><path d="M27.94 23.63c-17.065 0-22.45 14.428-22.883 14.91a2.4 2.4 0 00.099 2.342 2.4 2.4 0 002.046 1.145l15.524 1.372 8.173-19.768h-2.96z" fill="url(#paint0_linear)"/><path d="M38.6 59.245l1.164 15.344c0 1.789 1.89 2.948 3.487 2.144.48-.43 14.909-5.92 14.909-22.882v-2.96L38.6 59.246z" fill="url(#paint1_linear)"/><path d="M40.544 61.977c-2.546 1.297-5.093 2.547-7.496 3.748-.913.48-2.018.288-2.788-.432L16.71 51.74c-.72-.769-.913-1.874-.432-2.787 1.201-2.403 2.45-4.95 3.748-7.496.769-1.49 6.343 1.826 7.112.288l13.12 13.119c-1.539.768 1.777 6.343.287 7.112z" fill="url(#paint2_linear)"/><path d="M40.544 61.977c-2.546 1.297-5.093 2.547-7.496 3.748-.913.48-2.018.288-2.788-.432l-6.775-6.776L33.72 48.33l6.535 6.536c-1.538.768 1.778 6.343.288 7.112z" fill="url(#paint3_linear)"/><path d="M79.998 23.87c-2.163 8.265-6.055 14.992-12.11 20.807-7.064 6.824-18.358 12.783-27.344 17.3L30.31 51.74 20.024 41.458c4.517-8.987 10.476-20.328 17.3-27.344 5.814-6.055 12.542-9.947 20.808-12.11l4.853 1.778c.096 4.18 1.778 7.977 4.517 10.716 2.74 2.74 6.536 4.421 10.716 4.517l1.779 4.854z" fill="url(#paint4_linear)"/><path d="M79.998 23.87c-2.163 8.265-6.055 14.992-12.11 20.807-7.064 6.824-18.358 12.783-27.344 17.3L30.31 51.74l37.194-37.243c2.74 2.74 6.536 4.421 10.716 4.517l1.779 4.854z" fill="url(#paint5_linear)"/><path d="M40.448 44.917a2.322 2.322 0 01-3.364 0 2.323 2.323 0 010-3.364c.913-.96 2.45-.96 3.364 0a2.323 2.323 0 010 3.364z" fill="#5A5A5A"/><path d="M79.998 23.87c-.385 0-1.49-.049-1.874-.049-5.527-.096-10.428-2.306-14.032-5.91-3.605-3.605-5.815-8.506-5.911-14.032 0-.385-.048-1.49-.048-1.874C64.957.226 72.597-.206 79.613.082c.625 0 1.202.24 1.635.673a2.29 2.29 0 01.672 1.634c.288 7.015-.192 14.656-1.922 21.48z" fill="url(#paint6_linear)"/><path d="M79.998 23.87c-.385 0-1.49-.049-1.874-.049-5.527-.096-10.428-2.306-14.032-5.91L81.248.755a2.29 2.29 0 01.672 1.634c.288 7.015-.192 14.656-1.922 21.48z" fill="url(#paint7_linear)"/><path d="M60.872 21.13c-4.661-4.661-12.302-4.661-16.964 0a12.037 12.037 0 000 16.964v.048c4.662 4.66 12.303 4.66 16.964 0a12.008 12.008 0 000-17.012z" fill="url(#paint8_linear)"/><path d="M60.872 38.142c-4.661 4.66-12.302 4.66-16.964 0v-.048L60.872 21.13a12.008 12.008 0 010 17.012z" fill="url(#paint9_linear)"/><path d="M40.448 44.917a2.322 2.322 0 01-3.364 0l3.364-3.364a2.323 2.323 0 010 3.364z" fill="#444"/></g><defs><linearGradient id="paint0_linear" x1="17.849" y1="23.631" x2="17.849" y2="43.402" gradientUnits="userSpaceOnUse"><stop stop-color="#BFDFF0"/><stop offset="1" stop-color="#7AB7E2"/></linearGradient><linearGradient id="paint1_linear" x1="54.841" y1="75.318" x2="39.955" y2="66.671" gradientUnits="userSpaceOnUse"><stop stop-color="#3F93C9"/><stop offset=".819" stop-color="#A7CCE4"/></linearGradient><linearGradient id="paint2_linear" x1="36.71" y1="64.39" x2="20.86" y2="52.105" gradientUnits="userSpaceOnUse"><stop stop-color="#3F93C9"/><stop offset=".819" stop-color="#A7CCE4"/></linearGradient><linearGradient id="paint3_linear" x1="36.71" y1="64.39" x2="20.86" y2="52.105" gradientUnits="userSpaceOnUse"><stop stop-color="#3F93C9"/><stop offset=".819" stop-color="#A7CCE4"/></linearGradient><linearGradient id="paint4_linear" x1="58.946" y1="7.554" x2="57.839" y2="47.271" gradientUnits="userSpaceOnUse"><stop stop-color="#F9FBFC"/><stop offset="1" stop-color="#DCEEFB"/></linearGradient><linearGradient id="paint5_linear" x1="58.946" y1="7.554" x2="57.839" y2="47.271" gradientUnits="userSpaceOnUse"><stop stop-color="#F9FBFC"/><stop offset="1" stop-color="#DCEEFB"/></linearGradient><linearGradient id="paint6_linear" x1="77.949" y1="22.337" x2="62.773" y2="10.576" gradientUnits="userSpaceOnUse"><stop stop-color="#3F93C9"/><stop offset=".819" stop-color="#A7CCE4"/></linearGradient><linearGradient id="paint7_linear" x1="77.949" y1="22.337" x2="62.773" y2="10.576" gradientUnits="userSpaceOnUse"><stop stop-color="#3F93C9"/><stop offset=".819" stop-color="#A7CCE4"/></linearGradient><linearGradient id="paint8_linear" x1="52.408" y1="17.634" x2="52.408" y2="41.638" gradientUnits="userSpaceOnUse"><stop stop-color="#DBF0F9"/><stop offset="1" stop-color="#88BCDF"/></linearGradient><linearGradient id="paint9_linear" x1="52.408" y1="17.634" x2="52.408" y2="41.638" gradientUnits="userSpaceOnUse"><stop stop-color="#DBF0F9"/><stop offset="1" stop-color="#88BCDF"/></linearGradient><clipPath id="clip0"><path fill="#fff" d="M0 0h82v82H0z"/></clipPath></defs></svg>