<svg width="82" height="82" fill="none" xmlns="http://www.w3.org/2000/svg"><path d="M79.851 11.127a5.457 5.457 0 00-2.305-1.103 5.59 5.59 0 00-1.201-.127H5.655A5.655 5.655 0 000 15.552v42.413h82V15.552a5.581 5.581 0 00-2.149-4.425z" fill="url(#paint0_linear)"/><path d="M52.31 76.345a12.27 12.27 0 01-2.827-12.724L41 60.793l-8.483 2.828a12.27 12.27 0 01-2.827 12.724L41 79.172l11.31-2.827z" fill="#33628A"/><path d="M77.546 10.024C60.454 10.83 0 16.484 0 56.552v-41a5.655 5.655 0 015.655-5.655h70.69a5.59 5.59 0 011.201.127z" fill="#C4E2F1"/><path d="M41.57 27.903L26.763 9.68 19.36 27.903v35.305h22.21V27.903z" fill="url(#paint1_linear)"/><path d="M42.811 51.25l-8.644-11.389H82V51.25H42.811z" fill="url(#paint2_linear)"/><path d="M58.2 42.414h21.57a2.494 2.494 0 002.12-3.75L60.322 1.237a2.446 2.446 0 00-4.253 0L34.506 38.664a2.494 2.494 0 002.126 3.75h21.569z" fill="#fff"/><path d="M82 56.552v1.413a5.655 5.655 0 01-5.655 5.656H5.655A5.655 5.655 0 010 57.965v-1.413h82zM28.276 76.345h25.448a4.241 4.241 0 014.242 4.241c0 .781-.633 1.414-1.414 1.414H25.448c-.78 0-1.413-.633-1.413-1.414a4.241 4.241 0 014.24-4.241z" fill="#4482B8"/><path d="M26.862 2.828v12.724H7.07V2.828A2.836 2.836 0 019.897 0h14.138a2.836 2.836 0 012.827 2.828z" fill="#ECEAEC"/><path d="M26.862 15.552v9.896a2.836 2.836 0 01-2.827 2.828H9.897a2.836 2.836 0 01-2.828-2.828v-9.896h19.793z" fill="#3F93C9"/><path d="M19.793 28.276v38.172a2.828 2.828 0 11-5.655 0V28.276h5.655z" fill="#2D78A8"/><path d="M14.138 15.552h5.655v5.655c0 .78-.633 1.414-1.414 1.414h-2.827a1.414 1.414 0 01-1.414-1.414v-5.655z" fill="#DCEEFA"/><path d="M14.138 0v7.069a1.414 1.414 0 01-2.828 0V0h2.828zm8.482 0v7.069a1.414 1.414 0 01-2.827 0V0h2.828z" fill="#3F93C9"/><defs><linearGradient id="paint0_linear" x1="41" y1="9.897" x2="41" y2="57.965" gradientUnits="userSpaceOnUse"><stop stop-color="#DBF0F9"/><stop offset="1" stop-color="#88BCDF"/></linearGradient><linearGradient id="paint1_linear" x1="15.375" y1="25.625" x2="33.597" y2="36.444" gradientUnits="userSpaceOnUse"><stop stop-color="#5C96C5"/><stop offset="1" stop-color="#90C1E1"/></linearGradient><linearGradient id="paint2_linear" x1="58.083" y1="39.861" x2="58.083" y2="51.25" gradientUnits="userSpaceOnUse"><stop stop-color="#4482B8"/><stop offset="1" stop-color="#8EC0E1"/></linearGradient></defs></svg>