<svg width="44" height="44" fill="none" xmlns="http://www.w3.org/2000/svg"><path d="M10.267 36.667H8.8c-.81 0-1.467.656-1.467 1.466V39.6c0 .81.657 1.467 1.467 1.467h1.467c.81 0 1.466-.657 1.466-1.467v-1.467c0-.81-.656-1.466-1.466-1.466zM8.8 39.6v-1.467h1.467V39.6H8.8zm7.333-2.933h-1.466c-.81 0-1.467.656-1.467 1.466V39.6c0 .81.657 1.467 1.467 1.467h1.466c.81 0 1.467-.657 1.467-1.467v-1.467c0-.81-.657-1.466-1.467-1.466zM14.667 39.6v-1.467h1.466V39.6h-1.466zM22 36.667h-1.467c-.81 0-1.466.656-1.466 1.466V39.6c0 .81.656 1.467 1.466 1.467H22c.81 0 1.467-.657 1.467-1.467v-1.467c0-.81-.657-1.466-1.467-1.466zM20.533 39.6v-1.467H22V39.6h-1.467zm7.334-2.933H26.4c-.81 0-1.467.656-1.467 1.466V39.6c0 .81.657 1.467 1.467 1.467h1.467c.81 0 1.466-.657 1.466-1.467v-1.467c0-.81-.656-1.466-1.466-1.466zM26.4 39.6v-1.467h1.467V39.6H26.4zM16.133 22h4.4a.733.733 0 100-1.467h-4.4a.733.733 0 000 1.467zm3.667 1.467a.733.733 0 00-.733-.734H17.6a.733.733 0 000 1.467h1.467a.733.733 0 00.733-.733z" fill="#fff"/><path d="M41.106 0h-.079a2.196 2.196 0 00-2.212 2.14l-.523 19.127h-1.625A3.671 3.671 0 0033 17.6H3.667A3.671 3.671 0 000 21.267v19.066A3.671 3.671 0 003.667 44H33a3.671 3.671 0 003.667-3.667v-13.2h1.466a1.467 1.467 0 001.47 1.467h2.92A1.467 1.467 0 0044 27.094L43.319 2.14A2.195 2.195 0 0041.106 0zM35.2 40.333a2.2 2.2 0 01-2.2 2.2H3.667a2.2 2.2 0 01-2.2-2.2V21.267a2.2 2.2 0 012.2-2.2H33a2.2 2.2 0 012.2 2.2v19.066zm1.467-17.6h1.585l-.08 2.934h-1.505v-2.934zm2.933 4.4l.681-24.953a.733.733 0 01.746-.713h.08a.733.733 0 01.745.713l.675 24.953H39.6z" fill="#fff"/><path d="M7.908 8.925a13.185 13.185 0 0120.69 0 .733.733 0 001.148-.91 14.652 14.652 0 00-22.988 0 .733.733 0 001.15.91z" fill="#fff"/><path d="M25.153 11.654a.733.733 0 101.149-.912 10.266 10.266 0 00-16.094 0 .733.733 0 001.148.912 8.8 8.8 0 0113.797 0z" fill="#fff"/><path d="M18.253 11.25a5.801 5.801 0 00-4.596 2.23.734.734 0 101.156.906 4.382 4.382 0 016.883 0 .733.733 0 001.155-.905 5.801 5.801 0 00-4.598-2.232z" fill="#fff"/></svg>