<svg width="54" height="54" fill="none" xmlns="http://www.w3.org/2000/svg"><path d="M4 0a4 4 0 00-4 4v32.988a4 4 0 004 4h18.867v6.376h-2.605a.976.976 0 000 1.952h13.476a.976.976 0 100-1.952h-2.605v-6.376h8.54v9.434c0 1.973 1.36 3.578 3.031 3.578h5.51c1.672 0 3.031-1.605 3.031-3.578v-9.434A2.755 2.755 0 0054 38.233V4a4 4 0 00-4-4H4zm25.48 47.364h-4.96v-6.376h4.96v6.376zm20.112 3.058c0 .897-.618 1.626-1.378 1.626h-5.51c-.76 0-1.377-.73-1.377-1.626v-25.83h8.265v25.83zm2.755-11.386h-1.102V22.641H39.673v16.395H3.653a2 2 0 01-2-2V3.952a2 2 0 012-2h46.694a2 2 0 012 2v35.084z" fill="#fff"/><path d="M6.306 3.904a3 3 0 00-3 3v27.18a3 3 0 003 3h31.99v-1.952H5.959a1 1 0 01-1-1V6.855a1 1 0 011-1h42.082a1 1 0 011 1v14.16h1.653V6.903a3 3 0 00-3-3H6.306zm38.216 32.53H42.87v1.952h1.652v-1.952zm3.858 0h-1.653v1.952h1.653v-1.952zm-3.858-3.904H42.87v1.952h1.652V32.53zm3.858 0h-1.653v1.952h1.653V32.53z" fill="#fff"/><path d="M44.522 28.627H42.87v1.951h1.652v-1.951zm3.858 0h-1.653v1.951h1.653v-1.951z" fill="#fff"/></svg>