<svg width="82" height="82" fill="none" xmlns="http://www.w3.org/2000/svg"><g clip-path="url(#clip0)"><path d="M71.75 3.417h-61.5C4.599 3.417 0 8.016 0 13.667v54.666c0 5.651 4.599 10.25 10.25 10.25h61.5c5.651 0 10.25-4.599 10.25-10.25V13.667c0-5.651-4.599-10.25-10.25-10.25z" fill="url(#paint0_linear)"/><path d="M71.75 71.75h-61.5a3.42 3.42 0 01-3.417-3.417V20.5h68.334v47.833a3.42 3.42 0 01-3.417 3.417z" fill="url(#paint1_linear)"/><path d="M36.169 47.833l-4.418 4.418a3.413 3.413 0 000 4.831 3.407 3.407 0 002.416 1.001c.874 0 1.749-.334 2.415-1L41 52.663l-4.831-4.83z" fill="#DEDEDE"/><path d="M34.167 37.583c-.875 0-1.75.335-2.416 1.001a3.413 3.413 0 000 4.832l4.418 4.417L41 52.664v-9.662l-4.418-4.418a3.407 3.407 0 00-2.415-1z" fill="#DEDEDE"/><path d="M41 68.333c-11.306 0-20.5-9.194-20.5-20.5 0-11.305 9.194-20.5 20.5-20.5s20.5 9.195 20.5 20.5c0 11.306-9.194 20.5-20.5 20.5z" fill="url(#paint2_linear)"/><path d="M34.167 58.083c-.875 0-1.75-.334-2.416-1a3.413 3.413 0 010-4.832l13.667-13.666a3.413 3.413 0 014.83 0 3.413 3.413 0 010 4.83L36.583 57.083a3.407 3.407 0 01-2.415 1.001z" fill="#fff"/><path d="M47.833 58.083a3.407 3.407 0 01-2.415-1L31.75 43.415a3.413 3.413 0 010-4.831 3.413 3.413 0 014.831 0L50.25 52.25a3.413 3.413 0 010 4.831 3.407 3.407 0 01-2.416 1.001z" fill="#fff"/></g><defs><linearGradient id="paint0_linear" x1="82" y1="78.583" x2="-14.007" y2="49.232" gradientUnits="userSpaceOnUse"><stop stop-color="#3F93C9"/><stop offset="1" stop-color="#A7CCE4"/></linearGradient><linearGradient id="paint1_linear" x1="51.18" y1="25.242" x2="50.47" y2="59.195" gradientUnits="userSpaceOnUse"><stop stop-color="#F9FBFC"/><stop offset="1" stop-color="#DCEEFB"/></linearGradient><linearGradient id="paint2_linear" x1="42.579" y1="65.299" x2="32.527" y2="28.97" gradientUnits="userSpaceOnUse"><stop offset=".03" stop-color="#3B83C5"/><stop offset=".214" stop-color="#4E9FD9"/><stop offset=".618" stop-color="#A1D2F3"/><stop offset="1" stop-color="#C4E6FD"/></linearGradient><clipPath id="clip0"><path fill="#fff" d="M0 0h82v82H0z"/></clipPath></defs></svg>