<svg width="787" height="405" fill="none" xmlns="http://www.w3.org/2000/svg"><g style="mix-blend-mode:multiply" opacity=".3"><path style="mix-blend-mode:multiply" opacity=".06" d="M643.11 347.368c0 8.113-63.133 14.878-141.071 15.115-77.937.238-141.123-6.163-141.149-14.284-.026-8.12 63.14-14.878 141.077-15.115 77.938-.238 141.123 6.17 141.143 14.284z" fill="url(#paint0_radial)"/><path style="mix-blend-mode:multiply" opacity=".13" d="M637.22 347.445c0 7.687-60.497 14.081-135.181 14.305-74.684.223-135.239-5.822-135.258-13.502-.02-7.68 60.502-14.081 135.186-14.305 74.684-.223 135.233 5.821 135.253 13.502z" fill="url(#paint1_radial)"/><path style="mix-blend-mode:multiply" opacity=".19" d="M631.329 347.5c0 7.24-57.866 13.278-129.29 13.502-71.424.223-129.349-5.465-129.368-12.712-.02-7.247 57.866-13.278 129.296-13.501 71.431-.224 129.343 5.493 129.362 12.711z" fill="url(#paint2_radial)"/><path style="mix-blend-mode:multiply" opacity=".25" d="M625.439 347.598c0 6.807-55.229 12.488-123.406 12.698-68.177.21-123.452-5.157-123.472-11.964-.02-6.806 55.236-12.488 123.406-12.712 68.171-.223 123.459 5.172 123.472 11.978z" fill="url(#paint3_radial)"/><path style="mix-blend-mode:multiply" opacity=".31" d="M619.549 347.675c0 6.373-52.592 11.692-117.516 11.88-64.924.189-117.569-4.815-117.582-11.181-.013-6.366 52.599-11.691 117.523-11.88 64.924-.189 117.562 4.815 117.575 11.181z" fill="url(#paint4_radial)"/><path style="mix-blend-mode:multiply" opacity=".38" d="M613.659 347.752c0 5.933-49.962 10.895-111.626 11.084-61.664.188-111.678-4.48-111.692-10.42-.013-5.94 49.962-10.895 111.633-11.076 61.67-.182 111.672 4.479 111.685 10.412z" fill="url(#paint5_radial)"/><path style="mix-blend-mode:multiply" opacity=".44" d="M607.768 347.829c0 5.5-47.325 10.098-105.742 10.273-58.417.175-105.781-4.144-105.801-9.644-.02-5.5 47.332-10.098 105.749-10.273 58.417-.174 105.781 4.144 105.794 9.644z" fill="url(#paint6_radial)"/><path style="mix-blend-mode:multiply" opacity=".5" d="M601.878 347.906c0 5.067-44.688 9.301-99.852 9.469-55.163.168-99.898-3.808-99.937-8.875-.039-5.066 44.695-9.301 99.859-9.462 55.163-.161 99.917 3.809 99.93 8.868z" fill="url(#paint7_radial)"/><path style="mix-blend-mode:multiply" opacity=".56" d="M595.988 347.982c0 4.627-42.052 8.505-93.968 8.659-51.917.154-94.028-3.473-94.028-8.099 0-4.627 42.059-8.498 93.975-8.659 51.917-.161 94.014 3.473 94.021 8.099z" fill="url(#paint8_radial)"/><path style="mix-blend-mode:multiply" opacity=".63" d="M590.098 348.059c0 4.193-39.422 7.687-88.078 7.855-48.657.168-88.124-3.138-88.124-7.331 0-4.193 39.421-7.687 88.084-7.847 48.664-.161 88.111 3.137 88.118 7.323z" fill="url(#paint9_radial)"/><path style="mix-blend-mode:multiply" opacity=".69" d="M584.214 348.136c0 3.753-36.791 6.912-82.201 7.045-45.41.132-82.214-2.789-82.214-6.555 0-3.767 36.785-6.905 82.194-7.045 45.41-.139 82.208 2.803 82.221 6.555z" fill="url(#paint10_radial)"/><path style="mix-blend-mode:multiply" opacity=".75" d="M578.324 348.199c0 3.32-34.154 6.115-76.311 6.241-42.156.126-76.311-2.453-76.311-5.772 0-3.32 34.148-6.108 76.305-6.234 42.156-.126 76.304 2.467 76.317 5.765z" fill="url(#paint11_radial)"/><path style="mix-blend-mode:multiply" opacity=".81" d="M572.433 348.29c0 2.886-31.523 5.318-70.42 5.43-38.896.112-70.447-2.097-70.453-5.011-.007-2.914 31.53-5.311 70.427-5.402 38.896-.09 70.44 2.097 70.446 4.983z" fill="url(#paint12_radial)"/><path style="mix-blend-mode:multiply" opacity=".88" d="M566.543 348.367c0 2.446-28.86 4.521-64.536 4.626-35.676.105-64.55-1.796-64.557-4.242-.006-2.446 28.861-4.514 64.537-4.619 35.676-.105 64.55 1.789 64.556 4.235z" fill="url(#paint13_radial)"/><path style="mix-blend-mode:multiply" opacity=".94" d="M560.653 348.444c0 2.013-26.237 3.718-58.646 3.823-32.41.104-58.66-1.461-58.667-3.494-.006-2.034 26.237-3.718 58.647-3.816 32.409-.098 58.659 1.481 58.666 3.487z" fill="url(#paint14_radial)"/><path d="M554.763 348.521c0 1.572-23.614 2.921-52.756 3.012-29.143.091-52.776-1.118-52.776-2.698 0-1.579 23.613-2.921 52.756-3.005 29.143-.084 52.769 1.118 52.776 2.691z" fill="#05177C" opacity=".3"/></g><path fill-rule="evenodd" clip-rule="evenodd" d="M377.905 126.173c7.751 10.752-23.365 8.461-33.795 23.376-10.429 14.916-13.151 18.209-12.952 45.25.199 27.04 9.006 62.866 84.82 102.219 54.336 32.029 106.22 25.42 143.795 9.37 38.822-16.582 77.398-63.109 92.261-85.947l40.231 26.181c-18.871 28.998-55.253 67.003-104.62 88.089-50.613 21.618-111.262 25.783-179.651-14.53-51.618-30.426-87.08-66.508-91.357-112.406-4.277-45.898 13.797-66.113 27.21-78.942 13.413-12.83 26.307-13.412 34.058-2.66z" fill="url(#paint15_linear)"/><mask id="a" maskUnits="userSpaceOnUse" x="315" y="118" width="378" height="233"><path fill-rule="evenodd" clip-rule="evenodd" d="M377.905 126.173c7.751 10.752-23.365 8.461-33.795 23.376-10.429 14.916-13.151 18.209-12.952 45.25.199 27.04 9.006 62.866 84.82 102.219 54.336 32.029 106.22 25.42 143.795 9.37 38.822-16.582 77.398-63.109 92.261-85.947l40.231 26.181c-18.871 28.998-55.253 67.003-104.62 88.089-50.613 21.618-111.262 25.783-179.651-14.53-51.618-30.426-87.08-66.508-91.357-112.406-4.277-45.898 13.797-66.113 27.21-78.942 13.413-12.83 26.307-13.412 34.058-2.66z" fill="url(#paint16_linear)"/></mask><g mask="url(#a)"><g filter="url(#filter0_f)"><ellipse cx="412.309" cy="319.94" rx="5.109" ry="83.765" transform="rotate(117.239 412.309 319.94)" fill="#13679A"/></g><g filter="url(#filter1_f)"><ellipse cx="378.206" cy="299.374" rx="5.509" ry="70.475" transform="rotate(133.385 378.206 299.374)" fill="#13679A"/></g><g filter="url(#filter2_f)"><ellipse cx="321.53" cy="229.086" rx="5.509" ry="42.098" transform="rotate(149.566 321.53 229.086)" fill="#13679A"/></g><g filter="url(#filter3_f)" fill="#82CDFB"><path d="M644.747 290.025c-21.062 19.732-40.473 33.233-43.356 30.156-2.882-3.077 11.286-17.242 27.281-35.697 29.463-44.678 28.449-50.316 48.992-35.758 2.882 3.077-11.855 21.567-32.917 41.299zm-141.642 62.559c-19.352-.686-34.936-4.193-34.807-7.834.129-3.641 47.739-4.849 67.091-4.163 19.352.685 3.118 3.004 2.989 6.645-.129 3.641-15.921 6.037-35.273 5.352z"/><path d="M543.105 346.944c-13.936 1.751-25.584.379-26.016-3.064-.433-3.443 24.82-7.185 38.756-8.936 13.935-1.75 11.277-.847 11.71 2.596.432 3.443-10.514 7.653-24.45 9.404z"/><path d="M570.994 336.098c-13.353 4.356-24.858 5.8-25.697 3.227-.84-2.573 22.462-9.794 36.448-18.195 13.353-4.355 11.067-.151 11.907 2.423.839 2.573-9.305 8.19-22.658 12.545z"/><path d="M611.262 317.28c-18.24 10.607-34.781 16.19-36.944 12.47-2.164-3.72 10.996-10.886 29.236-21.493 18.241-10.608 34.656-20.639 36.819-16.919 2.164 3.72-10.87 15.335-29.111 25.942z"/></g><g filter="url(#filter4_f)"><path d="M534.856 355.102c-6.259.349-12.319.615-18.064.799-27.684.89-80.653-19.321-80.793-21.837-.127-2.272-11.364 3.702 12.159 1.547 48.781 13.447 81.193 9.344 90.372 8.832 11.793-.659 40.447-10.913 49.624-14.522 25.084-9.865 71.874-55.086 56.442-30.26.122 2.188-59.184 51.189-81.312 53.314-8.597.825-18.237 1.557-28.428 2.127z" fill="#13679A"/></g><g filter="url(#filter5_f)"><path d="M341.334 235.855c4.183 8.582 12.624 16.441 14.496 22.978 74.068 37.694 139.627 64.346 137.509 65.379-44.937 3.021-124.958-42.542-149.036-69.352-3.446-5.13-4.817-6.28-8.307-13.441-1.785-3.662-3.926-11.112-5.323-14.527-5.836-14.274-4.853-30.279-1.731-31.8 2.385-1.163-2.354 12.908 3.262 21.221 3.492 5.169 5.586 12.27 9.13 19.542z" fill="#98D8FF"/></g></g><path d="M672.55 184.982l-18.904 32.904c-1.289 6.371 2.999 17.952 13.867 24.743 8.695 5.433 20.55 4.329 25.39 3.098l22.422-27.6c-3.894 1.592-15.187 2.946-29.212-4.382-14.025-7.328-14.886-22.229-13.563-28.763z" fill="url(#paint17_linear)"/><ellipse cx="695.819" cy="198.718" rx="27.438" ry="18.708" transform="rotate(34.14 695.819 198.718)" fill="url(#paint18_linear)"/><path d="M688.09 198.745c-2.921-1.264-4.52-4.556-4.954-6.044l31.167-53.752 11.214 5.632-30.401 54.327c-1.125.472-4.105 1.101-7.026-.163z" fill="url(#paint19_linear)"/><path d="M702.315 208.105c-2.781-1.549-4.043-4.985-4.326-6.509l36.374-50.371 10.596 6.724-35.67 51.02c-1.166.358-4.194.685-6.974-.864z" fill="url(#paint20_linear)"/><path d="M690.449 209.459c-2.83-1.456-4.205-4.848-4.539-6.362l34.689-51.547 10.812 6.369-33.963 52.173c-1.154.396-4.169.824-6.999-.633z" fill="url(#paint21_linear)"/><path fill-rule="evenodd" clip-rule="evenodd" d="M332.332 176.018C343.164 183.657 313 191.631 308 209.131s-6.5 21.5 2.5 47c9 25.499 29 56.5 113.5 69 61.807 12.573 108.705-10.582 139-38 31.299-28.328 52.608-84.887 59.217-111.321l46.566 11.641c-8.391 33.566-30.402 81.351-70.203 117.374-40.806 36.931-96.787 60.632-174.58 44.806-58.716-11.945-104-34.501-123-76.5-19-42-8.5-67 0-83.5 8.5-16.501 20.5-21.253 31.332-13.613z" fill="url(#paint22_linear)"/><mask id="b" maskUnits="userSpaceOnUse" x="290" y="172" width="379" height="183"><path fill-rule="evenodd" clip-rule="evenodd" d="M332.332 176.018C343.164 183.657 313 191.631 308 209.131s-6.5 21.5 2.5 47c9 25.499 29 56.5 113.5 69 61.807 12.573 108.705-10.582 139-38 31.299-28.328 52.608-84.887 59.217-111.321l46.566 11.641c-8.391 33.566-30.402 81.351-70.203 117.374-40.806 36.931-96.787 60.632-174.58 44.806-58.716-11.945-104-34.501-123-76.5-19-42-8.5-67 0-83.5 8.5-16.501 20.5-21.253 31.332-13.613z" fill="url(#paint23_linear)"/></mask><g mask="url(#b)"><g filter="url(#filter6_f)"><ellipse cx="428.001" cy="347.996" rx="5.109" ry="83.765" transform="rotate(98.22 428.001 347.996)" fill="#13679A"/></g><g filter="url(#filter7_f)"><ellipse cx="389.058" cy="339.667" rx="5.509" ry="70.475" transform="rotate(114.367 389.058 339.667)" fill="#13679A"/></g><g filter="url(#filter8_f)"><ellipse cx="312.57" cy="291.684" rx="5.509" ry="42.098" transform="rotate(130.548 312.57 291.684)" fill="#13679A"/></g><g filter="url(#filter9_f)" fill="#82CDFB"><path d="M638.003 243.97c-13.483 25.518-27.434 44.608-31.162 42.639-3.728-1.97 5.05-19.979 14.159-42.639 13.296-51.84 10.5-56.84 34.665-49.771 3.728 1.969-4.18 24.253-17.662 49.771zM524.478 349.271c-18.519 5.658-34.395 7.421-35.459 3.936-1.065-3.484 43.553-20.141 62.072-25.799 18.519-5.658 3.927 1.825 4.991 5.309 1.065 3.484-13.085 10.896-31.604 16.554z"/><path d="M560.457 330.904c-12.604 6.197-24.063 8.695-25.594 5.582-1.531-3.114 21.124-14.882 33.728-21.078 12.605-6.196 10.386-4.476 11.917-1.362 1.531 3.114-7.446 10.662-20.051 16.858z"/><path d="M583.29 311.562c-11.205 8.469-21.612 13.584-23.244 11.425-1.632-2.16 18.045-16.579 28.53-29.079 11.205-8.469 10.414-3.749 12.046-1.59 1.633 2.159-6.128 10.775-17.332 19.244z"/><path d="M615.228 280.649c-13.789 15.972-27.608 26.641-30.865 23.829-3.257-2.812 6.848-13.876 20.637-29.848 13.789-15.972 26.038-30.805 29.296-27.993 3.257 2.812-5.28 18.04-19.068 34.012z"/></g><g filter="url(#filter10_f)"><path d="M555.317 341.305a765.553 765.553 0 01-16.817 6.642c-25.884 9.863-82.547 8.016-83.5 5.683-.86-2.107-9.536 7.203 12-2.5 50.5-3.183 79.806-17.624 88.317-21.1 10.934-4.465 34.683-23.498 42.183-29.9 20.5-17.5 50-75.5 43.5-47 .829 2.029-39.272 67.681-59.5 76.9-7.858 3.582-16.734 7.415-26.183 11.275z" fill="#13679A"/></g><g filter="url(#filter11_f)"><path d="M333.5 291.63c6.75 6.75 17.292 11.43 21.192 17 82.308 11.5 152.974 15.334 151.308 17-41.5 17.5-132 .5-163.5-17-4.93-3.728-6.601-4.367-12.234-10-2.881-2.881-7.333-9.226-9.766-12-10.169-11.593-14.455-27.045-12-29.5 1.876-1.876 1.981 12.971 10 19 4.986 3.749 9.28 9.78 15 15.5z" fill="#98D8FF"/></g></g><g style="mix-blend-mode:multiply" opacity=".3"><path style="mix-blend-mode:multiply" opacity=".06" d="M500.58 315.736c0 6.345-52.734 11.635-117.833 11.821-65.099.186-117.876-4.82-117.898-11.171-.022-6.351 52.739-11.636 117.838-11.821 65.099-.186 117.876 4.825 117.893 11.171z" fill="url(#paint24_radial)"/><path style="mix-blend-mode:multiply" opacity=".13" d="M495.66 315.796c0 6.012-50.531 11.013-112.913 11.187-62.381.175-112.962-4.552-112.978-10.559-.017-6.006 50.536-11.012 112.918-11.187 62.382-.175 112.957 4.553 112.973 10.559z" fill="url(#paint25_radial)"/><path style="mix-blend-mode:multiply" opacity=".19" d="M490.74 315.84c0 5.662-48.334 10.384-107.993 10.559-59.658.175-108.042-4.274-108.058-9.942-.017-5.667 48.334-10.384 107.998-10.559 59.664-.175 108.037 4.296 108.053 9.942z" fill="url(#paint26_radial)"/><path style="mix-blend-mode:multiply" opacity=".25" d="M485.82 315.916c0 5.323-46.132 9.767-103.078 9.931-56.947.164-103.117-4.034-103.133-9.357-.017-5.323 46.137-9.767 103.078-9.942 56.941-.174 103.122 4.045 103.133 9.368z" fill="url(#paint27_radial)"/><path style="mix-blend-mode:multiply" opacity=".31" d="M480.9 315.976c0 4.985-43.929 9.144-98.158 9.291-54.229.148-98.202-3.765-98.213-8.744-.011-4.979 43.934-9.144 98.164-9.291 54.229-.148 98.196 3.765 98.207 8.744z" fill="url(#paint28_radial)"/><path style="mix-blend-mode:multiply" opacity=".38" d="M475.98 316.036c0 4.64-41.732 8.521-93.238 8.668-51.506.148-93.282-3.503-93.293-8.148-.011-4.646 41.732-8.521 93.244-8.663 51.511-.142 93.276 3.503 93.287 8.143z" fill="url(#paint29_radial)"/><path style="mix-blend-mode:multiply" opacity=".44" d="M471.06 316.096c0 4.302-39.529 7.898-88.324 8.034-48.794.137-88.356-3.24-88.373-7.542-.016-4.301 39.535-7.897 88.33-8.034 48.794-.136 88.356 3.241 88.367 7.542z" fill="url(#paint30_radial)"/><path style="mix-blend-mode:multiply" opacity=".5" d="M466.14 316.156c0 3.963-37.327 7.275-83.404 7.406-46.076.131-83.442-2.979-83.475-6.941-.033-3.962 37.333-7.274 83.41-7.4 46.076-.126 83.458 2.979 83.469 6.935z" fill="url(#paint31_radial)"/><path style="mix-blend-mode:multiply" opacity=".56" d="M461.22 316.217c0 3.618-35.124 6.651-78.489 6.771-43.365.121-78.539-2.716-78.539-6.334 0-3.618 35.13-6.646 78.495-6.772 43.365-.125 78.528 2.717 78.533 6.335z" fill="url(#paint32_radial)"/><path style="mix-blend-mode:multiply" opacity=".63" d="M456.3 316.277c0 3.279-32.927 6.012-73.569 6.143-40.642.131-73.608-2.454-73.608-5.733 0-3.28 32.928-6.012 73.575-6.138 40.647-.126 73.597 2.454 73.602 5.728z" fill="url(#paint33_radial)"/><path style="mix-blend-mode:multiply" opacity=".69" d="M451.386 316.337c0 2.935-30.731 5.405-68.661 5.509-37.929.104-68.671-2.181-68.671-5.126 0-2.946 30.725-5.4 68.655-5.509 37.93-.11 68.666 2.191 68.677 5.126z" fill="url(#paint34_radial)"/><path style="mix-blend-mode:multiply" opacity=".75" d="M446.466 316.386c0 2.596-28.528 4.782-63.741 4.881-35.212.098-63.74-1.919-63.74-4.515 0-2.596 28.523-4.776 63.735-4.875 35.212-.098 63.735 1.929 63.746 4.509z" fill="url(#paint35_radial)"/><path style="mix-blend-mode:multiply" opacity=".81" d="M441.546 316.457c0 2.257-26.331 4.159-58.821 4.247-32.489.087-58.842-1.64-58.847-3.919-.006-2.279 26.336-4.153 58.825-4.225 32.49-.071 58.837 1.64 58.843 3.897z" fill="url(#paint36_radial)"/><path style="mix-blend-mode:multiply" opacity=".88" d="M436.626 316.517c0 1.913-24.107 3.536-53.906 3.618-29.799.082-53.917-1.404-53.923-3.317-.005-1.913 24.107-3.531 53.906-3.613 29.8-.082 53.917 1.399 53.923 3.312z" fill="url(#paint37_radial)"/><path style="mix-blend-mode:multiply" opacity=".94" d="M431.706 316.578c0 1.574-21.915 2.907-48.986 2.989-27.071.082-48.997-1.142-49.003-2.733-.005-1.59 21.916-2.907 48.986-2.984 27.071-.076 48.997 1.159 49.003 2.728z" fill="url(#paint38_radial)"/><path d="M426.786 316.638c0 1.229-19.724 2.284-44.066 2.355-24.342.071-44.083-.874-44.083-2.109 0-1.236 19.724-2.285 44.066-2.35 24.343-.066 44.077.874 44.083 2.104z" fill="#05177C" opacity=".3"/></g><path d="M497.934 180.398c0 63.786-51.841 115.493-115.778 115.493-63.938 0-115.768-51.707-115.768-115.493 0-63.786 51.824-115.494 115.768-115.494 63.943 0 115.778 51.708 115.778 115.494z" fill="url(#paint39_radial)"/><path d="M493.014 212.102c-1.529.033-3.518.754-3.545 1.273-.027.52-2.137 1.465-2.833 1.744-.695.279-2.043 2.426-2.345 3.131-.301.706-2.01.498-2.651.787-.641.29-1.94 1.329-1.951 1.968-.011.639-.356.547-.783-.164l-.838.88-.987 1.093c-.548 1.782-2.454 4.023-3.106 4.214-.652.191-.762 3.306-.762 4.558 0 1.251.488 2.815 1.096 3.454l.132.995.219 1.995c-.351 1.53.822 2.907 1.167 3.18.345.274 3.205-.519 4.301-.781a8.216 8.216 0 001.567-.634 115.144 115.144 0 0011.938-27.633 2.432 2.432 0 00-.619-.06zm-191.528 2.962c-.159.312 1.912 2.438 2.739 3.154.827.716 2.504 4.203 2.855 5.345a8.585 8.585 0 01.027 3.443c-.11.437.389 1.399.477 1.804.087.404-.718 3.825-.417 5.175.302 1.35-1.605 5.64-1.567 7.756.039 2.115 1.008 4.891 1.397 4.683.389-.207.548 1.93-.126 2.186-.674.257-1.402 1.946-1.041 2.039.362.093 0 1.749.077 2.421.077.672.663 5.072.784 6.165.12 1.093 1.693 3.777 2.027 4.678.334.902.663 2.629.794 2.892a4.2 4.2 0 00.301.546 9.617 9.617 0 011.644.754c.378.274 2.855.104 3.665-.065.811-.17.066-.902-.295-1.301-.362-.399-.691-2.361-1.096-2.563-.406-.203-.597-2.684-.23-3.236s1.857-1.432 2.021-1.891c.165-.459.198-2.634-.197-2.935-.394-.3.121-2.929-.186-4.235-.307-1.307 2.279-2.498 2.432-3.536.154-1.039 2.937-2.154 3.573-2.667.635-.514 1.178-3.487.876-4.132-.301-.645 1.036-1.153 1.644-1.153.608 0 1.255-.427 1.485-.427.23 0 .931-1.317 1.309-1.639.378-.323 1.173-3.438 1.863-3.952.69-.514 1.265-2.41 1.265-2.967 0-.558 1.058-2.187 1.409-2.706.35-.519 2.947-1.689 3.418-1.874.471-.186 1.173-4.373 1.354-5.865.18-1.492.964-3.503 1.019-3.989.054-.487.887-.919 1.035-1.093.148-.175.784-2.072 1.178-2.509.395-.437 1.841-2.257 1.874-2.667.11-.783.275-1.557.493-2.317v-2.657c-.46-1.257-1.857-2.831-2.192-2.481-.334.35-1.966-1.093-2.788-1.426a15.971 15.971 0 00-3.392-.547c-.548 0-2.312-1.465-3.117-1.721-.806-.257-2.849-.634-3.227-.875-.378-.24-.877-3.279-2.531-4.274-1.655-.994-4.537-3.312-4.86-4.17-.323-.858-3.485-2.634-4.476-3.175-.992-.541-2.455-.667-2.636-.47-.18.197-1.419-1.64-2.038-2.186-.619-.547-2.536-.94-2.624-.481-.088.459-1.342.224-1.644-.175-.301-.399-1.271.164-1.731.317-.46.153-2.038 2.541-2.739 3.126-.702.585-1.595-.547-2.071-.749-.477-.202-2.296.366-2.795.716-.498.35-1.643-2.541-1.369-3.875.274-1.333-1.2-3.984-2.334-4.055-1.134-.071-1.479-2.853-1.255-3.875.225-1.022-2.038-1.667-2.602-1.738-.565-.071-1.984 1.372-2.225 2.066-.241.694-5.374-.946-4.761-4.017.614-3.072 3.025-6.247 3.633-6.624.608-.377 3.901-.547 4.629-.142a1.22 1.22 0 001.518-.191c.12-.192 2.811.032 3.621.36.811.328 1.951 3.422 2.778 3.799.827.377 1.14-2.001 1.277-2.58.137-.579-.411-2.055-.608-2.465-.198-.41 1.336-4.175 2.602-4.815 1.266-.639 2.575-2.732 2.476-3.104-.098-.372 1.003-.656 1.299-.82.296-.164-.044-3.192.449-3.853s2.86-2.044 3.605-2.361c.745-.317 1.31-2.235 1.047-2.569-.263-.333 1.928-2.213 3.068-2.574 1.139-.361 2.137.656 1.852.814.23-.125 1.808-.945 2.476-1.382.789-.547 0-1.94-.493-2.367-.493-.426-.197-2.06.405-2.186.603-.126 1.145-1.574.981-1.88-.164-.306 2.52.246 3.545-.514 1.024-.759.29 1.815-.46 2.848-.751 1.033.548 2.011 1.03 1.82.482-.192.986.546 1.095.836.11.29 1.129-.301 1.803 0 .674.3 1.096-.924 1.134-1.481.038-.558-1.644-1.727-1.879-2.4-.236-.672-.373-4.59-.4-5.399-.027-.809-1.096-2.104-1.468-1.875-.373.23-1.058-2.088-1.644-2.585a2.88 2.88 0 01-.668-1.984c0-.372-1.902-2.383-2.367-3.312-.466-.929-1.096-.738-1.151-.317-.055.421-1.386.487-1.939.437-.554-.049-1.003-2.186-1.003-2.978 0-.793-2.482-.935-2.893-1.585-.411-.651-2.021-.339-2.284-.787-.263-.448-1.699-.858-1.973-.694-.274.164-.153 5.924-.427 7.476-.274 1.552-1.595 2.919-2.077 2.881-.482-.039-.191 1.093.137 1.005.329-.087-.931 1.694-1.095 2.875-.165 1.18-1.37-.055-1.562-1.121-.192-1.065-1.37-2.519-1.594-2.153-.225.366-1.03-.437-1.381-.208-.351.23-2.564-1.284-3.457-1.776-.893-.492-1.397-3.213-1.907-3.448-.509-.235-.082-.574-.104-.995-.022-.421 1.732-2.006 2.263-2.634.531-.629 2.444-3.127 3.205-3.657.762-.53 1.304-1.923 1.184-2.224-.121-.301 3.254-1.306 4.174-1.64.921-.333 1.71-2.869 1.83-3.601.121-.733-.548-2.121-.997-2.301-.449-.181 1.277-.246 1.841.038.564.284 2.318-.547 3.008-.153a93.11 93.11 0 013.09 1.825l-.214 1.875-.411 3.175c-2.668 1.093-3.44 3.012-2.509 2.968.931-.044 5.199 1.842 6.405 2.733 1.205.891 1.583-1.246 1.939-1.951.356-.705.241-2.733-.044-3.132-.284-.399 1.392-.262 1.863.186.471.448 1.025-.465 1.392-.623.367-.159.548-1.913.745-2.263.197-.35-.8-.71-.833-1.142-.033-.432-1.95-1.274-2.569-1.574-.619-.301-.767-1.64-.461-1.842.307-.202-.213-1.907-.547-2.459-.335-.552-2.312-1.006-2.975-1.006-.663 0-1.354-1.547-1.743-1.771a10.223 10.223 0 00-3.583-.317c-.635.186-1.802-1.814-2.876-1.202-1.074.612-2.192-.722-2.657-.984-.466-.262-2.997 2.427-2.981 4.312.017 1.886.981 3.722 1.375 3.777.395.054-.093 1.76-.548 2.251-.454.492-1.49-.513-1.095-.945.394-.432-1.096-2.41-1.606-3.214-.367-.579-1.643-1.093-2.558-1.448-.548.547-1.025 1.131-1.523 1.705.289.712.378 1.488.257 2.246-.372 1.154-1.337 1.329-1.397.831 0-.224-.515-.388-1.096-.464a115.014 115.014 0 00-26.079 60.479 6.97 6.97 0 011.359 1.935c.323 1.016 2.093 1.689 2.427 1.891.334.202.444-1.946.203-2.509s.433-.891.416-.481c-.016.41 1.704 2.301 2.252 2.99.548.688 1.129 5.099 1.644 6.012.515.912 5.632 2.913 7.281 3.279 1.649.366 3.709 2.186 4.038 2.733.329.546 2.498.798 2.969 1.005.471.208 1.589 1.694 2.055 2.001.427.368.72.868.833 1.421 0 .235 2.881 1.322 3.583 2.087.701.765 1.852.547 2.071.241.219-.306.783 1.53 1.096 2.186.312.656.367 2.186.136 2.47-.23.284-.635 3.137-1.128 3.717-.493.579-1.512 4.787-1.293 5.613.219.825 1.578 2.546 2.191 2.803a.673.673 0 01-.126 1.219c-.46.055-.246 4.072.839 4.667 1.084.596 1.95 2.334 1.786 2.64zm13.653-70.503c-.033.039-.038.044.011.028l-.011-.028zm-7.928-48.805c1.392-.23 3.698-.612 3.835-1.006a2.394 2.394 0 00-.137-1.601h.674c.548 0 1.408-2.88 1.962-3.553.553-.672 3.725-1.64 4.487-2.12.761-.481 2.41-2.05 3.04-2.235.63-.186 1.567-1.64 1.425-1.968-.143-.328 2.148-1.683 3.024-2.05.877-.366 1.321-1.382.992-1.42-.208-.033-5.057 2.497-9.489 5.006a116.914 116.914 0 00-14.251 11.483c1.386-.104 3.534-.356 4.438-.509v-.027zM391.103 239.8c1.484-.869 4.01-4.596 4.832-5.372.822-.776 1.435-3.602 1.611-4.219.175-.618 1.43-1.613 1.901-1.744.471-.131 1.978-6.372 3.287-7.733 1.309-1.361 2.871-7.958 2.707-10.341-.165-2.383.849-6.881 1.156-7.968.306-1.088 1.972-3.017 2.492-3.416.521-.399 3.693-5.11 4.729-6.793 1.035-1.684 1.999-5.395 1.802-6.264-.197-.869-2.416-1.475-2.832-1.049-.417.426-2.504.787-3.173.787-.668 0-2.191-3.574-3.15-4.312-.959-.738-1.802-4.821-2.35-5.597a37.738 37.738 0 00-2.559-3.18c-.482-.443-.548-2.618-.674-3.214-.126-.596.926.393 1.096 1.251.17.859 2.635 4.373 3.391 5.526.756 1.153 2.767 4.919 3.288 6.083.52 1.164 4.974.574 6.421-.104 1.446-.678 3.249-1.842 3.32-2.241.071-.399 2.372-1.459 3.008-1.973.635-.514 1.211-3.186 1.643-3.612.433-.427-.334-2.984-.816-3.744-.482-.76-2.794-1.366-3.254-1.093-.461.273-1.469-1.711-1.825-2.449-.356-.737-2.126-1.639-2.323-2.148-.197-.508.488-1.306.767-1.481.28-.175 3.54 2.11 4.482 3.241a24.081 24.081 0 012.191 3.591c.165.361 2.74.547 3.321.126.58-.421 1.232-.312 1.457.235l.811-.142 2.827-.438c1.337 1.443 1.72 2.695 1.693 2.984a2.793 2.793 0 001.364 1.58c.548.126.953 1.967 1.096 2.427.142.459 1.775 3.213 2.098 4.372.323 1.158 1.71 3.427 2.038 4.033.338.915.539 1.875.597 2.848 0 .481 1.031 1.426 1.677 1.382.646-.043 1.934-4.082 2.241-5.585.307-1.503 1.337-2.733 1.643-2.733.307 0 .548-.847.548-1.169 0-.323 1.644-.285 1.786-.694.143-.41.62-3.077 1.206-3.482a25.745 25.745 0 013.391-2.017c.718-.246 2.575 1.35 2.997 2.099.422.749.784 2.64.625 2.951-.159.312.98 1.951 1.977 1.919.998-.033 1.293 1.251 1.321 1.716.027.464 1.348 1.781 1.605 2.377a5.268 5.268 0 010 2.563c-.181.367-.06 2.482.126 3.077.186.596 3.238 3.668 4.383 4.602 1.145.935 1.682-1.902 1.096-2.787-.586-.885-2.57-2.935-3.035-3.542-.466-.606-.548-3.082-.373-3.765.175-.683 1.737.382 2.389.88.652.497 1.501 1.607 1.523 1.978.022.372 4.104-1.913 4.241-4.372.137-2.46 1.501-5.258 1.643-5.908.143-.651-.405-1.552-.745-1.574-.34-.022.603-1.886 1.748-1.858 1.145.027 3.895-3.028 4.547-4.236a9.435 9.435 0 012.11-2.367 21.14 21.14 0 001.232-4.202c.154-1.186-.674-3.039-.772-3.657-.099-.617-1.096-2.022-1.342-2.47-.247-.448-.488-2.104-.329-2.416.159-.311 1.178-.639 1.282-.912.104-.274 1.293-1.536 1.211-2.088-.082-.552.734.716 1.271 1.175.537.459 1.123 3.405 1.797 3.733.674.328 3.369-3.126 3.035-5.356-.334-2.23.784-5.078 1.436-5.334.493-.192 1.769-1.995 2.635-3.28a115.936 115.936 0 00-28.594-44.914 1.502 1.502 0 01-.444 0l-.992-.218c-1.643-.35-2.635-2.126-2.35-2.536.097-.252.097-.53 0-.782a96.754 96.754 0 00-2.843-2.454h-2.093c-.997-.033-3.162-.743-3.545-1.126-.384-.382-1.699.34-1.77 1.055-.071.716-2.361 1.055-2.564 1.601-.203.547-1.402.585-1.643.274-.242-.312-2.334.743-3.381.896a18.145 18.145 0 00-3.468 1.202 5.556 5.556 0 00-1.759 1.738c-.175.449-1.523 1.203-1.95 1.372-.427.17-.351 2.126.208 2.399.559.274-1.035-.235-1.737-.595-.701-.361-1.474.781-1.693 1.202-.219.421-.871-.246-.843-.82.027-.574-1.737-1.06-1.967-.595-.23.464-1.452-.153-1.956-.416-.504-.262-2.69 2.006-3.496 2.82-.805.815-4.684 1.443-5.407 1.137-.723-.306-1.436 1.711-.817 1.853.619.142-1.578-.109-2.772 0a19.484 19.484 0 00-5.533 2.159.908.908 0 01-.95.162.913.913 0 01-.563-.78c0-.475-1.331-.918-1.731-1.049-.4-.131-1.172 2.607-1.857 3.137-.685.53-1.529-2.143-3.162-2.58-1.632-.437-4.185-2.016-4.93-2.186-.746-.169-2.192-1.711-2.586-2.148-.395-.437-2.499-.803-3.162-.803-.663 0-2.838 1.235-3.408 1.721-.569.487-1.462.388-1.747.547-.285.158-2.74 2.558-3.682 3.279-.942.722-2.608 3.963-3.134 4.733a2.226 2.226 0 01-1.644.929c-.317 0-.575.875-.575 1.186 0 .312-2.81 1.776-3.101 3.05-.29 1.273.274 4.17.274 5.203 0 1.033 1.047 3.077 1.819 3.115.773.038.373 1.749.164 2.23-.208.481.494 1.011.472 1.421-.022.41-1.967.989-2.57 1.219-.603.229-1.578 1.579-1.709 2.082-.132.503-1.978.76-2.597 1.35.159-.459.342-.91.548-1.35.356-.678-.137-1.858-.428-2.104-.29-.246-.433-3.613-.909-4.329a14.741 14.741 0 00-1.945-2.186c-.291-.235.203-1.12.372-1.497.17-.377-1.572-.591-2.049-.312-.476.279-.734 3.607-.931 4.52-.197.913.86 2.312 1.15 2.372.291.06.203 1.711-.405 1.76-.608.049-1.172 2.459-.86 3.006.312.546-.433 1.639-.8 1.869-.367.229 2.345.104 3.589.065 1.243-.038 2.191.547 2.071.624-.121.076-2.367.437-2.767.961-.4.525-1.912 1.547-2.192 1.957-.279.41.499 1.301 1.145 1.262.647-.038 1.37 2.214 1.874 2.629.504.416.312 1.591.099 1.913-.214.323-3.249-.218-4.383.066-1.134.284-2.603 2.705-2.701 3.612-.023 1.433.09 2.864.339 4.274.143.722 2.548 1.181 3.03 1.536.482.355 2.794 0 3.287.23.493.229 2.017-2.329 2.329-3.509.312-1.181 2.739-3.356 3.287-4.165.548-.809 3.156-.71 3.802-1.137.647-.426.291 2.001.603 3.329.312 1.328 2.838 1.169 2.466-.088-.373-1.257.252-1.781.356-1.328.104.454 2.531 1.432 2.997 2.137.465.705.328 2.186-.214 2.186-.543 0-.548 1.64 0 1.809.548.17 1.331-1.863 1.95-2.186.619-.322 1.096-1.574.817-1.678-.28-.103.52-1.229.871-.858.35.372-1.304-2.475-2.334-3.514-1.03-1.038-.307-.574 1.643 1.028l1.332 1.863c.263.339.602 1.356.833 1.733l.312.546c.278.952.444 1.934.493 2.924 0 .476 1.046 1.427 1.682 1.383.636-.044 1.096.301.981.328-.115.027.422 1.257 1.052 1.284.63.028.904-1.596.268-1.639-.635-.044-.548-2.389-.619-3.405-.071-1.017.46-1.864.679-1.864.219 0-.033 2.104 0 2.591a6.87 6.87 0 00.548 2.115l.658.497 1.463 1.121c2.098-.618 4.93-.143 4.81.289-.121.432 1.55.547 1.644-.164.093-.71.18 0 .18.503s-1.38 2.339-1.605 3.208c-.225.869-5.079.268-7.166.115-2.088-.153-5.161.546-5.402 1.17-.241.623-3.49-1.427-4.981-2.05-1.49-.623-2.668-2.902-2.975-3.197-.306-.295.258-1.033.116-1.476-.143-.443-3.551-.546-4.537-.18-.986.366-6.109.902-7.32 1.432-1.21.53-3.024-.033-3.588-.137-.565-.104-1.923 1.569-2.603 1.869-.679.301-1.567 2.656-1.939 5.247l-.932 1.804-.597 1.153c-1.693 1.279-3.556 5.553-4.109 6.411-.553.858-.981 7.012-.981 9.083 0 2.071 1.808 6.449 2.323 7.651.515 1.203 3.638 3.886 4.685 4.531 1.046.645 4.443.711 5.561.705 1.117-.005 2.383-1.06 2.81-2.344l1.644.164.751.076c.038.913 2.449 1.64 3.04 1.957.592.317 2.192.082 2.647-.06.454-.143 1.002 4.115.657 5.345-.345 1.229.844 5.536 1.189 6.837.345 1.301 1.824 4.842 1.978 6.115.153 1.274-.871 5.504-1.041 6.985-.17 1.481 1.857 5.635 2.394 7.061.508 1.695.828 3.439.953 5.203 0 .711 2.192 5.001 2.74 6.761.548 1.76 5.972 2.246 7.457 1.377zm95.621-52.533c.153.317 1.54-.787 2.378-.912.838-.126 1.364-2.372.707-2.531-.658-.158-1.491-1.896-1.956-2.104-.466-.208-1.392.738-1.354 1.416.039.677-1.523.956-1.819 1.524-.295.569-.268.973.05.913.318-.06 1.857 1.388 1.994 1.694zm-1.731 12.161c.416-.153-.05-2.367-.91-2.552-.86-.186-3.287 2.913-2.821 4.694.465 1.782.964 1.64 1.211 1.29.246-.35 1.682.241 2.103.388.422.148.417-.295 0-.945-.416-.651.028-2.733.417-2.875zm-4.723-2.186c.099-.787.247-3.279.389-3.749.142-.471-1.348-1.908-2.082-2.187-.734-.278-3.068 4.81-4.739 5.706-1.671.896-2.29 3.979-1.852 4.695.438.716 3.956 1.093 4.564 1.64.608.546 1.293-.082 1.644-.175.35-.093.257-.323.115-.416-.143-.093 1.221-1.525 1.424-2.437.203-.913.433-2.268.537-3.077zm-9.522 8.449c-1.321-.492-2.86.279-2.975.782-.115.502 5.057 1.328 6.777 1.792 1.721.465 2.789.618 2.4.328-.389-.289-4.898-2.405-6.202-2.902zm10.53-33.666c.417-.574-.581-3.28-1.096-2.673-.515.607-.131 2.186 0 2.733.132.546.674.519 1.091-.06h.005zm3.129 5.815c.301-.7-.373-1.47-1.496-1.711-1.123-.24-.959 3.137-.466 3.569.493.432 1.644-1.153 1.956-1.858h.006zm5.834 20.861c1.343.94 4.34.508 4.433-1.301-1.326-.869-4.553-.705-4.438 1.301h.005zm-.723-41.285a1.883 1.883 0 00-.679 1.781h-.23c-.444 0-.499 1.766 0 2.072.498.306 1.594-1.377 2.191-1.782.597-.404 1.781-.645 1.956-.514.176.132 1.227-.185 2.318-.688.284-.203.511-.476.657-.793-.263-1.29-.575-2.557-.882-3.825-.548.409-1.189.852-1.479 1.093-.63.541-3.123 2.153-3.857 2.656h.005zm-30.681 35.524c-.197-.174-.23-.185.016-.005l-.016.005zm8.361 7.761c-.488-1.093-2.099-2.946-3.573-4.115l-.547-.918-.609-1.011c-.547-1.093-2.191-1.968-2.361-2.301-.17-.334-.668.962-1.233.59l1.786 1.268c1.562 1.093 4.564 8.646 5.249 9.176.685.53 1.786-1.596 1.304-2.694l-.016.005zM443.25 188.53c-.417.853 2.219 2.662 2.421 2.246.203-.415-.334-2.497-.805-2.967-.471-.47-1.178-.132-1.6.715l-.016.006zm-35.065 40.258c.105.896 1.929 1.601 2.449 1.453.521-.147 2.011-2.852 2.192-3.629.204-.942.331-1.9.378-2.863.012-.501.166-.988.444-1.405.197-.098.548-1.027.739-2.039.192-1.011-1.095-5.776-1.134-6.607-.038-.831-.975.426-1.216 1.273s-2.619 2.564-3.15 3.279c-.532.716-1.096 3.143-.899 3.569.197.427-.208 2.072-.449 2.531-.241.459.586 3.53.679 4.432l-.033.006zm-85.48 32.885h1.589c.285-1.722-1.682-1.438-1.589 0zm42.499-179.034c-.668.082-2.394-.268-2.695-.585-.302-.317-2.893-.59-3.633-.284-.739.306-.241-1.814.806-2.044 1.046-.23.153-1.705-.954-1.705-1.106 0-3.835-.41-4.487-.268-.652.142-1.901-.448-2.356-.514-.455-.065-3.742.979-5.292.902-1.551-.076-5.38.087-6.202.322-.822.236-1.436 1.831-1.315 2.4.12.568-3.693.546-4.887.58-1.195.032-7.599 1.376-9.27 2.29-1.671.912-2.975 3.278-2.422 3.278.553 0-.926 1.372-1.825 1.684-.898.311-3.035.442-3.544.945-.51.503.548.847.739 1.186.192.339.789-.295 1.365 0 .575.295 2.421.47 2.914.661.493.192-1.578.585-2.558.662-.981.076-.756 1.978.044 2.24.799.263 2.843.547 3.051.22.208-.329 2.438.36 3.446.48s1.77 2.684 2.066 3.23c.296.547.378 2.449.296 3.001-.082.552 1.775 1.557 2.109 1.207.334-.349.23.864-.504.804-.734-.06-.257 2.055.657 2.361.915.306.285 1.607-.235 2.006-.521.399-.241 1.639-.784 2.087-.542.449 1.913 4.662 1.891 6.838-.022 2.175 1.347 3.94 1.862 3.94.515 0 2.307.432 2.548.902.241.47 1.096-.323 1.441-.683a18.27 18.27 0 001.611-2.312c.548-.924 1.775-5.274 1.939-5.739.165-.464 2.192-.175 2.685-.415.76-.494 1.492-1.03 2.191-1.607.378-.317 3.288-1.547 4.109-2.126.822-.579 2.121-3.039 2.74-3.563.619-.525-.318-.378-1.096-.886a.828.828 0 01-.203-1.366c.22-.241 2.575.393 3.386.705.811.311 2.362-.798 1.775-1.23-.586-.432-.284-.415 0-.235.285.181.587-1.426.28-1.727-.307-.3 2.383-2.273 1.906-4.126-.476-1.853.735-3.755 1.458-3.782.723-.028.509-2.093-.356-2.285-.866-.191-.05-.382.274-.677.323-.296.734-2.143.548-2.498-.187-.355 1.325-.76 1.588-1.18.263-.421 2.006-1.252 2.625-1.389.619-.136.931-1.776.268-1.705zm15.111 1.514c-.822-.284-2.504.634-2.29 1.148.213.513-1.365-.662-2.466-.093-1.101.568-1.408 2.497-.904 2.732.504.235.882 1.782.888 2.077.005.295 2.147.088 2.695-.36.548-.449.466 1.557-.082 2.104-.548.546.186 1.64.784 1.721.597.082 1.397 1.476 2.01 1.46.614-.017 1.644-2.35 1.88-3.23.235-.88 2.262-.18 3.199.098.937.279 1.266-3.225.258-3.75-1.008-.524-2.241-.25-2.652-.672a3.483 3.483 0 00-1.589-.847c-.477-.043-.915-2.11-1.731-2.388zm8.103 1.672c1.644.23 3.473-1.093 3.873-1.497.4-.405-4.531-1.377-6.41-1.438-1.879-.06-3.402.197-3.369.547.033.35 4.268 2.148 5.906 2.388zm-29.86 44.16c-.432-.18-.668 1.432-.547 2.044.12.612 1.605.547 2.251.454a1.26 1.26 0 001.096-1.164c-.033-.547-.942-2.935-1.304-2.935-.361 0-1.074 1.765-1.496 1.601zm4.849-18.784c-.34-.596-2.904-.519-3.534-.547-.63-.027-2.542-.672-2.909-1.093-.367-.421-.641 1.58-1.222 1.837-.58.257.291.634.548.42.258-.213 0 1.023-.279 1.443-.28.421 1.709.722 1.934 1.361a1.646 1.646 0 001.808.929c.772-.131 2.323-.929 2.865-.978.543-.049 1.129-2.782.789-3.372zm53.912-14.67c.882-.879 4.509-2.07 4.931-2.989.421-.918-.258-1.64-.625-1.64a1.456 1.456 0 00-.904.602c-.093.158-4.252 1.131-5.528 1.743a14.342 14.342 0 00-3.287 2.11c-.548.547-1.425 4.657-1.737 5.121-.313.465 1.386 2.142 2.136 2.607.648.308 1.39.355 2.071.131.291-.093-.389-2.967-.772-3.973-.384-1.006 2.838-2.815 3.715-3.711zm-4.455-10.728c1.37 1.361 2.126-.6 3.627-.41-.027-2.754-3.764-1.83-3.627.41zm26.655.492c-.044.509 3.786.918 4.931.722 1.145-.197-.236-1.94-1.874-1.831-1.638.11-3.03.628-3.057 1.11zm-138.795 28.376c-.405.372-.049 2.247.718 2.307.767.06 1.989-2.809 2.931-2.263.942.547 1.578.804 1.419.497-.159-.306-2.832-1.47-3.161-1.694-.329-.224-1.49.793-1.907 1.153zm9.802 63.491c0 .312 1.643.268 1.945-.246.301-.513.126-.929-.324-.929-.449 0-1.621.853-1.621 1.175zm-7.44-2.732c.805-.148.432 1.142.619 1.601.186.459 2.109.836 2.492 1.153.384.317 1.376-.585 2.143-.492.767.093-.252-2.645-1.545-2.563-1.293.082-2.296-1.164-2.597-1.317a20.545 20.545 0 01-2.23-1.383c-.417-.344-3.693-.634-4.805-.634-1.112 0-2.34 1.137-2.509 1.503-.17.366 1.764.629 2.312.328.548-.301 3.15.333 3.681.956a2.876 2.876 0 002.449.831l-.01.017zm-3.496 2.732c0 .312 1.688.115 2.093.126.405.011.4-.268-.033-.612-.433-.345-2.06.164-2.06.486zm1.194-8.668c-.438-.169-.789.514-.789.842a.54.54 0 00.145.415.551.551 0 00.403.175c.285 0 .68-1.251.241-1.432zm3.54.273a1.649 1.649 0 00-1.096-.59c-.219 0-.384.547-.34 1.235.044.689 1.578-.328 1.436-.645zm2.542 3.914c.685-.334.767-1.148.367-1.093-.4.054-1.156-1.175-1.6-1.35-.444-.175-.794.732-.794 1.125 0 .394.246.667.548.585.301-.082.794 1.044 1.479.733zm188.471 26.43c-.351.18-2.049.383-2.274.049-.225-.333-.548.689-.926.853-.378.164-.164 1.055.373.776.383-.186 1.994.705 3.287 1.525.263-1.29.488-2.596.707-3.908-.488.246-.97.568-1.195.705h.028z" fill="url(#paint40_linear)"/><path opacity=".6" d="M411.5 68.26a38.414 38.414 0 00-5.917-1.831c-17.97-4-37.119 5.187-53.555 23.266-16.19 17.817-29.805 44.335-37.004 75.34a.87.87 0 000 .125c-7.183 30.994-6.575 60.666.153 83.62 6.18 20.998 17.532 36.399 32.917 42.143-14.963-5.973-26.046-21.2-32.117-41.832-6.75-22.927-7.33-52.598-.153-83.619v-.126c7.199-30.999 20.819-57.523 37.004-75.334 16.436-18.08 35.612-27.267 53.555-23.272 1.739.388 3.449.896 5.117 1.52z" fill="#fff"/><path opacity=".6" d="M269.676 211.452c.067 2.055.297 4.102.69 6.121 3.507 17.964 19.554 31.743 42.664 39.503 22.769 7.652 52.476 9.461 83.732 3.651h.126c31.229-5.831 58.174-18.199 76.462-33.491 16.755-14.014 26.299-30.513 25.444-46.806.504 16.014-9.013 32.186-25.482 45.948-18.288 15.302-45.222 27.665-76.462 33.491h-.126c-31.229 5.81-60.963 3.99-83.727-3.656-23.11-7.756-39.163-21.534-42.669-39.498a39.146 39.146 0 01-.652-5.263z" fill="#fff"/><path opacity=".6" d="M311.863 88.432a38.67 38.67 0 00-5.315 3.181c-14.957 10.674-20.885 31.032-18.354 55.304 2.498 23.911 13.215 51.718 31.558 77.75l.071.109c18.354 26.01 40.899 45.362 62.513 55.659 19.801 9.411 38.9 11.237 53.424 3.656-14.442 7.105-33.201 5.203-52.657-4.049-21.619-10.281-44.164-29.644-62.513-55.654-.027-.033-.049-.071-.076-.109-18.338-26.032-29.038-53.834-31.553-77.75-2.531-24.272 3.386-44.63 18.36-55.315a38.426 38.426 0 014.542-2.782z" fill="#fff"/><g opacity=".5" fill="#fff"><path opacity=".5" d="M319.604 162.909a12.96 12.96 0 01-7.188-2.172 12.915 12.915 0 01-4.767-5.79 12.878 12.878 0 012.801-14.064 12.965 12.965 0 0114.098-2.8 12.929 12.929 0 015.806 4.753 12.885 12.885 0 012.18 7.169 12.9 12.9 0 01-3.79 9.119 12.966 12.966 0 01-9.14 3.785zm0-25.687c-2.534 0-5.01.749-7.117 2.153a12.793 12.793 0 00-4.718 5.736 12.748 12.748 0 00-.728 7.383 12.772 12.772 0 003.507 6.543 12.823 12.823 0 006.56 3.496c2.486.492 5.061.238 7.402-.73a12.798 12.798 0 005.747-4.708 12.756 12.756 0 002.157-7.101 12.78 12.78 0 00-3.761-9.022 12.837 12.837 0 00-9.049-3.74v-.01z"/><path opacity=".5" d="M319.604 170.396a20.484 20.484 0 01-11.357-3.436 20.407 20.407 0 01-7.528-9.152 20.351 20.351 0 014.431-22.222 20.45 20.45 0 0110.466-5.58 20.491 20.491 0 0111.811 1.16 20.436 20.436 0 019.174 7.51 20.36 20.36 0 013.445 11.329 20.39 20.39 0 01-5.994 14.412 20.488 20.488 0 01-14.448 5.979zm0-40.585c-4.01 0-7.931 1.186-11.265 3.409a20.234 20.234 0 00-7.466 9.08 20.174 20.174 0 00-1.149 11.687 20.202 20.202 0 005.556 10.354 20.282 20.282 0 0010.386 5.528c3.934.777 8.011.373 11.715-1.162a20.271 20.271 0 009.092-7.46 20.19 20.19 0 003.403-11.242 20.203 20.203 0 00-5.947-14.281 20.295 20.295 0 00-14.325-5.913z"/><path opacity=".5" d="M319.604 156.383a6.403 6.403 0 01-3.552-1.075 6.38 6.38 0 01-2.355-2.862 6.363 6.363 0 011.386-6.951 6.407 6.407 0 019.837.966 6.365 6.365 0 01-.795 8.054 6.401 6.401 0 01-4.521 1.868zm0-12.652c-1.244 0-2.46.368-3.494 1.057a6.27 6.27 0 00-2.675 6.441 6.286 6.286 0 004.942 4.929 6.295 6.295 0 006.457-2.667 6.265 6.265 0 001.06-3.486 6.274 6.274 0 00-1.844-4.435 6.297 6.297 0 00-4.446-1.839z"/></g><g opacity=".5" fill="#fff"><path opacity=".5" d="M459.752 179.343a11.79 11.79 0 01-6.536-1.978 11.747 11.747 0 01-4.332-5.267 11.713 11.713 0 012.552-12.789 11.778 11.778 0 0112.821-2.54 11.762 11.762 0 015.278 4.324 11.716 11.716 0 011.98 6.521 11.732 11.732 0 01-3.451 8.291 11.79 11.79 0 01-8.312 3.438zm0-23.354c-2.305 0-4.558.682-6.474 1.959a11.631 11.631 0 00-4.292 5.217 11.606 11.606 0 002.526 12.669 11.674 11.674 0 0012.699 2.52c2.13-.88 3.95-2.37 5.23-4.282a11.598 11.598 0 001.964-6.458 11.622 11.622 0 00-3.416-8.217 11.681 11.681 0 00-8.237-3.408z"/><path opacity=".5" d="M459.752 184.978a17.44 17.44 0 01-9.674-2.928 17.386 17.386 0 01-6.413-7.796 17.328 17.328 0 01-.99-10.036 17.36 17.36 0 014.767-8.893 17.43 17.43 0 018.916-4.752 17.454 17.454 0 0110.061.991 17.403 17.403 0 017.813 6.399 17.345 17.345 0 012.932 9.651 17.362 17.362 0 01-5.105 12.275 17.445 17.445 0 01-12.307 5.089zm0-34.563a17.27 17.27 0 00-9.579 2.899 17.201 17.201 0 00-6.35 7.718 17.164 17.164 0 003.737 18.744 17.276 17.276 0 0018.79 3.728 17.23 17.23 0 007.738-6.334 17.168 17.168 0 002.906-9.556 17.2 17.2 0 00-5.055-12.157 17.282 17.282 0 00-12.187-5.042z"/><path opacity=".5" d="M459.752 174.653a7.067 7.067 0 01-3.921-1.186 7.026 7.026 0 01-1.069-10.831 7.067 7.067 0 0110.857 1.067 7.025 7.025 0 011.19 3.911 7.043 7.043 0 01-2.07 4.974 7.071 7.071 0 01-4.987 2.065zm0-13.969a6.958 6.958 0 00-3.86 1.168 6.929 6.929 0 00-2.954 7.114 6.94 6.94 0 005.459 5.445 6.968 6.968 0 004.013-.394 6.941 6.941 0 003.118-2.553 6.91 6.91 0 00-.865-8.749 6.962 6.962 0 00-4.911-2.031z"/></g><g opacity=".5" fill="#fff"><path opacity=".5" d="M443.211 253.355a9.005 9.005 0 01-4.996-1.509 8.953 8.953 0 01-1.368-13.8 9.011 9.011 0 019.798-1.947 8.99 8.99 0 014.036 3.304 8.954 8.954 0 011.516 4.983 8.972 8.972 0 01-2.635 6.337 9.016 9.016 0 01-6.351 2.632zm0-17.85a8.92 8.92 0 00-4.944 1.499 8.885 8.885 0 00-3.277 3.987 8.854 8.854 0 00-.504 5.131 8.878 8.878 0 002.437 4.546 8.915 8.915 0 009.702 1.923 8.899 8.899 0 003.995-3.272 8.864 8.864 0 00-1.111-11.215 8.924 8.924 0 00-6.298-2.605v.006z"/><path opacity=".5" d="M443.211 249.764a5.408 5.408 0 01-3-.905 5.371 5.371 0 01-.821-8.285 5.406 5.406 0 018.305.819 5.372 5.372 0 01-.673 6.794 5.407 5.407 0 01-3.811 1.577zm0-10.674a5.322 5.322 0 00-2.951.89 5.298 5.298 0 00-2.262 5.436 5.302 5.302 0 004.17 4.164 5.324 5.324 0 005.452-2.251 5.291 5.291 0 00.895-2.943 5.296 5.296 0 00-1.555-3.741 5.32 5.32 0 00-3.749-1.555z"/></g><g opacity=".5" fill="#fff"><path opacity=".5" d="M356.871 276.713c-2.492 0-4.929-.737-7.001-2.118a12.58 12.58 0 01-4.641-5.642 12.554 12.554 0 012.731-13.698 12.615 12.615 0 0113.733-2.725 12.585 12.585 0 015.655 4.629 12.55 12.55 0 01-1.567 15.873 12.617 12.617 0 01-8.91 3.681zm0-25.009c-2.467 0-4.879.73-6.931 2.097a12.457 12.457 0 00-4.595 5.585 12.42 12.42 0 002.705 13.562 12.475 12.475 0 006.387 3.406c2.42.48 4.928.234 7.208-.708a12.467 12.467 0 005.599-4.584 12.418 12.418 0 002.102-6.914 12.441 12.441 0 00-3.659-8.794 12.504 12.504 0 00-8.816-3.65z"/><path opacity=".5" d="M356.871 271.685a7.565 7.565 0 01-6.966-4.676 7.534 7.534 0 011.659-8.211 7.56 7.56 0 013.873-2.055 7.584 7.584 0 014.365.436 7.556 7.556 0 013.387 2.781 7.527 7.527 0 01.689 7.078 7.56 7.56 0 01-7.007 4.647zm0-14.959a7.46 7.46 0 00-4.134 1.251 7.406 7.406 0 00-1.127 11.42 7.455 7.455 0 008.108 1.608 7.428 7.428 0 003.339-2.733 7.408 7.408 0 001.254-4.124 7.414 7.414 0 00-2.181-5.246 7.455 7.455 0 00-5.259-2.176z"/></g><path opacity=".6" d="M450.022 90.936c-8.821-25.19-22.403-39.969-38.243-41.619-11.637-1.208-23.12 3.367-34.143 15.664l1.342-.066c10.629-11.592 21.603-15.784 32.703-14.642 15.445 1.607 28.736 16.161 37.426 40.99 8.897 25.398 11.79 58.294 8.147 92.638-3.644 34.344-13.374 65.923-27.394 88.926-13.697 22.479-29.767 33.973-45.212 32.361-7.177-.749-13.949-4.373-20.014-10.559a56.444 56.444 0 01-1.55-.235c6.443 6.897 13.697 10.93 21.46 11.745.989.103 1.982.154 2.975.153 14.903 0 30.134-11.581 43.162-32.967 14.103-23.124 23.882-54.85 27.537-89.331 3.654-34.481.745-67.535-8.196-93.058z" fill="#fff"/><path opacity=".6" d="M474.643 72.086c-12.053-12.024-33.563-13.26-60.595-3.525-.389.136-.773.29-1.162.431l1.644.487c26.567-9.537 47.666-8.357 59.374 3.334 11.708 11.69 12.908 32.792 3.287 59.37-9.862 27.2-29.761 56.637-56.087 82.903-26.325 26.267-55.823 46.15-83.086 55.965-26.638 9.597-47.775 8.428-59.516-3.279-10.311-10.286-12.464-28.196-6.125-50.593-.137-.415-.4-1.213-.548-1.738-6.975 23.447-4.893 42.269 5.944 53.052 6.696 6.668 16.278 10.018 28.123 10.018 9.5 0 20.442-2.158 32.473-6.492 27.394-9.865 57.045-29.819 83.481-56.184l.032-.033c26.414-26.359 46.406-55.921 56.295-83.248 9.763-26.971 8.509-48.445-3.534-60.468z" fill="#fff"/><path opacity=".6" d="M467.461 170.877c-22.842-12.871-53.906-21.353-87.469-23.884h-.083c-33.541-2.514-65.499 1.219-90 10.521-24.222 9.177-38.176 22.632-39.332 37.886-1.096 14.685 9.768 29.513 30.681 41.914l-.882-1.613c-19.724-12.051-29.931-26.233-28.873-40.23 1.128-14.877 14.885-28.048 38.707-37.099 24.397-9.258 56.246-12.969 89.677-10.455h.077c33.421 2.525 64.305 10.964 87.009 23.763 22.211 12.516 33.821 27.6 32.692 42.472-.772 10.225-7.276 19.735-19.444 27.676-.334.514-.806 1.224-1.249 1.886a63.813 63.813 0 008.295-6.204c8.13-6.973 12.688-14.887 13.324-23.287 1.156-15.249-10.623-30.645-33.13-43.346z" fill="#fff"/><path style="mix-blend-mode:screen" d="M355.638 272.849a8.258 8.258 0 01-6.798-6.172 8.253 8.253 0 013.114-8.627 8.292 8.292 0 019.182-.432 8.256 8.256 0 013.218 3.555 8.236 8.236 0 01-2.569 10.154 8.277 8.277 0 01-6.147 1.522z" fill="url(#paint41_radial)"/><path style="mix-blend-mode:screen" d="M268.076 237.073a8.282 8.282 0 01-4.338-2.058 8.23 8.23 0 01-2.213-8.9 8.256 8.256 0 012.87-3.842 8.296 8.296 0 019.183-.429 8.267 8.267 0 013.217 3.558 8.234 8.234 0 01-2.574 10.151 8.29 8.29 0 01-6.145 1.52z" fill="url(#paint42_radial)"/><path style="mix-blend-mode:screen" d="M458.519 175.774a8.282 8.282 0 01-4.336-2.055 8.233 8.233 0 01-2.221-8.895 8.255 8.255 0 012.863-3.844 8.289 8.289 0 019.178-.445 8.24 8.24 0 013.929 8.287 8.248 8.248 0 01-3.262 5.422 8.298 8.298 0 01-6.151 1.53z" fill="url(#paint43_radial)"/><path style="mix-blend-mode:screen" d="M433.7 71.889a8.282 8.282 0 01-4.336-2.064 8.242 8.242 0 01.676-12.744 8.286 8.286 0 0112.396 3.155 8.245 8.245 0 01-2.593 10.144 8.283 8.283 0 01-6.143 1.509z" fill="url(#paint44_radial)"/><path style="mix-blend-mode:screen" d="M317.889 158.17a8.279 8.279 0 01-4.337-2.058 8.243 8.243 0 01.657-12.742 8.293 8.293 0 019.182-.429 8.255 8.255 0 013.911 8.299 8.26 8.26 0 01-3.269 5.408 8.294 8.294 0 01-6.144 1.522z" fill="url(#paint45_radial)"/><path style="mix-blend-mode:screen" d="M494.893 205.014a8.283 8.283 0 01-4.338-2.059 8.232 8.232 0 01-2.213-8.9 8.256 8.256 0 012.87-3.842 8.29 8.29 0 019.183-.428 8.239 8.239 0 01.644 13.71 8.276 8.276 0 01-6.146 1.519z" fill="url(#paint46_radial)"/><path style="mix-blend-mode:screen" d="M354.088 89.804a5.33 5.33 0 01-2.792-1.324 5.304 5.304 0 01.421-8.201 5.331 5.331 0 017.982 2.009c.448.95.604 2.012.448 3.051a5.316 5.316 0 01-2.103 3.483 5.342 5.342 0 01-3.956.982z" fill="url(#paint47_radial)"/><path style="mix-blend-mode:screen" d="M289.525 163.515a5.326 5.326 0 01-4.375-3.974 5.312 5.312 0 012.008-5.554 5.336 5.336 0 017.981 2.016 5.303 5.303 0 01-1.658 6.534 5.337 5.337 0 01-3.956.978z" fill="url(#paint48_radial)"/><path style="mix-blend-mode:screen" d="M325.527 280.577a5.327 5.327 0 01-2.792-1.324 5.31 5.31 0 01-1.426-5.728 5.313 5.313 0 011.847-2.474 5.335 5.335 0 017.982 2.01 5.306 5.306 0 01-3.535 7.419 5.339 5.339 0 01-2.076.097z" fill="url(#paint49_radial)"/><path style="mix-blend-mode:screen" d="M442.806 253.07a8.275 8.275 0 01-6.798-6.173 8.23 8.23 0 01.247-4.785 8.256 8.256 0 012.87-3.842 8.296 8.296 0 019.183-.429 8.267 8.267 0 013.217 3.558 8.234 8.234 0 01-.4 7.771 8.278 8.278 0 01-8.319 3.9z" fill="url(#paint50_radial)"/><path d="M464.5 99.131c3.833-.833 14.5-1.75 25 3.5 12 6 11.891 17.174 10 24.5-4 15.5-48.5 143.5-244.5 125.5" stroke="url(#paint51_linear)" stroke-width="12"/><path d="M414.283 69.572c2.993-2.536 11.981-8.353 23.717-8.646 13.412-.336 18.561 9.581 20.331 16.938C462.075 93.428 499.511 221.513 318 297.63" stroke="url(#paint52_linear)" stroke-width="8"/><path d="M630.058 135.601l-7.149 37.268c.857 6.443 8.684 15.994 21.173 18.873 9.991 2.303 20.839-2.603 25.014-5.344l12.203-33.401c-3.162 2.775-13.398 7.734-29.045 5.376-15.647-2.357-21.317-16.164-22.196-22.772z" fill="url(#paint53_linear)"/><ellipse cx="656.533" cy="141.004" rx="27.438" ry="18.708" transform="rotate(15.121 656.533 141.004)" fill="url(#paint54_linear)"/><path d="M646.884 143.527c-3.181-.263-5.787-2.866-6.693-4.135l11.559-60.788 12.471 1.747-10.644 61.087c-.906.806-3.513 2.352-6.693 2.089z" fill="url(#paint55_linear)"/><path fill-rule="evenodd" clip-rule="evenodd" d="M664.458 51.5l-5.5 28.5-2.958-.5 5.5-28.5 2.958.5zm28.293 4.457l-8.146 27.86-2.898-.775 8.146-27.86 2.898.775zm-15.694 6.956l-6.028 28.393-2.948-.554 6.028-28.393 2.948.554zm57.568 53.504l-13.571 25.658-2.684-1.341 13.571-25.657 2.684 1.34zm7.359 13.938l-14.806 24.965-2.616-1.469 14.807-24.966 2.615 1.47zm15.096.352l-15.85 24.316-2.551-1.578 15.85-24.317 2.551 1.579z" fill="#C7D4D9"/><path d="M666.279 144.983c-3.134-.563-5.452-3.403-6.219-4.752l17.885-59.443 12.214 2.922-17.006 59.828c-.985.716-3.739 2.009-6.874 1.445z" fill="url(#paint56_linear)"/><path d="M655.845 153.541c-3.16-.39-5.628-3.097-6.467-4.402l14.631-60.344 12.354 2.243-13.733 60.68c-.945.77-3.625 2.213-6.785 1.823z" fill="url(#paint57_linear)"/><path fill-rule="evenodd" clip-rule="evenodd" d="M95.192 181.572c6.371 9.691 12.698 21.527 29.808 32.558 19.243 12.406 43.212 24.873 68.5 32 25.296 7.129 53.642 12.156 68.5 13v-12c-14.476-.823-45.379-4.921-70.5-12-25.129-7.082-43.743-14.907-62.5-27-16.376-10.558-24.122-19.116-30.458-28.745l-3.35 2.187zm19.705 48.968c-1.307 11.604 1.182 21.983 5.69 30.847 9.058 17.809 26.215 29.406 36.808 32.295 4.99 1.361 9.496 1.792 13.495 1.526-4.542-4.868-7.022-9.833-7.984-14.527-2.123-10.346 3.262-19.163 9.581-21.461 6.122-2.226 12.552-.245 17.111 3.644 4.551 3.881 7.496 9.885 6.378 16.034-1.416 7.788-7.991 15.488-18.598 18.278 5.105 4.203 12.599 7.227 22.122 10.953 22.617 8.85 45.972 7.7 68.5 3 22.513-4.697 41.787-13.482 51-18.5l8 5.5c-9.453 5.149-33.68 13.239-56.5 18-22.805 4.758-49.617 5.15-73-4-10.856-4.248-18.297-9.189-23.846-14.205-4.981.704-10.694.386-17.049-1.347-11.407-3.111-29.25-15.264-38.692-33.83-4.742-9.323-7.378-20.288-5.997-32.543l2.981.336zm59.736 64.195c10.81-2.05 17.141-9.5 18.391-16.374.882-4.85-1.424-9.847-5.372-13.215-3.942-3.362-9.261-4.88-14.139-3.107-4.681 1.703-9.546 8.886-7.669 18.04.93 4.53 3.547 9.602 8.789 14.656z" fill="#5BADDE"/><path d="M113 235.5l6.368-66.412a9.999 9.999 0 00-5.185-9.744l-35.952-19.506A10 10 0 0173 131.049v-20.3a10 10 0 00-4.969-8.642L0 62.5" stroke="#5BADDE" stroke-width="3"/><circle cx="462" cy="141" r="26" fill="url(#paint58_radial)"/><circle cx="665" cy="40" r="40" fill="url(#paint59_radial)"/><circle cx="694" cy="50" r="24" fill="url(#paint60_radial)"/><circle cx="75" cy="134" r="22" fill="url(#paint61_radial)"/><circle cx="758" cy="125" r="29" fill="url(#paint62_radial)"/><circle cx="736" cy="109" r="21" fill="url(#paint63_radial)"/><path fill-rule="evenodd" clip-rule="evenodd" d="M72.429 163.196a11.5 11.5 0 0115.343 2.728L99 180l-2 4-11.615-16.26a8.5 8.5 0 00-11.341-2.016l-20.441 13.06a8.5 8.5 0 00-2.921 11.168l11.265 21.087a11.5 11.5 0 01-2.868 14.325L-.05 273.662l-1.898-2.324 59.13-48.297a8.5 8.5 0 002.12-10.588l-11.265-21.087a11.5 11.5 0 013.952-15.11l20.44-13.06z" fill="#5BADDE"/><circle cx="26" cy="250" r="15" fill="url(#paint64_radial)"/><defs><radialGradient id="paint0_radial" cx="0" cy="0" r="1" gradientUnits="userSpaceOnUse" gradientTransform="matrix(100.314 0 0 166.132 502.022 348.784)"><stop stop-color="#9AD0EC"/><stop offset=".71" stop-color="#25A1DB"/><stop offset="1" stop-color="#1B6FB8"/></radialGradient><radialGradient id="paint1_radial" cx="0" cy="0" r="1" gradientUnits="userSpaceOnUse" gradientTransform="matrix(96.1666 0 0 155.206 502.118 348.116)"><stop stop-color="#90C3E4"/><stop offset=".71" stop-color="#2398D4"/><stop offset="1" stop-color="#1969B4"/></radialGradient><radialGradient id="paint2_radial" cx="0" cy="0" r="1" gradientUnits="userSpaceOnUse" gradientTransform="matrix(92.0195 0 0 144.63 502.214 347.405)"><stop stop-color="#86B7DD"/><stop offset=".71" stop-color="#218ECE"/><stop offset="1" stop-color="#1863B0"/></radialGradient><radialGradient id="paint3_radial" cx="0" cy="0" r="1" gradientUnits="userSpaceOnUse" gradientTransform="matrix(87.8789 0 0 134.414 502.328 346.723)"><stop stop-color="#7CABD5"/><stop offset=".71" stop-color="#1F85C8"/><stop offset="1" stop-color="#165EAC"/></radialGradient><radialGradient id="paint4_radial" cx="0" cy="0" r="1" gradientUnits="userSpaceOnUse" gradientTransform="matrix(82.8896 0 0 125.401 500.839 349.431)"><stop stop-color="#729ECE"/><stop offset=".71" stop-color="#1C7CC1"/><stop offset="1" stop-color="#1558A8"/></radialGradient><radialGradient id="paint5_radial" cx="0" cy="0" r="1" gradientUnits="userSpaceOnUse" gradientTransform="matrix(78.7835 0 0 115.832 500.951 348.762)"><stop stop-color="#6892C6"/><stop offset=".71" stop-color="#1A73BB"/><stop offset="1" stop-color="#1352A4"/></radialGradient><radialGradient id="paint6_radial" cx="0" cy="0" r="1" gradientUnits="userSpaceOnUse" gradientTransform="matrix(74.6577 0 0 106.584 501.049 348.052)"><stop stop-color="#5E86BF"/><stop offset=".71" stop-color="#186AB5"/><stop offset="1" stop-color="#124CA0"/></radialGradient><radialGradient id="paint7_radial" cx="0" cy="0" r="1" gradientUnits="userSpaceOnUse" gradientTransform="matrix(70.5385 0 0 97.6973 501.187 347.369)"><stop stop-color="#557AB8"/><stop offset=".71" stop-color="#1661AF"/><stop offset="1" stop-color="#11469C"/></radialGradient><radialGradient id="paint8_radial" cx="0" cy="0" r="1" gradientUnits="userSpaceOnUse" gradientTransform="matrix(66.4061 0 0 89.1441 501.285 346.672)"><stop stop-color="#4B6DB0"/><stop offset=".71" stop-color="#1457A8"/><stop offset="1" stop-color="#0F4098"/></radialGradient><radialGradient id="paint9_radial" cx="0" cy="0" r="1" gradientUnits="userSpaceOnUse" gradientTransform="matrix(62.2672 0 0 81.5979 501.377 349.418)"><stop stop-color="#4161A9"/><stop offset=".71" stop-color="#124EA2"/><stop offset="1" stop-color="#0E3A94"/></radialGradient><radialGradient id="paint10_radial" cx="0" cy="0" r="1" gradientUnits="userSpaceOnUse" gradientTransform="matrix(58.1283 0 0 73.6968 501.488 348.711)"><stop stop-color="#3755A1"/><stop offset=".71" stop-color="#10459C"/><stop offset="1" stop-color="#0C3490"/></radialGradient><radialGradient id="paint11_radial" cx="0" cy="0" r="1" gradientUnits="userSpaceOnUse" gradientTransform="matrix(53.9829 0 0 66.1404 501.587 348.032)"><stop stop-color="#2D489A"/><stop offset=".71" stop-color="#0E3C95"/><stop offset="1" stop-color="#0B2F8C"/></radialGradient><radialGradient id="paint12_radial" cx="0" cy="0" r="1" gradientUnits="userSpaceOnUse" gradientTransform="matrix(49.8374 0 0 58.9374 501.698 347.324)"><stop stop-color="#233C92"/><stop offset=".71" stop-color="#0B338F"/><stop offset="1" stop-color="#092988"/></radialGradient><radialGradient id="paint13_radial" cx="0" cy="0" r="1" gradientUnits="userSpaceOnUse" gradientTransform="matrix(45.6788 0 0 52.56 501.79 350.063)"><stop stop-color="#19308B"/><stop offset=".71" stop-color="#092989"/><stop offset="1" stop-color="#082384"/></radialGradient><radialGradient id="paint14_radial" cx="0" cy="0" r="1" gradientUnits="userSpaceOnUse" gradientTransform="matrix(41.5268 0 0 46.0124 501.895 349.358)"><stop stop-color="#0F2383"/><stop offset=".71" stop-color="#072082"/><stop offset="1" stop-color="#061D80"/></radialGradient><radialGradient id="paint24_radial" cx="0" cy="0" r="1" gradientUnits="userSpaceOnUse" gradientTransform="matrix(83.7897 0 0 129.927 382.733 316.843)"><stop stop-color="#9AD0EC"/><stop offset=".71" stop-color="#25A1DB"/><stop offset="1" stop-color="#1B6FB8"/></radialGradient><radialGradient id="paint25_radial" cx="0" cy="0" r="1" gradientUnits="userSpaceOnUse" gradientTransform="matrix(80.3256 0 0 121.382 382.813 316.321)"><stop stop-color="#90C3E4"/><stop offset=".71" stop-color="#2398D4"/><stop offset="1" stop-color="#1969B4"/></radialGradient><radialGradient id="paint26_radial" cx="0" cy="0" r="1" gradientUnits="userSpaceOnUse" gradientTransform="matrix(76.8616 0 0 113.111 382.893 315.765)"><stop stop-color="#86B7DD"/><stop offset=".71" stop-color="#218ECE"/><stop offset="1" stop-color="#1863B0"/></radialGradient><radialGradient id="paint27_radial" cx="0" cy="0" r="1" gradientUnits="userSpaceOnUse" gradientTransform="matrix(73.4031 0 0 105.122 382.989 315.232)"><stop stop-color="#7CABD5"/><stop offset=".71" stop-color="#1F85C8"/><stop offset="1" stop-color="#165EAC"/></radialGradient><radialGradient id="paint28_radial" cx="0" cy="0" r="1" gradientUnits="userSpaceOnUse" gradientTransform="matrix(69.2357 0 0 98.073 381.745 317.35)"><stop stop-color="#729ECE"/><stop offset=".71" stop-color="#1C7CC1"/><stop offset="1" stop-color="#1558A8"/></radialGradient><radialGradient id="paint29_radial" cx="0" cy="0" r="1" gradientUnits="userSpaceOnUse" gradientTransform="matrix(65.8059 0 0 90.589 381.838 316.826)"><stop stop-color="#6892C6"/><stop offset=".71" stop-color="#1A73BB"/><stop offset="1" stop-color="#1352A4"/></radialGradient><radialGradient id="paint30_radial" cx="0" cy="0" r="1" gradientUnits="userSpaceOnUse" gradientTransform="matrix(62.3598 0 0 83.3566 381.92 316.27)"><stop stop-color="#5E86BF"/><stop offset=".71" stop-color="#186AB5"/><stop offset="1" stop-color="#124CA0"/></radialGradient><radialGradient id="paint31_radial" cx="0" cy="0" r="1" gradientUnits="userSpaceOnUse" gradientTransform="matrix(58.9191 0 0 76.4065 382.035 315.736)"><stop stop-color="#557AB8"/><stop offset=".71" stop-color="#1661AF"/><stop offset="1" stop-color="#11469C"/></radialGradient><radialGradient id="paint32_radial" cx="0" cy="0" r="1" gradientUnits="userSpaceOnUse" gradientTransform="matrix(55.4674 0 0 69.7172 382.117 315.192)"><stop stop-color="#4B6DB0"/><stop offset=".71" stop-color="#1457A8"/><stop offset="1" stop-color="#0F4098"/></radialGradient><radialGradient id="paint33_radial" cx="0" cy="0" r="1" gradientUnits="userSpaceOnUse" gradientTransform="matrix(52.0103 0 0 63.8155 382.194 317.339)"><stop stop-color="#4161A9"/><stop offset=".71" stop-color="#124EA2"/><stop offset="1" stop-color="#0E3A94"/></radialGradient><radialGradient id="paint34_radial" cx="0" cy="0" r="1" gradientUnits="userSpaceOnUse" gradientTransform="matrix(48.5532 0 0 57.6363 382.287 316.786)"><stop stop-color="#3755A1"/><stop offset=".71" stop-color="#10459C"/><stop offset="1" stop-color="#0C3490"/></radialGradient><radialGradient id="paint35_radial" cx="0" cy="0" r="1" gradientUnits="userSpaceOnUse" gradientTransform="matrix(45.0906 0 0 51.7267 382.369 316.255)"><stop stop-color="#2D489A"/><stop offset=".71" stop-color="#0E3C95"/><stop offset="1" stop-color="#0B2F8C"/></radialGradient><radialGradient id="paint36_radial" cx="0" cy="0" r="1" gradientUnits="userSpaceOnUse" gradientTransform="matrix(41.628 0 0 46.0934 382.462 315.702)"><stop stop-color="#233C92"/><stop offset=".71" stop-color="#0B338F"/><stop offset="1" stop-color="#092988"/></radialGradient><radialGradient id="paint37_radial" cx="0" cy="0" r="1" gradientUnits="userSpaceOnUse" gradientTransform="matrix(38.1544 0 0 41.1058 382.539 317.844)"><stop stop-color="#19308B"/><stop offset=".71" stop-color="#092989"/><stop offset="1" stop-color="#082384"/></radialGradient><radialGradient id="paint38_radial" cx="0" cy="0" r="1" gradientUnits="userSpaceOnUse" gradientTransform="matrix(34.6863 0 0 35.9851 382.627 317.292)"><stop stop-color="#0F2383"/><stop offset=".71" stop-color="#072082"/><stop offset="1" stop-color="#061D80"/></radialGradient><radialGradient id="paint39_radial" cx="0" cy="0" r="1" gradientUnits="userSpaceOnUse" gradientTransform="matrix(-173.0873 117.41815 -181.05791 -266.89932 443.665 138.05)"><stop stop-color="#74C0F2"/><stop offset="1" stop-color="#1D6EBA"/></radialGradient><radialGradient id="paint41_radial" cx="0" cy="0" r="1" gradientUnits="userSpaceOnUse" gradientTransform="matrix(-1.2314 8.16073 -8.17995 -1.2343 356.851 264.671)"><stop stop-color="#fff" stop-opacity=".87"/><stop offset="1" stop-opacity="0"/></radialGradient><radialGradient id="paint42_radial" cx="0" cy="0" r="1" gradientUnits="userSpaceOnUse" gradientTransform="matrix(249.845 0 0 249.231 14261.1 3643.38)"><stop stop-color="#fff" stop-opacity=".87"/><stop offset="1" stop-opacity="0"/></radialGradient><radialGradient id="paint43_radial" cx="0" cy="0" r="1" gradientUnits="userSpaceOnUse" gradientTransform="matrix(249.844 0 0 249.219 11760.7 -1815.74)"><stop stop-color="#fff" stop-opacity=".87"/><stop offset="1" stop-opacity="0"/></radialGradient><radialGradient id="paint44_radial" cx="0" cy="0" r="1" gradientUnits="userSpaceOnUse" gradientTransform="matrix(210.796 0 0 210.288 5996.71 489.092)"><stop stop-color="#fff" stop-opacity=".87"/><stop offset="1" stop-opacity="0"/></radialGradient><radialGradient id="paint45_radial" cx="0" cy="0" r="1" gradientUnits="userSpaceOnUse" gradientTransform="matrix(249.845 0 0 249.219 11725.1 2435.57)"><stop stop-color="#fff" stop-opacity=".87"/><stop offset="1" stop-opacity="0"/></radialGradient><radialGradient id="paint46_radial" cx="0" cy="0" r="1" gradientUnits="userSpaceOnUse" gradientTransform="matrix(249.844 0 0 249.242 12509 -3001.53)"><stop stop-color="#fff" stop-opacity=".87"/><stop offset="1" stop-opacity="0"/></radialGradient><radialGradient id="paint47_radial" cx="0" cy="0" r="1" gradientUnits="userSpaceOnUse" gradientTransform="matrix(103.526 0 0 103.264 6332.11 1058.97)"><stop stop-color="#fff" stop-opacity=".87"/><stop offset="1" stop-opacity="0"/></radialGradient><radialGradient id="paint48_radial" cx="0" cy="0" r="1" gradientUnits="userSpaceOnUse" gradientTransform="matrix(103.526 0 0 103.271 7874.75 2157.6)"><stop stop-color="#fff" stop-opacity=".87"/><stop offset="1" stop-opacity="0"/></radialGradient><radialGradient id="paint49_radial" cx="0" cy="0" r="1" gradientUnits="userSpaceOnUse" gradientTransform="matrix(103.526 0 0 103.271 10062.4 1245.78)"><stop stop-color="#fff" stop-opacity=".87"/><stop offset="1" stop-opacity="0"/></radialGradient><radialGradient id="paint50_radial" cx="0" cy="0" r="1" gradientUnits="userSpaceOnUse" gradientTransform="matrix(249.844 0 0 249.242 14129.7 -1617.64)"><stop stop-color="#fff" stop-opacity=".87"/><stop offset="1" stop-opacity="0"/></radialGradient><radialGradient id="paint58_radial" cx="0" cy="0" r="1" gradientUnits="userSpaceOnUse" gradientTransform="matrix(0 26 -26 0 462 141)"><stop stop-color="#fff"/><stop offset=".38" stop-color="#DFF0FA"/><stop offset="1" stop-color="#47DDFA" stop-opacity="0"/></radialGradient><radialGradient id="paint59_radial" cx="0" cy="0" r="1" gradientUnits="userSpaceOnUse" gradientTransform="matrix(0 40 -40 0 665 40)"><stop stop-color="#fff"/><stop offset=".38" stop-color="#85D2FF"/><stop offset="1" stop-color="#fff" stop-opacity="0"/></radialGradient><radialGradient id="paint60_radial" cx="0" cy="0" r="1" gradientUnits="userSpaceOnUse" gradientTransform="matrix(0 24 -24 0 694 50)"><stop stop-color="#fff"/><stop offset=".38" stop-color="#85D2FF"/><stop offset="1" stop-color="#fff" stop-opacity="0"/></radialGradient><radialGradient id="paint61_radial" cx="0" cy="0" r="1" gradientUnits="userSpaceOnUse" gradientTransform="matrix(0 22 -22 0 75 134)"><stop stop-color="#fff"/><stop offset=".38" stop-color="#85D2FF"/><stop offset="1" stop-color="#fff" stop-opacity="0"/></radialGradient><radialGradient id="paint62_radial" cx="0" cy="0" r="1" gradientUnits="userSpaceOnUse" gradientTransform="matrix(0 29 -29 0 758 125)"><stop stop-color="#fff"/><stop offset=".38" stop-color="#85D2FF"/><stop offset="1" stop-color="#fff" stop-opacity="0"/></radialGradient><radialGradient id="paint63_radial" cx="0" cy="0" r="1" gradientUnits="userSpaceOnUse" gradientTransform="matrix(0 21 -21 0 736 109)"><stop stop-color="#fff"/><stop offset=".38" stop-color="#85D2FF"/><stop offset="1" stop-color="#fff" stop-opacity="0"/></radialGradient><radialGradient id="paint64_radial" cx="0" cy="0" r="1" gradientUnits="userSpaceOnUse" gradientTransform="matrix(0 15 -15 0 26 250)"><stop stop-color="#B0F1FF"/><stop offset=".38" stop-color="#20ACFF"/><stop offset="1" stop-color="#fff" stop-opacity="0"/></radialGradient><linearGradient id="paint15_linear" x1="660.032" y1="305.511" x2="322.794" y2="177.636" gradientUnits="userSpaceOnUse"><stop offset=".018" stop-color="#1670A6"/><stop offset=".119" stop-color="#5BADDE"/><stop offset=".656" stop-color="#5BADDE"/><stop offset=".964" stop-color="#5BADDE"/><stop offset="1" stop-color="#1670A6"/></linearGradient><linearGradient id="paint16_linear" x1="660.032" y1="305.511" x2="322.794" y2="177.636" gradientUnits="userSpaceOnUse"><stop offset=".018" stop-color="#1670A6"/><stop offset=".119" stop-color="#5BADDE"/><stop offset=".656" stop-color="#5BADDE"/><stop offset=".964" stop-color="#5BADDE"/><stop offset="1" stop-color="#1670A6"/></linearGradient><linearGradient id="paint17_linear" x1="661.225" y1="205.646" x2="701.853" y2="234.275" gradientUnits="userSpaceOnUse"><stop stop-color="#CCC"/><stop offset=".129" stop-color="#EBEBEB"/><stop offset=".349" stop-color="#797A7E"/><stop offset=".527" stop-color="#EBEBEB"/><stop offset=".677" stop-color="#7A7C80"/><stop offset=".777" stop-color="#949596"/><stop offset=".902" stop-color="#E5E5E5"/><stop offset="1" stop-color="#A7A7A7"/></linearGradient><linearGradient id="paint18_linear" x1="695.819" y1="180.009" x2="695.819" y2="217.426" gradientUnits="userSpaceOnUse"><stop stop-color="#707070"/><stop offset="1" stop-color="#B6B6B6"/></linearGradient><linearGradient id="paint19_linear" x1="697.423" y1="167.873" x2="708.801" y2="174.308" gradientUnits="userSpaceOnUse"><stop stop-color="#3270FB"/><stop offset=".248" stop-color="#6294F1"/><stop offset=".457" stop-color="#00479D"/><stop offset=".697" stop-color="#6294F1"/><stop offset="1" stop-color="#3270FB"/></linearGradient><linearGradient id="paint20_linear" x1="714.682" y1="178.318" x2="725.361" y2="185.858" gradientUnits="userSpaceOnUse"><stop stop-color="#FB3232"/><stop offset=".248" stop-color="#F16262"/><stop offset=".457" stop-color="#9D0000"/><stop offset=".697" stop-color="#F16262"/><stop offset="1" stop-color="#FB3232"/></linearGradient><linearGradient id="paint21_linear" x1="701.824" y1="179.28" x2="712.747" y2="186.462" gradientUnits="userSpaceOnUse"><stop stop-color="#32A416"/><stop offset=".248" stop-color="#26DC38"/><stop offset=".457" stop-color="#009D06"/><stop offset=".697" stop-color="#2CDD33"/><stop offset="1" stop-color="#17AE26"/></linearGradient><linearGradient id="paint22_linear" x1="657.5" y1="253.63" x2="297" y2="242.63" gradientUnits="userSpaceOnUse"><stop offset=".018" stop-color="#1670A6"/><stop offset=".119" stop-color="#5BADDE"/><stop offset=".656" stop-color="#5BADDE"/><stop offset=".964" stop-color="#5BADDE"/><stop offset="1" stop-color="#1670A6"/></linearGradient><linearGradient id="paint23_linear" x1="657.5" y1="253.63" x2="297" y2="242.63" gradientUnits="userSpaceOnUse"><stop offset=".018" stop-color="#1670A6"/><stop offset=".119" stop-color="#5BADDE"/><stop offset=".656" stop-color="#5BADDE"/><stop offset=".964" stop-color="#5BADDE"/><stop offset="1" stop-color="#1670A6"/></linearGradient><linearGradient id="paint40_linear" x1="381.679" y1="77.236" x2="381.679" y2="268.249" gradientUnits="userSpaceOnUse"><stop stop-color="#BFDFF0"/><stop offset="1" stop-color="#7AB7E2"/></linearGradient><linearGradient id="paint51_linear" x1="503.5" y1="112.13" x2="255" y2="254.13" gradientUnits="userSpaceOnUse"><stop stop-color="#81CDFB"/><stop offset=".031" stop-color="#1F78AD"/><stop offset=".115" stop-color="#81CDFB"/><stop offset=".464" stop-color="#1F78AD"/><stop offset=".75" stop-color="#5BADDE"/><stop offset="1" stop-color="#5BADDE"/><stop offset="1" stop-color="#5BADDE"/></linearGradient><linearGradient id="paint52_linear" x1="271.5" y1="237.13" x2="470" y2="68.63" gradientUnits="userSpaceOnUse"><stop stop-color="#54A6D7"/><stop offset=".323" stop-color="#81CDFB"/><stop offset=".875" stop-color="#1A73A9"/><stop offset="1" stop-color="#81CDFB"/></linearGradient><linearGradient id="paint53_linear" x1="626.085" y1="158.827" x2="673.825" y2="172.654" gradientUnits="userSpaceOnUse"><stop stop-color="#CCC"/><stop offset=".129" stop-color="#EBEBEB"/><stop offset=".349" stop-color="#797A7E"/><stop offset=".527" stop-color="#EBEBEB"/><stop offset=".677" stop-color="#7A7C80"/><stop offset=".777" stop-color="#949596"/><stop offset=".902" stop-color="#E5E5E5"/><stop offset="1" stop-color="#A7A7A7"/></linearGradient><linearGradient id="paint54_linear" x1="656.533" y1="122.296" x2="656.533" y2="159.713" gradientUnits="userSpaceOnUse"><stop stop-color="#707070"/><stop offset="1" stop-color="#B6B6B6"/></linearGradient><linearGradient id="paint55_linear" x1="645.427" y1="111.349" x2="658.346" y2="113.661" gradientUnits="userSpaceOnUse"><stop stop-color="#3270FB"/><stop offset=".248" stop-color="#6294F1"/><stop offset=".457" stop-color="#00479D"/><stop offset=".697" stop-color="#6294F1"/><stop offset="1" stop-color="#3270FB"/></linearGradient><linearGradient id="paint56_linear" x1="668.215" y1="112.799" x2="680.784" y2="116.434" gradientUnits="userSpaceOnUse"><stop stop-color="#FB3232"/><stop offset=".248" stop-color="#F16262"/><stop offset=".457" stop-color="#9D0000"/><stop offset=".697" stop-color="#F16262"/><stop offset="1" stop-color="#FB3232"/></linearGradient><linearGradient id="paint57_linear" x1="656.031" y1="121.296" x2="668.776" y2="124.242" gradientUnits="userSpaceOnUse"><stop stop-color="#289816"/><stop offset=".248" stop-color="#45D22E"/><stop offset=".457" stop-color="#039D00"/><stop offset=".697" stop-color="#36D133"/><stop offset="1" stop-color="#058703"/></linearGradient><filter id="filter0_f" x="327.796" y="271.329" width="169.027" height="97.222" filterUnits="userSpaceOnUse" color-interpolation-filters="sRGB"><feFlood flood-opacity="0" result="BackgroundImageFix"/><feBlend in="SourceGraphic" in2="BackgroundImageFix" result="shape"/><feGaussianBlur stdDeviation="5" result="effect1_foregroundBlur"/></filter><filter id="filter1_f" x="316.846" y="240.797" width="122.72" height="117.155" filterUnits="userSpaceOnUse" color-interpolation-filters="sRGB"><feFlood flood-opacity="0" result="BackgroundImageFix"/><feBlend in="SourceGraphic" in2="BackgroundImageFix" result="shape"/><feGaussianBlur stdDeviation="5" result="effect1_foregroundBlur"/></filter><filter id="filter2_f" x="289.678" y="182.679" width="63.703" height="92.813" filterUnits="userSpaceOnUse" color-interpolation-filters="sRGB"><feFlood flood-opacity="0" result="BackgroundImageFix"/><feBlend in="SourceGraphic" in2="BackgroundImageFix" result="shape"/><feGaussianBlur stdDeviation="5" result="effect1_foregroundBlur"/></filter><filter id="filter3_f" x="458.297" y="231.57" width="229.727" height="131.131" filterUnits="userSpaceOnUse" color-interpolation-filters="sRGB"><feFlood flood-opacity="0" result="BackgroundImageFix"/><feBlend in="SourceGraphic" in2="BackgroundImageFix" result="shape"/><feGaussianBlur stdDeviation="5" result="effect1_foregroundBlur"/></filter><filter id="filter4_f" x="423.206" y="282.312" width="234.444" height="83.618" filterUnits="userSpaceOnUse" color-interpolation-filters="sRGB"><feFlood flood-opacity="0" result="BackgroundImageFix"/><feBlend in="SourceGraphic" in2="BackgroundImageFix" result="shape"/><feGaussianBlur stdDeviation="5" result="effect1_foregroundBlur"/></filter><filter id="filter5_f" x="316.442" y="185.024" width="186.947" height="149.331" filterUnits="userSpaceOnUse" color-interpolation-filters="sRGB"><feFlood flood-opacity="0" result="BackgroundImageFix"/><feBlend in="SourceGraphic" in2="BackgroundImageFix" result="shape"/><feGaussianBlur stdDeviation="5" result="effect1_foregroundBlur"/></filter><filter id="filter6_f" x="335.094" y="324.992" width="185.815" height="46.008" filterUnits="userSpaceOnUse" color-interpolation-filters="sRGB"><feFlood flood-opacity="0" result="BackgroundImageFix"/><feBlend in="SourceGraphic" in2="BackgroundImageFix" result="shape"/><feGaussianBlur stdDeviation="5" result="effect1_foregroundBlur"/></filter><filter id="filter7_f" x="314.819" y="300.155" width="148.477" height="79.023" filterUnits="userSpaceOnUse" color-interpolation-filters="sRGB"><feFlood flood-opacity="0" result="BackgroundImageFix"/><feBlend in="SourceGraphic" in2="BackgroundImageFix" result="shape"/><feGaussianBlur stdDeviation="5" result="effect1_foregroundBlur"/></filter><filter id="filter8_f" x="270.379" y="253.994" width="84.383" height="75.379" filterUnits="userSpaceOnUse" color-interpolation-filters="sRGB"><feFlood flood-opacity="0" result="BackgroundImageFix"/><feBlend in="SourceGraphic" in2="BackgroundImageFix" result="shape"/><feGaussianBlur stdDeviation="5" result="effect1_foregroundBlur"/></filter><filter id="filter9_f" x="479" y="181.656" width="187.587" height="183.34" filterUnits="userSpaceOnUse" color-interpolation-filters="sRGB"><feFlood flood-opacity="0" result="BackgroundImageFix"/><feBlend in="SourceGraphic" in2="BackgroundImageFix" result="shape"/><feGaussianBlur stdDeviation="5" result="effect1_foregroundBlur"/></filter><filter id="filter10_f" x="442.553" y="235.381" width="209.364" height="130.256" filterUnits="userSpaceOnUse" color-interpolation-filters="sRGB"><feFlood flood-opacity="0" result="BackgroundImageFix"/><feBlend in="SourceGraphic" in2="BackgroundImageFix" result="shape"/><feGaussianBlur stdDeviation="5" result="effect1_foregroundBlur"/></filter><filter id="filter11_f" x="297.824" y="246.967" width="218.205" height="96.016" filterUnits="userSpaceOnUse" color-interpolation-filters="sRGB"><feFlood flood-opacity="0" result="BackgroundImageFix"/><feBlend in="SourceGraphic" in2="BackgroundImageFix" result="shape"/><feGaussianBlur stdDeviation="5" result="effect1_foregroundBlur"/></filter></defs></svg>