<svg width="48" height="48" fill="none" xmlns="http://www.w3.org/2000/svg"><path d="M19.62 16.49l-2.409 14.99h3.85l2.408-14.99H19.62zm11.615 6.106c-1.346-.665-2.17-1.113-2.17-1.793.016-.617.697-1.25 2.218-1.25a6.7 6.7 0 012.868.555l.35.155.523-3.136a9.719 9.719 0 00-3.456-.618c-3.803 0-6.48 1.977-6.497 4.805-.031 2.086 1.917 3.244 3.375 3.939 1.49.712 1.997 1.174 1.997 1.807-.017.972-1.205 1.42-2.313 1.42-1.536 0-2.361-.23-3.614-.772l-.507-.23-.538 3.259c.904.402 2.568.756 4.294.774 4.041 0 6.67-1.947 6.704-4.96.013-1.654-1.014-2.92-3.234-3.955zm13.66-6.06h-2.979c-.918 0-1.615.264-2.013 1.206l-5.72 13.739h4.041l1.113-2.975h4.521l.578 2.987H48l-3.105-14.957zm-4.437 8.968c.078.008 1.551-4.855 1.551-4.855l1.173 4.855h-2.724zM13.994 16.49L10.22 26.675l-.41-2.009c-.698-2.318-2.885-4.836-5.326-6.087L7.94 31.466h4.074l6.054-14.975h-4.074v-.002z" fill="#40AAE6"/><path d="M8.541 18.422c-.294-1.143-1.232-1.914-2.505-1.93H.062L0 16.769c4.66 1.15 8.572 4.684 9.842 8.01L8.54 18.422z" fill="#EFC75E"/></svg>